<svg width="1222" height="1360" xmlns="http://www.w3.org/2000/svg" xmlns:xlink="http://www.w3.org/1999/xlink" overflow="hidden"><defs><clipPath id="clip0"><rect x="1940" y="449" width="1222" height="1360"/></clipPath></defs><g clip-path="url(#clip0)" transform="translate(-1940 -449)"><rect x="1940" y="458" width="1222" height="1351" fill="#03234B" fill-opacity="0.501961"/><text fill="#FFFFFF" font-family="Arial,Arial_MSFontService,sans-serif" font-weight="400" font-size="83" transform="matrix(1 0 0 1 2399.58 554)">GPDMA</text><rect x="2044" y="614" width="1040" height="260" fill="#03234B"/><text fill="#FFFFFF" font-family="Arial,Arial_MSFontService,sans-serif" font-weight="400" font-size="83" transform="matrix(1 0 0 1 2375.9 774)">Channel 0</text><rect x="2044" y="900" width="1040" height="130" fill="#03234B"/><text fill="#FFFFFF" font-family="Arial,Arial_MSFontService,sans-serif" font-weight="400" font-size="83" transform="matrix(1 0 0 1 2522.57 995)">…</text><rect x="2044" y="1497" width="1040" height="260" fill="#03234B"/><text fill="#FFFFFF" font-family="Arial,Arial_MSFontService,sans-serif" font-weight="400" font-size="83" transform="matrix(1 0 0 1 2265.9 1658)">Channel <tspan font-size="83" x="330" y="0">15 / 2D</tspan></text><rect x="2044" y="1056" width="1040" height="259" fill="#03234B"/><text fill="#FFFFFF" font-family="Arial,Arial_MSFontService,sans-serif" font-weight="400" font-size="83" transform="matrix(1 0 0 1 2265.9 1216)">Channel <tspan font-size="83" x="330" y="0">12 / 2D</tspan></text><rect x="2044" y="1341" width="1040" height="130" fill="#03234B"/><text fill="#FFFFFF" font-family="Arial,Arial_MSFontService,sans-serif" font-weight="400" font-size="83" transform="matrix(1 0 0 1 2522.57 1437)">…</text></g></svg>