<svg width="3433" height="1698" xmlns="http://www.w3.org/2000/svg" xmlns:xlink="http://www.w3.org/1999/xlink" overflow="hidden"><defs><clipPath id="clip0"><rect x="537" y="449" width="3433" height="1698"/></clipPath></defs><g clip-path="url(#clip0)" transform="translate(-537 -449)"><rect x="537" y="458" width="1221" height="1689" fill="#03234B" fill-opacity="0.501961"/><text fill="#FFFFFF" font-family="Arial,Arial_MSFontService,sans-serif" font-weight="400" font-size="83" transform="matrix(1 0 0 1 810.634 554)">GPDMA channel x</text><path d="M1758 1233.99 2332.79 1233.99 2332.79 1242.01 1758 1242.01ZM2328.2 1224.25 2355.7 1238 2328.2 1251.75Z" fill="#E6007E"/><text fill="#E6007E" font-family="Arial,Arial_MSFontService,sans-serif" font-weight="400" font-size="83" transform="matrix(1 0 0 1 1791.22 684)">Trigger overrun flag</text><path d="M1758 1492.99 2332.79 1492.99 2332.79 1501.01 1758 1501.01ZM2328.2 1483.25 2355.7 1497 2328.2 1510.75Z" fill="#FFD200"/><text fill="#FFD200" font-family="Arial,Arial_MSFontService,sans-serif" font-weight="400" font-size="83" transform="matrix(1 0 0 1 1791.22 1464)">Completed suspend flag</text><path d="M1758 843.99 2332.79 843.99 2332.79 852.011 1758 852.01ZM2328.2 834.25 2355.7 848 2328.2 861.75Z" fill="#E6007E"/><text fill="#E6007E" font-family="Arial,Arial_MSFontService,sans-serif" font-weight="400" font-size="83" transform="matrix(1 0 0 1 1791.22 814)">User setting error flag</text><path d="M1758 973.99 2332.79 973.99 2332.79 982.011 1758 982.01ZM2328.2 964.25 2355.7 978 2328.2 991.75Z" fill="#E6007E"/><text fill="#E6007E" font-family="Arial,Arial_MSFontService,sans-serif" font-weight="400" font-size="83" transform="matrix(1 0 0 1 1791.22 944)">Update link transfer error flag</text><path d="M1758 1099.99 2332.79 1099.99 2332.79 1108.01 1758 1108.01ZM2328.2 1090.25 2355.7 1104 2328.2 1117.75Z" fill="#E6007E"/><text fill="#E6007E" font-family="Arial,Arial_MSFontService,sans-serif" font-weight="400" font-size="83" transform="matrix(1 0 0 1 1791.22 1071)">Data transfer error flag</text><path d="M1758 713.99 2332.79 713.99 2332.79 722.011 1758 722.011ZM2328.2 704.25 2355.7 718 2328.2 731.75Z" fill="#E6007E"/><text fill="#E6007E" font-family="Arial,Arial_MSFontService,sans-serif" font-weight="400" font-size="83" transform="matrix(1 0 0 1 1791.22 1201)">User setting error flag</text><path d="M1758 1879.99 2332.79 1879.99 2332.79 1888.01 1758 1888.01ZM2328.2 1870.25 2355.7 1884 2328.2 1897.75Z" fill="#49B170"/><text fill="#49B170" font-family="Arial,Arial_MSFontService,sans-serif" font-weight="400" font-size="83" transform="matrix(1 0 0 1 1791.22 1850)">Half transfer flag</text><path d="M1758 2009.99 2332.79 2009.99 2332.79 2018.01 1758 2018.01ZM2328.2 2000.25 2355.7 2014 2328.2 2027.75Z" fill="#49B170"/><text fill="#49B170" font-family="Arial,Arial_MSFontService,sans-serif" font-weight="400" font-size="83" transform="matrix(1 0 0 1 1791.22 1980)">Transfer complete flag</text><path d="M1758 1622.99 2332.79 1622.99 2332.79 1631.01 1758 1631.01ZM2328.2 1613.25 2355.7 1627 2328.2 1640.75Z" fill="#FFD200"/><text fill="#FFD200" font-family="Arial,Arial_MSFontService,sans-serif" font-weight="400" font-size="83" transform="matrix(1 0 0 1 1791.22 1594)">Idle flag</text><path d="M2876.5 1458.5C2876.5 1436.96 2893.96 1419.5 2915.5 1419.5L3036.67 1419.5 3036.67 1419.5 3276.92 1419.5 3798.5 1419.5C3820.04 1419.5 3837.5 1436.96 3837.5 1458.5L3837.5 1556 3837.5 1556 3837.5 1614.5 3837.5 1614.5C3837.5 1636.04 3820.04 1653.5 3798.5 1653.5L3276.92 1653.5 3036.67 1653.5 3036.67 1653.5 2915.5 1653.5C2893.96 1653.5 2876.5 1636.04 2876.5 1614.5L2876.5 1614.5 2632.08 1565.69 2876.5 1556Z" stroke="#BC9A00" stroke-width="4.58333" stroke-miterlimit="8" fill="#FFD200" fill-rule="evenodd"/><text fill="#FFFFFF" font-family="Arial,Arial_MSFontService,sans-serif" font-weight="400" font-size="83" transform="matrix(1 0 0 1 2973.71 1567)">DMA is not operating</text><path d="M3006.5 913.501C3006.5 891.961 3023.96 874.5 3045.5 874.5L3166.67 874.5 3166.67 874.5 3406.92 874.5 3928.5 874.5C3950.04 874.5 3967.5 891.961 3967.5 913.501L3967.5 1011 3967.5 1011 3967.5 1069.5 3967.5 1069.5C3967.5 1091.04 3950.04 1108.5 3928.5 1108.5L3406.92 1108.5 3166.67 1108.5 3166.67 1108.5 3045.5 1108.5C3023.96 1108.5 3006.5 1091.04 3006.5 1069.5L3006.5 1069.5 2762.08 1020.69 3006.5 1011Z" stroke="#A9005B" stroke-width="4.58333" stroke-miterlimit="8" fill="#E6007E" fill-rule="evenodd"/><text fill="#FFFFFF" font-family="Arial,Arial_MSFontService,sans-serif" font-weight="400" font-size="83" transform="matrix(1 0 0 1 3170.11 972)">Useful error state <tspan font-size="83" x="-116.875" y="99">indicators where to look</tspan></text></g></svg>