<svg width="3820" height="1309" xmlns="http://www.w3.org/2000/svg" xmlns:xlink="http://www.w3.org/1999/xlink" overflow="hidden"><defs><clipPath id="clip0"><rect x="459" y="448" width="3820" height="1309"/></clipPath></defs><g clip-path="url(#clip0)" transform="translate(-459 -448)"><rect x="589" y="926" width="623" height="831" fill="#03234B" fill-opacity="0.501961"/><text fill="#FFFFFF" font-family="Arial,Arial_MSFontService,sans-serif" font-weight="400" font-size="83" transform="matrix(1 0 0 1 770.018 1022)">Source <tspan font-size="83" x="-18.3333" y="99">memory</tspan></text><rect x="641.5" y="1186.5" width="130" height="129" stroke="#2983A9" stroke-width="4.58333" stroke-miterlimit="8" fill="#3CB4E6"/><text fill="#FFFFFF" font-family="Arial,Arial_MSFontService,sans-serif" font-weight="400" font-size="83" transform="matrix(1 0 0 1 682.823 1281)">1 </text><rect x="2876" y="926" width="623" height="831" fill="#03234B" fill-opacity="0.501961"/><text fill="#FFFFFF" font-family="Arial,Arial_MSFontService,sans-serif" font-weight="400" font-size="83" transform="matrix(1 0 0 1 2981.26 1022)">Destination <tspan font-size="83" x="57.2915" y="99">memory</tspan></text><rect x="1420" y="926" width="1300" height="779" fill="#03234B" fill-opacity="0.501961"/><text fill="#FFFFFF" font-family="Arial,Arial_MSFontService,sans-serif" font-weight="400" font-size="83" transform="matrix(1 0 0 1 1866.09 1022)">GPDMA <tspan font-size="83" x="320.856" y="0">ch</tspan></text><rect x="771" y="1186" width="130" height="129" fill="#3CB4E6" fill-opacity="0.501961"/><text fill="#FFFFFF" font-family="Arial,Arial_MSFontService,sans-serif" font-weight="400" font-size="83" transform="matrix(1 0 0 1 812.758 1281)">2</text><rect x="901" y="1186" width="130" height="129" fill="#3CB4E6" fill-opacity="0.501961"/><text fill="#FFFFFF" font-family="Arial,Arial_MSFontService,sans-serif" font-weight="400" font-size="83" transform="matrix(1 0 0 1 942.694 1281)">3</text><rect x="1031" y="1186" width="130" height="129" fill="#3CB4E6" fill-opacity="0.501961"/><text fill="#FFFFFF" font-family="Arial,Arial_MSFontService,sans-serif" font-weight="400" font-size="83" transform="matrix(1 0 0 1 1072.63 1281)">4 </text><rect x="1446.5" y="1186.5" width="130" height="129" stroke="#2983A9" stroke-width="4.58333" stroke-miterlimit="8" fill="#3CB4E6"/><text fill="#FFFFFF" font-family="Arial,Arial_MSFontService,sans-serif" font-weight="400" font-size="83" transform="matrix(1 0 0 1 1483.84 1281)">B</text><rect x="2564.5" y="1186.5" width="130" height="129" stroke="#2983A9" stroke-width="4.58333" stroke-miterlimit="8" fill="#3CB4E6"/><text fill="#FFFFFF" font-family="Arial,Arial_MSFontService,sans-serif" font-weight="400" font-size="83" transform="matrix(1 0 0 1 2599 1281)">H </text><path d="M1161 1243.12 1412.48 1243.13 1412.48 1256.88 1161 1256.87ZM1405.61 1229.38 1446.86 1250 1405.61 1270.63Z" fill="#E6007E"/><rect x="1940.5" y="1186.5" width="130" height="129" stroke="#2983A9" stroke-width="4.58333" stroke-miterlimit="8" fill="#3CB4E6"/><text fill="#FFFFFF" font-family="Arial,Arial_MSFontService,sans-serif" font-weight="400" font-size="83" transform="matrix(1 0 0 1 1982.18 1281)">1 </text><path d="M2200 1243.12 2529.45 1243.13 2529.45 1256.88 2200 1256.87ZM2522.57 1229.38 2563.82 1250 2522.57 1270.63Z" fill="#E6007E"/><path d="M1576 1243.12 1905.45 1243.13 1905.45 1256.88 1576 1256.87ZM1898.57 1229.38 1939.82 1250 1898.57 1270.63Z" fill="#E6007E"/><path d="M2694 1243.12 2919.5 1243.13 2919.5 1256.88 2694 1256.87ZM2912.62 1229.38 2953.87 1250 2912.62 1270.63Z" fill="#E6007E"/><rect x="2954.5" y="1186.5" width="130" height="129" stroke="#2983A9" stroke-width="4.58333" stroke-miterlimit="8" fill="#3CB4E6"/><text fill="#FFFFFF" font-family="Arial,Arial_MSFontService,sans-serif" font-weight="400" font-size="83" transform="matrix(1 0 0 1 2995.68 1281)">1 </text><rect x="2070.5" y="1186.5" width="130" height="129" stroke="#A9005B" stroke-width="4.58333" stroke-miterlimit="8" fill="#E6007E"/><text fill="#FFFFFF" font-family="Arial,Arial_MSFontService,sans-serif" font-weight="400" font-size="83" transform="matrix(1 0 0 1 2112.12 1281)">0 </text><rect x="3084.5" y="1186.5" width="129" height="129" stroke="#A9005B" stroke-width="4.58333" stroke-miterlimit="8" fill="#E6007E"/><text fill="#FFFFFF" font-family="Arial,Arial_MSFontService,sans-serif" font-weight="400" font-size="83" transform="matrix(1 0 0 1 3125.61 1281)">0 </text><rect x="459" y="1341" width="3820" height="286" fill="#49B170" fill-opacity="0.501961"/><text fill="#03234B" font-family="Arial,Arial_MSFontService,sans-serif" font-weight="400" font-size="83" transform="matrix(1 0 0 1 3532.36 1464)">Byte exchange <tspan font-size="83" x="0" y="99">right aligned</tspan></text><rect x="641.5" y="1419.5" width="130" height="130" stroke="#2983A9" stroke-width="4.58333" stroke-miterlimit="8" fill="#3CB4E6"/><text fill="#FFFFFF" font-family="Arial,Arial_MSFontService,sans-serif" font-weight="400" font-size="83" transform="matrix(1 0 0 1 682.823 1515)">1 </text><rect x="771" y="1419" width="130" height="130" fill="#3CB4E6" fill-opacity="0.501961"/><text fill="#FFFFFF" font-family="Arial,Arial_MSFontService,sans-serif" font-weight="400" font-size="83" transform="matrix(1 0 0 1 812.758 1515)">2</text><rect x="901" y="1419" width="130" height="130" fill="#3CB4E6" fill-opacity="0.501961"/><text fill="#FFFFFF" font-family="Arial,Arial_MSFontService,sans-serif" font-weight="400" font-size="83" transform="matrix(1 0 0 1 942.694 1515)">3</text><rect x="1031" y="1419" width="130" height="130" fill="#3CB4E6" fill-opacity="0.501961"/><text fill="#FFFFFF" font-family="Arial,Arial_MSFontService,sans-serif" font-weight="400" font-size="83" transform="matrix(1 0 0 1 1072.63 1515)">4 </text><rect x="1446.5" y="1419.5" width="130" height="130" stroke="#2983A9" stroke-width="4.58333" stroke-miterlimit="8" fill="#3CB4E6"/><text fill="#FFFFFF" font-family="Arial,Arial_MSFontService,sans-serif" font-weight="400" font-size="83" transform="matrix(1 0 0 1 1483.84 1515)">B</text><rect x="2564.5" y="1419.5" width="130" height="130" stroke="#2983A9" stroke-width="4.58333" stroke-miterlimit="8" fill="#3CB4E6"/><text fill="#FFFFFF" font-family="Arial,Arial_MSFontService,sans-serif" font-weight="400" font-size="83" transform="matrix(1 0 0 1 2599 1515)">H </text><path d="M1161 1477.12 1412.48 1477.13 1412.48 1490.88 1161 1490.88ZM1405.61 1463.38 1446.86 1484 1405.61 1504.63Z" fill="#E6007E"/><path d="M2408 1477.12 2529.55 1477.13 2529.55 1490.88 2408 1490.88ZM2522.67 1463.38 2563.92 1484 2522.67 1504.63Z" fill="#E6007E"/><rect x="1758.5" y="1419.5" width="130" height="130" stroke="#2983A9" stroke-width="4.58333" stroke-miterlimit="8" fill="#3CB4E6"/><text fill="#FFFFFF" font-family="Arial,Arial_MSFontService,sans-serif" font-weight="400" font-size="83" transform="matrix(1 0 0 1 1800.27 1515)">1 </text><path d="M1576 1477.12 1723.54 1477.13 1723.54 1490.88 1576 1490.88ZM1716.66 1463.38 1757.91 1484 1716.66 1504.63Z" fill="#E6007E"/><path d="M2694 1477.12 2919.5 1477.13 2919.5 1490.88 2694 1490.88ZM2912.62 1463.38 2953.87 1484 2912.62 1504.63Z" fill="#E6007E"/><rect x="3084.5" y="1419.5" width="129" height="130" stroke="#2983A9" stroke-width="4.58333" stroke-miterlimit="8" fill="#3CB4E6"/><text fill="#FFFFFF" font-family="Arial,Arial_MSFontService,sans-serif" font-weight="400" font-size="83" transform="matrix(1 0 0 1 3125.61 1515)">1 </text><rect x="2954.5" y="1419.5" width="130" height="130" stroke="#A9005B" stroke-width="4.58333" stroke-miterlimit="8" fill="#E6007E"/><text fill="#FFFFFF" font-family="Arial,Arial_MSFontService,sans-serif" font-weight="400" font-size="83" transform="matrix(1 0 0 1 2995.68 1515)">0 </text><rect x="1888.5" y="1419.5" width="130" height="130" stroke="#A9005B" stroke-width="4.58333" stroke-miterlimit="8" fill="#E6007E"/><text fill="#FFFFFF" font-family="Arial,Arial_MSFontService,sans-serif" font-weight="400" font-size="83" transform="matrix(1 0 0 1 1930.21 1515)">0 </text><rect x="2148.5" y="1419.5" width="130" height="130" stroke="#A9005B" stroke-width="4.58333" stroke-miterlimit="8" fill="#E6007E"/><text fill="#FFFFFF" font-family="Arial,Arial_MSFontService,sans-serif" font-weight="400" font-size="83" transform="matrix(1 0 0 1 2190.08 1515)">0 </text><rect x="2278.5" y="1419.5" width="130" height="130" stroke="#2983A9" stroke-width="4.58333" stroke-miterlimit="8" fill="#3CB4E6"/><text fill="#FFFFFF" font-family="Arial,Arial_MSFontService,sans-serif" font-weight="400" font-size="83" transform="matrix(1 0 0 1 2320.01 1515)">1 </text><path d="M0 0 0.000360892 51.9743" stroke="#E6007E" stroke-width="13.75" stroke-linecap="round" stroke-miterlimit="8" fill="none" fill-rule="evenodd" transform="matrix(1 0 0 -1 1940 1418.97)"/><path d="M1940 1367 2201.59 1367" stroke="#E6007E" stroke-width="13.75" stroke-linecap="round" stroke-miterlimit="8" fill="none" fill-rule="evenodd"/><path d="M6.87524 34.375 6.87536 51.9742C6.87539 55.7712 3.79737 58.8493 0.00040863 58.8493-3.79655 58.8493-6.87461 55.7713-6.87464 51.9743L-6.87476 34.375C-6.87479 30.5781-3.79677 27.5 0.000190951 27.5 3.79715 27.5 6.87521 30.578 6.87524 34.375ZM-20.6247 41.2501 0 0 20.6253 41.2499Z" fill="#E6007E" transform="matrix(1 0 0 -1 2200 1418.97)"/><path d="M0 0 0.000360892 51.9743" stroke="#E6007E" stroke-width="13.75" stroke-linecap="round" stroke-miterlimit="8" fill="none" fill-rule="evenodd" transform="matrix(1 0 0 -1 1836 1600.97)"/><path d="M6.875-4.77378e-05 6.87512 17.5992C6.87515 21.3962 3.79713 24.4743 0.000169941 24.4743-3.79679 24.4743-6.87485 21.3963-6.87488 17.5993L-6.875 4.77378e-05C-6.87503-3.79691-3.79701-6.87497-4.77378e-05-6.875 3.79691-6.87503 6.87497-3.79701 6.875-4.77378e-05ZM20.6251 10.7241 0.000360892 51.9743-20.6249 10.7244Z" fill="#E6007E" transform="matrix(1 0 0 -1 2330 1600.97)"/><path d="M1836 1601 2329.76 1601" stroke="#E6007E" stroke-width="13.75" stroke-linecap="round" stroke-miterlimit="8" fill="none" fill-rule="evenodd"/><rect x="641.5" y="458.5" width="130" height="130" stroke="#2983A9" stroke-width="4.58333" stroke-miterlimit="8" fill="#3CB4E6"/><text fill="#FFFFFF" font-family="Arial,Arial_MSFontService,sans-serif" font-weight="400" font-size="83" transform="matrix(1 0 0 1 678.239 553)">B</text><rect x="641.5" y="588.5" width="260" height="130" stroke="#2983A9" stroke-width="4.58333" stroke-miterlimit="8" fill="#3CB4E6"/><text fill="#FFFFFF" font-family="Arial,Arial_MSFontService,sans-serif" font-weight="400" font-size="83" transform="matrix(1 0 0 1 740.915 683)">H </text><rect x="641.5" y="718.5" width="520" height="130" stroke="#2983A9" stroke-width="4.58333" stroke-miterlimit="8" fill="#3CB4E6"/><text fill="#FFFFFF" font-family="Arial,Arial_MSFontService,sans-serif" font-weight="400" font-size="83" transform="matrix(1 0 0 1 861.685 813)">W<tspan fill="#03234B" font-size="83" x="-57.9772" y="-259">Byte</tspan><tspan fill="#03234B" font-size="83" x="71.9585" y="-129">Half</tspan><tspan fill="#03234B" font-size="83" x="218.625" y="-129">-</tspan><tspan fill="#03234B" font-size="83" x="246.125" y="-129">word</tspan><tspan fill="#03234B" font-size="83" x="331.83" y="1">Word</tspan></text></g></svg>