<svg width="3820" height="1673" xmlns="http://www.w3.org/2000/svg" xmlns:xlink="http://www.w3.org/1999/xlink" overflow="hidden"><defs><clipPath id="clip0"><rect x="459" y="448" width="3820" height="1673"/></clipPath></defs><g clip-path="url(#clip0)" transform="translate(-459 -448)"><rect x="589" y="926" width="623" height="1195" fill="#03234B" fill-opacity="0.501961"/><text fill="#FFFFFF" font-family="Arial,Arial_MSFontService,sans-serif" font-weight="400" font-size="83" transform="matrix(1 0 0 1 770.018 1022)">Source <tspan font-size="83" x="-18.3333" y="99">memory</tspan></text><rect x="2876" y="926" width="623" height="1195" fill="#03234B" fill-opacity="0.501961"/><text fill="#FFFFFF" font-family="Arial,Arial_MSFontService,sans-serif" font-weight="400" font-size="83" transform="matrix(1 0 0 1 2981.26 1022)">Destination <tspan font-size="83" x="57.2915" y="99">memory</tspan></text><rect x="1420" y="926" width="1300" height="1195" fill="#03234B" fill-opacity="0.501961"/><text fill="#FFFFFF" font-family="Arial,Arial_MSFontService,sans-serif" font-weight="400" font-size="83" transform="matrix(1 0 0 1 1866.09 1022)">GPDMA <tspan font-size="83" x="320.856" y="0">ch</tspan></text><rect x="459" y="1679" width="3820" height="390" fill="#49B170" fill-opacity="0.501961"/><rect x="641.5" y="1731.5" width="130" height="130" stroke="#2983A9" stroke-width="4.58333" stroke-miterlimit="8" fill="#3CB4E6"/><text fill="#FFFFFF" font-family="Arial,Arial_MSFontService,sans-serif" font-weight="400" font-size="83" transform="matrix(1 0 0 1 682.823 1827)">1 </text><rect x="771" y="1731" width="130" height="130" fill="#3CB4E6" fill-opacity="0.501961"/><text fill="#FFFFFF" font-family="Arial,Arial_MSFontService,sans-serif" font-weight="400" font-size="83" transform="matrix(1 0 0 1 812.758 1827)">2</text><rect x="901" y="1731" width="130" height="130" fill="#3CB4E6" fill-opacity="0.501961"/><text fill="#FFFFFF" font-family="Arial,Arial_MSFontService,sans-serif" font-weight="400" font-size="83" transform="matrix(1 0 0 1 942.694 1827)">3</text><rect x="1031" y="1731" width="130" height="130" fill="#3CB4E6" fill-opacity="0.501961"/><text fill="#FFFFFF" font-family="Arial,Arial_MSFontService,sans-serif" font-weight="400" font-size="83" transform="matrix(1 0 0 1 1072.63 1827)">4 </text><rect x="1446.5" y="1731.5" width="130" height="130" stroke="#2983A9" stroke-width="4.58333" stroke-miterlimit="8" fill="#3CB4E6"/><text fill="#FFFFFF" font-family="Arial,Arial_MSFontService,sans-serif" font-weight="400" font-size="83" transform="matrix(1 0 0 1 1483.84 1827)">B</text><rect x="2564.5" y="1731.5" width="130" height="130" stroke="#2983A9" stroke-width="4.58333" stroke-miterlimit="8" fill="#3CB4E6"/><text fill="#FFFFFF" font-family="Arial,Arial_MSFontService,sans-serif" font-weight="400" font-size="83" transform="matrix(1 0 0 1 2599 1827)">H </text><path d="M1161 1789.13 1412.48 1789.13 1412.48 1802.88 1161 1802.88ZM1405.61 1775.38 1446.86 1796 1405.61 1816.63Z" fill="#E6007E"/><rect x="1940.5" y="1731.5" width="130" height="130" stroke="#2983A9" stroke-width="4.58333" stroke-miterlimit="8" fill="#3CB4E6"/><text fill="#FFFFFF" font-family="Arial,Arial_MSFontService,sans-serif" font-weight="400" font-size="83" transform="matrix(1 0 0 1 1982.18 1827)">1 </text><path d="M1576 1789.13 1905.45 1789.13 1905.45 1802.88 1576 1802.88ZM1898.57 1775.38 1939.82 1796 1898.57 1816.63Z" fill="#E6007E"/><rect x="641.5" y="458.5" width="130" height="130" stroke="#2983A9" stroke-width="4.58333" stroke-miterlimit="8" fill="#3CB4E6"/><text fill="#FFFFFF" font-family="Arial,Arial_MSFontService,sans-serif" font-weight="400" font-size="83" transform="matrix(1 0 0 1 678.239 553)">B</text><rect x="641.5" y="588.5" width="260" height="130" stroke="#2983A9" stroke-width="4.58333" stroke-miterlimit="8" fill="#3CB4E6"/><text fill="#FFFFFF" font-family="Arial,Arial_MSFontService,sans-serif" font-weight="400" font-size="83" transform="matrix(1 0 0 1 740.915 683)">H </text><rect x="641.5" y="718.5" width="520" height="130" stroke="#2983A9" stroke-width="4.58333" stroke-miterlimit="8" fill="#3CB4E6"/><text fill="#FFFFFF" font-family="Arial,Arial_MSFontService,sans-serif" font-weight="400" font-size="83" transform="matrix(1 0 0 1 861.685 813)">W<tspan fill="#03234B" font-size="83" x="-57.9772" y="-259">Byte</tspan><tspan fill="#03234B" font-size="83" x="71.9585" y="-129">Half</tspan><tspan fill="#03234B" font-size="83" x="218.625" y="-129">-</tspan><tspan fill="#03234B" font-size="83" x="246.125" y="-129">word</tspan><tspan fill="#03234B" font-size="83" x="331.83" y="1">Word</tspan></text><rect x="459" y="1393" width="3820" height="234" fill="#49B170" fill-opacity="0.501961"/><text fill="#03234B" font-family="Arial,Arial_MSFontService,sans-serif" font-weight="400" font-size="83" transform="matrix(1 0 0 1 3532.36 1928)">Packed</text><rect x="641.5" y="1445.5" width="130" height="130" stroke="#2983A9" stroke-width="4.58333" stroke-miterlimit="8" fill="#3CB4E6"/><text fill="#FFFFFF" font-family="Arial,Arial_MSFontService,sans-serif" font-weight="400" font-size="83" transform="matrix(1 0 0 1 682.823 1541)">1 </text><rect x="771" y="1445" width="130" height="130" fill="#3CB4E6" fill-opacity="0.501961"/><text fill="#FFFFFF" font-family="Arial,Arial_MSFontService,sans-serif" font-weight="400" font-size="83" transform="matrix(1 0 0 1 812.758 1541)">2</text><rect x="901" y="1445" width="130" height="130" fill="#3CB4E6" fill-opacity="0.501961"/><text fill="#FFFFFF" font-family="Arial,Arial_MSFontService,sans-serif" font-weight="400" font-size="83" transform="matrix(1 0 0 1 942.694 1541)">3</text><rect x="1031" y="1445" width="130" height="130" fill="#3CB4E6" fill-opacity="0.501961"/><text fill="#FFFFFF" font-family="Arial,Arial_MSFontService,sans-serif" font-weight="400" font-size="83" transform="matrix(1 0 0 1 1072.63 1541)">4 </text><rect x="1446.5" y="1445.5" width="130" height="130" stroke="#2983A9" stroke-width="4.58333" stroke-miterlimit="8" fill="#3CB4E6"/><text fill="#FFFFFF" font-family="Arial,Arial_MSFontService,sans-serif" font-weight="400" font-size="83" transform="matrix(1 0 0 1 1483.84 1541)">B</text><rect x="2564.5" y="1445.5" width="130" height="130" stroke="#2983A9" stroke-width="4.58333" stroke-miterlimit="8" fill="#3CB4E6"/><text fill="#FFFFFF" font-family="Arial,Arial_MSFontService,sans-serif" font-weight="400" font-size="83" transform="matrix(1 0 0 1 2599 1541)">H </text><path d="M1161 1503.13 1412.48 1503.13 1412.48 1516.88 1161 1516.88ZM1405.61 1489.38 1446.86 1510 1405.61 1530.63Z" fill="#E6007E"/><path d="M2200 1503.13 2529.45 1503.13 2529.45 1516.88 2200 1516.88ZM2522.57 1489.38 2563.82 1510 2522.57 1530.63Z" fill="#E6007E"/><rect x="1940.5" y="1445.5" width="130" height="130" stroke="#2983A9" stroke-width="4.58333" stroke-miterlimit="8" fill="#3CB4E6"/><text fill="#FFFFFF" font-family="Arial,Arial_MSFontService,sans-serif" font-weight="400" font-size="83" transform="matrix(1 0 0 1 1982.18 1541)">1 </text><path d="M1576 1503.13 1905.45 1503.13 1905.45 1516.88 1576 1516.88ZM1898.57 1489.38 1939.82 1510 1898.57 1530.63Z" fill="#E6007E"/><path d="M2694 1503.13 2919.5 1503.13 2919.5 1516.88 2694 1516.88ZM2912.62 1489.38 2953.87 1510 2912.62 1530.63Z" fill="#E6007E"/><rect x="2954.5" y="1445.5" width="130" height="130" stroke="#2983A9" stroke-width="4.58333" stroke-miterlimit="8" fill="#3CB4E6"/><text fill="#FFFFFF" font-family="Arial,Arial_MSFontService,sans-serif" font-weight="400" font-size="83" transform="matrix(1 0 0 1 2995.68 1541)">1 </text><rect x="3084.5" y="1445.5" width="129" height="130" stroke="#A9005B" stroke-width="4.58333" stroke-miterlimit="8" fill="#E6007E"/><text fill="#FFFFFF" font-family="Arial,Arial_MSFontService,sans-serif" font-weight="400" font-size="28" transform="matrix(1 0 0 1 3118.74 1521)">MSB </text><rect x="2070.5" y="1445.5" width="130" height="130" stroke="#A9005B" stroke-width="4.58333" stroke-miterlimit="8" fill="#E6007E"/><text fill="#FFFFFF" font-family="Arial,Arial_MSFontService,sans-serif" font-weight="400" font-size="28" transform="matrix(1 0 0 1 2105.24 1521)">MSB </text><rect x="459" y="1134" width="3820" height="233" fill="#49B170" fill-opacity="0.501961"/><rect x="641.5" y="1186.5" width="130" height="129" stroke="#2983A9" stroke-width="4.58333" stroke-miterlimit="8" fill="#3CB4E6"/><text fill="#FFFFFF" font-family="Arial,Arial_MSFontService,sans-serif" font-weight="400" font-size="83" transform="matrix(1 0 0 1 682.823 1281)">1 </text><rect x="771" y="1186" width="130" height="129" fill="#3CB4E6" fill-opacity="0.501961"/><text fill="#FFFFFF" font-family="Arial,Arial_MSFontService,sans-serif" font-weight="400" font-size="83" transform="matrix(1 0 0 1 812.758 1281)">2</text><rect x="901" y="1186" width="130" height="129" fill="#3CB4E6" fill-opacity="0.501961"/><text fill="#FFFFFF" font-family="Arial,Arial_MSFontService,sans-serif" font-weight="400" font-size="83" transform="matrix(1 0 0 1 942.694 1281)">3</text><rect x="1031" y="1186" width="130" height="129" fill="#3CB4E6" fill-opacity="0.501961"/><text fill="#FFFFFF" font-family="Arial,Arial_MSFontService,sans-serif" font-weight="400" font-size="83" transform="matrix(1 0 0 1 1072.63 1281)">4 </text><rect x="1446.5" y="1186.5" width="130" height="129" stroke="#2983A9" stroke-width="4.58333" stroke-miterlimit="8" fill="#3CB4E6"/><text fill="#FFFFFF" font-family="Arial,Arial_MSFontService,sans-serif" font-weight="400" font-size="83" transform="matrix(1 0 0 1 1483.84 1281)">B</text><rect x="2564.5" y="1186.5" width="130" height="129" stroke="#2983A9" stroke-width="4.58333" stroke-miterlimit="8" fill="#3CB4E6"/><text fill="#FFFFFF" font-family="Arial,Arial_MSFontService,sans-serif" font-weight="400" font-size="83" transform="matrix(1 0 0 1 2599 1281)">H </text><path d="M1161 1243.12 1412.48 1243.13 1412.48 1256.88 1161 1256.87ZM1405.61 1229.38 1446.86 1250 1405.61 1270.63Z" fill="#E6007E"/><rect x="1940.5" y="1186.5" width="130" height="129" stroke="#2983A9" stroke-width="4.58333" stroke-miterlimit="8" fill="#3CB4E6"/><text fill="#FFFFFF" font-family="Arial,Arial_MSFontService,sans-serif" font-weight="400" font-size="83" transform="matrix(1 0 0 1 1982.18 1281)">1 </text><path d="M2200 1243.12 2529.45 1243.13 2529.45 1256.88 2200 1256.87ZM2522.57 1229.38 2563.82 1250 2522.57 1270.63Z" fill="#E6007E"/><path d="M1576 1243.12 1905.45 1243.13 1905.45 1256.88 1576 1256.87ZM1898.57 1229.38 1939.82 1250 1898.57 1270.63Z" fill="#E6007E"/><path d="M2694 1243.12 2919.5 1243.13 2919.5 1256.88 2694 1256.87ZM2912.62 1229.38 2953.87 1250 2912.62 1270.63Z" fill="#E6007E"/><rect x="2954.5" y="1186.5" width="130" height="129" stroke="#2983A9" stroke-width="4.58333" stroke-miterlimit="8" fill="#3CB4E6"/><text fill="#FFFFFF" font-family="Arial,Arial_MSFontService,sans-serif" font-weight="400" font-size="83" transform="matrix(1 0 0 1 2995.68 1281)">1 </text><rect x="2070.5" y="1186.5" width="130" height="129" stroke="#A9005B" stroke-width="4.58333" stroke-miterlimit="8" fill="#E6007E"/><text fill="#FFFFFF" font-family="Arial,Arial_MSFontService,sans-serif" font-weight="400" font-size="83" transform="matrix(1 0 0 1 2112.12 1281)">0 </text><rect x="3084.5" y="1186.5" width="129" height="129" stroke="#A9005B" stroke-width="4.58333" stroke-miterlimit="8" fill="#E6007E"/><text fill="#FFFFFF" font-family="Arial,Arial_MSFontService,sans-serif" font-weight="400" font-size="83" transform="matrix(1 0 0 1 3125.61 1281)">0 <tspan fill="#03234B" font-size="83" x="406.743" y="-51">Right aligned</tspan><tspan fill="#03234B" font-size="83" x="406.743" y="48">zero padded</tspan></text><rect x="641.5" y="1887.5" width="130" height="130" stroke="#2983A9" stroke-width="4.58333" stroke-miterlimit="8" fill="#3CB4E6"/><text fill="#FFFFFF" font-family="Arial,Arial_MSFontService,sans-serif" font-weight="400" font-size="83" transform="matrix(1 0 0 1 682.823 1983)">1 </text><rect x="771.5" y="1887.5" width="130" height="130" stroke="#2983A9" stroke-width="4.58333" stroke-miterlimit="8" fill="#3CB4E6"/><text fill="#FFFFFF" font-family="Arial,Arial_MSFontService,sans-serif" font-weight="400" font-size="83" transform="matrix(1 0 0 1 812.758 1983)">2</text><rect x="901" y="1887" width="130" height="130" fill="#3CB4E6" fill-opacity="0.501961"/><text fill="#FFFFFF" font-family="Arial,Arial_MSFontService,sans-serif" font-weight="400" font-size="83" transform="matrix(1 0 0 1 942.694 1983)">3</text><rect x="1031" y="1887" width="130" height="130" fill="#3CB4E6" fill-opacity="0.501961"/><text fill="#FFFFFF" font-family="Arial,Arial_MSFontService,sans-serif" font-weight="400" font-size="83" transform="matrix(1 0 0 1 1072.63 1983)">4 </text><rect x="1446.5" y="1887.5" width="130" height="130" stroke="#2983A9" stroke-width="4.58333" stroke-miterlimit="8" fill="#3CB4E6"/><text fill="#FFFFFF" font-family="Arial,Arial_MSFontService,sans-serif" font-weight="400" font-size="83" transform="matrix(1 0 0 1 1483.84 1983)">B</text><rect x="2564.5" y="1887.5" width="130" height="130" stroke="#2983A9" stroke-width="4.58333" stroke-miterlimit="8" fill="#3CB4E6"/><text fill="#FFFFFF" font-family="Arial,Arial_MSFontService,sans-serif" font-weight="400" font-size="83" transform="matrix(1 0 0 1 2599 1983)">H </text><path d="M1161 1945.13 1412.48 1945.13 1412.48 1958.88 1161 1958.88ZM1405.61 1931.38 1446.86 1952 1405.61 1972.63Z" fill="#E6007E"/><rect x="1940.5" y="1887.5" width="130" height="130" stroke="#2983A9" stroke-width="4.58333" stroke-miterlimit="8" fill="#3CB4E6"/><text fill="#FFFFFF" font-family="Arial,Arial_MSFontService,sans-serif" font-weight="400" font-size="83" transform="matrix(1 0 0 1 1982.18 1983)">1 </text><path d="M2200 1945.13 2529.45 1945.13 2529.45 1958.88 2200 1958.88ZM2522.57 1931.38 2563.82 1952 2522.57 1972.63Z" fill="#E6007E"/><path d="M1576 1945.13 1905.45 1945.13 1905.45 1958.88 1576 1958.88ZM1898.57 1931.38 1939.82 1952 1898.57 1972.63Z" fill="#E6007E"/><path d="M2694 1945.13 2919.5 1945.13 2919.5 1958.88 2694 1958.88ZM2912.62 1931.38 2953.87 1952 2912.62 1972.63Z" fill="#E6007E"/><rect x="2954.5" y="1887.5" width="130" height="130" stroke="#2983A9" stroke-width="4.58333" stroke-miterlimit="8" fill="#3CB4E6"/><text fill="#FFFFFF" font-family="Arial,Arial_MSFontService,sans-serif" font-weight="400" font-size="83" transform="matrix(1 0 0 1 2995.68 1983)">1 </text><rect x="2070.5" y="1887.5" width="130" height="130" stroke="#2983A9" stroke-width="4.58333" stroke-miterlimit="8" fill="#3CB4E6"/><text fill="#FFFFFF" font-family="Arial,Arial_MSFontService,sans-serif" font-weight="400" font-size="83" transform="matrix(1 0 0 1 2112.12 1983)">2</text><rect x="3084.5" y="1887.5" width="129" height="130" stroke="#2983A9" stroke-width="4.58333" stroke-miterlimit="8" fill="#3CB4E6"/><text fill="#FFFFFF" font-family="Arial,Arial_MSFontService,sans-serif" font-weight="400" font-size="83" transform="matrix(1 0 0 1 3125.61 1983)">2<tspan fill="#03234B" font-size="83" x="406.743" y="-492">Right aligned</tspan><tspan fill="#03234B" font-size="83" x="406.743" y="-393">sign padded </tspan></text></g></svg>