<svg width="3872" height="1699" xmlns="http://www.w3.org/2000/svg" xmlns:xlink="http://www.w3.org/1999/xlink" overflow="hidden"><defs><clipPath id="clip0"><rect x="459" y="448" width="3872" height="1699"/></clipPath></defs><g clip-path="url(#clip0)" transform="translate(-459 -448)"><rect x="589" y="926" width="623" height="1221" fill="#03234B" fill-opacity="0.501961"/><text fill="#FFFFFF" font-family="Arial,Arial_MSFontService,sans-serif" font-weight="400" font-size="83" transform="matrix(1 0 0 1 770.018 1022)">Source <tspan font-size="83" x="-18.3333" y="99">memory</tspan></text><rect x="3084" y="926" width="623" height="1221" fill="#03234B" fill-opacity="0.501961"/><text fill="#FFFFFF" font-family="Arial,Arial_MSFontService,sans-serif" font-weight="400" font-size="83" transform="matrix(1 0 0 1 3189.16 1022)">Destination <tspan font-size="83" x="57.2918" y="99">memory</tspan></text><rect x="1420" y="926" width="1560" height="1221" fill="#03234B" fill-opacity="0.501961"/><text fill="#FFFFFF" font-family="Arial,Arial_MSFontService,sans-serif" font-weight="400" font-size="83" transform="matrix(1 0 0 1 1996.03 1022)">GPDMA <tspan font-size="83" x="320.856" y="0">ch</tspan></text><rect x="641.5" y="458.5" width="130" height="130" stroke="#2983A9" stroke-width="4.58333" stroke-miterlimit="8" fill="#3CB4E6"/><text fill="#FFFFFF" font-family="Arial,Arial_MSFontService,sans-serif" font-weight="400" font-size="83" transform="matrix(1 0 0 1 678.239 553)">B</text><rect x="641.5" y="588.5" width="260" height="130" stroke="#2983A9" stroke-width="4.58333" stroke-miterlimit="8" fill="#3CB4E6"/><text fill="#FFFFFF" font-family="Arial,Arial_MSFontService,sans-serif" font-weight="400" font-size="83" transform="matrix(1 0 0 1 740.915 683)">H </text><rect x="641.5" y="718.5" width="520" height="130" stroke="#2983A9" stroke-width="4.58333" stroke-miterlimit="8" fill="#3CB4E6"/><text fill="#FFFFFF" font-family="Arial,Arial_MSFontService,sans-serif" font-weight="400" font-size="83" transform="matrix(1 0 0 1 861.685 813)">W<tspan fill="#03234B" font-size="83" x="-57.9772" y="-259">Byte</tspan><tspan fill="#03234B" font-size="83" x="71.9585" y="-129">Half</tspan><tspan fill="#03234B" font-size="83" x="218.625" y="-129">-</tspan><tspan fill="#03234B" font-size="83" x="246.125" y="-129">word</tspan><tspan fill="#03234B" font-size="83" x="331.83" y="1">Word</tspan></text><rect x="459" y="1134" width="3846" height="233" fill="#49B170" fill-opacity="0.501961"/><rect x="641.5" y="1186.5" width="130" height="129" stroke="#2983A9" stroke-width="4.58333" stroke-miterlimit="8" fill="#3CB4E6"/><text fill="#FFFFFF" font-family="Arial,Arial_MSFontService,sans-serif" font-weight="400" font-size="83" transform="matrix(1 0 0 1 682.823 1281)">1 </text><rect x="771.5" y="1186.5" width="130" height="129" stroke="#2983A9" stroke-width="4.58333" stroke-miterlimit="8" fill="#3CB4E6"/><text fill="#FFFFFF" font-family="Arial,Arial_MSFontService,sans-serif" font-weight="400" font-size="83" transform="matrix(1 0 0 1 812.758 1281)">2</text><rect x="901.5" y="1186.5" width="130" height="129" stroke="#2983A9" stroke-width="4.58333" stroke-miterlimit="8" fill="#3CB4E6"/><text fill="#FFFFFF" font-family="Arial,Arial_MSFontService,sans-serif" font-weight="400" font-size="83" transform="matrix(1 0 0 1 942.694 1281)">3</text><rect x="1031.5" y="1186.5" width="130" height="129" stroke="#2983A9" stroke-width="4.58333" stroke-miterlimit="8" fill="#3CB4E6"/><text fill="#FFFFFF" font-family="Arial,Arial_MSFontService,sans-serif" font-weight="400" font-size="83" transform="matrix(1 0 0 1 1072.63 1281)">4 </text><rect x="1446.5" y="1186.5" width="130" height="129" stroke="#2983A9" stroke-width="4.58333" stroke-miterlimit="8" fill="#3CB4E6"/><text fill="#FFFFFF" font-family="Arial,Arial_MSFontService,sans-serif" font-weight="400" font-size="83" transform="matrix(1 0 0 1 1483.84 1281)">B</text><rect x="2824.5" y="1186.5" width="130" height="129" stroke="#2983A9" stroke-width="4.58333" stroke-miterlimit="8" fill="#3CB4E6"/><text fill="#FFFFFF" font-family="Arial,Arial_MSFontService,sans-serif" font-weight="400" font-size="83" transform="matrix(1 0 0 1 2849.7 1281)">W</text><path d="M1161 1243.12 1412.48 1243.13 1412.48 1256.88 1161 1256.87ZM1405.61 1229.38 1446.86 1250 1405.61 1270.63Z" fill="#E6007E"/><rect x="1654.5" y="1186.5" width="130" height="129" stroke="#2983A9" stroke-width="4.58333" stroke-miterlimit="8" fill="#3CB4E6"/><text fill="#FFFFFF" font-family="Arial,Arial_MSFontService,sans-serif" font-weight="400" font-size="83" transform="matrix(1 0 0 1 1696.32 1281)">1 </text><path d="M2954 1243.12 3101.53 1243.13 3101.53 1256.88 2954 1256.87ZM3094.66 1229.38 3135.91 1250 3094.66 1270.63Z" fill="#E6007E"/><rect x="3136.5" y="1186.5" width="129" height="129" stroke="#2983A9" stroke-width="4.58333" stroke-miterlimit="8" fill="#3CB4E6"/><text fill="#FFFFFF" font-family="Arial,Arial_MSFontService,sans-serif" font-weight="400" font-size="83" transform="matrix(1 0 0 1 3177.59 1281)">1 </text><rect x="1784.5" y="1186.5" width="130" height="129" stroke="#2983A9" stroke-width="4.58333" stroke-miterlimit="8" fill="#3CB4E6"/><text fill="#FFFFFF" font-family="Arial,Arial_MSFontService,sans-serif" font-weight="400" font-size="83" transform="matrix(1 0 0 1 1826.26 1281)">2</text><rect x="3265.5" y="1186.5" width="130" height="129" stroke="#2983A9" stroke-width="4.58333" stroke-miterlimit="8" fill="#3CB4E6"/><text fill="#FFFFFF" font-family="Arial,Arial_MSFontService,sans-serif" font-weight="400" font-size="83" transform="matrix(1 0 0 1 3307.52 1281)">2<tspan fill="#03234B" font-size="83" x="432.731" y="1">Packed</tspan></text><rect x="3395.5" y="1186.5" width="130" height="129" stroke="#2983A9" stroke-width="4.58333" stroke-miterlimit="8" fill="#3CB4E6"/><text fill="#FFFFFF" font-family="Arial,Arial_MSFontService,sans-serif" font-weight="400" font-size="83" transform="matrix(1 0 0 1 3437.46 1281)">3 </text><rect x="3525.5" y="1186.5" width="130" height="129" stroke="#2983A9" stroke-width="4.58333" stroke-miterlimit="8" fill="#3CB4E6"/><text fill="#FFFFFF" font-family="Arial,Arial_MSFontService,sans-serif" font-weight="400" font-size="83" transform="matrix(1 0 0 1 3567.39 1281)">4</text><rect x="1914.5" y="1186.5" width="130" height="129" stroke="#2983A9" stroke-width="4.58333" stroke-miterlimit="8" fill="#3CB4E6"/><text fill="#FFFFFF" font-family="Arial,Arial_MSFontService,sans-serif" font-weight="400" font-size="83" transform="matrix(1 0 0 1 1956.19 1281)">3</text><rect x="2044.5" y="1186.5" width="130" height="129" stroke="#2983A9" stroke-width="4.58333" stroke-miterlimit="8" fill="#3CB4E6"/><text fill="#FFFFFF" font-family="Arial,Arial_MSFontService,sans-serif" font-weight="400" font-size="83" transform="matrix(1 0 0 1 2086.13 1281)">4</text><rect x="2225.5" y="1186.5" width="130" height="129" stroke="#2983A9" stroke-width="4.58333" stroke-miterlimit="8" fill="#3CB4E6"/><text fill="#FFFFFF" font-family="Arial,Arial_MSFontService,sans-serif" font-weight="400" font-size="83" transform="matrix(1 0 0 1 2267.26 1281)">1 </text><rect x="2356.5" y="1186.5" width="130" height="129" stroke="#2983A9" stroke-width="4.58333" stroke-miterlimit="8" fill="#3CB4E6"/><text fill="#FFFFFF" font-family="Arial,Arial_MSFontService,sans-serif" font-weight="400" font-size="83" transform="matrix(1 0 0 1 2397.97 1281)">2</text><rect x="2486.5" y="1186.5" width="130" height="129" stroke="#2983A9" stroke-width="4.58333" stroke-miterlimit="8" fill="#3CB4E6"/><text fill="#FFFFFF" font-family="Arial,Arial_MSFontService,sans-serif" font-weight="400" font-size="83" transform="matrix(1 0 0 1 2527.91 1281)">3</text><rect x="2616.5" y="1186.5" width="130" height="129" stroke="#2983A9" stroke-width="4.58333" stroke-miterlimit="8" fill="#3CB4E6"/><text fill="#FFFFFF" font-family="Arial,Arial_MSFontService,sans-serif" font-weight="400" font-size="83" transform="matrix(1 0 0 1 2657.84 1281)">4</text><path d="M2746 1243.12 2789.59 1243.13 2789.59 1256.88 2746 1256.87ZM2782.71 1229.38 2823.96 1250 2782.71 1270.62Z" fill="#E6007E"/><rect x="459" y="1393" width="3846" height="338" fill="#49B170" fill-opacity="0.501961"/><rect x="641.5" y="1497.5" width="130" height="130" stroke="#2983A9" stroke-width="4.58333" stroke-miterlimit="8" fill="#3CB4E6"/><text fill="#FFFFFF" font-family="Arial,Arial_MSFontService,sans-serif" font-weight="400" font-size="83" transform="matrix(1 0 0 1 682.823 1593)">1 </text><rect x="771.5" y="1497.5" width="130" height="130" stroke="#BC9A00" stroke-width="4.58333" stroke-miterlimit="8" fill="#FFD200"/><text fill="#FFFFFF" font-family="Arial,Arial_MSFontService,sans-serif" font-weight="400" font-size="83" transform="matrix(1 0 0 1 812.758 1593)">2</text><rect x="901.5" y="1497.5" width="130" height="130" stroke="#338150" stroke-width="4.58333" stroke-miterlimit="8" fill="#49B170"/><text fill="#FFFFFF" font-family="Arial,Arial_MSFontService,sans-serif" font-weight="400" font-size="83" transform="matrix(1 0 0 1 942.694 1593)">3</text><rect x="1031.5" y="1497.5" width="130" height="130" stroke="#650056" stroke-width="4.58333" stroke-miterlimit="8" fill="#8C0078"/><text fill="#FFFFFF" font-family="Arial,Arial_MSFontService,sans-serif" font-weight="400" font-size="83" transform="matrix(1 0 0 1 1072.63 1593)">4 </text><rect x="1446.5" y="1497.5" width="130" height="130" stroke="#2983A9" stroke-width="4.58333" stroke-miterlimit="8" fill="#3CB4E6"/><text fill="#FFFFFF" font-family="Arial,Arial_MSFontService,sans-serif" font-weight="400" font-size="83" transform="matrix(1 0 0 1 1483.84 1593)">B</text><rect x="2824.5" y="1497.5" width="130" height="130" stroke="#2983A9" stroke-width="4.58333" stroke-miterlimit="8" fill="#3CB4E6"/><text fill="#FFFFFF" font-family="Arial,Arial_MSFontService,sans-serif" font-weight="400" font-size="83" transform="matrix(1 0 0 1 2849.7 1593)">W</text><path d="M1161 1555.12 1412.48 1555.13 1412.48 1568.88 1161 1568.88ZM1405.61 1541.38 1446.86 1562 1405.61 1582.63Z" fill="#E6007E"/><path d="M2954 1555.12 3101.53 1555.13 3101.53 1568.88 2954 1568.88ZM3094.66 1541.38 3135.91 1562 3094.66 1582.63Z" fill="#E6007E"/><rect x="3136.5" y="1497.5" width="129" height="130" stroke="#BC9A00" stroke-width="4.58333" stroke-miterlimit="8" fill="#FFD200"/><text fill="#FFFFFF" font-family="Arial,Arial_MSFontService,sans-serif" font-weight="400" font-size="83" transform="matrix(1 0 0 1 3177.59 1593)">2</text><rect x="3265.5" y="1497.5" width="130" height="130" stroke="#2983A9" stroke-width="4.58333" stroke-miterlimit="8" fill="#3CB4E6"/><text fill="#FFFFFF" font-family="Arial,Arial_MSFontService,sans-serif" font-weight="400" font-size="83" transform="matrix(1 0 0 1 3307.52 1593)">1 </text><rect x="3395.5" y="1497.5" width="130" height="130" stroke="#650056" stroke-width="4.58333" stroke-miterlimit="8" fill="#8C0078"/><text fill="#FFFFFF" font-family="Arial,Arial_MSFontService,sans-serif" font-weight="400" font-size="83" transform="matrix(1 0 0 1 3437.46 1593)">4 </text><rect x="3525.5" y="1497.5" width="130" height="130" stroke="#338150" stroke-width="4.58333" stroke-miterlimit="8" fill="#49B170"/><text fill="#FFFFFF" font-family="Arial,Arial_MSFontService,sans-serif" font-weight="400" font-size="83" transform="matrix(1 0 0 1 3567.39 1593)">3 </text><path d="M2746 1555.12 2789.59 1555.13 2789.59 1568.88 2746 1568.88ZM2782.71 1541.38 2823.96 1562 2782.71 1582.63Z" fill="#E6007E"/><path d="M0 0 0.000360892 51.9743" stroke="#E6007E" stroke-width="13.75" stroke-linecap="round" stroke-miterlimit="8" fill="none" fill-rule="evenodd" transform="matrix(1 0 0 -1 2122 1678.97)"/><path d="M6.875-4.77378e-05 6.87512 17.5992C6.87515 21.3962 3.79713 24.4743 0.000169941 24.4743-3.79679 24.4743-6.87485 21.3963-6.87488 17.5993L-6.875 4.77378e-05C-6.87503-3.79691-3.79701-6.87497-4.77378e-05-6.875 3.79691-6.87503 6.87497-3.79701 6.875-4.77378e-05ZM20.6251 10.7241 0.000360892 51.9743-20.6249 10.7244Z" fill="#E6007E" transform="matrix(1 0 0 -1 2538 1678.97)"/><path d="M2122 1679 2537.79 1679" stroke="#E6007E" stroke-width="13.75" stroke-linecap="round" stroke-miterlimit="8" fill="none" fill-rule="evenodd"/><text fill="#03234B" font-family="Arial,Arial_MSFontService,sans-serif" font-weight="400" font-size="83" transform="matrix(1 0 0 1 3740.25 1542)">Packed<tspan font-size="83" x="0" y="99">byte exchang</tspan><tspan font-size="83" x="490.417" y="99">e</tspan></text><path d="M0 0 0.000360892 77.9614" stroke="#E6007E" stroke-width="13.75" stroke-linecap="round" stroke-miterlimit="8" fill="none" fill-rule="evenodd" transform="matrix(1 0 0 -1 1732 1704.96)"/><path d="M6.875-3.18252e-05 6.8752 43.5864C6.87522 47.3833 3.79719 50.4614 0.000233592 50.4614-3.79672 50.4614-6.87478 47.3834-6.8748 43.5864L-6.875 3.18252e-05C-6.87502-3.79693-3.79699-6.87498-3.18252e-05-6.875 3.79693-6.87502 6.87498-3.79699 6.875-3.18252e-05ZM20.6252 36.7113 0.000360892 77.9614-20.6248 36.7115Z" fill="#E6007E" transform="matrix(1 0 0 -1 2408 1704.96)"/><path d="M1732 1705 2407.67 1705" stroke="#E6007E" stroke-width="13.75" stroke-linecap="round" stroke-miterlimit="8" fill="none" fill-rule="evenodd"/><path d="M0 0 0.000360892 77.9614" stroke="#E6007E" stroke-width="13.75" stroke-linecap="round" stroke-miterlimit="8" fill="none" fill-rule="evenodd" transform="matrix(1 0 0 -1 1862 1496.96)"/><path d="M2284.88 1419 2284.88 1462.59C2284.88 1466.38 2281.8 1469.46 2278 1469.46 2274.2 1469.46 2271.13 1466.38 2271.13 1462.59L2271.12 1419C2271.12 1415.2 2274.2 1412.12 2278 1412.12 2281.8 1412.12 2284.88 1415.2 2284.88 1419ZM2298.63 1455.71 2278 1496.96 2257.38 1455.71Z" fill="#E6007E"/><path d="M1862 1419 2277.79 1419" stroke="#E6007E" stroke-width="13.75" stroke-linecap="round" stroke-miterlimit="8" fill="none" fill-rule="evenodd"/><path d="M0 0 0.000360892 51.9743" stroke="#E6007E" stroke-width="13.75" stroke-linecap="round" stroke-miterlimit="8" fill="none" fill-rule="evenodd" transform="matrix(1 0 0 -1 1992 1496.97)"/><path d="M2674.87 1445 2674.88 1462.6C2674.88 1466.4 2671.8 1469.47 2668 1469.47 2664.2 1469.47 2661.12 1466.4 2661.12 1462.6L2661.12 1445C2661.12 1441.2 2664.2 1438.13 2668 1438.13 2671.8 1438.13 2674.87 1441.2 2674.87 1445ZM2688.62 1455.72 2668 1496.97 2647.37 1455.72Z" fill="#E6007E"/><path d="M1992 1445 2667.67 1445" stroke="#E6007E" stroke-width="13.75" stroke-linecap="round" stroke-miterlimit="8" fill="none" fill-rule="evenodd"/><rect x="1654.5" y="1497.5" width="130" height="130" stroke="#2983A9" stroke-width="4.58333" stroke-miterlimit="8" fill="#3CB4E6"/><text fill="#FFFFFF" font-family="Arial,Arial_MSFontService,sans-serif" font-weight="400" font-size="83" transform="matrix(1 0 0 1 1696.32 1593)">1 </text><rect x="1784.5" y="1497.5" width="130" height="130" stroke="#BC9A00" stroke-width="4.58333" stroke-miterlimit="8" fill="#FFD200"/><text fill="#FFFFFF" font-family="Arial,Arial_MSFontService,sans-serif" font-weight="400" font-size="83" transform="matrix(1 0 0 1 1826.26 1593)">2</text><rect x="1914.5" y="1497.5" width="130" height="130" stroke="#338150" stroke-width="4.58333" stroke-miterlimit="8" fill="#49B170"/><text fill="#FFFFFF" font-family="Arial,Arial_MSFontService,sans-serif" font-weight="400" font-size="83" transform="matrix(1 0 0 1 1956.19 1593)">3</text><rect x="2044.5" y="1497.5" width="130" height="130" stroke="#650056" stroke-width="4.58333" stroke-miterlimit="8" fill="#8C0078"/><text fill="#FFFFFF" font-family="Arial,Arial_MSFontService,sans-serif" font-weight="400" font-size="83" transform="matrix(1 0 0 1 2086.13 1593)">4</text><rect x="2225.5" y="1497.5" width="130" height="130" stroke="#BC9A00" stroke-width="4.58333" stroke-miterlimit="8" fill="#FFD200"/><text fill="#FFFFFF" font-family="Arial,Arial_MSFontService,sans-serif" font-weight="400" font-size="83" transform="matrix(1 0 0 1 2267.26 1593)">2</text><rect x="2356.5" y="1497.5" width="130" height="130" stroke="#2983A9" stroke-width="4.58333" stroke-miterlimit="8" fill="#3CB4E6"/><text fill="#FFFFFF" font-family="Arial,Arial_MSFontService,sans-serif" font-weight="400" font-size="83" transform="matrix(1 0 0 1 2397.97 1593)">1 </text><rect x="2486.5" y="1497.5" width="130" height="130" stroke="#650056" stroke-width="4.58333" stroke-miterlimit="8" fill="#8C0078"/><text fill="#FFFFFF" font-family="Arial,Arial_MSFontService,sans-serif" font-weight="400" font-size="83" transform="matrix(1 0 0 1 2527.91 1593)">4 </text><rect x="2616.5" y="1497.5" width="130" height="130" stroke="#338150" stroke-width="4.58333" stroke-miterlimit="8" fill="#49B170"/><text fill="#FFFFFF" font-family="Arial,Arial_MSFontService,sans-serif" font-weight="400" font-size="83" transform="matrix(1 0 0 1 2657.84 1593)">3</text><rect x="459" y="1757" width="3846" height="338" fill="#49B170" fill-opacity="0.501961"/><rect x="641.5" y="1861.5" width="130" height="130" stroke="#2983A9" stroke-width="4.58333" stroke-miterlimit="8" fill="#3CB4E6"/><text fill="#FFFFFF" font-family="Arial,Arial_MSFontService,sans-serif" font-weight="400" font-size="83" transform="matrix(1 0 0 1 682.823 1957)">1 </text><rect x="771.5" y="1861.5" width="130" height="130" stroke="#BC9A00" stroke-width="4.58333" stroke-miterlimit="8" fill="#FFD200"/><text fill="#FFFFFF" font-family="Arial,Arial_MSFontService,sans-serif" font-weight="400" font-size="83" transform="matrix(1 0 0 1 812.758 1957)">2</text><rect x="901.5" y="1861.5" width="130" height="130" stroke="#338150" stroke-width="4.58333" stroke-miterlimit="8" fill="#49B170"/><text fill="#FFFFFF" font-family="Arial,Arial_MSFontService,sans-serif" font-weight="400" font-size="83" transform="matrix(1 0 0 1 942.694 1957)">3</text><rect x="1031.5" y="1861.5" width="130" height="130" stroke="#650056" stroke-width="4.58333" stroke-miterlimit="8" fill="#8C0078"/><text fill="#FFFFFF" font-family="Arial,Arial_MSFontService,sans-serif" font-weight="400" font-size="83" transform="matrix(1 0 0 1 1072.63 1957)">4 </text><rect x="1446.5" y="1861.5" width="130" height="130" stroke="#2983A9" stroke-width="4.58333" stroke-miterlimit="8" fill="#3CB4E6"/><text fill="#FFFFFF" font-family="Arial,Arial_MSFontService,sans-serif" font-weight="400" font-size="83" transform="matrix(1 0 0 1 1483.84 1957)">B</text><rect x="2824.5" y="1861.5" width="130" height="130" stroke="#2983A9" stroke-width="4.58333" stroke-miterlimit="8" fill="#3CB4E6"/><text fill="#FFFFFF" font-family="Arial,Arial_MSFontService,sans-serif" font-weight="400" font-size="83" transform="matrix(1 0 0 1 2849.7 1957)">W</text><path d="M1161 1919.12 1412.48 1919.13 1412.48 1932.88 1161 1932.88ZM1405.61 1905.38 1446.86 1926 1405.61 1946.63Z" fill="#E6007E"/><path d="M2954 1919.12 3101.53 1919.13 3101.53 1932.88 2954 1932.88ZM3094.66 1905.38 3135.91 1926 3094.66 1946.63Z" fill="#E6007E"/><rect x="3136.5" y="1861.5" width="129" height="130" stroke="#338150" stroke-width="4.58333" stroke-miterlimit="8" fill="#49B170"/><text fill="#FFFFFF" font-family="Arial,Arial_MSFontService,sans-serif" font-weight="400" font-size="83" transform="matrix(1 0 0 1 3177.59 1957)">3 </text><rect x="3265.5" y="1861.5" width="130" height="130" stroke="#650056" stroke-width="4.58333" stroke-miterlimit="8" fill="#8C0078"/><text fill="#FFFFFF" font-family="Arial,Arial_MSFontService,sans-serif" font-weight="400" font-size="83" transform="matrix(1 0 0 1 3307.52 1957)">4</text><rect x="3395.5" y="1861.5" width="130" height="130" stroke="#2983A9" stroke-width="4.58333" stroke-miterlimit="8" fill="#3CB4E6"/><text fill="#FFFFFF" font-family="Arial,Arial_MSFontService,sans-serif" font-weight="400" font-size="83" transform="matrix(1 0 0 1 3437.46 1957)">1</text><rect x="3525.5" y="1861.5" width="130" height="130" stroke="#BC9A00" stroke-width="4.58333" stroke-miterlimit="8" fill="#FFD200"/><text fill="#FFFFFF" font-family="Arial,Arial_MSFontService,sans-serif" font-weight="400" font-size="83" transform="matrix(1 0 0 1 3567.39 1957)">2</text><path d="M2746 1919.12 2789.59 1919.13 2789.59 1932.88 2746 1932.88ZM2782.71 1905.38 2823.96 1926 2782.71 1946.63Z" fill="#E6007E"/><path d="M0 0 0.000360892 51.9743" stroke="#E6007E" stroke-width="13.75" stroke-linecap="round" stroke-miterlimit="8" fill="none" fill-rule="evenodd" transform="matrix(1 0 0 -1 1992 2042.97)"/><path d="M6.875-4.77378e-05 6.87512 17.5992C6.87515 21.3962 3.79713 24.4743 0.000169941 24.4743-3.79679 24.4743-6.87485 21.3963-6.87488 17.5993L-6.875 4.77378e-05C-6.87503-3.79691-3.79701-6.87497-4.77378e-05-6.875 3.79691-6.87503 6.87497-3.79701 6.875-4.77378e-05ZM20.6251 10.7241 0.000360892 51.9743-20.6249 10.7244Z" fill="#E6007E" transform="matrix(1 0 0 -1 2278 2042.97)"/><path d="M1992 2043 2277.86 2043" stroke="#E6007E" stroke-width="13.75" stroke-linecap="round" stroke-miterlimit="8" fill="none" fill-rule="evenodd"/><path d="M0 0 0.000360892 77.9614" stroke="#E6007E" stroke-width="13.75" stroke-linecap="round" stroke-miterlimit="8" fill="none" fill-rule="evenodd" transform="matrix(1 0 0 -1 1732 2068.96)"/><path d="M6.875-3.18252e-05 6.8752 43.5864C6.87522 47.3833 3.79719 50.4614 0.000233592 50.4614-3.79672 50.4614-6.87478 47.3834-6.8748 43.5864L-6.875 3.18252e-05C-6.87502-3.79693-3.79699-6.87498-3.18252e-05-6.875 3.79693-6.87502 6.87498-3.79699 6.875-3.18252e-05ZM20.6252 36.7113 0.000360892 77.9614-20.6248 36.7115Z" fill="#E6007E" transform="matrix(1 0 0 -1 2538 2068.96)"/><path d="M1732 2069 2537.6 2069" stroke="#E6007E" stroke-width="13.75" stroke-linecap="round" stroke-miterlimit="8" fill="none" fill-rule="evenodd"/><path d="M0 0 0.000360892 77.9614" stroke="#E6007E" stroke-width="13.75" stroke-linecap="round" stroke-miterlimit="8" fill="none" fill-rule="evenodd" transform="matrix(1 0 0 -1 1862 1860.96)"/><path d="M2674.87 1783 2674.88 1826.59C2674.88 1830.38 2671.8 1833.46 2668 1833.46 2664.2 1833.46 2661.12 1830.38 2661.12 1826.59L2661.12 1783C2661.12 1779.2 2664.2 1776.12 2668 1776.12 2671.8 1776.12 2674.87 1779.2 2674.87 1783ZM2688.62 1819.71 2668 1860.96 2647.38 1819.71Z" fill="#E6007E"/><path d="M1862 1783 2667.6 1783" stroke="#E6007E" stroke-width="13.75" stroke-linecap="round" stroke-miterlimit="8" fill="none" fill-rule="evenodd"/><path d="M0 0 0.000360892 51.9743" stroke="#E6007E" stroke-width="13.75" stroke-linecap="round" stroke-miterlimit="8" fill="none" fill-rule="evenodd" transform="matrix(1 0 0 -1 2122 1860.97)"/><path d="M2414.88 1809 2414.88 1826.6C2414.88 1830.4 2411.8 1833.47 2408 1833.47 2404.2 1833.47 2401.13 1830.4 2401.12 1826.6L2401.12 1809C2401.12 1805.2 2404.2 1802.13 2408 1802.13 2411.8 1802.13 2414.88 1805.2 2414.88 1809ZM2428.62 1819.72 2408 1860.97 2387.38 1819.72Z" fill="#E6007E"/><path d="M2122 1809 2407.86 1809" stroke="#E6007E" stroke-width="13.75" stroke-linecap="round" stroke-miterlimit="8" fill="none" fill-rule="evenodd"/><rect x="1654.5" y="1861.5" width="130" height="130" stroke="#2983A9" stroke-width="4.58333" stroke-miterlimit="8" fill="#3CB4E6"/><text fill="#FFFFFF" font-family="Arial,Arial_MSFontService,sans-serif" font-weight="400" font-size="83" transform="matrix(1 0 0 1 1696.32 1957)">1 </text><rect x="1784.5" y="1861.5" width="130" height="130" stroke="#BC9A00" stroke-width="4.58333" stroke-miterlimit="8" fill="#FFD200"/><text fill="#FFFFFF" font-family="Arial,Arial_MSFontService,sans-serif" font-weight="400" font-size="83" transform="matrix(1 0 0 1 1826.26 1957)">2</text><rect x="1914.5" y="1861.5" width="130" height="130" stroke="#338150" stroke-width="4.58333" stroke-miterlimit="8" fill="#49B170"/><text fill="#FFFFFF" font-family="Arial,Arial_MSFontService,sans-serif" font-weight="400" font-size="83" transform="matrix(1 0 0 1 1956.19 1957)">3</text><rect x="2044.5" y="1861.5" width="130" height="130" stroke="#650056" stroke-width="4.58333" stroke-miterlimit="8" fill="#8C0078"/><text fill="#FFFFFF" font-family="Arial,Arial_MSFontService,sans-serif" font-weight="400" font-size="83" transform="matrix(1 0 0 1 2086.13 1957)">4</text><rect x="2225.5" y="1861.5" width="130" height="130" stroke="#338150" stroke-width="4.58333" stroke-miterlimit="8" fill="#49B170"/><text fill="#FFFFFF" font-family="Arial,Arial_MSFontService,sans-serif" font-weight="400" font-size="83" transform="matrix(1 0 0 1 2267.26 1957)">3 </text><rect x="2356.5" y="1861.5" width="130" height="130" stroke="#650056" stroke-width="4.58333" stroke-miterlimit="8" fill="#8C0078"/><text fill="#FFFFFF" font-family="Arial,Arial_MSFontService,sans-serif" font-weight="400" font-size="83" transform="matrix(1 0 0 1 2397.97 1957)">4</text><rect x="2486.5" y="1861.5" width="130" height="130" stroke="#2983A9" stroke-width="4.58333" stroke-miterlimit="8" fill="#3CB4E6"/><text fill="#FFFFFF" font-family="Arial,Arial_MSFontService,sans-serif" font-weight="400" font-size="83" transform="matrix(1 0 0 1 2527.91 1957)">1</text><rect x="2616.5" y="1861.5" width="130" height="130" stroke="#BC9A00" stroke-width="4.58333" stroke-miterlimit="8" fill="#FFD200"/><text fill="#FFFFFF" font-family="Arial,Arial_MSFontService,sans-serif" font-weight="400" font-size="83" transform="matrix(1 0 0 1 2657.84 1957)">2 <tspan fill="#03234B" font-size="83" x="1082.41" y="-103">Packed</tspan><tspan fill="#03234B" font-size="83" x="1082.41" y="-4">half</tspan><tspan fill="#03234B" font-size="83" x="1215.33" y="-4">-</tspan><tspan fill="#03234B" font-size="83" x="1242.83" y="-4">word </tspan><tspan fill="#03234B" font-size="83" x="1082.41" y="95">exchang</tspan><tspan fill="#03234B" font-size="83" x="1394.08" y="95">e</tspan></text></g></svg>