<svg width="3890" height="1491" xmlns="http://www.w3.org/2000/svg" xmlns:xlink="http://www.w3.org/1999/xlink" overflow="hidden"><defs><clipPath id="clip0"><rect x="459" y="448" width="3890" height="1491"/></clipPath></defs><g clip-path="url(#clip0)" transform="translate(-459 -448)"><rect x="589" y="926" width="623" height="1013" fill="#03234B" fill-opacity="0.501961"/><text fill="#FFFFFF" font-family="Arial,Arial_MSFontService,sans-serif" font-weight="400" font-size="83" transform="matrix(1 0 0 1 770.018 1022)">Source <tspan font-size="83" x="-18.3333" y="99">memory</tspan></text><rect x="3084" y="926" width="623" height="1013" fill="#03234B" fill-opacity="0.501961"/><text fill="#FFFFFF" font-family="Arial,Arial_MSFontService,sans-serif" font-weight="400" font-size="83" transform="matrix(1 0 0 1 3189.16 1022)">Destination <tspan font-size="83" x="57.2918" y="99">memory</tspan></text><rect x="1420" y="926" width="1560" height="1013" fill="#03234B" fill-opacity="0.501961"/><text fill="#FFFFFF" font-family="Arial,Arial_MSFontService,sans-serif" font-weight="400" font-size="83" transform="matrix(1 0 0 1 1996.03 1022)">GPDMA <tspan font-size="83" x="320.856" y="0">ch</tspan></text><rect x="641.5" y="458.5" width="130" height="130" stroke="#2983A9" stroke-width="4.58333" stroke-miterlimit="8" fill="#3CB4E6"/><text fill="#FFFFFF" font-family="Arial,Arial_MSFontService,sans-serif" font-weight="400" font-size="83" transform="matrix(1 0 0 1 678.239 553)">B</text><rect x="641.5" y="588.5" width="260" height="130" stroke="#2983A9" stroke-width="4.58333" stroke-miterlimit="8" fill="#3CB4E6"/><text fill="#FFFFFF" font-family="Arial,Arial_MSFontService,sans-serif" font-weight="400" font-size="83" transform="matrix(1 0 0 1 740.915 683)">H </text><rect x="641.5" y="718.5" width="520" height="130" stroke="#2983A9" stroke-width="4.58333" stroke-miterlimit="8" fill="#3CB4E6"/><text fill="#FFFFFF" font-family="Arial,Arial_MSFontService,sans-serif" font-weight="400" font-size="83" transform="matrix(1 0 0 1 861.685 813)">W<tspan fill="#03234B" font-size="83" x="-57.9772" y="-259">Byte</tspan><tspan fill="#03234B" font-size="83" x="71.9585" y="-129">Half</tspan><tspan fill="#03234B" font-size="83" x="218.625" y="-129">-</tspan><tspan fill="#03234B" font-size="83" x="246.125" y="-129">word</tspan><tspan fill="#03234B" font-size="83" x="331.83" y="1">Word</tspan></text><rect x="459" y="1186" width="3846" height="701" fill="#49B170" fill-opacity="0.501961"/><rect x="641.5" y="1315.5" width="130" height="130" stroke="#2983A9" stroke-width="4.58333" stroke-miterlimit="8" fill="#3CB4E6"/><text fill="#FFFFFF" font-family="Arial,Arial_MSFontService,sans-serif" font-weight="400" font-size="83" transform="matrix(1 0 0 1 682.823 1411)">1 </text><rect x="771.5" y="1315.5" width="130" height="130" stroke="#BC9A00" stroke-width="4.58333" stroke-miterlimit="8" fill="#FFD200"/><text fill="#FFFFFF" font-family="Arial,Arial_MSFontService,sans-serif" font-weight="400" font-size="83" transform="matrix(1 0 0 1 812.758 1411)">2</text><rect x="901.5" y="1315.5" width="130" height="130" stroke="#338150" stroke-width="4.58333" stroke-miterlimit="8" fill="#49B170"/><text fill="#FFFFFF" font-family="Arial,Arial_MSFontService,sans-serif" font-weight="400" font-size="83" transform="matrix(1 0 0 1 942.694 1411)">3</text><rect x="1031.5" y="1315.5" width="130" height="130" stroke="#650056" stroke-width="4.58333" stroke-miterlimit="8" fill="#8C0078"/><text fill="#FFFFFF" font-family="Arial,Arial_MSFontService,sans-serif" font-weight="400" font-size="83" transform="matrix(1 0 0 1 1072.63 1411)">4 </text><rect x="1446.5" y="1315.5" width="130" height="130" stroke="#2983A9" stroke-width="4.58333" stroke-miterlimit="8" fill="#3CB4E6"/><text fill="#FFFFFF" font-family="Arial,Arial_MSFontService,sans-serif" font-weight="400" font-size="83" transform="matrix(1 0 0 1 1483.84 1411)">B</text><rect x="2824.5" y="1315.5" width="130" height="130" stroke="#2983A9" stroke-width="4.58333" stroke-miterlimit="8" fill="#3CB4E6"/><text fill="#FFFFFF" font-family="Arial,Arial_MSFontService,sans-serif" font-weight="400" font-size="83" transform="matrix(1 0 0 1 2849.7 1411)">W</text><path d="M1161 1373.13 1412.48 1373.13 1412.48 1386.88 1161 1386.88ZM1405.61 1359.38 1446.86 1380 1405.61 1400.63Z" fill="#E6007E"/><rect x="3136.5" y="1315.5" width="129" height="130" stroke="#338150" stroke-width="4.58333" stroke-miterlimit="8" fill="#49B170"/><text fill="#FFFFFF" font-family="Arial,Arial_MSFontService,sans-serif" font-weight="400" font-size="83" transform="matrix(1 0 0 1 3177.59 1411)">3 </text><rect x="3265.5" y="1315.5" width="130" height="130" stroke="#650056" stroke-width="4.58333" stroke-miterlimit="8" fill="#8C0078"/><text fill="#FFFFFF" font-family="Arial,Arial_MSFontService,sans-serif" font-weight="400" font-size="83" transform="matrix(1 0 0 1 3307.52 1411)">4</text><rect x="3395.5" y="1315.5" width="130" height="130" stroke="#2983A9" stroke-width="4.58333" stroke-miterlimit="8" fill="#3CB4E6"/><text fill="#FFFFFF" font-family="Arial,Arial_MSFontService,sans-serif" font-weight="400" font-size="83" transform="matrix(1 0 0 1 3437.46 1411)">1</text><rect x="3525.5" y="1315.5" width="130" height="130" stroke="#BC9A00" stroke-width="4.58333" stroke-miterlimit="8" fill="#FFD200"/><text fill="#FFFFFF" font-family="Arial,Arial_MSFontService,sans-serif" font-weight="400" font-size="83" transform="matrix(1 0 0 1 3567.39 1411)">2</text><path d="M0 0 0.000360892 51.9743" stroke="#E6007E" stroke-width="13.75" stroke-linecap="round" stroke-miterlimit="8" fill="none" fill-rule="evenodd" transform="matrix(1 0 0 -1 1992 1496.97)"/><path d="M6.875-4.77378e-05 6.87512 17.5992C6.87515 21.3962 3.79713 24.4743 0.000169941 24.4743-3.79679 24.4743-6.87485 21.3963-6.87488 17.5993L-6.875 4.77378e-05C-6.87503-3.79691-3.79701-6.87497-4.77378e-05-6.875 3.79691-6.87503 6.87497-3.79701 6.875-4.77378e-05ZM20.6251 10.7241 0.000360892 51.9743-20.6249 10.7244Z" fill="#E6007E" transform="matrix(1 0 0 -1 2278 1496.97)"/><path d="M1992 1497 2277.86 1497" stroke="#E6007E" stroke-width="13.75" stroke-linecap="round" stroke-miterlimit="8" fill="none" fill-rule="evenodd"/><path d="M0 0 0.000360892 77.9614" stroke="#E6007E" stroke-width="13.75" stroke-linecap="round" stroke-miterlimit="8" fill="none" fill-rule="evenodd" transform="matrix(1 0 0 -1 1732 1522.96)"/><path d="M6.875-3.18252e-05 6.8752 43.5864C6.87522 47.3833 3.79719 50.4614 0.000233592 50.4614-3.79672 50.4614-6.87478 47.3834-6.8748 43.5864L-6.875 3.18252e-05C-6.87502-3.79693-3.79699-6.87498-3.18252e-05-6.875 3.79693-6.87502 6.87498-3.79699 6.875-3.18252e-05ZM20.6252 36.7113 0.000360892 77.9614-20.6248 36.7115Z" fill="#E6007E" transform="matrix(1 0 0 -1 2538 1522.96)"/><path d="M1732 1523 2537.6 1523" stroke="#E6007E" stroke-width="13.75" stroke-linecap="round" stroke-miterlimit="8" fill="none" fill-rule="evenodd"/><path d="M0 0 0.000360892 77.9614" stroke="#E6007E" stroke-width="13.75" stroke-linecap="round" stroke-miterlimit="8" fill="none" fill-rule="evenodd" transform="matrix(1 0 0 -1 1862 1315.96)"/><path d="M2674.87 1238 2674.88 1281.59C2674.88 1285.38 2671.8 1288.46 2668 1288.46 2664.2 1288.46 2661.12 1285.38 2661.12 1281.59L2661.12 1238C2661.12 1234.2 2664.2 1231.12 2668 1231.12 2671.8 1231.12 2674.87 1234.2 2674.87 1238ZM2688.62 1274.71 2668 1315.96 2647.38 1274.71Z" fill="#E6007E"/><path d="M1862 1238 2667.6 1238" stroke="#E6007E" stroke-width="13.75" stroke-linecap="round" stroke-miterlimit="8" fill="none" fill-rule="evenodd"/><path d="M0 0 0.000360892 51.9743" stroke="#E6007E" stroke-width="13.75" stroke-linecap="round" stroke-miterlimit="8" fill="none" fill-rule="evenodd" transform="matrix(1 0 0 -1 2122 1314.97)"/><path d="M2414.88 1263 2414.88 1280.6C2414.88 1284.4 2411.8 1287.47 2408 1287.47 2404.2 1287.47 2401.13 1284.4 2401.12 1280.6L2401.12 1263C2401.12 1259.2 2404.2 1256.12 2408 1256.12 2411.8 1256.12 2414.88 1259.2 2414.88 1263ZM2428.62 1273.72 2408 1314.97 2387.38 1273.72Z" fill="#E6007E"/><path d="M2122 1263 2407.86 1263" stroke="#E6007E" stroke-width="13.75" stroke-linecap="round" stroke-miterlimit="8" fill="none" fill-rule="evenodd"/><rect x="1654.5" y="1315.5" width="130" height="130" stroke="#2983A9" stroke-width="4.58333" stroke-miterlimit="8" fill="#3CB4E6"/><text fill="#FFFFFF" font-family="Arial,Arial_MSFontService,sans-serif" font-weight="400" font-size="83" transform="matrix(1 0 0 1 1696.32 1411)">1 </text><rect x="1784.5" y="1315.5" width="130" height="130" stroke="#BC9A00" stroke-width="4.58333" stroke-miterlimit="8" fill="#FFD200"/><text fill="#FFFFFF" font-family="Arial,Arial_MSFontService,sans-serif" font-weight="400" font-size="83" transform="matrix(1 0 0 1 1826.26 1411)">2</text><rect x="1914.5" y="1315.5" width="130" height="130" stroke="#338150" stroke-width="4.58333" stroke-miterlimit="8" fill="#49B170"/><text fill="#FFFFFF" font-family="Arial,Arial_MSFontService,sans-serif" font-weight="400" font-size="83" transform="matrix(1 0 0 1 1956.19 1411)">3</text><rect x="2044.5" y="1315.5" width="130" height="130" stroke="#650056" stroke-width="4.58333" stroke-miterlimit="8" fill="#8C0078"/><text fill="#FFFFFF" font-family="Arial,Arial_MSFontService,sans-serif" font-weight="400" font-size="83" transform="matrix(1 0 0 1 2086.13 1411)">4</text><rect x="2225.5" y="1315.5" width="130" height="130" stroke="#338150" stroke-width="4.58333" stroke-miterlimit="8" fill="#49B170"/><text fill="#FFFFFF" font-family="Arial,Arial_MSFontService,sans-serif" font-weight="400" font-size="83" transform="matrix(1 0 0 1 2267.26 1411)">3 </text><rect x="2356.5" y="1315.5" width="130" height="130" stroke="#650056" stroke-width="4.58333" stroke-miterlimit="8" fill="#8C0078"/><text fill="#FFFFFF" font-family="Arial,Arial_MSFontService,sans-serif" font-weight="400" font-size="83" transform="matrix(1 0 0 1 2397.97 1411)">4</text><rect x="2486.5" y="1315.5" width="130" height="130" stroke="#2983A9" stroke-width="4.58333" stroke-miterlimit="8" fill="#3CB4E6"/><text fill="#FFFFFF" font-family="Arial,Arial_MSFontService,sans-serif" font-weight="400" font-size="83" transform="matrix(1 0 0 1 2527.91 1411)">1</text><rect x="2616.5" y="1315.5" width="130" height="130" stroke="#BC9A00" stroke-width="4.58333" stroke-miterlimit="8" fill="#FFD200"/><text fill="#FFFFFF" font-family="Arial,Arial_MSFontService,sans-serif" font-weight="400" font-size="83" transform="matrix(1 0 0 1 2657.84 1411)">2 <tspan fill="#03234B" font-size="83" x="1082.41" y="10">Packed</tspan><tspan fill="#03234B" font-size="83" x="1082.41" y="109">half</tspan><tspan fill="#03234B" font-size="83" x="1215.33" y="109">-</tspan><tspan fill="#03234B" font-size="83" x="1242.83" y="109">word </tspan><tspan fill="#03234B" font-size="83" x="1082.41" y="208">exchange byte </tspan><tspan fill="#03234B" font-size="83" x="1082.41" y="307">exchange</tspan></text><rect x="1654.5" y="1653.5" width="130" height="130" stroke="#338150" stroke-width="4.58333" stroke-miterlimit="8" fill="#49B170"/><text fill="#FFFFFF" font-family="Arial,Arial_MSFontService,sans-serif" font-weight="400" font-size="83" transform="matrix(1 0 0 1 1696.32 1749)">3 </text><rect x="1785.5" y="1653.5" width="130" height="130" stroke="#650056" stroke-width="4.58333" stroke-miterlimit="8" fill="#8C0078"/><text fill="#FFFFFF" font-family="Arial,Arial_MSFontService,sans-serif" font-weight="400" font-size="83" transform="matrix(1 0 0 1 1827.04 1749)">4</text><rect x="1915.5" y="1653.5" width="130" height="130" stroke="#2983A9" stroke-width="4.58333" stroke-miterlimit="8" fill="#3CB4E6"/><text fill="#FFFFFF" font-family="Arial,Arial_MSFontService,sans-serif" font-weight="400" font-size="83" transform="matrix(1 0 0 1 1956.97 1749)">1</text><rect x="2045.5" y="1653.5" width="130" height="130" stroke="#BC9A00" stroke-width="4.58333" stroke-miterlimit="8" fill="#FFD200"/><text fill="#FFFFFF" font-family="Arial,Arial_MSFontService,sans-serif" font-weight="400" font-size="83" transform="matrix(1 0 0 1 2086.91 1749)">2 </text><rect x="2824.5" y="1653.5" width="130" height="130" stroke="#2983A9" stroke-width="4.58333" stroke-miterlimit="8" fill="#3CB4E6"/><text fill="#FFFFFF" font-family="Arial,Arial_MSFontService,sans-serif" font-weight="400" font-size="83" transform="matrix(1 0 0 1 2849.7 1749)">W</text><path d="M6.875-4.77378e-05 6.87512 17.5992C6.87515 21.3962 3.79713 24.4743 0.000169941 24.4743-3.79679 24.4743-6.87485 21.3963-6.87488 17.5993L-6.875 4.77378e-05C-6.87503-3.79691-3.79701-6.87497-4.77378e-05-6.875 3.79691-6.87503 6.87497-3.79701 6.875-4.77378e-05ZM20.6251 10.7241 0.000360892 51.9743-20.6249 10.7244Z" fill="#E6007E" transform="matrix(1 0 0 -1 2538 1834.97)"/><path d="M6.875-3.18252e-05 6.8752 43.5864C6.87522 47.3833 3.79719 50.4614 0.000233592 50.4614-3.79672 50.4614-6.87478 47.3834-6.8748 43.5864L-6.875 3.18252e-05C-6.87502-3.79693-3.79699-6.87498-3.18252e-05-6.875 3.79693-6.87502 6.87498-3.79699 6.875-3.18252e-05ZM20.6252 36.7113 0.000360892 77.9614-20.6248 36.7115Z" fill="#E6007E" transform="matrix(1 0 0 -1 2668 1860.96)"/><path d="M2414.88 1575 2414.88 1618.59C2414.88 1622.38 2411.8 1625.46 2408 1625.46 2404.2 1625.46 2401.13 1622.38 2401.13 1618.59L2401.12 1575C2401.12 1571.2 2404.2 1568.13 2408 1568.13 2411.8 1568.13 2414.88 1571.2 2414.88 1575ZM2428.63 1611.71 2408 1652.96 2387.38 1611.71Z" fill="#E6007E"/><path d="M0 0 0.000360892 51.9743" stroke="#E6007E" stroke-width="13.75" stroke-linecap="round" stroke-miterlimit="8" fill="none" fill-rule="evenodd" transform="matrix(1 0 0 -1 1862 1652.97)"/><path d="M2284.88 1601 2284.88 1618.6C2284.88 1622.4 2281.8 1625.47 2278 1625.47 2274.2 1625.47 2271.13 1622.4 2271.12 1618.6L2271.12 1601C2271.12 1597.2 2274.2 1594.12 2278 1594.12 2281.8 1594.12 2284.88 1597.2 2284.88 1601ZM2298.62 1611.72 2278 1652.97 2257.38 1611.72Z" fill="#E6007E"/><path d="M1862 1601 2277.79 1601" stroke="#E6007E" stroke-width="13.75" stroke-linecap="round" stroke-miterlimit="8" fill="none" fill-rule="evenodd"/><rect x="2225.5" y="1653.5" width="130" height="130" stroke="#650056" stroke-width="4.58333" stroke-miterlimit="8" fill="#8C0078"/><text fill="#FFFFFF" font-family="Arial,Arial_MSFontService,sans-serif" font-weight="400" font-size="83" transform="matrix(1 0 0 1 2267.26 1749)">4</text><rect x="2356.5" y="1653.5" width="130" height="130" stroke="#338150" stroke-width="4.58333" stroke-miterlimit="8" fill="#49B170"/><text fill="#FFFFFF" font-family="Arial,Arial_MSFontService,sans-serif" font-weight="400" font-size="83" transform="matrix(1 0 0 1 2397.97 1749)">3 </text><rect x="2486.5" y="1653.5" width="130" height="130" stroke="#BC9A00" stroke-width="4.58333" stroke-miterlimit="8" fill="#FFD200"/><text fill="#FFFFFF" font-family="Arial,Arial_MSFontService,sans-serif" font-weight="400" font-size="83" transform="matrix(1 0 0 1 2527.91 1749)">2 </text><rect x="2616.5" y="1653.5" width="130" height="130" stroke="#2983A9" stroke-width="4.58333" stroke-miterlimit="8" fill="#3CB4E6"/><text fill="#FFFFFF" font-family="Arial,Arial_MSFontService,sans-serif" font-weight="400" font-size="83" transform="matrix(1 0 0 1 2657.84 1749)">1</text><rect x="3136.5" y="1653.5" width="129" height="130" stroke="#650056" stroke-width="4.58333" stroke-miterlimit="8" fill="#8C0078"/><text fill="#FFFFFF" font-family="Arial,Arial_MSFontService,sans-serif" font-weight="400" font-size="83" transform="matrix(1 0 0 1 3177.59 1749)">4</text><rect x="3265.5" y="1653.5" width="130" height="130" stroke="#338150" stroke-width="4.58333" stroke-miterlimit="8" fill="#49B170"/><text fill="#FFFFFF" font-family="Arial,Arial_MSFontService,sans-serif" font-weight="400" font-size="83" transform="matrix(1 0 0 1 3307.52 1749)">3 </text><rect x="3395.5" y="1653.5" width="130" height="130" stroke="#BC9A00" stroke-width="4.58333" stroke-miterlimit="8" fill="#FFD200"/><text fill="#FFFFFF" font-family="Arial,Arial_MSFontService,sans-serif" font-weight="400" font-size="83" transform="matrix(1 0 0 1 3437.46 1749)">2 </text><rect x="3525.5" y="1653.5" width="130" height="130" stroke="#2983A9" stroke-width="4.58333" stroke-miterlimit="8" fill="#3CB4E6"/><text fill="#FFFFFF" font-family="Arial,Arial_MSFontService,sans-serif" font-weight="400" font-size="83" transform="matrix(1 0 0 1 3567.39 1749)">1 </text><path d="M0 0 0.000360892 77.9614" stroke="#E6007E" stroke-width="13.75" stroke-linecap="round" stroke-miterlimit="8" fill="none" fill-rule="evenodd" transform="matrix(1 0 0 -1 1732 1652.96)"/><path d="M1732 1575 2407.67 1575" stroke="#E6007E" stroke-width="13.75" stroke-linecap="round" stroke-miterlimit="8" fill="none" fill-rule="evenodd"/><path d="M0 0 0.000360892 51.9743" stroke="#E6007E" stroke-width="13.75" stroke-linecap="round" stroke-miterlimit="8" fill="none" fill-rule="evenodd" transform="matrix(1 0 0 -1 2122 1834.97)"/><path d="M2122 1835 2537.79 1835" stroke="#E6007E" stroke-width="13.75" stroke-linecap="round" stroke-miterlimit="8" fill="none" fill-rule="evenodd"/><path d="M0 0 0.000360892 77.9614" stroke="#E6007E" stroke-width="13.75" stroke-linecap="round" stroke-miterlimit="8" fill="none" fill-rule="evenodd" transform="matrix(1 0 0 -1 1992 1860.96)"/><path d="M1992 1861 2667.67 1861" stroke="#E6007E" stroke-width="13.75" stroke-linecap="round" stroke-miterlimit="8" fill="none" fill-rule="evenodd"/><path d="M1576 1373.13 1619.59 1373.13 1619.59 1386.88 1576 1386.88ZM1612.71 1359.38 1653.96 1380 1612.71 1400.63Z" fill="#E6007E"/><path d="M2746 1711.13 2789.59 1711.13 2789.59 1724.88 2746 1724.88ZM2782.71 1697.38 2823.96 1718 2782.71 1738.63Z" fill="#E6007E"/><path d="M2954 1711.13 3101.53 1711.13 3101.53 1724.88 2954 1724.88ZM3094.66 1697.38 3135.91 1718 3094.66 1738.63Z" fill="#E6007E"/></g></svg>