<svg width="3820" height="1959" xmlns="http://www.w3.org/2000/svg" xmlns:xlink="http://www.w3.org/1999/xlink" overflow="hidden"><defs><clipPath id="clip0"><rect x="459" y="448" width="3820" height="1959"/></clipPath></defs><g clip-path="url(#clip0)" transform="translate(-459 -448)"><rect x="589" y="926" width="623" height="1481" fill="#03234B" fill-opacity="0.501961"/><text fill="#FFFFFF" font-family="Arial,Arial_MSFontService,sans-serif" font-weight="400" font-size="83" transform="matrix(1 0 0 1 770.018 1022)">Source <tspan font-size="83" x="-18.3333" y="99">memory</tspan></text><rect x="2876" y="926" width="623" height="1481" fill="#03234B" fill-opacity="0.501961"/><text fill="#FFFFFF" font-family="Arial,Arial_MSFontService,sans-serif" font-weight="400" font-size="83" transform="matrix(1 0 0 1 2981.26 1022)">Destination <tspan font-size="83" x="57.2915" y="99">memory</tspan></text><rect x="1420" y="926" width="1300" height="1481" fill="#03234B" fill-opacity="0.501961"/><text fill="#FFFFFF" font-family="Arial,Arial_MSFontService,sans-serif" font-weight="400" font-size="83" transform="matrix(1 0 0 1 1866.09 1022)">GPDMA <tspan font-size="83" x="320.856" y="0">ch</tspan></text><rect x="459" y="1679" width="3820" height="676" fill="#49B170" fill-opacity="0.501961"/><rect x="641.5" y="1731.5" width="130" height="130" stroke="#2983A9" stroke-width="4.58333" stroke-miterlimit="8" fill="#3CB4E6"/><text fill="#FFFFFF" font-family="Arial,Arial_MSFontService,sans-serif" font-weight="400" font-size="83" transform="matrix(1 0 0 1 682.823 1827)">1 </text><rect x="771" y="1731" width="130" height="130" fill="#3CB4E6" fill-opacity="0.501961"/><text fill="#FFFFFF" font-family="Arial,Arial_MSFontService,sans-serif" font-weight="400" font-size="83" transform="matrix(1 0 0 1 812.758 1827)">2</text><rect x="901" y="1731" width="130" height="130" fill="#3CB4E6" fill-opacity="0.501961"/><text fill="#FFFFFF" font-family="Arial,Arial_MSFontService,sans-serif" font-weight="400" font-size="83" transform="matrix(1 0 0 1 942.694 1827)">3</text><rect x="1031" y="1731" width="130" height="130" fill="#3CB4E6" fill-opacity="0.501961"/><text fill="#FFFFFF" font-family="Arial,Arial_MSFontService,sans-serif" font-weight="400" font-size="83" transform="matrix(1 0 0 1 1072.63 1827)">4 </text><rect x="1446.5" y="1731.5" width="130" height="130" stroke="#2983A9" stroke-width="4.58333" stroke-miterlimit="8" fill="#3CB4E6"/><text fill="#FFFFFF" font-family="Arial,Arial_MSFontService,sans-serif" font-weight="400" font-size="83" transform="matrix(1 0 0 1 1483.84 1827)">B</text><rect x="2564.5" y="1731.5" width="130" height="130" stroke="#2983A9" stroke-width="4.58333" stroke-miterlimit="8" fill="#3CB4E6"/><text fill="#FFFFFF" font-family="Arial,Arial_MSFontService,sans-serif" font-weight="400" font-size="83" transform="matrix(1 0 0 1 2589.83 1827)">W</text><path d="M1161 1789.13 1412.48 1789.13 1412.48 1802.88 1161 1802.88ZM1405.61 1775.38 1446.86 1796 1405.61 1816.63Z" fill="#E6007E"/><rect x="1836.5" y="1731.5" width="130" height="130" stroke="#2983A9" stroke-width="4.58333" stroke-miterlimit="8" fill="#3CB4E6"/><text fill="#FFFFFF" font-family="Arial,Arial_MSFontService,sans-serif" font-weight="400" font-size="83" transform="matrix(1 0 0 1 1878.23 1827)">1 </text><path d="M1576 1789.13 1801.5 1789.13 1801.5 1802.88 1576 1802.88ZM1794.62 1775.38 1835.87 1796 1794.62 1816.63Z" fill="#E6007E"/><rect x="641.5" y="458.5" width="130" height="130" stroke="#2983A9" stroke-width="4.58333" stroke-miterlimit="8" fill="#3CB4E6"/><text fill="#FFFFFF" font-family="Arial,Arial_MSFontService,sans-serif" font-weight="400" font-size="83" transform="matrix(1 0 0 1 678.239 553)">B</text><rect x="641.5" y="588.5" width="260" height="130" stroke="#2983A9" stroke-width="4.58333" stroke-miterlimit="8" fill="#3CB4E6"/><text fill="#FFFFFF" font-family="Arial,Arial_MSFontService,sans-serif" font-weight="400" font-size="83" transform="matrix(1 0 0 1 740.915 683)">H </text><rect x="641.5" y="718.5" width="520" height="130" stroke="#2983A9" stroke-width="4.58333" stroke-miterlimit="8" fill="#3CB4E6"/><text fill="#FFFFFF" font-family="Arial,Arial_MSFontService,sans-serif" font-weight="400" font-size="83" transform="matrix(1 0 0 1 861.685 813)">W<tspan fill="#03234B" font-size="83" x="-57.9772" y="-259">Byte</tspan><tspan fill="#03234B" font-size="83" x="71.9585" y="-129">Half</tspan><tspan fill="#03234B" font-size="83" x="218.625" y="-129">-</tspan><tspan fill="#03234B" font-size="83" x="246.125" y="-129">word</tspan><tspan fill="#03234B" font-size="83" x="331.83" y="1">Word</tspan></text><rect x="459" y="1393" width="3820" height="234" fill="#49B170" fill-opacity="0.501961"/><text fill="#03234B" font-family="Arial,Arial_MSFontService,sans-serif" font-weight="400" font-size="83" transform="matrix(1 0 0 1 3532.36 2114)">Packed</text><rect x="641.5" y="1445.5" width="130" height="130" stroke="#2983A9" stroke-width="4.58333" stroke-miterlimit="8" fill="#3CB4E6"/><text fill="#FFFFFF" font-family="Arial,Arial_MSFontService,sans-serif" font-weight="400" font-size="83" transform="matrix(1 0 0 1 682.823 1541)">1 </text><rect x="771" y="1445" width="130" height="130" fill="#3CB4E6" fill-opacity="0.501961"/><text fill="#FFFFFF" font-family="Arial,Arial_MSFontService,sans-serif" font-weight="400" font-size="83" transform="matrix(1 0 0 1 812.758 1541)">2</text><rect x="901" y="1445" width="130" height="130" fill="#3CB4E6" fill-opacity="0.501961"/><text fill="#FFFFFF" font-family="Arial,Arial_MSFontService,sans-serif" font-weight="400" font-size="83" transform="matrix(1 0 0 1 942.694 1541)">3</text><rect x="1031" y="1445" width="130" height="130" fill="#3CB4E6" fill-opacity="0.501961"/><text fill="#FFFFFF" font-family="Arial,Arial_MSFontService,sans-serif" font-weight="400" font-size="83" transform="matrix(1 0 0 1 1072.63 1541)">4 </text><rect x="1446.5" y="1445.5" width="130" height="130" stroke="#2983A9" stroke-width="4.58333" stroke-miterlimit="8" fill="#3CB4E6"/><text fill="#FFFFFF" font-family="Arial,Arial_MSFontService,sans-serif" font-weight="400" font-size="83" transform="matrix(1 0 0 1 1483.84 1541)">B</text><rect x="2564.5" y="1445.5" width="130" height="130" stroke="#2983A9" stroke-width="4.58333" stroke-miterlimit="8" fill="#3CB4E6"/><text fill="#FFFFFF" font-family="Arial,Arial_MSFontService,sans-serif" font-weight="400" font-size="83" transform="matrix(1 0 0 1 2589.83 1541)">W</text><path d="M1161 1503.13 1412.48 1503.13 1412.48 1516.88 1161 1516.88ZM1405.61 1489.38 1446.86 1510 1405.61 1530.63Z" fill="#E6007E"/><path d="M2330 1503.13 2529.51 1503.13 2529.51 1516.88 2330 1516.88ZM2522.63 1489.38 2563.88 1510 2522.63 1530.63Z" fill="#E6007E"/><rect x="1810.5" y="1445.5" width="130" height="130" stroke="#2983A9" stroke-width="4.58333" stroke-miterlimit="8" fill="#3CB4E6"/><text fill="#FFFFFF" font-family="Arial,Arial_MSFontService,sans-serif" font-weight="400" font-size="83" transform="matrix(1 0 0 1 1852.24 1541)">1 </text><path d="M1576 1503.13 1775.51 1503.13 1775.51 1516.88 1576 1516.88ZM1768.63 1489.38 1809.88 1510 1768.63 1530.63Z" fill="#E6007E"/><path d="M2694 1503.13 2893.51 1503.13 2893.51 1516.88 2694 1516.88ZM2886.63 1489.38 2927.88 1510 2886.63 1530.63Z" fill="#E6007E"/><rect x="2928.5" y="1445.5" width="130" height="130" stroke="#2983A9" stroke-width="4.58333" stroke-miterlimit="8" fill="#3CB4E6"/><text fill="#FFFFFF" font-family="Arial,Arial_MSFontService,sans-serif" font-weight="400" font-size="83" transform="matrix(1 0 0 1 2969.69 1541)">1 </text><rect x="3058.5" y="1445.5" width="130" height="130" stroke="#A9005B" stroke-width="4.58333" stroke-miterlimit="8" fill="#E6007E"/><text fill="#FFFFFF" font-family="Arial,Arial_MSFontService,sans-serif" font-weight="400" font-size="28" transform="matrix(1 0 0 1 3092.75 1521)">MSB </text><rect x="1940.5" y="1445.5" width="130" height="130" stroke="#A9005B" stroke-width="4.58333" stroke-miterlimit="8" fill="#E6007E"/><text fill="#FFFFFF" font-family="Arial,Arial_MSFontService,sans-serif" font-weight="400" font-size="28" transform="matrix(1 0 0 1 1975.3 1521)">MSB </text><rect x="459" y="1134" width="3820" height="233" fill="#49B170" fill-opacity="0.501961"/><rect x="641.5" y="1186.5" width="130" height="129" stroke="#2983A9" stroke-width="4.58333" stroke-miterlimit="8" fill="#3CB4E6"/><text fill="#FFFFFF" font-family="Arial,Arial_MSFontService,sans-serif" font-weight="400" font-size="83" transform="matrix(1 0 0 1 682.823 1281)">1 </text><rect x="771" y="1186" width="130" height="129" fill="#3CB4E6" fill-opacity="0.501961"/><text fill="#FFFFFF" font-family="Arial,Arial_MSFontService,sans-serif" font-weight="400" font-size="83" transform="matrix(1 0 0 1 812.758 1281)">2</text><rect x="901" y="1186" width="130" height="129" fill="#3CB4E6" fill-opacity="0.501961"/><text fill="#FFFFFF" font-family="Arial,Arial_MSFontService,sans-serif" font-weight="400" font-size="83" transform="matrix(1 0 0 1 942.694 1281)">3</text><rect x="1031" y="1186" width="130" height="129" fill="#3CB4E6" fill-opacity="0.501961"/><text fill="#FFFFFF" font-family="Arial,Arial_MSFontService,sans-serif" font-weight="400" font-size="83" transform="matrix(1 0 0 1 1072.63 1281)">4 </text><rect x="1446.5" y="1186.5" width="130" height="129" stroke="#2983A9" stroke-width="4.58333" stroke-miterlimit="8" fill="#3CB4E6"/><text fill="#FFFFFF" font-family="Arial,Arial_MSFontService,sans-serif" font-weight="400" font-size="83" transform="matrix(1 0 0 1 1483.84 1281)">B</text><rect x="2564.5" y="1186.5" width="130" height="129" stroke="#2983A9" stroke-width="4.58333" stroke-miterlimit="8" fill="#3CB4E6"/><text fill="#FFFFFF" font-family="Arial,Arial_MSFontService,sans-serif" font-weight="400" font-size="83" transform="matrix(1 0 0 1 2589.83 1281)">W</text><path d="M1161 1243.12 1412.48 1243.13 1412.48 1256.88 1161 1256.87ZM1405.61 1229.38 1446.86 1250 1405.61 1270.63Z" fill="#E6007E"/><rect x="1810.5" y="1186.5" width="130" height="129" stroke="#2983A9" stroke-width="4.58333" stroke-miterlimit="8" fill="#3CB4E6"/><text fill="#FFFFFF" font-family="Arial,Arial_MSFontService,sans-serif" font-weight="400" font-size="83" transform="matrix(1 0 0 1 1852.24 1281)">1 </text><path d="M2330 1243.12 2529.51 1243.13 2529.51 1256.88 2330 1256.87ZM2522.63 1229.38 2563.88 1250 2522.63 1270.63Z" fill="#E6007E"/><path d="M1576 1243.12 1775.51 1243.13 1775.51 1256.88 1576 1256.87ZM1768.63 1229.38 1809.88 1250 1768.63 1270.63Z" fill="#E6007E"/><path d="M2694 1243.12 2893.51 1243.13 2893.51 1256.88 2694 1256.87ZM2886.63 1229.38 2927.88 1250 2886.63 1270.63Z" fill="#E6007E"/><rect x="2928.5" y="1186.5" width="130" height="129" stroke="#2983A9" stroke-width="4.58333" stroke-miterlimit="8" fill="#3CB4E6"/><text fill="#FFFFFF" font-family="Arial,Arial_MSFontService,sans-serif" font-weight="400" font-size="83" transform="matrix(1 0 0 1 2969.69 1281)">1 </text><rect x="1940.5" y="1186.5" width="130" height="129" stroke="#A9005B" stroke-width="4.58333" stroke-miterlimit="8" fill="#E6007E"/><text fill="#FFFFFF" font-family="Arial,Arial_MSFontService,sans-serif" font-weight="400" font-size="83" transform="matrix(1 0 0 1 1982.18 1281)">0 </text><rect x="3058.5" y="1186.5" width="130" height="129" stroke="#A9005B" stroke-width="4.58333" stroke-miterlimit="8" fill="#E6007E"/><text fill="#FFFFFF" font-family="Arial,Arial_MSFontService,sans-serif" font-weight="400" font-size="83" transform="matrix(1 0 0 1 3099.63 1281)">0 <tspan fill="#03234B" font-size="83" x="432.73" y="-51">Right aligned</tspan><tspan fill="#03234B" font-size="83" x="432.73" y="48">zero padded</tspan></text><rect x="641.5" y="1887.5" width="130" height="130" stroke="#2983A9" stroke-width="4.58333" stroke-miterlimit="8" fill="#3CB4E6"/><text fill="#FFFFFF" font-family="Arial,Arial_MSFontService,sans-serif" font-weight="400" font-size="83" transform="matrix(1 0 0 1 682.823 1983)">1 </text><rect x="771.5" y="1887.5" width="130" height="130" stroke="#2983A9" stroke-width="4.58333" stroke-miterlimit="8" fill="#3CB4E6"/><text fill="#FFFFFF" font-family="Arial,Arial_MSFontService,sans-serif" font-weight="400" font-size="83" transform="matrix(1 0 0 1 812.758 1983)">2</text><rect x="901" y="1887" width="130" height="130" fill="#3CB4E6" fill-opacity="0.501961"/><text fill="#FFFFFF" font-family="Arial,Arial_MSFontService,sans-serif" font-weight="400" font-size="83" transform="matrix(1 0 0 1 942.694 1983)">3</text><rect x="1031" y="1887" width="130" height="130" fill="#3CB4E6" fill-opacity="0.501961"/><text fill="#FFFFFF" font-family="Arial,Arial_MSFontService,sans-serif" font-weight="400" font-size="83" transform="matrix(1 0 0 1 1072.63 1983)">4 </text><rect x="1446.5" y="1887.5" width="130" height="130" stroke="#2983A9" stroke-width="4.58333" stroke-miterlimit="8" fill="#3CB4E6"/><text fill="#FFFFFF" font-family="Arial,Arial_MSFontService,sans-serif" font-weight="400" font-size="83" transform="matrix(1 0 0 1 1483.84 1983)">B</text><rect x="2564.5" y="1887.5" width="130" height="130" stroke="#2983A9" stroke-width="4.58333" stroke-miterlimit="8" fill="#3CB4E6"/><text fill="#FFFFFF" font-family="Arial,Arial_MSFontService,sans-serif" font-weight="400" font-size="83" transform="matrix(1 0 0 1 2589.83 1983)">W</text><path d="M1161 1945.13 1412.48 1945.13 1412.48 1958.88 1161 1958.88ZM1405.61 1931.38 1446.86 1952 1405.61 1972.63Z" fill="#E6007E"/><rect x="1836.5" y="1887.5" width="130" height="130" stroke="#2983A9" stroke-width="4.58333" stroke-miterlimit="8" fill="#3CB4E6"/><text fill="#FFFFFF" font-family="Arial,Arial_MSFontService,sans-serif" font-weight="400" font-size="83" transform="matrix(1 0 0 1 1878.23 1983)">1 </text><path d="M1576 1945.13 1801.5 1945.13 1801.5 1958.88 1576 1958.88ZM1794.62 1931.38 1835.87 1952 1794.62 1972.63Z" fill="#E6007E"/><rect x="1966.5" y="1887.5" width="130" height="130" stroke="#2983A9" stroke-width="4.58333" stroke-miterlimit="8" fill="#3CB4E6"/><text fill="#FFFFFF" font-family="Arial,Arial_MSFontService,sans-serif" font-weight="400" font-size="83" transform="matrix(1 0 0 1 2008.17 1983)">2<tspan fill="#03234B" font-size="83" x="1524.19" y="-492">Right aligned</tspan><tspan fill="#03234B" font-size="83" x="1524.19" y="-393">sign padded </tspan></text><rect x="3188.5" y="1186.5" width="129" height="129" stroke="#A9005B" stroke-width="4.58333" stroke-miterlimit="8" fill="#E6007E"/><text fill="#FFFFFF" font-family="Arial,Arial_MSFontService,sans-serif" font-weight="400" font-size="83" transform="matrix(1 0 0 1 3229.56 1281)">0 </text><rect x="3317.5" y="1186.5" width="130" height="129" stroke="#A9005B" stroke-width="4.58333" stroke-miterlimit="8" fill="#E6007E"/><text fill="#FFFFFF" font-family="Arial,Arial_MSFontService,sans-serif" font-weight="400" font-size="83" transform="matrix(1 0 0 1 3359.5 1281)">0 </text><rect x="2070.5" y="1186.5" width="130" height="129" stroke="#A9005B" stroke-width="4.58333" stroke-miterlimit="8" fill="#E6007E"/><text fill="#FFFFFF" font-family="Arial,Arial_MSFontService,sans-serif" font-weight="400" font-size="83" transform="matrix(1 0 0 1 2112.12 1281)">0 </text><rect x="2200.5" y="1186.5" width="130" height="129" stroke="#A9005B" stroke-width="4.58333" stroke-miterlimit="8" fill="#E6007E"/><text fill="#FFFFFF" font-family="Arial,Arial_MSFontService,sans-serif" font-weight="400" font-size="83" transform="matrix(1 0 0 1 2242.05 1281)">0 </text><rect x="2070.5" y="1445.5" width="130" height="130" stroke="#A9005B" stroke-width="4.58333" stroke-miterlimit="8" fill="#E6007E"/><text fill="#FFFFFF" font-family="Arial,Arial_MSFontService,sans-serif" font-weight="400" font-size="28" transform="matrix(1 0 0 1 2105.24 1521)">MSB </text><rect x="2197.5" y="1445.5" width="130" height="130" stroke="#A9005B" stroke-width="4.58333" stroke-miterlimit="8" fill="#E6007E"/><text fill="#FFFFFF" font-family="Arial,Arial_MSFontService,sans-serif" font-weight="400" font-size="28" transform="matrix(1 0 0 1 2232.15 1521)">MSB </text><rect x="3191.5" y="1445.5" width="129" height="130" stroke="#A9005B" stroke-width="4.58333" stroke-miterlimit="8" fill="#E6007E"/><text fill="#FFFFFF" font-family="Arial,Arial_MSFontService,sans-serif" font-weight="400" font-size="28" transform="matrix(1 0 0 1 3225.71 1521)">MSB </text><rect x="3317.5" y="1445.5" width="130" height="130" stroke="#A9005B" stroke-width="4.58333" stroke-miterlimit="8" fill="#E6007E"/><text fill="#FFFFFF" font-family="Arial,Arial_MSFontService,sans-serif" font-weight="400" font-size="28" transform="matrix(1 0 0 1 3352.62 1521)">MSB </text><rect x="641.5" y="2043.5" width="130" height="130" stroke="#2983A9" stroke-width="4.58333" stroke-miterlimit="8" fill="#3CB4E6"/><text fill="#FFFFFF" font-family="Arial,Arial_MSFontService,sans-serif" font-weight="400" font-size="83" transform="matrix(1 0 0 1 682.823 2139)">1 </text><rect x="771.5" y="2043.5" width="130" height="130" stroke="#2983A9" stroke-width="4.58333" stroke-miterlimit="8" fill="#3CB4E6"/><text fill="#FFFFFF" font-family="Arial,Arial_MSFontService,sans-serif" font-weight="400" font-size="83" transform="matrix(1 0 0 1 812.758 2139)">2</text><rect x="901.5" y="2043.5" width="130" height="130" stroke="#2983A9" stroke-width="4.58333" stroke-miterlimit="8" fill="#3CB4E6"/><text fill="#FFFFFF" font-family="Arial,Arial_MSFontService,sans-serif" font-weight="400" font-size="83" transform="matrix(1 0 0 1 942.694 2139)">3</text><rect x="1031" y="2043" width="130" height="130" fill="#3CB4E6" fill-opacity="0.501961"/><text fill="#FFFFFF" font-family="Arial,Arial_MSFontService,sans-serif" font-weight="400" font-size="83" transform="matrix(1 0 0 1 1072.63 2139)">4 </text><rect x="1446.5" y="2043.5" width="130" height="130" stroke="#2983A9" stroke-width="4.58333" stroke-miterlimit="8" fill="#3CB4E6"/><text fill="#FFFFFF" font-family="Arial,Arial_MSFontService,sans-serif" font-weight="400" font-size="83" transform="matrix(1 0 0 1 1483.84 2139)">B</text><rect x="2564.5" y="2043.5" width="130" height="130" stroke="#2983A9" stroke-width="4.58333" stroke-miterlimit="8" fill="#3CB4E6"/><text fill="#FFFFFF" font-family="Arial,Arial_MSFontService,sans-serif" font-weight="400" font-size="83" transform="matrix(1 0 0 1 2589.83 2139)">W</text><path d="M1161 2101.12 1412.48 2101.12 1412.48 2114.88 1161 2114.87ZM1405.61 2087.38 1446.86 2108 1405.61 2128.62Z" fill="#E6007E"/><rect x="1836.5" y="2043.5" width="130" height="130" stroke="#2983A9" stroke-width="4.58333" stroke-miterlimit="8" fill="#3CB4E6"/><text fill="#FFFFFF" font-family="Arial,Arial_MSFontService,sans-serif" font-weight="400" font-size="83" transform="matrix(1 0 0 1 1878.23 2139)">1 </text><path d="M1576 2101.12 1801.5 2101.12 1801.5 2114.88 1576 2114.87ZM1794.62 2087.38 1835.87 2108 1794.62 2128.62Z" fill="#E6007E"/><rect x="1966.5" y="2043.5" width="130" height="130" stroke="#2983A9" stroke-width="4.58333" stroke-miterlimit="8" fill="#3CB4E6"/><text fill="#FFFFFF" font-family="Arial,Arial_MSFontService,sans-serif" font-weight="400" font-size="83" transform="matrix(1 0 0 1 2008.17 2139)">2</text><rect x="641.5" y="2199.5" width="130" height="130" stroke="#2983A9" stroke-width="4.58333" stroke-miterlimit="8" fill="#3CB4E6"/><text fill="#FFFFFF" font-family="Arial,Arial_MSFontService,sans-serif" font-weight="400" font-size="83" transform="matrix(1 0 0 1 682.823 2294)">1 </text><rect x="771.5" y="2199.5" width="130" height="130" stroke="#2983A9" stroke-width="4.58333" stroke-miterlimit="8" fill="#3CB4E6"/><text fill="#FFFFFF" font-family="Arial,Arial_MSFontService,sans-serif" font-weight="400" font-size="83" transform="matrix(1 0 0 1 812.758 2294)">2</text><rect x="901.5" y="2199.5" width="130" height="130" stroke="#2983A9" stroke-width="4.58333" stroke-miterlimit="8" fill="#3CB4E6"/><text fill="#FFFFFF" font-family="Arial,Arial_MSFontService,sans-serif" font-weight="400" font-size="83" transform="matrix(1 0 0 1 942.694 2294)">3</text><rect x="1031.5" y="2199.5" width="130" height="130" stroke="#2983A9" stroke-width="4.58333" stroke-miterlimit="8" fill="#3CB4E6"/><text fill="#FFFFFF" font-family="Arial,Arial_MSFontService,sans-serif" font-weight="400" font-size="83" transform="matrix(1 0 0 1 1072.63 2294)">4 </text><rect x="1446.5" y="2199.5" width="130" height="130" stroke="#2983A9" stroke-width="4.58333" stroke-miterlimit="8" fill="#3CB4E6"/><text fill="#FFFFFF" font-family="Arial,Arial_MSFontService,sans-serif" font-weight="400" font-size="83" transform="matrix(1 0 0 1 1483.84 2294)">B</text><rect x="2564.5" y="2199.5" width="130" height="130" stroke="#2983A9" stroke-width="4.58333" stroke-miterlimit="8" fill="#3CB4E6"/><text fill="#FFFFFF" font-family="Arial,Arial_MSFontService,sans-serif" font-weight="400" font-size="83" transform="matrix(1 0 0 1 2589.83 2294)">W</text><path d="M1161 2257.12 1412.48 2257.13 1412.48 2270.88 1161 2270.88ZM1405.61 2243.38 1446.86 2264 1405.61 2284.63Z" fill="#E6007E"/><rect x="1836.5" y="2199.5" width="130" height="130" stroke="#2983A9" stroke-width="4.58333" stroke-miterlimit="8" fill="#3CB4E6"/><text fill="#FFFFFF" font-family="Arial,Arial_MSFontService,sans-serif" font-weight="400" font-size="83" transform="matrix(1 0 0 1 1878.23 2294)">1 </text><path d="M2356 2257.12 2529.52 2257.13 2529.52 2270.88 2356 2270.88ZM2522.65 2243.38 2563.9 2264 2522.65 2284.63Z" fill="#E6007E"/><path d="M1576 2257.12 1801.5 2257.13 1801.5 2270.88 1576 2270.88ZM1794.62 2243.38 1835.87 2264 1794.62 2284.63Z" fill="#E6007E"/><path d="M2694 2257.12 2893.51 2257.13 2893.51 2270.88 2694 2270.88ZM2886.63 2243.38 2927.88 2264 2886.63 2284.63Z" fill="#E6007E"/><rect x="2928.5" y="2199.5" width="130" height="130" stroke="#2983A9" stroke-width="4.58333" stroke-miterlimit="8" fill="#3CB4E6"/><text fill="#FFFFFF" font-family="Arial,Arial_MSFontService,sans-serif" font-weight="400" font-size="83" transform="matrix(1 0 0 1 2969.69 2294)">1 </text><rect x="1966.5" y="2199.5" width="130" height="130" stroke="#2983A9" stroke-width="4.58333" stroke-miterlimit="8" fill="#3CB4E6"/><text fill="#FFFFFF" font-family="Arial,Arial_MSFontService,sans-serif" font-weight="400" font-size="83" transform="matrix(1 0 0 1 2008.17 2294)">2</text><rect x="3058.5" y="2199.5" width="130" height="130" stroke="#2983A9" stroke-width="4.58333" stroke-miterlimit="8" fill="#3CB4E6"/><text fill="#FFFFFF" font-family="Arial,Arial_MSFontService,sans-serif" font-weight="400" font-size="83" transform="matrix(1 0 0 1 3099.63 2294)">2</text><rect x="2096.5" y="2043.5" width="130" height="130" stroke="#2983A9" stroke-width="4.58333" stroke-miterlimit="8" fill="#3CB4E6"/><text fill="#FFFFFF" font-family="Arial,Arial_MSFontService,sans-serif" font-weight="400" font-size="83" transform="matrix(1 0 0 1 2138.1 2139)">3 </text><rect x="2096.5" y="2199.5" width="130" height="130" stroke="#2983A9" stroke-width="4.58333" stroke-miterlimit="8" fill="#3CB4E6"/><text fill="#FFFFFF" font-family="Arial,Arial_MSFontService,sans-serif" font-weight="400" font-size="83" transform="matrix(1 0 0 1 2138.1 2294)">3 </text><rect x="2226.5" y="2199.5" width="130" height="130" stroke="#2983A9" stroke-width="4.58333" stroke-miterlimit="8" fill="#3CB4E6"/><text fill="#FFFFFF" font-family="Arial,Arial_MSFontService,sans-serif" font-weight="400" font-size="83" transform="matrix(1 0 0 1 2268.04 2294)">4 </text><rect x="3188.5" y="2199.5" width="129" height="130" stroke="#2983A9" stroke-width="4.58333" stroke-miterlimit="8" fill="#3CB4E6"/><text fill="#FFFFFF" font-family="Arial,Arial_MSFontService,sans-serif" font-weight="400" font-size="83" transform="matrix(1 0 0 1 3229.56 2294)">3 </text><rect x="3317.5" y="2199.5" width="130" height="130" stroke="#2983A9" stroke-width="4.58333" stroke-miterlimit="8" fill="#3CB4E6"/><text fill="#FFFFFF" font-family="Arial,Arial_MSFontService,sans-serif" font-weight="400" font-size="83" transform="matrix(1 0 0 1 3359.5 2294)">4 </text></g></svg>