<svg width="3846" height="1127" xmlns="http://www.w3.org/2000/svg" xmlns:xlink="http://www.w3.org/1999/xlink" overflow="hidden"><defs><clipPath id="clip0"><rect x="459" y="448" width="3846" height="1127"/></clipPath></defs><g clip-path="url(#clip0)" transform="translate(-459 -448)"><rect x="589" y="926" width="623" height="649" fill="#03234B" fill-opacity="0.501961"/><text fill="#FFFFFF" font-family="Arial,Arial_MSFontService,sans-serif" font-weight="400" font-size="83" transform="matrix(1 0 0 1 770.018 1022)">Source <tspan font-size="83" x="-18.3333" y="99">memory</tspan></text><rect x="3084" y="926" width="623" height="649" fill="#03234B" fill-opacity="0.501961"/><text fill="#FFFFFF" font-family="Arial,Arial_MSFontService,sans-serif" font-weight="400" font-size="83" transform="matrix(1 0 0 1 3189.16 1022)">Destination <tspan font-size="83" x="57.2918" y="99">memory</tspan></text><rect x="1420" y="926" width="1560" height="649" fill="#03234B" fill-opacity="0.501961"/><text fill="#FFFFFF" font-family="Arial,Arial_MSFontService,sans-serif" font-weight="400" font-size="83" transform="matrix(1 0 0 1 1996.03 1022)">GPDMA <tspan font-size="83" x="320.856" y="0">ch</tspan></text><rect x="641.5" y="458.5" width="130" height="130" stroke="#2983A9" stroke-width="4.58333" stroke-miterlimit="8" fill="#3CB4E6"/><text fill="#FFFFFF" font-family="Arial,Arial_MSFontService,sans-serif" font-weight="400" font-size="83" transform="matrix(1 0 0 1 678.239 553)">B</text><rect x="641.5" y="588.5" width="260" height="130" stroke="#2983A9" stroke-width="4.58333" stroke-miterlimit="8" fill="#3CB4E6"/><text fill="#FFFFFF" font-family="Arial,Arial_MSFontService,sans-serif" font-weight="400" font-size="83" transform="matrix(1 0 0 1 740.915 683)">H </text><rect x="641.5" y="718.5" width="520" height="130" stroke="#2983A9" stroke-width="4.58333" stroke-miterlimit="8" fill="#3CB4E6"/><text fill="#FFFFFF" font-family="Arial,Arial_MSFontService,sans-serif" font-weight="400" font-size="83" transform="matrix(1 0 0 1 861.685 813)">W<tspan fill="#03234B" font-size="83" x="-57.9772" y="-259">Byte</tspan><tspan fill="#03234B" font-size="83" x="71.9585" y="-129">Half</tspan><tspan fill="#03234B" font-size="83" x="218.625" y="-129">-</tspan><tspan fill="#03234B" font-size="83" x="246.125" y="-129">word</tspan><tspan fill="#03234B" font-size="83" x="331.83" y="1">Word</tspan></text><rect x="459" y="1186" width="3846" height="337" fill="#49B170" fill-opacity="0.501961"/><rect x="641.5" y="1289.5" width="130" height="130" stroke="#2983A9" stroke-width="4.58333" stroke-miterlimit="8" fill="#3CB4E6"/><text fill="#FFFFFF" font-family="Arial,Arial_MSFontService,sans-serif" font-weight="400" font-size="83" transform="matrix(1 0 0 1 682.823 1385)">1 </text><rect x="771.5" y="1289.5" width="130" height="130" stroke="#BC9A00" stroke-width="4.58333" stroke-miterlimit="8" fill="#FFD200"/><text fill="#FFFFFF" font-family="Arial,Arial_MSFontService,sans-serif" font-weight="400" font-size="83" transform="matrix(1 0 0 1 812.758 1385)">2</text><rect x="901.5" y="1289.5" width="130" height="130" stroke="#338150" stroke-width="4.58333" stroke-miterlimit="8" fill="#49B170"/><text fill="#FFFFFF" font-family="Arial,Arial_MSFontService,sans-serif" font-weight="400" font-size="83" transform="matrix(1 0 0 1 942.694 1385)">3</text><rect x="1031.5" y="1289.5" width="130" height="130" stroke="#650056" stroke-width="4.58333" stroke-miterlimit="8" fill="#8C0078"/><text fill="#FFFFFF" font-family="Arial,Arial_MSFontService,sans-serif" font-weight="400" font-size="83" transform="matrix(1 0 0 1 1072.63 1385)">4 </text><rect x="1446.5" y="1289.5" width="130" height="130" stroke="#2983A9" stroke-width="4.58333" stroke-miterlimit="8" fill="#3CB4E6"/><text fill="#FFFFFF" font-family="Arial,Arial_MSFontService,sans-serif" font-weight="400" font-size="83" transform="matrix(1 0 0 1 1472.38 1385)">W</text><rect x="2824.5" y="1289.5" width="130" height="130" stroke="#2983A9" stroke-width="4.58333" stroke-miterlimit="8" fill="#3CB4E6"/><text fill="#FFFFFF" font-family="Arial,Arial_MSFontService,sans-serif" font-weight="400" font-size="83" transform="matrix(1 0 0 1 2849.7 1385)">W</text><path d="M1161 1347.12 1412.48 1347.13 1412.48 1360.88 1161 1360.88ZM1405.61 1333.38 1446.86 1354 1405.61 1374.63Z" fill="#E6007E"/><path d="M2954 1347.12 3101.53 1347.13 3101.53 1360.88 2954 1360.88ZM3094.66 1333.38 3135.91 1354 3094.66 1374.63Z" fill="#E6007E"/><rect x="3136.5" y="1289.5" width="129" height="130" stroke="#2983A9" stroke-width="4.58333" stroke-miterlimit="8" fill="#3CB4E6"/><text fill="#FFFFFF" font-family="Arial,Arial_MSFontService,sans-serif" font-weight="400" font-size="83" transform="matrix(1 0 0 1 3177.59 1385)">1 </text><rect x="3265.5" y="1289.5" width="130" height="130" stroke="#338150" stroke-width="4.58333" stroke-miterlimit="8" fill="#49B170"/><text fill="#FFFFFF" font-family="Arial,Arial_MSFontService,sans-serif" font-weight="400" font-size="83" transform="matrix(1 0 0 1 3307.52 1385)">3</text><rect x="3395.5" y="1289.5" width="130" height="130" stroke="#BC9A00" stroke-width="4.58333" stroke-miterlimit="8" fill="#FFD200"/><text fill="#FFFFFF" font-family="Arial,Arial_MSFontService,sans-serif" font-weight="400" font-size="83" transform="matrix(1 0 0 1 3437.46 1385)">2</text><rect x="3525.5" y="1289.5" width="130" height="130" stroke="#650056" stroke-width="4.58333" stroke-miterlimit="8" fill="#8C0078"/><text fill="#FFFFFF" font-family="Arial,Arial_MSFontService,sans-serif" font-weight="400" font-size="83" transform="matrix(1 0 0 1 3567.39 1385)">4</text><path d="M2746 1347.12 2789.59 1347.13 2789.59 1360.88 2746 1360.88ZM2782.71 1333.38 2823.96 1354 2782.71 1374.63Z" fill="#E6007E"/><path d="M0 0 0.000360892 51.9743" stroke="#E6007E" stroke-width="13.75" stroke-linecap="round" stroke-miterlimit="8" fill="none" fill-rule="evenodd" transform="matrix(1 0 0 -1 1862 1470.97)"/><path d="M6.875-4.77378e-05 6.87512 17.5992C6.87515 21.3962 3.79713 24.4743 0.000169941 24.4743-3.79679 24.4743-6.87485 21.3963-6.87488 17.5993L-6.875 4.77378e-05C-6.87503-3.79691-3.79701-6.87497-4.77378e-05-6.875 3.79691-6.87503 6.87497-3.79701 6.875-4.77378e-05ZM20.6251 10.7241 0.000360892 51.9743-20.6249 10.7244Z" fill="#E6007E" transform="matrix(1 0 0 -1 2538 1470.97)"/><path d="M1862 1471 2537.67 1471" stroke="#E6007E" stroke-width="13.75" stroke-linecap="round" stroke-miterlimit="8" fill="none" fill-rule="evenodd"/><text fill="#03234B" font-family="Arial,Arial_MSFontService,sans-serif" font-weight="400" font-size="83" transform="matrix(1 0 0 1 3740.25 1334)">Source byte <tspan font-size="83" x="0" y="99">exchange</tspan></text><path d="M0 0 0.000360892 51.9743" stroke="#E6007E" stroke-width="13.75" stroke-linecap="round" stroke-miterlimit="8" fill="none" fill-rule="evenodd" transform="matrix(1 0 0 -1 1992 1289.97)"/><path d="M2414.88 1238 2414.88 1255.6C2414.88 1259.4 2411.8 1262.47 2408 1262.47 2404.2 1262.47 2401.13 1259.4 2401.12 1255.6L2401.12 1238C2401.12 1234.2 2404.2 1231.12 2408 1231.12 2411.8 1231.12 2414.88 1234.2 2414.88 1238ZM2428.62 1248.72 2408 1289.97 2387.38 1248.72Z" fill="#E6007E"/><path d="M1992 1238 2407.79 1238" stroke="#E6007E" stroke-width="13.75" stroke-linecap="round" stroke-miterlimit="8" fill="none" fill-rule="evenodd"/><rect x="1654.5" y="1289.5" width="130" height="130" stroke="#2983A9" stroke-width="4.58333" stroke-miterlimit="8" fill="#3CB4E6"/><text fill="#FFFFFF" font-family="Arial,Arial_MSFontService,sans-serif" font-weight="400" font-size="83" transform="matrix(1 0 0 1 1696.32 1385)">1 </text><rect x="1784.5" y="1289.5" width="130" height="130" stroke="#BC9A00" stroke-width="4.58333" stroke-miterlimit="8" fill="#FFD200"/><text fill="#FFFFFF" font-family="Arial,Arial_MSFontService,sans-serif" font-weight="400" font-size="83" transform="matrix(1 0 0 1 1826.26 1385)">2</text><rect x="1914.5" y="1289.5" width="130" height="130" stroke="#338150" stroke-width="4.58333" stroke-miterlimit="8" fill="#49B170"/><text fill="#FFFFFF" font-family="Arial,Arial_MSFontService,sans-serif" font-weight="400" font-size="83" transform="matrix(1 0 0 1 1956.19 1385)">3</text><rect x="2044.5" y="1289.5" width="130" height="130" stroke="#650056" stroke-width="4.58333" stroke-miterlimit="8" fill="#8C0078"/><text fill="#FFFFFF" font-family="Arial,Arial_MSFontService,sans-serif" font-weight="400" font-size="83" transform="matrix(1 0 0 1 2086.13 1385)">4</text><rect x="2225.5" y="1289.5" width="130" height="130" stroke="#2983A9" stroke-width="4.58333" stroke-miterlimit="8" fill="#3CB4E6"/><text fill="#FFFFFF" font-family="Arial,Arial_MSFontService,sans-serif" font-weight="400" font-size="83" transform="matrix(1 0 0 1 2267.26 1385)">1 </text><rect x="2356.5" y="1289.5" width="130" height="130" stroke="#338150" stroke-width="4.58333" stroke-miterlimit="8" fill="#49B170"/><text fill="#FFFFFF" font-family="Arial,Arial_MSFontService,sans-serif" font-weight="400" font-size="83" transform="matrix(1 0 0 1 2397.97 1385)">3</text><rect x="2486.5" y="1289.5" width="130" height="130" stroke="#BC9A00" stroke-width="4.58333" stroke-miterlimit="8" fill="#FFD200"/><text fill="#FFFFFF" font-family="Arial,Arial_MSFontService,sans-serif" font-weight="400" font-size="83" transform="matrix(1 0 0 1 2527.91 1385)">2</text><rect x="2616.5" y="1289.5" width="130" height="130" stroke="#650056" stroke-width="4.58333" stroke-miterlimit="8" fill="#8C0078"/><text fill="#FFFFFF" font-family="Arial,Arial_MSFontService,sans-serif" font-weight="400" font-size="83" transform="matrix(1 0 0 1 2657.84 1385)">4 </text></g></svg>