<svg width="4184" height="1282" xmlns="http://www.w3.org/2000/svg" xmlns:xlink="http://www.w3.org/1999/xlink" overflow="hidden"><defs><clipPath id="clip0"><rect x="95" y="345" width="4184" height="1282"/></clipPath></defs><g clip-path="url(#clip0)" transform="translate(-95 -345)"><rect x="1238" y="666" width="3041" height="961" fill="#49B170" fill-opacity="0.501961"/><text fill="#FFFFFF" font-family="Arial,Arial_MSFontService,sans-serif" font-weight="400" font-size="83" transform="matrix(1 0 0 1 2414.97 762)">Channel <tspan font-size="83" x="330" y="0">albitration</tspan></text><rect x="3681" y="952" width="520" height="260" fill="#03234B"/><text fill="#FFFFFF" font-family="Arial,Arial_MSFontService,sans-serif" font-weight="400" font-size="83" transform="matrix(1 0 0 1 3863.99 1112)">F<tspan font-size="83" x="50.4168" y="0">P</tspan><tspan font-size="83" x="99.2979" y="0">A</tspan></text><path d="M1342 841.125 1567.5 841.125C1571.29 841.125 1574.37 844.203 1574.37 848 1574.37 851.797 1571.29 854.875 1567.5 854.875L1342 854.875C1338.2 854.875 1335.12 851.797 1335.12 848 1335.12 844.203 1338.2 841.125 1342 841.125ZM1560.62 827.375 1601.87 848 1560.62 868.625Z" fill="#E6007E"/><path d="M1342 1049.12 1567.5 1049.13C1571.29 1049.13 1574.37 1052.2 1574.37 1056 1574.37 1059.8 1571.29 1062.88 1567.5 1062.88L1342 1062.88C1338.2 1062.88 1335.12 1059.8 1335.12 1056 1335.12 1052.2 1338.2 1049.12 1342 1049.12ZM1560.62 1035.38 1601.87 1056 1560.62 1076.63Z" fill="#E6007E"/><path d="M1524 893.125 1567.59 893.125C1571.38 893.125 1574.46 896.203 1574.46 900 1574.46 903.797 1571.38 906.875 1567.59 906.875L1524 906.875C1520.2 906.875 1517.12 903.797 1517.12 900 1517.12 896.203 1520.2 893.125 1524 893.125ZM1560.71 879.375 1601.96 900 1560.71 920.625Z" fill="#E6007E"/><path d="M1524 900 1524 1055.92" stroke="#E6007E" stroke-width="13.75" stroke-linecap="round" stroke-miterlimit="8" fill="none" fill-rule="evenodd"/><path d="M1342 1256.12 1567.5 1256.13C1571.29 1256.13 1574.37 1259.2 1574.37 1263 1574.37 1266.8 1571.29 1269.88 1567.5 1269.88L1342 1269.87C1338.2 1269.87 1335.12 1266.8 1335.12 1263 1335.12 1259.2 1338.2 1256.12 1342 1256.12ZM1560.62 1242.38 1601.87 1263 1560.62 1283.63Z" fill="#E6007E"/><path d="M0 0 0.000360892 311.846" stroke="#E6007E" stroke-width="13.75" stroke-linecap="round" stroke-miterlimit="8" fill="none" fill-rule="evenodd" transform="matrix(1 0 0 -1 1472 1263.85)"/><path d="M1472 945.125 1567.56 945.125C1571.36 945.125 1574.44 948.203 1574.44 952 1574.44 955.797 1571.36 958.875 1567.56 958.875L1472 958.875C1468.2 958.875 1465.12 955.797 1465.12 952 1465.12 948.203 1468.2 945.125 1472 945.125ZM1560.69 931.375 1601.94 952 1560.69 972.625Z" fill="#E6007E"/><path d="M1472 1101.12 1567.56 1101.13C1571.36 1101.13 1574.44 1104.2 1574.44 1108 1574.44 1111.8 1571.36 1114.88 1567.56 1114.88L1472 1114.87C1468.2 1114.87 1465.12 1111.8 1465.12 1108 1465.12 1104.2 1468.2 1101.12 1472 1101.12ZM1560.69 1087.38 1601.94 1108 1560.69 1128.63Z" fill="#E6007E"/><path d="M1342 1438.13 1567.5 1438.13C1571.29 1438.13 1574.37 1441.2 1574.37 1445 1574.37 1448.8 1571.29 1451.88 1567.5 1451.88L1342 1451.88C1338.2 1451.88 1335.12 1448.8 1335.12 1445 1335.12 1441.2 1338.2 1438.13 1342 1438.13ZM1560.62 1424.38 1601.87 1445 1560.62 1465.63Z" fill="#E6007E"/><path d="M2644.55 893.617 2872.51 984.799C2876.03 986.209 2877.75 990.21 2876.34 993.735 2874.93 997.261 2870.93 998.975 2867.4 997.565L2639.45 906.383C2635.92 904.973 2634.21 900.972 2635.62 897.447 2637.03 893.921 2641.03 892.206 2644.55 893.617ZM2871.23 969.479 2901.87 1003.95 2855.91 1007.78Z" fill="#E6007E"/><path d="M2642 1075.13 2867.5 1075.13C2871.29 1075.13 2874.37 1078.2 2874.37 1082 2874.37 1085.8 2871.29 1088.88 2867.5 1088.88L2642 1088.88C2638.2 1088.88 2635.12 1085.8 2635.12 1082 2635.12 1078.2 2638.2 1075.13 2642 1075.13ZM2860.62 1061.38 2901.87 1082 2860.62 1102.63Z" fill="#E6007E"/><path d="M2.55331-6.38328 230.508 84.7987C234.034 86.2089 235.748 90.2099 234.338 93.7353 232.928 97.2607 228.927 98.9754 225.402 97.5653L-2.55331 6.38328C-6.0787 4.97312-7.79343 0.972076-6.38328-2.55331-4.97312-6.0787-0.972076-7.79343 2.55331-6.38328ZM229.232 69.4789 259.871 103.949 213.912 107.779Z" fill="#E6007E" transform="matrix(1 0 0 -1 2642 1263.95)"/><path d="M2642 1445 3941.36 1445" stroke="#E6007E" stroke-width="13.75" stroke-linecap="round" stroke-miterlimit="8" fill="none" fill-rule="evenodd"/><path d="M6.875-1.06084e-05 6.87531 199.509C6.87531 203.306 3.79728 206.384 0.000318459 206.384-3.79664 206.384-6.87469 203.306-6.87469 199.509L-6.875 1.06084e-05C-6.87501-3.79695-3.79697-6.87499-1.06084e-05-6.875 3.79695-6.87501 6.87499-3.79697 6.875-1.06084e-05ZM20.6253 192.634 0.000360892 233.884-20.6247 192.634Z" fill="#E6007E" transform="matrix(1 0 0 -1 3941 1445.88)"/><path d="M3421 1075.13 3646.5 1075.13C3650.29 1075.13 3653.37 1078.2 3653.37 1082 3653.37 1085.8 3650.29 1088.88 3646.5 1088.88L3421 1088.88C3417.2 1088.88 3414.12 1085.8 3414.12 1082 3414.12 1078.2 3417.2 1075.13 3421 1075.13ZM3639.62 1061.38 3680.87 1082 3639.62 1102.63Z" fill="#E6007E"/><rect x="1602" y="822" width="1040" height="156" fill="#03234B"/><text fill="#FFFFFF" font-family="Arial,Arial_MSFontService,sans-serif" font-weight="400" font-size="83" transform="matrix(1 0 0 1 1963.91 918)">Queue 0</text><rect x="1602" y="1004" width="1040" height="156" fill="#03234B"/><text fill="#FFFFFF" font-family="Arial,Arial_MSFontService,sans-serif" font-weight="400" font-size="83" transform="matrix(1 0 0 1 1963.91 1100)">Queue 1</text><rect x="1602" y="1186" width="1040" height="155" fill="#03234B"/><text fill="#FFFFFF" font-family="Arial,Arial_MSFontService,sans-serif" font-weight="400" font-size="83" transform="matrix(1 0 0 1 1963.91 1282)">Queue 2</text><rect x="1602" y="1367" width="1040" height="156" fill="#03234B"/><text fill="#FFFFFF" font-family="Arial,Arial_MSFontService,sans-serif" font-weight="400" font-size="83" transform="matrix(1 0 0 1 1963.91 1464)">Queue 3</text><rect x="2902" y="952" width="519" height="260" fill="#03234B"/><text fill="#FFFFFF" font-family="Arial,Arial_MSFontService,sans-serif" font-weight="400" font-size="83" transform="matrix(1 0 0 1 3074.44 1112)">RRA<tspan fill="#03234B" font-size="83" x="379.955" y="300">High</tspan><tspan fill="#03234B" font-size="83" x="379.955" y="-64">Low</tspan></text><rect x="94.9999" y="354" width="962" height="468" fill="#03234B" fill-opacity="0.501961"/><text fill="#FFFFFF" font-family="Arial,Arial_MSFontService,sans-serif" font-weight="400" font-size="83" transform="matrix(1 0 0 1 424.554 450)">GPDMA</text><rect x="94.9999" y="1004" width="962" height="363" fill="#03234B"/><text fill="#FFFFFF" font-family="Arial,Arial_MSFontService,sans-serif" font-weight="400" font-size="83" transform="matrix(1 0 0 1 491.012 1216)">AHB</text><rect x="225" y="770" width="156" height="51.9999" fill="#03234B"/><rect x="745" y="770" width="156" height="51.9999" fill="#03234B"/><path d="M309.875 822 309.875 969.535 296.125 969.535 296.125 822ZM323.625 962.66 303 1003.91 282.375 962.66Z" fill="#E6007E"/><path d="M829.875 822 829.875 969.535 816.125 969.535 816.125 822ZM843.625 962.66 823 1003.91 802.375 962.66Z" fill="#E6007E"/><rect x="147.5" y="510.5" width="208" height="156" stroke="#338150" stroke-width="4.58333" stroke-miterlimit="8" fill="#49B170"/><text fill="#FFFFFF" font-family="Arial,Arial_MSFontService,sans-serif" font-weight="400" font-size="83" transform="matrix(1 0 0 1 184.506 618)">ch1</text><rect x="355.5" y="510.5" width="208" height="156" stroke="#A9005B" stroke-width="4.58333" stroke-miterlimit="8" fill="#E6007E"/><text fill="#FFFFFF" font-family="Arial,Arial_MSFontService,sans-serif" font-weight="400" font-size="83" transform="matrix(1 0 0 1 392.403 618)">ch2</text><rect x="563.5" y="510.5" width="208" height="156" stroke="#2983A9" stroke-width="4.58333" stroke-miterlimit="8" fill="#3CB4E6"/><text fill="#FFFFFF" font-family="Arial,Arial_MSFontService,sans-serif" font-weight="400" font-size="83" transform="matrix(1 0 0 1 600.3 618)">ch3</text><rect x="771.5" y="510.5" width="208" height="156" stroke="#BC9A00" stroke-width="4.58333" stroke-miterlimit="8" fill="#FFD200"/><text fill="#FFFFFF" font-family="Arial,Arial_MSFontService,sans-serif" font-weight="400" font-size="83" transform="matrix(1 0 0 1 808.197 618)">ch4</text><rect x="147" y="666" width="1091" height="104" fill="#49B170" fill-opacity="0.501961"/><path d="M257.149 662.925 293.75 736.128 281.452 742.277 244.851 669.074ZM302.974 723.829 302.974 769.948 266.079 742.277Z" fill="#E6007E"/><path d="M461.174 659.478 740.408 752.556 736.06 765.6 456.826 672.522ZM738.235 737.337 770.846 769.948 725.19 776.471Z" fill="#E6007E"/><path d="M3.81356-5.72035 131.135 79.1604 123.508 90.6011-3.81356 5.72035ZM133.041 63.9061 155.923 103.949 110.16 98.2282Z" fill="#E6007E" transform="matrix(-1 0 0 1 458.923 666)"/><path d="M670.813 660.279 798.135 745.16 790.507 756.601 663.186 671.72ZM800.041 729.906 822.923 769.948 777.16 764.228Z" fill="#E6007E"/><path d="M884.875 666 884.875 735.573 871.125 735.573 871.125 666ZM898.625 728.698 878 769.948 857.375 728.698Z" fill="#E6007E"/><text fill="#03234B" font-family="Arial,Arial_MSFontService,sans-serif" font-weight="400" font-size="83" transform="matrix(1 0 0 1 855.682 918)">Port 1<tspan font-size="83" x="-522.677" y="0">Port 0</tspan></text></g></svg>