<svg width="2495" height="2261" xmlns="http://www.w3.org/2000/svg" xmlns:xlink="http://www.w3.org/1999/xlink" overflow="hidden"><defs><clipPath id="clip0"><rect x="485" y="172" width="2495" height="2261"/></clipPath></defs><g clip-path="url(#clip0)" transform="translate(-485 -172)"><rect x="485" y="172" width="2495" height="546" fill="#49B170" fill-opacity="0.501961"/><rect x="485" y="744" width="2495" height="545" fill="#49B170" fill-opacity="0.501961"/><rect x="485" y="1315" width="2495" height="546" fill="#49B170" fill-opacity="0.501961"/><rect x="485" y="1887" width="2495" height="546" fill="#49B170" fill-opacity="0.501961"/><rect x="1940" y="198" width="520" height="260" fill="#03234B"/><text fill="#FFFFFF" font-family="Arial,Arial_MSFontService,sans-serif" font-weight="400" font-size="83" transform="matrix(1 0 0 1 2122.85 358)">F<tspan font-size="83" x="50.4168" y="0">P</tspan><tspan font-size="83" x="99.2979" y="0">A</tspan></text><path d="M1680 614 2199.74 614" stroke="#E6007E" stroke-width="13.75" stroke-linecap="round" stroke-miterlimit="8" fill="none" fill-rule="evenodd"/><path d="M6.875-1.59126e-05 6.87528 121.548C6.87529 125.345 3.79726 128.423 0.000297242 128.423-3.79666 128.423-6.87471 125.345-6.87472 121.548L-6.875 1.59126e-05C-6.87501-3.79694-3.79697-6.87499-1.59126e-05-6.875 3.79694-6.87501 6.87499-3.79697 6.875-1.59126e-05ZM20.6253 114.673 0.000360892 155.923-20.6247 114.673Z" fill="#E6007E" transform="matrix(1 0 0 -1 2200 613.923)"/><path d="M1680 321.125 1905.5 321.125C1909.29 321.125 1912.37 324.203 1912.37 328 1912.37 331.797 1909.29 334.875 1905.5 334.875L1680 334.875C1676.2 334.875 1673.12 331.797 1673.12 328 1673.12 324.203 1676.2 321.125 1680 321.125ZM1898.62 307.375 1939.87 328 1898.62 348.625Z" fill="#E6007E"/><rect x="641" y="536" width="1039" height="156" fill="#03234B"/><text fill="#FFFFFF" font-family="Arial,Arial_MSFontService,sans-serif" font-weight="400" font-size="83" transform="matrix(1 0 0 1 673.772 632)">Queue 3</text><rect x="1161" y="198" width="519" height="260" fill="#03234B"/><text fill="#FFFFFF" font-family="Arial,Arial_MSFontService,sans-serif" font-weight="400" font-size="83" transform="matrix(1 0 0 1 1193.51 358)">RRA<tspan fill="#03234B" font-size="83" x="519.743" y="219">High</tspan><tspan fill="#03234B" font-size="83" x="519.743" y="-63">Low</tspan></text><path d="M2460 321.125 2685.5 321.125C2689.29 321.125 2692.37 324.203 2692.37 328 2692.37 331.797 2689.29 334.875 2685.5 334.875L2460 334.875C2456.2 334.875 2453.12 331.797 2453.12 328 2453.12 324.203 2456.2 321.125 2460 321.125ZM2678.62 307.375 2719.87 328 2678.62 348.625Z" fill="#E6007E"/><rect x="1472.5" y="536.5" width="208" height="156" stroke="#BC9A00" stroke-width="4.58333" stroke-miterlimit="8" fill="#FFD200"/><text fill="#FFFFFF" font-family="Arial,Arial_MSFontService,sans-serif" font-weight="400" font-size="83" transform="matrix(1 0 0 1 1509.85 644)">ch0</text><rect x="1264.5" y="536.5" width="208" height="156" stroke="#338150" stroke-width="4.58333" stroke-miterlimit="8" fill="#49B170"/><text fill="#FFFFFF" font-family="Arial,Arial_MSFontService,sans-serif" font-weight="400" font-size="83" transform="matrix(1 0 0 1 1301.95 644)">ch1</text><rect x="1472.5" y="250.5" width="208" height="156" stroke="#650056" stroke-width="4.58333" stroke-miterlimit="8" fill="#8C0078"/><text fill="#FFFFFF" font-family="Arial,Arial_MSFontService,sans-serif" font-weight="400" font-size="83" transform="matrix(1 0 0 1 1509.85 358)">ch3</text><rect x="1940" y="770" width="520" height="260" fill="#03234B"/><text fill="#FFFFFF" font-family="Arial,Arial_MSFontService,sans-serif" font-weight="400" font-size="83" transform="matrix(1 0 0 1 2122.85 930)">F<tspan font-size="83" x="50.4168" y="0">P</tspan><tspan font-size="83" x="99.2979" y="0">A</tspan></text><path d="M1680 1186 2199.74 1186" stroke="#E6007E" stroke-width="13.75" stroke-linecap="round" stroke-miterlimit="8" fill="none" fill-rule="evenodd"/><path d="M6.875-1.59126e-05 6.87528 121.548C6.87529 125.345 3.79726 128.423 0.000297242 128.423-3.79666 128.423-6.87471 125.345-6.87472 121.548L-6.875 1.59126e-05C-6.87501-3.79694-3.79697-6.87499-1.59126e-05-6.875 3.79694-6.87501 6.87499-3.79697 6.875-1.59126e-05ZM20.6253 114.673 0.000360892 155.923-20.6247 114.673Z" fill="#E6007E" transform="matrix(1 0 0 -1 2200 1185.92)"/><path d="M1680 893.125 1905.5 893.125C1909.29 893.125 1912.37 896.203 1912.37 900 1912.37 903.797 1909.29 906.875 1905.5 906.875L1680 906.875C1676.2 906.875 1673.12 903.797 1673.12 900 1673.12 896.203 1676.2 893.125 1680 893.125ZM1898.62 879.375 1939.87 900 1898.62 920.625Z" fill="#E6007E"/><rect x="641" y="1108" width="1039" height="155" fill="#03234B"/><text fill="#FFFFFF" font-family="Arial,Arial_MSFontService,sans-serif" font-weight="400" font-size="83" transform="matrix(1 0 0 1 673.772 1204)">Queue 3</text><rect x="1161" y="770" width="519" height="260" fill="#03234B"/><text fill="#FFFFFF" font-family="Arial,Arial_MSFontService,sans-serif" font-weight="400" font-size="83" transform="matrix(1 0 0 1 1193.51 930)">RRA<tspan fill="#03234B" font-size="83" x="519.743" y="219">High</tspan><tspan fill="#03234B" font-size="83" x="519.743" y="-64">Low</tspan></text><path d="M2460 893.125 2685.5 893.125C2689.29 893.125 2692.37 896.203 2692.37 900 2692.37 903.797 2689.29 906.875 2685.5 906.875L2460 906.875C2456.2 906.875 2453.12 903.797 2453.12 900 2453.12 896.203 2456.2 893.125 2460 893.125ZM2678.62 879.375 2719.87 900 2678.62 920.625Z" fill="#E6007E"/><rect x="2720.5" y="822.5" width="208" height="156" stroke="#BC9A00" stroke-width="4.58333" stroke-miterlimit="8" fill="#FFD200"/><text fill="#FFFFFF" font-family="Arial,Arial_MSFontService,sans-serif" font-weight="400" font-size="83" transform="matrix(1 0 0 1 2757.23 930)">ch0</text><rect x="1472.5" y="1108.5" width="208" height="155" stroke="#338150" stroke-width="4.58333" stroke-miterlimit="8" fill="#49B170"/><text fill="#FFFFFF" font-family="Arial,Arial_MSFontService,sans-serif" font-weight="400" font-size="83" transform="matrix(1 0 0 1 1509.85 1216)">ch1</text><rect x="1472.5" y="822.5" width="208" height="156" stroke="#650056" stroke-width="4.58333" stroke-miterlimit="8" fill="#8C0078"/><text fill="#FFFFFF" font-family="Arial,Arial_MSFontService,sans-serif" font-weight="400" font-size="83" transform="matrix(1 0 0 1 1509.85 930)">ch3</text><rect x="1940" y="1341" width="520" height="260" fill="#03234B"/><text fill="#FFFFFF" font-family="Arial,Arial_MSFontService,sans-serif" font-weight="400" font-size="83" transform="matrix(1 0 0 1 2122.85 1502)">F<tspan font-size="83" x="50.4168" y="0">P</tspan><tspan font-size="83" x="99.2979" y="0">A</tspan></text><path d="M1680 1757 2199.74 1757" stroke="#E6007E" stroke-width="13.75" stroke-linecap="round" stroke-miterlimit="8" fill="none" fill-rule="evenodd"/><path d="M6.875-1.59126e-05 6.87528 121.548C6.87529 125.345 3.79726 128.423 0.000297242 128.423-3.79666 128.423-6.87471 125.345-6.87472 121.548L-6.875 1.59126e-05C-6.87501-3.79694-3.79697-6.87499-1.59126e-05-6.875 3.79694-6.87501 6.87499-3.79697 6.875-1.59126e-05ZM20.6253 114.673 0.000360892 155.923-20.6247 114.673Z" fill="#E6007E" transform="matrix(1 0 0 -1 2200 1756.92)"/><path d="M1680 1464.12 1905.5 1464.13C1909.29 1464.13 1912.37 1467.2 1912.37 1471 1912.37 1474.8 1909.29 1477.88 1905.5 1477.88L1680 1477.87C1676.2 1477.87 1673.12 1474.8 1673.12 1471 1673.12 1467.2 1676.2 1464.12 1680 1464.12ZM1898.62 1450.38 1939.87 1471 1898.62 1491.63Z" fill="#E6007E"/><rect x="641" y="1679" width="1039" height="156" fill="#03234B"/><text fill="#FFFFFF" font-family="Arial,Arial_MSFontService,sans-serif" font-weight="400" font-size="83" transform="matrix(1 0 0 1 673.772 1776)">Queue 3</text><rect x="1161" y="1341" width="519" height="260" fill="#03234B"/><text fill="#FFFFFF" font-family="Arial,Arial_MSFontService,sans-serif" font-weight="400" font-size="83" transform="matrix(1 0 0 1 1193.51 1502)">RRA<tspan fill="#03234B" font-size="83" x="519.743" y="218">High</tspan><tspan fill="#03234B" font-size="83" x="519.743" y="-64">Low</tspan></text><path d="M2460 1464.12 2685.5 1464.13C2689.29 1464.13 2692.37 1467.2 2692.37 1471 2692.37 1474.8 2689.29 1477.88 2685.5 1477.88L2460 1477.87C2456.2 1477.87 2453.12 1474.8 2453.12 1471 2453.12 1467.2 2456.2 1464.12 2460 1464.12ZM2678.62 1450.38 2719.87 1471 2678.62 1491.63Z" fill="#E6007E"/><rect x="2720.5" y="1393.5" width="208" height="156" stroke="#338150" stroke-width="4.58333" stroke-miterlimit="8" fill="#49B170"/><text fill="#FFFFFF" font-family="Arial,Arial_MSFontService,sans-serif" font-weight="400" font-size="83" transform="matrix(1 0 0 1 2757.23 1502)">ch1</text><rect x="1472.5" y="1393.5" width="208" height="156" stroke="#650056" stroke-width="4.58333" stroke-miterlimit="8" fill="#8C0078"/><text fill="#FFFFFF" font-family="Arial,Arial_MSFontService,sans-serif" font-weight="400" font-size="83" transform="matrix(1 0 0 1 1509.85 1502)">ch3</text><rect x="1940" y="1913" width="520" height="260" fill="#03234B"/><text fill="#FFFFFF" font-family="Arial,Arial_MSFontService,sans-serif" font-weight="400" font-size="83" transform="matrix(1 0 0 1 2122.85 2074)">F<tspan font-size="83" x="50.4168" y="0">P</tspan><tspan font-size="83" x="99.2979" y="0">A</tspan></text><path d="M1680 2329 2199.74 2329" stroke="#E6007E" stroke-width="13.75" stroke-linecap="round" stroke-miterlimit="8" fill="none" fill-rule="evenodd"/><path d="M6.875-1.59126e-05 6.87528 121.548C6.87529 125.345 3.79726 128.423 0.000297242 128.423-3.79666 128.423-6.87471 125.345-6.87472 121.548L-6.875 1.59126e-05C-6.87501-3.79694-3.79697-6.87499-1.59126e-05-6.875 3.79694-6.87501 6.87499-3.79697 6.875-1.59126e-05ZM20.6253 114.673 0.000360892 155.923-20.6247 114.673Z" fill="#E6007E" transform="matrix(1 0 0 -1 2200 2328.92)"/><path d="M1680 2036.12 1905.5 2036.13C1909.29 2036.13 1912.37 2039.2 1912.37 2043 1912.37 2046.8 1909.29 2049.88 1905.5 2049.88L1680 2049.88C1676.2 2049.87 1673.12 2046.8 1673.12 2043 1673.12 2039.2 1676.2 2036.12 1680 2036.12ZM1898.62 2022.38 1939.87 2043 1898.62 2063.63Z" fill="#E6007E"/><rect x="641" y="2251" width="1039" height="156" fill="#03234B"/><text fill="#FFFFFF" font-family="Arial,Arial_MSFontService,sans-serif" font-weight="400" font-size="83" transform="matrix(1 0 0 1 673.772 2348)">Queue 3</text><rect x="1161" y="1913" width="519" height="260" fill="#03234B"/><text fill="#FFFFFF" font-family="Arial,Arial_MSFontService,sans-serif" font-weight="400" font-size="83" transform="matrix(1 0 0 1 1193.51 2074)">RRA<tspan fill="#03234B" font-size="83" x="519.743" y="218">High</tspan><tspan fill="#03234B" font-size="83" x="519.743" y="-64">Low</tspan></text><path d="M2460 2036.12 2685.5 2036.13C2689.29 2036.13 2692.37 2039.2 2692.37 2043 2692.37 2046.8 2689.29 2049.88 2685.5 2049.88L2460 2049.88C2456.2 2049.87 2453.12 2046.8 2453.12 2043 2453.12 2039.2 2456.2 2036.12 2460 2036.12ZM2678.62 2022.38 2719.87 2043 2678.62 2063.63Z" fill="#E6007E"/><rect x="2720.5" y="1965.5" width="208" height="156" stroke="#650056" stroke-width="4.58333" stroke-miterlimit="8" fill="#8C0078"/><text fill="#FFFFFF" font-family="Arial,Arial_MSFontService,sans-serif" font-weight="400" font-size="83" transform="matrix(1 0 0 1 2757.23 2074)">ch3</text></g></svg>