<svg width="3378" height="1923" xmlns="http://www.w3.org/2000/svg" xmlns:xlink="http://www.w3.org/1999/xlink" overflow="hidden"><defs><clipPath id="clip0"><rect x="355" y="328" width="3378" height="1923"/></clipPath></defs><g clip-path="url(#clip0)" transform="translate(-355 -328)"><rect x="355" y="978" width="3378" height="623" fill="#49B170" fill-opacity="0.501961"/><rect x="355" y="328" width="3378" height="624" fill="#49B170" fill-opacity="0.501961"/><rect x="355" y="1627" width="3378" height="624" fill="#49B170" fill-opacity="0.501961"/><path d="M641 425.125 866.496 425.125C870.293 425.125 873.371 428.203 873.371 432 873.371 435.797 870.293 438.875 866.496 438.875L641 438.875C637.203 438.875 634.125 435.797 634.125 432 634.125 428.203 637.203 425.125 641 425.125ZM859.622 411.375 900.872 432 859.621 452.625Z" fill="#E6007E"/><path d="M641 633.125 866.496 633.125C870.293 633.125 873.371 636.203 873.371 640 873.371 643.797 870.293 646.875 866.496 646.875L641 646.875C637.203 646.875 634.125 643.797 634.125 640 634.125 636.203 637.203 633.125 641 633.125ZM859.622 619.375 900.872 640 859.621 660.625Z" fill="#E6007E"/><path d="M823 477.125 866.586 477.125C870.383 477.125 873.461 480.203 873.461 484 873.461 487.797 870.383 490.875 866.586 490.875L823 490.875C819.203 490.875 816.125 487.797 816.125 484 816.125 480.203 819.203 477.125 823 477.125ZM859.711 463.375 900.961 484 859.711 504.625Z" fill="#E6007E"/><path d="M823 484 823 639.923" stroke="#E6007E" stroke-width="13.75" stroke-linecap="round" stroke-miterlimit="8" fill="none" fill-rule="evenodd"/><path d="M641 841.125 866.496 841.125C870.293 841.125 873.371 844.203 873.371 848 873.371 851.797 870.293 854.875 866.496 854.875L641 854.875C637.203 854.875 634.125 851.797 634.125 848 634.125 844.203 637.203 841.125 641 841.125ZM859.622 827.375 900.872 848 859.621 868.625Z" fill="#E6007E"/><path d="M0 0 0.000360892 311.846" stroke="#E6007E" stroke-width="13.75" stroke-linecap="round" stroke-miterlimit="8" fill="none" fill-rule="evenodd" transform="matrix(1 0 0 -1 771 847.846)"/><path d="M771 529.125 866.561 529.125C870.358 529.125 873.436 532.203 873.436 536 873.436 539.797 870.358 542.875 866.561 542.875L771 542.875C767.203 542.875 764.125 539.797 764.125 536 764.125 532.203 767.203 529.125 771 529.125ZM859.686 515.375 900.936 536 859.686 556.625Z" fill="#E6007E"/><path d="M771 685.125 866.561 685.125C870.358 685.125 873.436 688.203 873.436 692 873.436 695.797 870.358 698.875 866.561 698.875L771 698.875C767.203 698.875 764.125 695.797 764.125 692 764.125 688.203 767.203 685.125 771 685.125ZM859.686 671.375 900.936 692 859.686 712.625Z" fill="#E6007E"/><path d="M1942.55 477.617 1980.85 492.937C1984.38 494.347 1986.09 498.348 1984.68 501.873 1983.27 505.399 1979.27 507.113 1975.75 505.703L1937.45 490.383C1933.92 488.973 1932.21 484.972 1933.62 481.447 1935.03 477.921 1939.03 476.207 1942.55 477.617ZM2031.92 513.363 2070.22 528.683C2073.74 530.093 2075.46 534.094 2074.05 537.62 2072.64 541.145 2068.64 542.86 2065.11 541.449L2026.81 526.13C2023.29 524.719 2021.57 520.718 2022.98 517.193 2024.39 513.668 2028.39 511.953 2031.92 513.363ZM2121.29 549.109 2159.58 564.429C2163.11 565.839 2164.82 569.841 2163.41 573.366 2162 576.891 2158 578.606 2154.48 577.196L2116.18 561.876C2112.65 560.466 2110.94 556.465 2112.35 552.939 2113.76 549.414 2117.76 547.699 2121.29 549.109ZM2169.23 553.479 2199.87 587.949 2153.91 591.779Z" fill="#E6007E"/><path d="M1940 659.125 1981.25 659.125C1985.05 659.125 1988.13 662.203 1988.13 666 1988.13 669.797 1985.05 672.875 1981.25 672.875L1940 672.875C1936.2 672.875 1933.13 669.797 1933.13 666 1933.13 662.203 1936.2 659.125 1940 659.125ZM2036.25 659.125 2077.5 659.125C2081.3 659.125 2084.38 662.203 2084.38 666 2084.38 669.797 2081.3 672.875 2077.5 672.875L2036.25 672.875C2032.45 672.875 2029.38 669.797 2029.38 666 2029.38 662.203 2032.45 659.125 2036.25 659.125ZM2132.5 659.125 2165.5 659.125C2169.29 659.125 2172.37 662.203 2172.37 666 2172.37 669.797 2169.29 672.875 2165.5 672.875L2132.5 672.875C2128.7 672.875 2125.62 669.797 2125.62 666 2125.62 662.203 2128.7 659.125 2132.5 659.125ZM2158.62 645.375 2199.87 666 2158.62 686.625Z" fill="#E6007E"/><path d="M2.55331-6.38328 40.853 8.93659C44.3784 10.3467 46.0931 14.3478 44.6829 17.8732 43.2728 21.3986 39.2717 23.1133 35.7464 21.7031L-2.55331 6.38328C-6.0787 4.97312-7.79343 0.972076-6.38328-2.55331-4.97312-6.0787-0.972076-7.79343 2.55331-6.38328ZM91.9192 29.3631 130.219 44.6829C133.744 46.0931 135.459 50.0941 134.049 53.6195 132.639 57.1449 128.638 58.8596 125.112 57.4495L86.8126 42.1296C83.2872 40.7195 81.5725 36.7184 82.9826 33.193 84.3928 29.6677 88.3938 27.9529 91.9192 29.3631ZM181.285 65.1094 219.585 80.4293C223.11 81.8394 224.825 85.8405 223.415 89.3659 222.005 92.8913 218.004 94.606 214.478 93.1958L176.178 77.876C172.653 76.4658 170.938 72.4648 172.348 68.9394 173.759 65.414 177.76 63.6993 181.285 65.1094ZM229.232 69.4789 259.871 103.949 213.912 107.779Z" fill="#E6007E" transform="matrix(1 0 0 -1 1940 847.948)"/><path d="M2720 659.125 2945.5 659.125C2949.29 659.125 2952.37 662.203 2952.37 666 2952.37 669.797 2949.29 672.875 2945.5 672.875L2720 672.875C2716.2 672.875 2713.12 669.797 2713.12 666 2713.12 662.203 2716.2 659.125 2720 659.125ZM2938.62 645.375 2979.87 666 2938.62 686.625Z" fill="#E6007E"/><rect x="901" y="406" width="1039" height="156" fill="#03234B"/><text fill="#FFFFFF" font-family="Arial,Arial_MSFontService,sans-serif" font-weight="400" font-size="83" transform="matrix(1 0 0 1 933.643 502)">Queue 0</text><rect x="901" y="588" width="1039" height="156" fill="#03234B"/><text fill="#FFFFFF" font-family="Arial,Arial_MSFontService,sans-serif" font-weight="400" font-size="83" transform="matrix(1 0 0 1 933.643 684)">Queue 1</text><rect x="901" y="770" width="1039" height="156" fill="#03234B"/><text fill="#FFFFFF" font-family="Arial,Arial_MSFontService,sans-serif" font-weight="400" font-size="83" transform="matrix(1 0 0 1 933.643 866)">Queue 2</text><rect x="2200" y="536" width="520" height="260" fill="#03234B"/><text fill="#FFFFFF" font-family="Arial,Arial_MSFontService,sans-serif" font-weight="400" font-size="83" transform="matrix(1 0 0 1 2233 696)">RRA<tspan fill="#03234B" font-size="83" x="519.743" y="-64">Low</tspan></text><rect x="1732.5" y="406.5" width="208" height="156" stroke="#BC9A00" stroke-width="4.58333" stroke-miterlimit="8" fill="#FFD200"/><text fill="#FFFFFF" font-family="Arial,Arial_MSFontService,sans-serif" font-weight="400" font-size="83" transform="matrix(1 0 0 1 1769.72 514)">ch0</text><rect x="1732.5" y="588.5" width="208" height="156" stroke="#650056" stroke-width="4.58333" stroke-miterlimit="8" fill="#8C0078"/><text fill="#FFFFFF" font-family="Arial,Arial_MSFontService,sans-serif" font-weight="400" font-size="83" transform="matrix(1 0 0 1 1769.72 696)">ch2</text><rect x="1732.5" y="770.5" width="208" height="156" stroke="#338150" stroke-width="4.58333" stroke-miterlimit="8" fill="#49B170"/><text fill="#FFFFFF" font-family="Arial,Arial_MSFontService,sans-serif" font-weight="400" font-size="83" transform="matrix(1 0 0 1 1769.72 878)">ch3</text><rect x="1524.5" y="588.5" width="208" height="156" stroke="#BC9A00" stroke-width="4.58333" stroke-miterlimit="8" fill="#FFD200"/><text fill="#FFFFFF" font-family="Arial,Arial_MSFontService,sans-serif" font-weight="400" font-size="83" transform="matrix(1 0 0 1 1561.82 696)">ch0</text><rect x="1524.5" y="770.5" width="208" height="156" stroke="#BC9A00" stroke-width="4.58333" stroke-miterlimit="8" fill="#FFD200"/><text fill="#FFFFFF" font-family="Arial,Arial_MSFontService,sans-serif" font-weight="400" font-size="83" transform="matrix(1 0 0 1 1561.82 878)">ch0</text><path d="M641 1049.12 866.496 1049.13C870.293 1049.13 873.371 1052.2 873.371 1056 873.371 1059.8 870.293 1062.88 866.496 1062.88L641 1062.88C637.203 1062.88 634.125 1059.8 634.125 1056 634.125 1052.2 637.203 1049.12 641 1049.12ZM859.622 1035.38 900.872 1056 859.621 1076.63Z" fill="#E6007E"/><path d="M641 1256.12 866.496 1256.13C870.293 1256.13 873.371 1259.2 873.371 1263 873.371 1266.8 870.293 1269.88 866.496 1269.88L641 1269.87C637.203 1269.87 634.125 1266.8 634.125 1263 634.125 1259.2 637.203 1256.12 641 1256.12ZM859.622 1242.38 900.872 1263 859.621 1283.63Z" fill="#E6007E"/><path d="M823 1101.12 866.586 1101.13C870.383 1101.13 873.461 1104.2 873.461 1108 873.461 1111.8 870.383 1114.88 866.586 1114.88L823 1114.87C819.203 1114.87 816.125 1111.8 816.125 1108 816.125 1104.2 819.203 1101.12 823 1101.12ZM859.711 1087.38 900.961 1108 859.711 1128.62Z" fill="#E6007E"/><path d="M823 1108 823 1263.92" stroke="#E6007E" stroke-width="13.75" stroke-linecap="round" stroke-miterlimit="8" fill="none" fill-rule="evenodd"/><path d="M641 1464.12 866.496 1464.13C870.293 1464.13 873.371 1467.2 873.371 1471 873.371 1474.8 870.293 1477.88 866.496 1477.88L641 1477.87C637.203 1477.87 634.125 1474.8 634.125 1471 634.125 1467.2 637.203 1464.12 641 1464.12ZM859.622 1450.38 900.872 1471 859.621 1491.63Z" fill="#E6007E"/><path d="M0 0 0.000360892 311.846" stroke="#E6007E" stroke-width="13.75" stroke-linecap="round" stroke-miterlimit="8" fill="none" fill-rule="evenodd" transform="matrix(1 0 0 -1 771 1471.85)"/><path d="M771 1153.13 866.561 1153.13C870.358 1153.13 873.436 1156.2 873.436 1160 873.436 1163.8 870.358 1166.88 866.561 1166.88L771 1166.88C767.203 1166.88 764.125 1163.8 764.125 1160 764.125 1156.2 767.203 1153.13 771 1153.13ZM859.686 1139.38 900.936 1160 859.686 1180.63Z" fill="#E6007E"/><path d="M771 1308.12 866.561 1308.13C870.358 1308.13 873.436 1311.2 873.436 1315 873.436 1318.8 870.358 1321.88 866.561 1321.88L771 1321.87C767.203 1321.87 764.125 1318.8 764.125 1315 764.125 1311.2 767.203 1308.12 771 1308.12ZM859.686 1294.38 900.936 1315 859.686 1335.63Z" fill="#E6007E"/><path d="M1942.55 1101.62 1980.85 1116.94C1984.38 1118.35 1986.09 1122.35 1984.68 1125.87 1983.27 1129.4 1979.27 1131.11 1975.75 1129.7L1937.45 1114.38C1933.92 1112.97 1932.21 1108.97 1933.62 1105.45 1935.03 1101.92 1939.03 1100.21 1942.55 1101.62ZM2031.92 1137.36 2070.22 1152.68C2073.74 1154.09 2075.46 1158.09 2074.05 1161.62 2072.64 1165.14 2068.64 1166.86 2065.11 1165.45L2026.81 1150.13C2023.29 1148.72 2021.57 1144.72 2022.98 1141.19 2024.39 1137.67 2028.39 1135.95 2031.92 1137.36ZM2121.29 1173.11 2159.58 1188.43C2163.11 1189.84 2164.82 1193.84 2163.41 1197.37 2162 1200.89 2158 1202.61 2154.48 1201.2L2116.18 1185.88C2112.65 1184.47 2110.94 1180.46 2112.35 1176.94 2113.76 1173.41 2117.76 1171.7 2121.29 1173.11ZM2169.23 1177.48 2199.87 1211.95 2153.91 1215.78Z" fill="#E6007E"/><path d="M1940 1282.13 1981.25 1282.13C1985.05 1282.13 1988.13 1285.2 1988.13 1289 1988.13 1292.8 1985.05 1295.88 1981.25 1295.88L1940 1295.88C1936.2 1295.88 1933.13 1292.8 1933.13 1289 1933.13 1285.2 1936.2 1282.13 1940 1282.13ZM2036.25 1282.13 2077.5 1282.13C2081.3 1282.13 2084.38 1285.2 2084.38 1289 2084.38 1292.8 2081.3 1295.88 2077.5 1295.88L2036.25 1295.88C2032.45 1295.88 2029.38 1292.8 2029.38 1289 2029.38 1285.2 2032.45 1282.13 2036.25 1282.13ZM2132.5 1282.13 2165.5 1282.13C2169.29 1282.13 2172.37 1285.2 2172.37 1289 2172.37 1292.8 2169.29 1295.88 2165.5 1295.88L2132.5 1295.88C2128.7 1295.88 2125.62 1292.8 2125.62 1289 2125.62 1285.2 2128.7 1282.13 2132.5 1282.13ZM2158.62 1268.38 2199.87 1289 2158.62 1309.63Z" fill="#E6007E"/><path d="M2.55331-6.38328 230.508 84.7987C234.034 86.2089 235.748 90.2099 234.338 93.7353 232.928 97.2607 228.927 98.9754 225.402 97.5653L-2.55331 6.38328C-6.0787 4.97312-7.79343 0.972076-6.38328-2.55331-4.97312-6.0787-0.972076-7.79343 2.55331-6.38328ZM229.232 69.4789 259.871 103.949 213.912 107.779Z" fill="#E6007E" transform="matrix(1 0 0 -1 1940 1470.95)"/><path d="M2720 1282.13 2945.5 1282.13C2949.29 1282.13 2952.37 1285.2 2952.37 1289 2952.37 1292.8 2949.29 1295.88 2945.5 1295.88L2720 1295.88C2716.2 1295.88 2713.12 1292.8 2713.12 1289 2713.12 1285.2 2716.2 1282.13 2720 1282.13ZM2938.62 1268.38 2979.87 1289 2938.62 1309.63Z" fill="#E6007E"/><rect x="901" y="1030" width="1039" height="156" fill="#03234B"/><text fill="#FFFFFF" font-family="Arial,Arial_MSFontService,sans-serif" font-weight="400" font-size="83" transform="matrix(1 0 0 1 933.643 1126)">Queue 0</text><rect x="901" y="1212" width="1039" height="155" fill="#03234B"/><text fill="#FFFFFF" font-family="Arial,Arial_MSFontService,sans-serif" font-weight="400" font-size="83" transform="matrix(1 0 0 1 933.643 1308)">Queue 1</text><rect x="901" y="1393" width="1039" height="156" fill="#03234B"/><text fill="#FFFFFF" font-family="Arial,Arial_MSFontService,sans-serif" font-weight="400" font-size="83" transform="matrix(1 0 0 1 933.643 1490)">Queue 2</text><rect x="2200" y="1160" width="520" height="259" fill="#03234B"/><text fill="#FFFFFF" font-family="Arial,Arial_MSFontService,sans-serif" font-weight="400" font-size="83" transform="matrix(1 0 0 1 2233 1320)">RRA<tspan fill="#03234B" font-size="83" x="519.743" y="-64">Low</tspan></text><rect x="1732.5" y="1030.5" width="208" height="156" stroke="#BC9A00" stroke-width="4.58333" stroke-miterlimit="8" fill="#FFD200"/><text fill="#FFFFFF" font-family="Arial,Arial_MSFontService,sans-serif" font-weight="400" font-size="83" transform="matrix(1 0 0 1 1769.72 1138)">ch0</text><rect x="1732.5" y="1212.5" width="208" height="155" stroke="#650056" stroke-width="4.58333" stroke-miterlimit="8" fill="#8C0078"/><text fill="#FFFFFF" font-family="Arial,Arial_MSFontService,sans-serif" font-weight="400" font-size="83" transform="matrix(1 0 0 1 1769.72 1320)">ch2</text><rect x="2980.5" y="1212.5" width="208" height="155" stroke="#338150" stroke-width="4.58333" stroke-miterlimit="8" fill="#49B170"/><text fill="#FFFFFF" font-family="Arial,Arial_MSFontService,sans-serif" font-weight="400" font-size="83" transform="matrix(1 0 0 1 3017.1 1320)">ch3</text><rect x="1524.5" y="1212.5" width="208" height="155" stroke="#BC9A00" stroke-width="4.58333" stroke-miterlimit="8" fill="#FFD200"/><text fill="#FFFFFF" font-family="Arial,Arial_MSFontService,sans-serif" font-weight="400" font-size="83" transform="matrix(1 0 0 1 1561.82 1320)">ch0</text><rect x="1732.5" y="1393.5" width="208" height="156" stroke="#BC9A00" stroke-width="4.58333" stroke-miterlimit="8" fill="#FFD200"/><text fill="#FFFFFF" font-family="Arial,Arial_MSFontService,sans-serif" font-weight="400" font-size="83" transform="matrix(1 0 0 1 1769.72 1502)">ch0</text><rect x="1316.5" y="1212.5" width="208" height="155" stroke="#A9005B" stroke-width="4.58333" stroke-miterlimit="8" fill="#E6007E"/><text fill="#FFFFFF" font-family="Arial,Arial_MSFontService,sans-serif" font-weight="400" font-size="83" transform="matrix(1 0 0 1 1353.93 1320)">ch4</text><rect x="1524.5" y="1030.5" width="208" height="156" stroke="#A9005B" stroke-width="4.58333" stroke-miterlimit="8" fill="#E6007E"/><text fill="#FFFFFF" font-family="Arial,Arial_MSFontService,sans-serif" font-weight="400" font-size="83" transform="matrix(1 0 0 1 1561.82 1138)">ch4</text><path d="M641 1724.13 866.496 1724.13C870.293 1724.13 873.371 1727.2 873.371 1731 873.371 1734.8 870.293 1737.88 866.496 1737.88L641 1737.88C637.203 1737.88 634.125 1734.8 634.125 1731 634.125 1727.2 637.203 1724.13 641 1724.13ZM859.622 1710.38 900.872 1731 859.621 1751.63Z" fill="#E6007E"/><path d="M641 1932.13 866.496 1932.13C870.293 1932.13 873.371 1935.2 873.371 1939 873.371 1942.8 870.293 1945.88 866.496 1945.88L641 1945.88C637.203 1945.88 634.125 1942.8 634.125 1939 634.125 1935.2 637.203 1932.13 641 1932.13ZM859.622 1918.38 900.872 1939 859.621 1959.63Z" fill="#E6007E"/><path d="M823 1776.12 866.586 1776.13C870.383 1776.13 873.461 1779.2 873.461 1783 873.461 1786.8 870.383 1789.88 866.586 1789.88L823 1789.88C819.203 1789.88 816.125 1786.8 816.125 1783 816.125 1779.2 819.203 1776.12 823 1776.12ZM859.711 1762.38 900.961 1783 859.711 1803.63Z" fill="#E6007E"/><path d="M823 1783 823 1938.92" stroke="#E6007E" stroke-width="13.75" stroke-linecap="round" stroke-miterlimit="8" fill="none" fill-rule="evenodd"/><path d="M641 2140.12 866.496 2140.13C870.293 2140.13 873.371 2143.2 873.371 2147 873.371 2150.8 870.293 2153.88 866.496 2153.88L641 2153.88C637.203 2153.88 634.125 2150.8 634.125 2147 634.125 2143.2 637.203 2140.12 641 2140.12ZM859.622 2126.38 900.872 2147 859.621 2167.63Z" fill="#E6007E"/><path d="M0 0 0.000360892 311.846" stroke="#E6007E" stroke-width="13.75" stroke-linecap="round" stroke-miterlimit="8" fill="none" fill-rule="evenodd" transform="matrix(1 0 0 -1 771 2146.85)"/><path d="M771 1828.12 866.561 1828.13C870.358 1828.13 873.436 1831.2 873.436 1835 873.436 1838.8 870.358 1841.88 866.561 1841.88L771 1841.87C767.203 1841.87 764.125 1838.8 764.125 1835 764.125 1831.2 767.203 1828.12 771 1828.12ZM859.686 1814.38 900.936 1835 859.686 1855.63Z" fill="#E6007E"/><path d="M771 1984.12 866.561 1984.13C870.358 1984.13 873.436 1987.2 873.436 1991 873.436 1994.8 870.358 1997.88 866.561 1997.88L771 1997.88C767.203 1997.88 764.125 1994.8 764.125 1991 764.125 1987.2 767.203 1984.12 771 1984.12ZM859.686 1970.38 900.936 1991 859.686 2011.63Z" fill="#E6007E"/><path d="M1942.55 1776.62 2170.51 1867.8C2174.03 1869.21 2175.75 1873.21 2174.34 1876.74 2172.93 1880.26 2168.93 1881.98 2165.4 1880.57L1937.45 1789.38C1933.92 1787.97 1932.21 1783.97 1933.62 1780.45 1935.03 1776.92 1939.03 1775.21 1942.55 1776.62ZM2169.23 1852.48 2199.87 1886.95 2153.91 1890.78Z" fill="#E6007E"/><path d="M1940 1958.12 1981.25 1958.12C1985.05 1958.12 1988.13 1961.2 1988.13 1965 1988.13 1968.8 1985.05 1971.88 1981.25 1971.87L1940 1971.87C1936.2 1971.87 1933.13 1968.8 1933.13 1965 1933.13 1961.2 1936.2 1958.12 1940 1958.12ZM2036.25 1958.12 2077.5 1958.13C2081.3 1958.13 2084.38 1961.2 2084.38 1965 2084.38 1968.8 2081.3 1971.88 2077.5 1971.88L2036.25 1971.88C2032.45 1971.88 2029.38 1968.8 2029.38 1965 2029.38 1961.2 2032.45 1958.12 2036.25 1958.12ZM2132.5 1958.13 2165.5 1958.13C2169.29 1958.13 2172.37 1961.2 2172.37 1965 2172.37 1968.8 2169.29 1971.88 2165.5 1971.88L2132.5 1971.88C2128.7 1971.88 2125.62 1968.8 2125.62 1965 2125.62 1961.2 2128.7 1958.13 2132.5 1958.13ZM2158.62 1944.38 2199.87 1965 2158.62 1985.63Z" fill="#E6007E"/><path d="M2.55331-6.38328 40.853 8.93659C44.3784 10.3467 46.0931 14.3478 44.6829 17.8732 43.2728 21.3986 39.2717 23.1133 35.7464 21.7031L-2.55331 6.38328C-6.0787 4.97312-7.79343 0.972076-6.38328-2.55331-4.97312-6.0787-0.972076-7.79343 2.55331-6.38328ZM91.9192 29.3631 130.219 44.6829C133.744 46.0931 135.459 50.0941 134.049 53.6195 132.639 57.1449 128.638 58.8596 125.112 57.4495L86.8126 42.1296C83.2872 40.7195 81.5725 36.7184 82.9826 33.193 84.3928 29.6677 88.3938 27.9529 91.9192 29.3631ZM181.285 65.1094 219.585 80.4293C223.11 81.8394 224.825 85.8405 223.415 89.3659 222.005 92.8913 218.004 94.606 214.478 93.1958L176.178 77.876C172.653 76.4658 170.938 72.4648 172.348 68.9394 173.759 65.414 177.76 63.6993 181.285 65.1094ZM229.232 69.4789 259.871 103.949 213.912 107.779Z" fill="#E6007E" transform="matrix(1 0 0 -1 1940 2146.95)"/><path d="M2720 1958.12 2945.5 1958.13C2949.29 1958.13 2952.37 1961.2 2952.37 1965 2952.37 1968.8 2949.29 1971.88 2945.5 1971.88L2720 1971.87C2716.2 1971.87 2713.12 1968.8 2713.12 1965 2713.12 1961.2 2716.2 1958.12 2720 1958.12ZM2938.62 1944.38 2979.87 1965 2938.62 1985.63Z" fill="#E6007E"/><rect x="901" y="1705" width="1039" height="156" fill="#03234B"/><text fill="#FFFFFF" font-family="Arial,Arial_MSFontService,sans-serif" font-weight="400" font-size="83" transform="matrix(1 0 0 1 933.643 1802)">Queue 0</text><rect x="901" y="1887" width="1039" height="156" fill="#03234B"/><text fill="#FFFFFF" font-family="Arial,Arial_MSFontService,sans-serif" font-weight="400" font-size="83" transform="matrix(1 0 0 1 933.643 1984)">Queue 1</text><rect x="901" y="2069" width="1039" height="156" fill="#03234B"/><text fill="#FFFFFF" font-family="Arial,Arial_MSFontService,sans-serif" font-weight="400" font-size="83" transform="matrix(1 0 0 1 933.643 2166)">Queue 2</text><rect x="2200" y="1835" width="520" height="260" fill="#03234B"/><text fill="#FFFFFF" font-family="Arial,Arial_MSFontService,sans-serif" font-weight="400" font-size="83" transform="matrix(1 0 0 1 2233 1996)">RRA<tspan fill="#03234B" font-size="83" x="519.743" y="-64">Low</tspan></text><rect x="2980.5" y="1887.5" width="208" height="156" stroke="#BC9A00" stroke-width="4.58333" stroke-miterlimit="8" fill="#FFD200"/><text fill="#FFFFFF" font-family="Arial,Arial_MSFontService,sans-serif" font-weight="400" font-size="83" transform="matrix(1 0 0 1 3017.1 1996)">ch0</text><rect x="1732.5" y="1887.5" width="208" height="156" stroke="#650056" stroke-width="4.58333" stroke-miterlimit="8" fill="#8C0078"/><text fill="#FFFFFF" font-family="Arial,Arial_MSFontService,sans-serif" font-weight="400" font-size="83" transform="matrix(1 0 0 1 1769.72 1996)">ch2</text><rect x="1524.5" y="1887.5" width="208" height="156" stroke="#A9005B" stroke-width="4.58333" stroke-miterlimit="8" fill="#E6007E"/><text fill="#FFFFFF" font-family="Arial,Arial_MSFontService,sans-serif" font-weight="400" font-size="83" transform="matrix(1 0 0 1 1561.82 1996)">ch4</text><rect x="1732.5" y="1705.5" width="208" height="156" stroke="#A9005B" stroke-width="4.58333" stroke-miterlimit="8" fill="#E6007E"/><text fill="#FFFFFF" font-family="Arial,Arial_MSFontService,sans-serif" font-weight="400" font-size="83" transform="matrix(1 0 0 1 1769.72 1814)">ch4</text><rect x="1524.5" y="1705.5" width="208" height="156" stroke="#2983A9" stroke-width="4.58333" stroke-miterlimit="8" fill="#3CB4E6"/><text fill="#FFFFFF" font-family="Arial,Arial_MSFontService,sans-serif" font-weight="400" font-size="83" transform="matrix(1 0 0 1 1561.82 1814)">ch5</text></g></svg>