<svg width="3651" height="2114" xmlns="http://www.w3.org/2000/svg" xmlns:xlink="http://www.w3.org/1999/xlink" overflow="hidden"><defs><clipPath id="clip0"><rect x="589" y="215" width="3651" height="2114"/></clipPath></defs><g clip-path="url(#clip0)" transform="translate(-589 -215)"><rect x="589" y="458" width="623" height="831" fill="#03234B" fill-opacity="0.501961"/><text fill="#FFFFFF" font-family="Arial,Arial_MSFontService,sans-serif" font-weight="400" font-size="83" transform="matrix(1 0 0 1 770.018 554)">Source <tspan font-size="83" x="-18.3333" y="99">memory</tspan></text><rect x="641.5" y="718.5" width="520" height="130" stroke="#2983A9" stroke-width="4.58333" stroke-miterlimit="8" fill="#3CB4E6"/><text fill="#FFFFFF" font-family="Arial,Arial_MSFontService,sans-serif" font-weight="400" font-size="83" transform="matrix(1 0 0 1 877.726 813)">1</text><rect x="641.5" y="848.5" width="520" height="130" stroke="#2983A9" stroke-width="4.58333" stroke-miterlimit="8" fill="#3CB4E6"/><text fill="#FFFFFF" font-family="Arial,Arial_MSFontService,sans-serif" font-weight="400" font-size="83" transform="matrix(1 0 0 1 877.726 943)">2</text><rect x="641.5" y="978.5" width="520" height="130" stroke="#2983A9" stroke-width="4.58333" stroke-miterlimit="8" fill="#3CB4E6"/><text fill="#FFFFFF" font-family="Arial,Arial_MSFontService,sans-serif" font-weight="400" font-size="83" transform="matrix(1 0 0 1 877.726 1073)">3</text><rect x="641.5" y="1108.5" width="520" height="130" stroke="#2983A9" stroke-width="4.58333" stroke-miterlimit="8" fill="#3CB4E6"/><text fill="#FFFFFF" font-family="Arial,Arial_MSFontService,sans-serif" font-weight="400" font-size="83" transform="matrix(1 0 0 1 877.726 1203)">4</text><rect x="2408" y="458" width="624" height="831" fill="#03234B" fill-opacity="0.501961"/><text fill="#FFFFFF" font-family="Arial,Arial_MSFontService,sans-serif" font-weight="400" font-size="83" transform="matrix(1 0 0 1 2513.49 554)">Destination <tspan font-size="83" x="57.2918" y="99">memory</tspan></text><rect x="2460.5" y="718.5" width="520" height="130" stroke="#2983A9" stroke-width="4.58333" stroke-miterlimit="8" fill="#3CB4E6"/><text fill="#FFFFFF" font-family="Arial,Arial_MSFontService,sans-serif" font-weight="400" font-size="83" transform="matrix(1 0 0 1 2696.83 813)">1</text><rect x="2460" y="848" width="520" height="130" fill="#3CB4E6" fill-opacity="0.501961"/><text fill="#FFFFFF" font-family="Arial,Arial_MSFontService,sans-serif" font-weight="400" font-size="83" transform="matrix(1 0 0 1 2696.83 943)">2</text><rect x="2460" y="978" width="520" height="130" fill="#3CB4E6" fill-opacity="0.501961"/><text fill="#FFFFFF" font-family="Arial,Arial_MSFontService,sans-serif" font-weight="400" font-size="83" transform="matrix(1 0 0 1 2696.83 1073)">3</text><rect x="2460" y="1108" width="520" height="130" fill="#3CB4E6" fill-opacity="0.501961"/><text fill="#FFFFFF" font-family="Arial,Arial_MSFontService,sans-serif" font-weight="400" font-size="83" transform="matrix(1 0 0 1 2696.83 1203)">4</text><rect x="1420" y="458" width="780" height="780" fill="#03234B"/><text fill="#FFFFFF" font-family="Arial,Arial_MSFontService,sans-serif" font-weight="400" font-size="83" transform="matrix(1 0 0 1 1606.22 554)">GPDMA <tspan font-size="83" x="320.856" y="0">ch</tspan></text><path d="M1161 776.125 1516.43 776.125C1520.23 776.125 1523.31 779.203 1523.31 783 1523.31 786.797 1520.23 789.875 1516.43 789.875L1161 789.875C1157.2 789.875 1154.12 786.797 1154.12 783 1154.12 779.203 1157.2 776.125 1161 776.125ZM1509.56 762.375 1550.81 783 1509.56 803.625Z" fill="#E6007E"/><rect x="589" y="1367" width="623" height="832" fill="#03234B" fill-opacity="0.501961"/><text fill="#FFFFFF" font-family="Arial,Arial_MSFontService,sans-serif" font-weight="400" font-size="83" transform="matrix(1 0 0 1 770.018 1464)">Source <tspan font-size="83" x="-18.3333" y="99">memory</tspan></text><rect x="2408" y="1367" width="624" height="858" fill="#03234B" fill-opacity="0.501961"/><text fill="#FFFFFF" font-family="Arial,Arial_MSFontService,sans-serif" font-weight="400" font-size="83" transform="matrix(1 0 0 1 2513.49 1464)">Destination <tspan font-size="83" x="57.2918" y="99">memory</tspan></text><rect x="2460" y="2043" width="520" height="130" fill="#3CB4E6" fill-opacity="0.501961"/><text fill="#FFFFFF" font-family="Arial,Arial_MSFontService,sans-serif" font-weight="400" font-size="83" transform="matrix(1 0 0 1 2696.83 2139)">4</text><rect x="1420" y="1367" width="780" height="962" fill="#03234B"/><text fill="#FFFFFF" font-family="Arial,Arial_MSFontService,sans-serif" font-weight="400" font-size="83" transform="matrix(1 0 0 1 1606.22 1464)">GPDMA <tspan font-size="83" x="320.856" y="0">ch</tspan></text><rect x="1550.5" y="1056.5" width="520" height="130" stroke="#2983A9" stroke-width="4.58333" stroke-miterlimit="8" fill="#3CB4E6"/><text fill="#FFFFFF" font-family="Arial,Arial_MSFontService,sans-serif" font-weight="400" font-size="83" transform="matrix(1 0 0 1 1712.8 1151)">BL=1</text><rect x="1550.5" y="718.5" width="520" height="130" stroke="#2983A9" stroke-width="4.58333" stroke-miterlimit="8" fill="#3CB4E6"/><text fill="#FFFFFF" font-family="Arial,Arial_MSFontService,sans-serif" font-weight="400" font-size="83" transform="matrix(1 0 0 1 1787.28 813)">1</text><path d="M2070 776.125 2425.43 776.125C2429.23 776.125 2432.31 779.203 2432.31 783 2432.31 786.797 2429.23 789.875 2425.43 789.875L2070 789.875C2066.2 789.875 2063.12 786.797 2063.12 783 2063.12 779.203 2066.2 776.125 2070 776.125ZM2418.56 762.375 2459.81 783 2418.56 803.625Z" fill="#E6007E"/><rect x="1550.5" y="2147.5" width="520" height="130" stroke="#2983A9" stroke-width="4.58333" stroke-miterlimit="8" fill="#3CB4E6"/><text fill="#FFFFFF" font-family="Arial,Arial_MSFontService,sans-serif" font-weight="400" font-size="83" transform="matrix(1 0 0 1 1712.8 2243)">BL=2</text><path d="M1161 1828.12 1516.43 1828.13C1520.23 1828.13 1523.31 1831.2 1523.31 1835 1523.31 1838.8 1520.23 1841.88 1516.43 1841.88L1161 1841.87C1157.2 1841.87 1154.12 1838.8 1154.12 1835 1154.12 1831.2 1157.2 1828.12 1161 1828.12ZM1509.56 1814.38 1550.81 1835 1509.56 1855.63Z" fill="#E6007E"/><path d="M2070 1841.12 2425.43 1841.13C2429.23 1841.13 2432.31 1844.2 2432.31 1848 2432.31 1851.8 2429.23 1854.88 2425.43 1854.88L2070 1854.88C2066.2 1854.88 2063.12 1851.8 2063.12 1848 2063.12 1844.2 2066.2 1841.12 2070 1841.12ZM2418.56 1827.38 2459.81 1848 2418.56 1868.63Z" fill="#E6007E"/><rect x="641.5" y="1627.5" width="520" height="130" stroke="#2983A9" stroke-width="4.58333" stroke-miterlimit="8" fill="#3CB4E6"/><text fill="#FFFFFF" font-family="Arial,Arial_MSFontService,sans-serif" font-weight="400" font-size="83" transform="matrix(1 0 0 1 877.726 1723)">1</text><rect x="641.5" y="1757.5" width="520" height="130" stroke="#2983A9" stroke-width="4.58333" stroke-miterlimit="8" fill="#3CB4E6"/><text fill="#FFFFFF" font-family="Arial,Arial_MSFontService,sans-serif" font-weight="400" font-size="83" transform="matrix(1 0 0 1 877.726 1853)">2</text><rect x="641.5" y="1887.5" width="520" height="130" stroke="#2983A9" stroke-width="4.58333" stroke-miterlimit="8" fill="#3CB4E6"/><text fill="#FFFFFF" font-family="Arial,Arial_MSFontService,sans-serif" font-weight="400" font-size="83" transform="matrix(1 0 0 1 877.726 1983)">3</text><rect x="641.5" y="2017.5" width="520" height="130" stroke="#2983A9" stroke-width="4.58333" stroke-miterlimit="8" fill="#3CB4E6"/><text fill="#FFFFFF" font-family="Arial,Arial_MSFontService,sans-serif" font-weight="400" font-size="83" transform="matrix(1 0 0 1 877.726 2113)">4</text><rect x="2460.5" y="1653.5" width="520" height="130" stroke="#2983A9" stroke-width="4.58333" stroke-miterlimit="8" fill="#3CB4E6"/><text fill="#FFFFFF" font-family="Arial,Arial_MSFontService,sans-serif" font-weight="400" font-size="83" transform="matrix(1 0 0 1 2696.83 1749)">1</text><rect x="2460.5" y="1783.5" width="520" height="130" stroke="#2983A9" stroke-width="4.58333" stroke-miterlimit="8" fill="#3CB4E6"/><text fill="#FFFFFF" font-family="Arial,Arial_MSFontService,sans-serif" font-weight="400" font-size="83" transform="matrix(1 0 0 1 2696.83 1879)">2</text><rect x="2460.5" y="1913.5" width="520" height="130" stroke="#2983A9" stroke-width="4.58333" stroke-miterlimit="8" fill="#3CB4E6"/><text fill="#FFFFFF" font-family="Arial,Arial_MSFontService,sans-serif" font-weight="400" font-size="83" transform="matrix(1 0 0 1 2696.83 2009)">3</text><rect x="1550.5" y="1653.5" width="520" height="130" stroke="#2983A9" stroke-width="4.58333" stroke-miterlimit="8" fill="#3CB4E6"/><text fill="#FFFFFF" font-family="Arial,Arial_MSFontService,sans-serif" font-weight="400" font-size="83" transform="matrix(1 0 0 1 1787.28 1749)">1</text><rect x="1550.5" y="1783.5" width="520" height="130" stroke="#2983A9" stroke-width="4.58333" stroke-miterlimit="8" fill="#3CB4E6"/><text fill="#FFFFFF" font-family="Arial,Arial_MSFontService,sans-serif" font-weight="400" font-size="83" transform="matrix(1 0 0 1 1787.28 1879)">2</text><rect x="1550.5" y="1913.5" width="520" height="130" stroke="#2983A9" stroke-width="4.58333" stroke-miterlimit="8" fill="#3CB4E6"/><text fill="#FFFFFF" font-family="Arial,Arial_MSFontService,sans-serif" font-weight="400" font-size="83" transform="matrix(1 0 0 1 1787.28 2009)">3</text><path d="M2070 1653 2070 2042.81" stroke="#E6007E" stroke-width="13.75" stroke-miterlimit="8" fill="none" fill-rule="evenodd"/><path d="M1550 1653 1550 2042.81" stroke="#E6007E" stroke-width="13.75" stroke-miterlimit="8" fill="none" fill-rule="evenodd"/><path d="M1550 718 1550 847.936" stroke="#E6007E" stroke-width="13.75" stroke-miterlimit="8" fill="none" fill-rule="evenodd"/><path d="M2070 718 2070 847.936" stroke="#E6007E" stroke-width="13.75" stroke-miterlimit="8" fill="none" fill-rule="evenodd"/><path d="M1348.88 354 1348.88 735.419 1335.13 735.419 1335.12 354ZM1362.63 728.544 1342 769.794 1321.38 728.544Z" fill="#E6007E"/><text fill="#03234B" font-family="Arial,Arial_MSFontService,sans-serif" font-weight="400" font-size="83" transform="matrix(1 0 0 1 803.707 321)">DMA request</text><path d="M797 354 1342.73 354" stroke="#E6007E" stroke-width="13.75" stroke-miterlimit="8" fill="none" fill-rule="evenodd"/><path d="M2460 1653 2460 2042.81" stroke="#E6007E" stroke-width="13.75" stroke-miterlimit="8" fill="none" fill-rule="evenodd"/><path d="M1161 1627 1161 2016.81" stroke="#E6007E" stroke-width="13.75" stroke-miterlimit="8" fill="none" fill-rule="evenodd"/><rect x="3136.5" y="718.5" width="519" height="130" stroke="#2983A9" stroke-width="4.58333" stroke-miterlimit="8" fill="#3CB4E6"/><text fill="#FFFFFF" font-family="Arial,Arial_MSFontService,sans-serif" font-weight="400" font-size="83" transform="matrix(1 0 0 1 3298.01 813)">BL=1<tspan fill="#03234B" font-size="83" x="390.267" y="1">Burst size = 1</tspan></text><path d="M34.375-6.87492 155.923-6.87464 155.923 6.87536 34.375 6.87508ZM41.25 20.6251 0 0 41.25-20.6249Z" fill="#E6007E" transform="matrix(-1 0 0 1 3135.92 783)"/><path d="M2980 718 2980 847.936" stroke="#E6007E" stroke-width="13.75" stroke-miterlimit="8" fill="none" fill-rule="evenodd"/><rect x="3136.5" y="1783.5" width="519" height="130" stroke="#2983A9" stroke-width="4.58333" stroke-miterlimit="8" fill="#3CB4E6"/><text fill="#FFFFFF" font-family="Arial,Arial_MSFontService,sans-serif" font-weight="400" font-size="83" transform="matrix(1 0 0 1 3298.01 1879)">BL=3<tspan fill="#03234B" font-size="83" x="390.267" y="1">Burst size = 3</tspan></text><path d="M34.375-6.87492 155.923-6.87464 155.923 6.87536 34.375 6.87508ZM41.25 20.6251 0 0 41.25-20.6249Z" fill="#E6007E" transform="matrix(-1 0 0 1 3135.92 1848)"/><path d="M2980 1653 2980 2042.81" stroke="#E6007E" stroke-width="13.75" stroke-miterlimit="8" fill="none" fill-rule="evenodd"/></g></svg>