<svg width="3660" height="1760" xmlns="http://www.w3.org/2000/svg" xmlns:xlink="http://www.w3.org/1999/xlink" overflow="hidden"><defs><clipPath id="clip0"><rect x="589" y="215" width="3660" height="1760"/></clipPath></defs><g clip-path="url(#clip0)" transform="translate(-589 -215)"><rect x="589" y="432" width="623" height="1351" fill="#03234B" fill-opacity="0.501961"/><text fill="#FFFFFF" font-family="Arial,Arial_MSFontService,sans-serif" font-weight="400" font-size="83" transform="matrix(1 0 0 1 770.018 528)">Source <tspan font-size="83" x="-18.3333" y="99">memory</tspan></text><rect x="2408" y="406" width="624" height="1377" fill="#03234B" fill-opacity="0.501961"/><text fill="#FFFFFF" font-family="Arial,Arial_MSFontService,sans-serif" font-weight="400" font-size="83" transform="matrix(1 0 0 1 2513.49 502)">Destination <tspan font-size="83" x="57.2918" y="99">memory</tspan></text><rect x="1420" y="406" width="780" height="1377" fill="#03234B"/><text fill="#FFFFFF" font-family="Arial,Arial_MSFontService,sans-serif" font-weight="400" font-size="83" transform="matrix(1 0 0 1 1606.22 502)">GPDMA <tspan font-size="83" x="320.856" y="0">ch</tspan></text><rect x="3136.5" y="770.5" width="519" height="130" stroke="#2983A9" stroke-width="4.58333" stroke-miterlimit="8" fill="#3CB4E6"/><text fill="#FFFFFF" font-family="Arial,Arial_MSFontService,sans-serif" font-weight="400" font-size="83" transform="matrix(1 0 0 1 3298.01 865)">BL=2</text><path d="M1161 815.125 1516.43 815.125C1520.23 815.125 1523.31 818.203 1523.31 822 1523.31 825.797 1520.23 828.875 1516.43 828.875L1161 828.875C1157.2 828.875 1154.12 825.797 1154.12 822 1154.12 818.203 1157.2 815.125 1161 815.125ZM1509.56 801.375 1550.81 822 1509.56 842.625Z" fill="#E6007E"/><path d="M2070 815.125 2425.43 815.125C2429.23 815.125 2432.31 818.203 2432.31 822 2432.31 825.797 2429.23 828.875 2425.43 828.875L2070 828.875C2066.2 828.875 2063.12 825.797 2063.12 822 2063.12 818.203 2066.2 815.125 2070 815.125ZM2418.56 801.375 2459.81 822 2418.56 842.625Z" fill="#E6007E"/><rect x="641.5" y="692.5" width="520" height="130" stroke="#2983A9" stroke-width="4.58333" stroke-miterlimit="8" fill="#3CB4E6"/><text fill="#FFFFFF" font-family="Arial,Arial_MSFontService,sans-serif" font-weight="400" font-size="83" transform="matrix(1 0 0 1 877.726 787)">1</text><rect x="641.5" y="822.5" width="520" height="130" stroke="#2983A9" stroke-width="4.58333" stroke-miterlimit="8" fill="#3CB4E6"/><text fill="#FFFFFF" font-family="Arial,Arial_MSFontService,sans-serif" font-weight="400" font-size="83" transform="matrix(1 0 0 1 877.726 917)">2</text><rect x="641.5" y="952.5" width="520" height="130" stroke="#2983A9" stroke-width="4.58333" stroke-miterlimit="8" fill="#3CB4E6"/><text fill="#FFFFFF" font-family="Arial,Arial_MSFontService,sans-serif" font-weight="400" font-size="83" transform="matrix(1 0 0 1 877.726 1047)">3</text><rect x="641.5" y="1082.5" width="520" height="130" stroke="#2983A9" stroke-width="4.58333" stroke-miterlimit="8" fill="#3CB4E6"/><text fill="#FFFFFF" font-family="Arial,Arial_MSFontService,sans-serif" font-weight="400" font-size="83" transform="matrix(1 0 0 1 877.726 1177)">4</text><rect x="2460.5" y="692.5" width="520" height="130" stroke="#2983A9" stroke-width="4.58333" stroke-miterlimit="8" fill="#3CB4E6"/><text fill="#FFFFFF" font-family="Arial,Arial_MSFontService,sans-serif" font-weight="400" font-size="83" transform="matrix(1 0 0 1 2696.83 787)">1</text><rect x="2460.5" y="822.5" width="520" height="130" stroke="#2983A9" stroke-width="4.58333" stroke-miterlimit="8" fill="#3CB4E6"/><text fill="#FFFFFF" font-family="Arial,Arial_MSFontService,sans-serif" font-weight="400" font-size="83" transform="matrix(1 0 0 1 2696.83 917)">2</text><rect x="1550.5" y="692.5" width="520" height="130" stroke="#2983A9" stroke-width="4.58333" stroke-miterlimit="8" fill="#3CB4E6"/><text fill="#FFFFFF" font-family="Arial,Arial_MSFontService,sans-serif" font-weight="400" font-size="83" transform="matrix(1 0 0 1 1787.28 787)">1</text><rect x="1550.5" y="822.5" width="520" height="130" stroke="#2983A9" stroke-width="4.58333" stroke-miterlimit="8" fill="#3CB4E6"/><text fill="#FFFFFF" font-family="Arial,Arial_MSFontService,sans-serif" font-weight="400" font-size="83" transform="matrix(1 0 0 1 1787.28 917)">2</text><rect x="1550.5" y="952.5" width="520" height="130" stroke="#2983A9" stroke-width="4.58333" stroke-miterlimit="8" fill="#3CB4E6"/><text fill="#FFFFFF" font-family="Arial,Arial_MSFontService,sans-serif" font-weight="400" font-size="83" transform="matrix(1 0 0 1 1787.28 1047)">3</text><path d="M2070 692 2070 951.871" stroke="#E6007E" stroke-width="13.75" stroke-miterlimit="8" fill="none" fill-rule="evenodd"/><path d="M1550 692 1550 951.871" stroke="#E6007E" stroke-width="13.75" stroke-miterlimit="8" fill="none" fill-rule="evenodd"/><path d="M1348.88 354 1348.88 787.394 1335.13 787.394 1335.12 354ZM1362.63 780.519 1342 821.769 1321.38 780.519Z" fill="#E6007E"/><text fill="#03234B" font-family="Arial,Arial_MSFontService,sans-serif" font-weight="400" font-size="83" transform="matrix(1 0 0 1 806.357 321)">DMA request</text><path d="M797 354 1342.73 354" stroke="#E6007E" stroke-width="13.75" stroke-miterlimit="8" fill="none" fill-rule="evenodd"/><rect x="1550.5" y="1082.5" width="520" height="130" stroke="#2983A9" stroke-width="4.58333" stroke-miterlimit="8" fill="#3CB4E6"/><text fill="#FFFFFF" font-family="Arial,Arial_MSFontService,sans-serif" font-weight="400" font-size="83" transform="matrix(1 0 0 1 1787.28 1177)">4</text><rect x="641.5" y="1212.5" width="520" height="129" stroke="#2983A9" stroke-width="4.58333" stroke-miterlimit="8" fill="#3CB4E6"/><text fill="#FFFFFF" font-family="Arial,Arial_MSFontService,sans-serif" font-weight="400" font-size="83" transform="matrix(1 0 0 1 877.726 1307)">5</text><rect x="641.5" y="1341.5" width="520" height="130" stroke="#2983A9" stroke-width="4.58333" stroke-miterlimit="8" fill="#3CB4E6"/><text fill="#FFFFFF" font-family="Arial,Arial_MSFontService,sans-serif" font-weight="400" font-size="83" transform="matrix(1 0 0 1 877.726 1437)">6</text><rect x="641.5" y="1471.5" width="520" height="130" stroke="#2983A9" stroke-width="4.58333" stroke-miterlimit="8" fill="#3CB4E6"/><text fill="#FFFFFF" font-family="Arial,Arial_MSFontService,sans-serif" font-weight="400" font-size="83" transform="matrix(1 0 0 1 877.726 1567)">7</text><rect x="641.5" y="1601.5" width="520" height="130" stroke="#2983A9" stroke-width="4.58333" stroke-miterlimit="8" fill="#3CB4E6"/><text fill="#FFFFFF" font-family="Arial,Arial_MSFontService,sans-serif" font-weight="400" font-size="83" transform="matrix(1 0 0 1 877.726 1697)">8</text><rect x="2460.5" y="952.5" width="520" height="130" stroke="#2983A9" stroke-width="4.58333" stroke-miterlimit="8" fill="#3CB4E6"/><text fill="#FFFFFF" font-family="Arial,Arial_MSFontService,sans-serif" font-weight="400" font-size="83" transform="matrix(1 0 0 1 2696.83 1047)">3</text><rect x="2460.5" y="1082.5" width="520" height="130" stroke="#2983A9" stroke-width="4.58333" stroke-miterlimit="8" fill="#3CB4E6"/><text fill="#FFFFFF" font-family="Arial,Arial_MSFontService,sans-serif" font-weight="400" font-size="83" transform="matrix(1 0 0 1 2696.83 1177)">4</text><rect x="2460.5" y="1212.5" width="520" height="129" stroke="#2983A9" stroke-width="4.58333" stroke-miterlimit="8" fill="#3CB4E6"/><text fill="#FFFFFF" font-family="Arial,Arial_MSFontService,sans-serif" font-weight="400" font-size="83" transform="matrix(1 0 0 1 2696.83 1307)">5</text><rect x="2460.5" y="1341.5" width="520" height="130" stroke="#2983A9" stroke-width="4.58333" stroke-miterlimit="8" fill="#3CB4E6"/><text fill="#FFFFFF" font-family="Arial,Arial_MSFontService,sans-serif" font-weight="400" font-size="83" transform="matrix(1 0 0 1 2696.83 1437)">6</text><rect x="2460.5" y="1471.5" width="520" height="130" stroke="#2983A9" stroke-width="4.58333" stroke-miterlimit="8" fill="#3CB4E6"/><text fill="#FFFFFF" font-family="Arial,Arial_MSFontService,sans-serif" font-weight="400" font-size="83" transform="matrix(1 0 0 1 2696.83 1567)">7</text><rect x="2460.5" y="1601.5" width="520" height="130" stroke="#2983A9" stroke-width="4.58333" stroke-miterlimit="8" fill="#3CB4E6"/><text fill="#FFFFFF" font-family="Arial,Arial_MSFontService,sans-serif" font-weight="400" font-size="83" transform="matrix(1 0 0 1 2696.83 1697)">8</text><rect x="1550.5" y="1212.5" width="520" height="129" stroke="#2983A9" stroke-width="4.58333" stroke-miterlimit="8" fill="#3CB4E6"/><text fill="#FFFFFF" font-family="Arial,Arial_MSFontService,sans-serif" font-weight="400" font-size="83" transform="matrix(1 0 0 1 1787.28 1307)">5</text><rect x="1550.5" y="1341.5" width="520" height="130" stroke="#2983A9" stroke-width="4.58333" stroke-miterlimit="8" fill="#3CB4E6"/><text fill="#FFFFFF" font-family="Arial,Arial_MSFontService,sans-serif" font-weight="400" font-size="83" transform="matrix(1 0 0 1 1787.28 1437)">6</text><rect x="1550.5" y="1471.5" width="520" height="130" stroke="#2983A9" stroke-width="4.58333" stroke-miterlimit="8" fill="#3CB4E6"/><text fill="#FFFFFF" font-family="Arial,Arial_MSFontService,sans-serif" font-weight="400" font-size="83" transform="matrix(1 0 0 1 1787.28 1567)">7</text><rect x="1550.5" y="1601.5" width="520" height="130" stroke="#2983A9" stroke-width="4.58333" stroke-miterlimit="8" fill="#3CB4E6"/><text fill="#FFFFFF" font-family="Arial,Arial_MSFontService,sans-serif" font-weight="400" font-size="83" transform="matrix(1 0 0 1 1787.28 1697)">8</text><rect x="3136.5" y="1108.5" width="519" height="130" stroke="#2983A9" stroke-width="4.58333" stroke-miterlimit="8" fill="#3CB4E6"/><text fill="#FFFFFF" font-family="Arial,Arial_MSFontService,sans-serif" font-weight="400" font-size="83" transform="matrix(1 0 0 1 3236.14 1203)">BNDT=<tspan font-size="83" x="272.708" y="0">8</tspan></text><path d="M1161 692 1161 951.871" stroke="#E6007E" stroke-width="13.75" stroke-miterlimit="8" fill="none" fill-rule="evenodd"/><path d="M2460 692 2460 951.871" stroke="#E6007E" stroke-width="13.75" stroke-miterlimit="8" fill="none" fill-rule="evenodd"/><path d="M1161 1075.13 1516.43 1075.13C1520.23 1075.13 1523.31 1078.2 1523.31 1082 1523.31 1085.8 1520.23 1088.88 1516.43 1088.88L1161 1088.88C1157.2 1088.88 1154.12 1085.8 1154.12 1082 1154.12 1078.2 1157.2 1075.13 1161 1075.13ZM1509.56 1061.38 1550.81 1082 1509.56 1102.63Z" fill="#FFD200"/><path d="M1550 952 1550 1211.87" stroke="#FFD200" stroke-width="13.75" stroke-miterlimit="8" fill="none" fill-rule="evenodd"/><path d="M1161 952 1161 1211.87" stroke="#FFD200" stroke-width="13.75" stroke-miterlimit="8" fill="none" fill-rule="evenodd"/><path d="M2070 1075.13 2425.43 1075.13C2429.23 1075.13 2432.31 1078.2 2432.31 1082 2432.31 1085.8 2429.23 1088.88 2425.43 1088.88L2070 1088.88C2066.2 1088.88 2063.12 1085.8 2063.12 1082 2063.12 1078.2 2066.2 1075.13 2070 1075.13ZM2418.56 1061.38 2459.81 1082 2418.56 1102.63Z" fill="#FFD200"/><path d="M2070 952 2070 1211.87" stroke="#FFD200" stroke-width="13.75" stroke-miterlimit="8" fill="none" fill-rule="evenodd"/><path d="M2460 952 2460 1211.87" stroke="#FFD200" stroke-width="13.75" stroke-miterlimit="8" fill="none" fill-rule="evenodd"/><path d="M1161 1334.12 1516.43 1334.13C1520.23 1334.13 1523.31 1337.2 1523.31 1341 1523.31 1344.8 1520.23 1347.88 1516.43 1347.88L1161 1347.88C1157.2 1347.88 1154.12 1344.8 1154.12 1341 1154.12 1337.2 1157.2 1334.12 1161 1334.12ZM1509.56 1320.38 1550.81 1341 1509.56 1361.63Z" fill="#49B170"/><path d="M1550 1212 1550 1471.87" stroke="#49B170" stroke-width="13.75" stroke-miterlimit="8" fill="none" fill-rule="evenodd"/><path d="M1161 1212 1161 1471.87" stroke="#49B170" stroke-width="13.75" stroke-miterlimit="8" fill="none" fill-rule="evenodd"/><path d="M2070 1334.12 2425.43 1334.13C2429.23 1334.13 2432.31 1337.2 2432.31 1341 2432.31 1344.8 2429.23 1347.88 2425.43 1347.88L2070 1347.88C2066.2 1347.88 2063.12 1344.8 2063.12 1341 2063.12 1337.2 2066.2 1334.12 2070 1334.12ZM2418.56 1320.38 2459.81 1341 2418.56 1361.63Z" fill="#49B170"/><path d="M2070 1212 2070 1471.87" stroke="#49B170" stroke-width="13.75" stroke-miterlimit="8" fill="none" fill-rule="evenodd"/><path d="M2460 1212 2460 1471.87" stroke="#49B170" stroke-width="13.75" stroke-miterlimit="8" fill="none" fill-rule="evenodd"/><path d="M1161 1594.12 1516.43 1594.13C1520.23 1594.13 1523.31 1597.2 1523.31 1601 1523.31 1604.8 1520.23 1607.88 1516.43 1607.88L1161 1607.87C1157.2 1607.87 1154.12 1604.8 1154.12 1601 1154.12 1597.2 1157.2 1594.12 1161 1594.12ZM1509.56 1580.38 1550.81 1601 1509.56 1621.63Z" fill="#8C0078"/><path d="M1550 1471 1550 1730.87" stroke="#8C0078" stroke-width="13.75" stroke-miterlimit="8" fill="none" fill-rule="evenodd"/><path d="M1161 1471 1161 1730.87" stroke="#8C0078" stroke-width="13.75" stroke-miterlimit="8" fill="none" fill-rule="evenodd"/><path d="M2070 1594.12 2425.43 1594.13C2429.23 1594.13 2432.31 1597.2 2432.31 1601 2432.31 1604.8 2429.23 1607.88 2425.43 1607.88L2070 1607.87C2066.2 1607.87 2063.12 1604.8 2063.12 1601 2063.12 1597.2 2066.2 1594.12 2070 1594.12ZM2418.56 1580.38 2459.81 1601 2418.56 1621.63Z" fill="#8C0078"/><path d="M2070 1471 2070 1730.87" stroke="#8C0078" stroke-width="13.75" stroke-miterlimit="8" fill="none" fill-rule="evenodd"/><path d="M2460 1471 2460 1730.87" stroke="#8C0078" stroke-width="13.75" stroke-miterlimit="8" fill="none" fill-rule="evenodd"/><text fill="#03234B" font-family="Arial,Arial_MSFontService,sans-serif" font-weight="400" font-size="83" transform="matrix(1 0 0 1 3688.28 840)">Burst size = 2<tspan font-size="83" x="0" y="361">Block size = 8</tspan></text><path d="M1550 1731 2069.74 1731" stroke="#E6007E" stroke-width="13.75" stroke-miterlimit="8" fill="none" fill-rule="evenodd"/><text fill="#03234B" font-family="Arial,Arial_MSFontService,sans-serif" font-weight="400" font-size="83" transform="matrix(1 0 0 1 1578.72 1906)">DMA list end</text><path d="M6.875-3.18252e-05 6.8752 43.5864-6.8748 43.5864-6.875 3.18252e-05ZM20.6252 36.7113 0.000360892 77.9614-20.6248 36.7115Z" fill="#E6007E" transform="matrix(1 0 0 -1 1810 1808.96)"/><path d="M1524 1809 2043.74 1809" stroke="#E6007E" stroke-width="13.75" stroke-miterlimit="8" fill="none" fill-rule="evenodd"/><path d="M34.375-6.87492 155.923-6.87464 155.923 6.87536 34.375 6.87508ZM41.25 20.6251 0 0 41.25-20.6249Z" fill="#E6007E" transform="matrix(-1 0 0 1 3135.92 822)"/><path d="M2980 692 2980 951.871" stroke="#E6007E" stroke-width="13.75" stroke-miterlimit="8" fill="none" fill-rule="evenodd"/><path d="M34.375-6.8749 129.936-6.87464 129.936 6.87536 34.375 6.8751ZM41.2499 20.6251 0 0 41.2501-20.6249Z" fill="#49B170" transform="matrix(-1 0 0 1 3135.94 1173)"/><path d="M3006 692 3006 1731.49" stroke="#49B170" stroke-width="13.75" stroke-miterlimit="8" fill="none" fill-rule="evenodd"/></g></svg>