<svg width="4132" height="2120" xmlns="http://www.w3.org/2000/svg" xmlns:xlink="http://www.w3.org/1999/xlink" overflow="hidden"><defs><clipPath id="clip0"><rect x="121" y="215" width="4132" height="2120"/></clipPath></defs><g clip-path="url(#clip0)" transform="translate(-121 -215)"><rect x="121" y="432" width="624" height="1689" fill="#03234B" fill-opacity="0.501961"/><text fill="#FFFFFF" font-family="Arial,Arial_MSFontService,sans-serif" font-weight="400" font-size="83" transform="matrix(1 0 0 1 302.25 528)">Source <tspan font-size="83" x="-18.3333" y="99">memory</tspan></text><rect x="1940" y="406" width="624" height="1715" fill="#03234B" fill-opacity="0.501961"/><text fill="#FFFFFF" font-family="Arial,Arial_MSFontService,sans-serif" font-weight="400" font-size="83" transform="matrix(1 0 0 1 2045.72 502)">Destination <tspan font-size="83" x="57.2918" y="99">memory</tspan></text><rect x="953" y="406" width="779" height="1715" fill="#03234B"/><text fill="#FFFFFF" font-family="Arial,Arial_MSFontService,sans-serif" font-weight="400" font-size="83" transform="matrix(1 0 0 1 1138.45 502)">GPDMA <tspan font-size="83" x="320.856" y="0">ch</tspan></text><rect x="2668.5" y="770.5" width="520" height="130" stroke="#2983A9" stroke-width="4.58333" stroke-miterlimit="8" fill="#3CB4E6"/><text fill="#FFFFFF" font-family="Arial,Arial_MSFontService,sans-serif" font-weight="400" font-size="83" transform="matrix(1 0 0 1 2830.24 865)">BL=2</text><path d="M693 815.125 1048.43 815.125C1052.23 815.125 1055.31 818.203 1055.31 822 1055.31 825.797 1052.23 828.875 1048.43 828.875L693 828.875C689.203 828.875 686.125 825.797 686.125 822 686.125 818.203 689.203 815.125 693 815.125ZM1041.56 801.375 1082.81 822 1041.56 842.625Z" fill="#E6007E"/><path d="M1602 815.125 1957.43 815.125C1961.23 815.125 1964.31 818.203 1964.31 822 1964.31 825.797 1961.23 828.875 1957.43 828.875L1602 828.875C1598.2 828.875 1595.12 825.797 1595.12 822 1595.12 818.203 1598.2 815.125 1602 815.125ZM1950.56 801.375 1991.81 822 1950.56 842.625Z" fill="#E6007E"/><rect x="173.5" y="692.5" width="520" height="130" stroke="#2983A9" stroke-width="4.58333" stroke-miterlimit="8" fill="#3CB4E6"/><text fill="#FFFFFF" font-family="Arial,Arial_MSFontService,sans-serif" font-weight="400" font-size="83" transform="matrix(1 0 0 1 409.958 787)">1</text><rect x="173.5" y="822.5" width="520" height="130" stroke="#2983A9" stroke-width="4.58333" stroke-miterlimit="8" fill="#3CB4E6"/><text fill="#FFFFFF" font-family="Arial,Arial_MSFontService,sans-serif" font-weight="400" font-size="83" transform="matrix(1 0 0 1 409.958 917)">2</text><rect x="173.5" y="1056.5" width="520" height="130" stroke="#2983A9" stroke-width="4.58333" stroke-miterlimit="8" fill="#3CB4E6"/><text fill="#FFFFFF" font-family="Arial,Arial_MSFontService,sans-serif" font-weight="400" font-size="83" transform="matrix(1 0 0 1 409.958 1151)">3</text><rect x="173.5" y="1186.5" width="520" height="129" stroke="#2983A9" stroke-width="4.58333" stroke-miterlimit="8" fill="#3CB4E6"/><text fill="#FFFFFF" font-family="Arial,Arial_MSFontService,sans-serif" font-weight="400" font-size="83" transform="matrix(1 0 0 1 409.958 1281)">4</text><rect x="1992.5" y="692.5" width="520" height="130" stroke="#2983A9" stroke-width="4.58333" stroke-miterlimit="8" fill="#3CB4E6"/><text fill="#FFFFFF" font-family="Arial,Arial_MSFontService,sans-serif" font-weight="400" font-size="83" transform="matrix(1 0 0 1 2229.06 787)">1</text><rect x="1992.5" y="822.5" width="520" height="130" stroke="#2983A9" stroke-width="4.58333" stroke-miterlimit="8" fill="#3CB4E6"/><text fill="#FFFFFF" font-family="Arial,Arial_MSFontService,sans-serif" font-weight="400" font-size="83" transform="matrix(1 0 0 1 2229.06 917)">2</text><rect x="1083.5" y="692.5" width="519" height="130" stroke="#2983A9" stroke-width="4.58333" stroke-miterlimit="8" fill="#3CB4E6"/><text fill="#FFFFFF" font-family="Arial,Arial_MSFontService,sans-serif" font-weight="400" font-size="83" transform="matrix(1 0 0 1 1319.51 787)">1</text><rect x="1083.5" y="822.5" width="519" height="130" stroke="#2983A9" stroke-width="4.58333" stroke-miterlimit="8" fill="#3CB4E6"/><text fill="#FFFFFF" font-family="Arial,Arial_MSFontService,sans-serif" font-weight="400" font-size="83" transform="matrix(1 0 0 1 1319.51 917)">2</text><rect x="1083.5" y="1056.5" width="519" height="130" stroke="#2983A9" stroke-width="4.58333" stroke-miterlimit="8" fill="#3CB4E6"/><text fill="#FFFFFF" font-family="Arial,Arial_MSFontService,sans-serif" font-weight="400" font-size="83" transform="matrix(1 0 0 1 1319.51 1151)">3</text><path d="M1602 692 1602 951.871" stroke="#E6007E" stroke-width="13.75" stroke-miterlimit="8" fill="none" fill-rule="evenodd"/><path d="M1083 692 1083 951.871" stroke="#E6007E" stroke-width="13.75" stroke-miterlimit="8" fill="none" fill-rule="evenodd"/><path d="M881.875 354 881.875 787.394 868.125 787.394 868.125 354ZM895.625 780.519 875 821.769 854.375 780.519Z" fill="#E6007E"/><text fill="#03234B" font-family="Arial,Arial_MSFontService,sans-serif" font-weight="400" font-size="83" transform="matrix(1 0 0 1 338.589 321)">DMA request</text><path d="M329 354 874.73 354" stroke="#E6007E" stroke-width="13.75" stroke-miterlimit="8" fill="none" fill-rule="evenodd"/><rect x="1083.5" y="1186.5" width="519" height="129" stroke="#2983A9" stroke-width="4.58333" stroke-miterlimit="8" fill="#3CB4E6"/><text fill="#FFFFFF" font-family="Arial,Arial_MSFontService,sans-serif" font-weight="400" font-size="83" transform="matrix(1 0 0 1 1319.51 1281)">4</text><rect x="173.5" y="1445.5" width="520" height="130" stroke="#2983A9" stroke-width="4.58333" stroke-miterlimit="8" fill="#3CB4E6"/><text fill="#FFFFFF" font-family="Arial,Arial_MSFontService,sans-serif" font-weight="400" font-size="83" transform="matrix(1 0 0 1 409.958 1541)">5</text><rect x="173.5" y="1575.5" width="520" height="130" stroke="#2983A9" stroke-width="4.58333" stroke-miterlimit="8" fill="#3CB4E6"/><text fill="#FFFFFF" font-family="Arial,Arial_MSFontService,sans-serif" font-weight="400" font-size="83" transform="matrix(1 0 0 1 409.958 1671)">6</text><rect x="173.5" y="1809.5" width="520" height="130" stroke="#2983A9" stroke-width="4.58333" stroke-miterlimit="8" fill="#3CB4E6"/><text fill="#FFFFFF" font-family="Arial,Arial_MSFontService,sans-serif" font-weight="400" font-size="83" transform="matrix(1 0 0 1 409.958 1905)">7</text><rect x="173.5" y="1939.5" width="520" height="130" stroke="#2983A9" stroke-width="4.58333" stroke-miterlimit="8" fill="#3CB4E6"/><text fill="#FFFFFF" font-family="Arial,Arial_MSFontService,sans-serif" font-weight="400" font-size="83" transform="matrix(1 0 0 1 409.958 2035)">8</text><rect x="1992.5" y="1056.5" width="520" height="130" stroke="#2983A9" stroke-width="4.58333" stroke-miterlimit="8" fill="#3CB4E6"/><text fill="#FFFFFF" font-family="Arial,Arial_MSFontService,sans-serif" font-weight="400" font-size="83" transform="matrix(1 0 0 1 2229.06 1151)">3</text><rect x="1992.5" y="1186.5" width="520" height="129" stroke="#2983A9" stroke-width="4.58333" stroke-miterlimit="8" fill="#3CB4E6"/><text fill="#FFFFFF" font-family="Arial,Arial_MSFontService,sans-serif" font-weight="400" font-size="83" transform="matrix(1 0 0 1 2229.06 1281)">4</text><rect x="1992.5" y="1445.5" width="520" height="130" stroke="#2983A9" stroke-width="4.58333" stroke-miterlimit="8" fill="#3CB4E6"/><text fill="#FFFFFF" font-family="Arial,Arial_MSFontService,sans-serif" font-weight="400" font-size="83" transform="matrix(1 0 0 1 2229.06 1541)">5</text><rect x="1992.5" y="1575.5" width="520" height="130" stroke="#2983A9" stroke-width="4.58333" stroke-miterlimit="8" fill="#3CB4E6"/><text fill="#FFFFFF" font-family="Arial,Arial_MSFontService,sans-serif" font-weight="400" font-size="83" transform="matrix(1 0 0 1 2229.06 1671)">6</text><rect x="1992.5" y="1809.5" width="520" height="130" stroke="#2983A9" stroke-width="4.58333" stroke-miterlimit="8" fill="#3CB4E6"/><text fill="#FFFFFF" font-family="Arial,Arial_MSFontService,sans-serif" font-weight="400" font-size="83" transform="matrix(1 0 0 1 2229.06 1905)">7</text><rect x="1992.5" y="1939.5" width="520" height="130" stroke="#2983A9" stroke-width="4.58333" stroke-miterlimit="8" fill="#3CB4E6"/><text fill="#FFFFFF" font-family="Arial,Arial_MSFontService,sans-serif" font-weight="400" font-size="83" transform="matrix(1 0 0 1 2229.06 2035)">8</text><rect x="1083.5" y="1445.5" width="519" height="130" stroke="#2983A9" stroke-width="4.58333" stroke-miterlimit="8" fill="#3CB4E6"/><text fill="#FFFFFF" font-family="Arial,Arial_MSFontService,sans-serif" font-weight="400" font-size="83" transform="matrix(1 0 0 1 1319.51 1541)">5</text><rect x="1083.5" y="1575.5" width="519" height="130" stroke="#2983A9" stroke-width="4.58333" stroke-miterlimit="8" fill="#3CB4E6"/><text fill="#FFFFFF" font-family="Arial,Arial_MSFontService,sans-serif" font-weight="400" font-size="83" transform="matrix(1 0 0 1 1319.51 1671)">6</text><rect x="1083.5" y="1809.5" width="519" height="130" stroke="#2983A9" stroke-width="4.58333" stroke-miterlimit="8" fill="#3CB4E6"/><text fill="#FFFFFF" font-family="Arial,Arial_MSFontService,sans-serif" font-weight="400" font-size="83" transform="matrix(1 0 0 1 1319.51 1905)">7</text><rect x="1083.5" y="1939.5" width="519" height="130" stroke="#2983A9" stroke-width="4.58333" stroke-miterlimit="8" fill="#3CB4E6"/><text fill="#FFFFFF" font-family="Arial,Arial_MSFontService,sans-serif" font-weight="400" font-size="83" transform="matrix(1 0 0 1 1319.51 2035)">8</text><rect x="2668.5" y="1108.5" width="520" height="130" stroke="#2983A9" stroke-width="4.58333" stroke-miterlimit="8" fill="#3CB4E6"/><text fill="#FFFFFF" font-family="Arial,Arial_MSFontService,sans-serif" font-weight="400" font-size="83" transform="matrix(1 0 0 1 2768.37 1203)">BNDT=4</text><path d="M693 692 693 951.871" stroke="#E6007E" stroke-width="13.75" stroke-miterlimit="8" fill="none" fill-rule="evenodd"/><path d="M1992 692 1992 951.871" stroke="#E6007E" stroke-width="13.75" stroke-miterlimit="8" fill="none" fill-rule="evenodd"/><path d="M693 1179.12 1048.43 1179.13C1052.23 1179.13 1055.31 1182.2 1055.31 1186 1055.31 1189.8 1052.23 1192.88 1048.43 1192.88L693 1192.87C689.203 1192.87 686.125 1189.8 686.125 1186 686.125 1182.2 689.203 1179.12 693 1179.12ZM1041.56 1165.38 1082.81 1186 1041.56 1206.63Z" fill="#FFD200"/><path d="M1083 1056 1083 1315.87" stroke="#FFD200" stroke-width="13.75" stroke-miterlimit="8" fill="none" fill-rule="evenodd"/><path d="M693 1056 693 1315.87" stroke="#FFD200" stroke-width="13.75" stroke-miterlimit="8" fill="none" fill-rule="evenodd"/><path d="M1602 1179.12 1957.43 1179.13C1961.23 1179.13 1964.31 1182.2 1964.31 1186 1964.31 1189.8 1961.23 1192.88 1957.43 1192.88L1602 1192.87C1598.2 1192.87 1595.12 1189.8 1595.12 1186 1595.12 1182.2 1598.2 1179.12 1602 1179.12ZM1950.56 1165.38 1991.81 1186 1950.56 1206.63Z" fill="#FFD200"/><path d="M1602 1056 1602 1315.87" stroke="#FFD200" stroke-width="13.75" stroke-miterlimit="8" fill="none" fill-rule="evenodd"/><path d="M1992 1056 1992 1315.87" stroke="#FFD200" stroke-width="13.75" stroke-miterlimit="8" fill="none" fill-rule="evenodd"/><path d="M693 1568.13 1048.43 1568.13C1052.23 1568.13 1055.31 1571.2 1055.31 1575 1055.31 1578.8 1052.23 1581.88 1048.43 1581.88L693 1581.88C689.203 1581.88 686.125 1578.8 686.125 1575 686.125 1571.2 689.203 1568.13 693 1568.13ZM1041.56 1554.38 1082.81 1575 1041.56 1595.63Z" fill="#49B170"/><path d="M1083 1445 1083 1704.87" stroke="#49B170" stroke-width="13.75" stroke-miterlimit="8" fill="none" fill-rule="evenodd"/><path d="M693 1445 693 1704.87" stroke="#49B170" stroke-width="13.75" stroke-miterlimit="8" fill="none" fill-rule="evenodd"/><path d="M1602 1568.13 1957.43 1568.13C1961.23 1568.13 1964.31 1571.2 1964.31 1575 1964.31 1578.8 1961.23 1581.88 1957.43 1581.88L1602 1581.88C1598.2 1581.88 1595.12 1578.8 1595.12 1575 1595.12 1571.2 1598.2 1568.13 1602 1568.13ZM1950.56 1554.38 1991.81 1575 1950.56 1595.63Z" fill="#49B170"/><path d="M1602 1445 1602 1704.87" stroke="#49B170" stroke-width="13.75" stroke-miterlimit="8" fill="none" fill-rule="evenodd"/><path d="M1992 1445 1992 1704.87" stroke="#49B170" stroke-width="13.75" stroke-miterlimit="8" fill="none" fill-rule="evenodd"/><path d="M693 1932.13 1048.43 1932.13C1052.23 1932.13 1055.31 1935.2 1055.31 1939 1055.31 1942.8 1052.23 1945.88 1048.43 1945.88L693 1945.88C689.203 1945.88 686.125 1942.8 686.125 1939 686.125 1935.2 689.203 1932.13 693 1932.13ZM1041.56 1918.38 1082.81 1939 1041.56 1959.63Z" fill="#8C0078"/><path d="M1083 1809 1083 2068.87" stroke="#8C0078" stroke-width="13.75" stroke-miterlimit="8" fill="none" fill-rule="evenodd"/><path d="M693 1809 693 2068.87" stroke="#8C0078" stroke-width="13.75" stroke-miterlimit="8" fill="none" fill-rule="evenodd"/><path d="M1602 1932.13 1957.43 1932.13C1961.23 1932.13 1964.31 1935.2 1964.31 1939 1964.31 1942.8 1961.23 1945.88 1957.43 1945.88L1602 1945.88C1598.2 1945.88 1595.12 1942.8 1595.12 1939 1595.12 1935.2 1598.2 1932.13 1602 1932.13ZM1950.56 1918.38 1991.81 1939 1950.56 1959.63Z" fill="#8C0078"/><path d="M1602 1809 1602 2068.87" stroke="#8C0078" stroke-width="13.75" stroke-miterlimit="8" fill="none" fill-rule="evenodd"/><path d="M1992 1809 1992 2068.87" stroke="#8C0078" stroke-width="13.75" stroke-miterlimit="8" fill="none" fill-rule="evenodd"/><text fill="#03234B" font-family="Arial,Arial_MSFontService,sans-serif" font-weight="400" font-size="83" transform="matrix(1 0 0 1 3220.51 863)">Burst size = 2<tspan font-size="83" x="0" y="338">Block size = 4</tspan></text><path d="M1083 2069 1602.74 2069" stroke="#E6007E" stroke-width="13.75" stroke-miterlimit="8" fill="none" fill-rule="evenodd"/><text fill="#03234B" font-family="Arial,Arial_MSFontService,sans-serif" font-weight="400" font-size="83" transform="matrix(1 0 0 1 1110.95 2266)">DMA list end</text><path d="M6.875-2.46646e-05 6.87524 66.2201-6.87476 66.2202-6.875 2.46646e-05ZM20.6252 59.3451 0.000360892 100.595-20.6248 59.3452Z" fill="#E6007E" transform="matrix(1 0 0 -1 1342 2169.6)"/><path d="M1057 2170 1576.74 2170" stroke="#E6007E" stroke-width="13.75" stroke-miterlimit="8" fill="none" fill-rule="evenodd"/><path d="M34.375-6.87492 155.923-6.87464 155.923 6.87536 34.375 6.87508ZM41.25 20.6251 0 0 41.25-20.6249Z" fill="#E6007E" transform="matrix(-1 0 0 1 2667.92 822)"/><path d="M2512 692 2512 951.871" stroke="#E6007E" stroke-width="13.75" stroke-miterlimit="8" fill="none" fill-rule="evenodd"/><path d="M34.375-6.8749 129.936-6.87464 129.936 6.87536 34.375 6.8751ZM41.2499 20.6251 0 0 41.2501-20.6249Z" fill="#49B170" transform="matrix(-1 0 0 1 2667.94 1173)"/><path d="M2538 692 2538 2069.32" stroke="#49B170" stroke-width="13.75" stroke-miterlimit="8" fill="none" fill-rule="evenodd"/><rect x="2694.5" y="1702.5" width="519" height="130" stroke="#2983A9" stroke-width="4.58333" stroke-miterlimit="8" fill="#3CB4E6"/><text fill="#FFFFFF" font-family="Arial,Arial_MSFontService,sans-serif" font-weight="400" font-size="83" transform="matrix(1 0 0 1 2894.04 1797)">AO<tspan fill="#03234B" font-size="83" x="352.455" y="1">Address offset = +</tspan><tspan fill="#03234B" font-size="83" x="1020.13" y="1">-</tspan><tspan fill="#03234B" font-size="83" x="1070.55" y="1">8192</tspan></text><path d="M2460 1750.12 2659.51 1750.13 2659.51 1763.88 2460 1763.87ZM2652.63 1736.38 2693.88 1757 2652.63 1777.63Z" fill="#8C0078"/><path d="M6.87512 34.375 6.87524 69.5735-6.87476 69.5736-6.87488 34.375ZM-20.6249 41.2501 0 0 20.6251 41.2499ZM20.6252 62.6985 0.000360892 103.949-20.6248 62.6986Z" fill="#8C0078" transform="matrix(1 0 0 -1 2460 1808.95)"/></g></svg>