<svg width="3898" height="1756" xmlns="http://www.w3.org/2000/svg" xmlns:xlink="http://www.w3.org/1999/xlink" overflow="hidden"><defs><clipPath id="clip0"><rect x="537" y="215" width="3898" height="1756"/></clipPath></defs><g clip-path="url(#clip0)" transform="translate(-537 -215)"><rect x="1420" y="406" width="780" height="1377" fill="#03234B"/><text fill="#FFFFFF" font-family="Arial,Arial_MSFontService,sans-serif" font-weight="400" font-size="83" transform="matrix(1 0 0 1 1606.22 502)">GPDMA <tspan font-size="83" x="320.856" y="0">ch</tspan></text><rect x="589" y="432" width="623" height="1351" fill="#03234B" fill-opacity="0.501961"/><text fill="#FFFFFF" font-family="Arial,Arial_MSFontService,sans-serif" font-weight="400" font-size="83" transform="matrix(1 0 0 1 770.018 528)">Source <tspan font-size="83" x="-18.3333" y="99">memory</tspan></text><rect x="2408" y="406" width="624" height="1377" fill="#03234B" fill-opacity="0.501961"/><text fill="#FFFFFF" font-family="Arial,Arial_MSFontService,sans-serif" font-weight="400" font-size="83" transform="matrix(1 0 0 1 2513.49 502)">Destination <tspan font-size="83" x="57.2918" y="99">memory</tspan></text><rect x="537" y="1289" width="2573" height="468" fill="#FFD200" fill-opacity="0.501961"/><rect x="537" y="640" width="2573" height="468" fill="#FFD200" fill-opacity="0.501961"/><rect x="641.5" y="692.5" width="260" height="130" stroke="#2983A9" stroke-width="4.58333" stroke-miterlimit="8" fill="#3CB4E6"/><text fill="#FFFFFF" font-family="Arial,Arial_MSFontService,sans-serif" font-weight="400" font-size="83" transform="matrix(1 0 0 1 747.79 787)">1</text><rect x="901.5" y="692.5" width="260" height="130" stroke="#2983A9" stroke-width="4.58333" stroke-miterlimit="8" fill="#3CB4E6"/><text fill="#FFFFFF" font-family="Arial,Arial_MSFontService,sans-serif" font-weight="400" font-size="83" transform="matrix(1 0 0 1 1007.66 787)">2</text><rect x="641.5" y="926.5" width="260" height="130" stroke="#2983A9" stroke-width="4.58333" stroke-miterlimit="8" fill="#3CB4E6"/><text fill="#FFFFFF" font-family="Arial,Arial_MSFontService,sans-serif" font-weight="400" font-size="83" transform="matrix(1 0 0 1 747.79 1021)">3</text><rect x="901.5" y="926.5" width="260" height="130" stroke="#2983A9" stroke-width="4.58333" stroke-miterlimit="8" fill="#3CB4E6"/><text fill="#FFFFFF" font-family="Arial,Arial_MSFontService,sans-serif" font-weight="400" font-size="83" transform="matrix(1 0 0 1 1007.66 1021)">4</text><rect x="641.5" y="1575.5" width="260" height="130" stroke="#2983A9" stroke-width="4.58333" stroke-miterlimit="8" fill="#3CB4E6"/><text fill="#FFFFFF" font-family="Arial,Arial_MSFontService,sans-serif" font-weight="400" font-size="83" transform="matrix(1 0 0 1 747.79 1671)">7</text><rect x="901.5" y="1575.5" width="260" height="130" stroke="#2983A9" stroke-width="4.58333" stroke-miterlimit="8" fill="#3CB4E6"/><text fill="#FFFFFF" font-family="Arial,Arial_MSFontService,sans-serif" font-weight="400" font-size="83" transform="matrix(1 0 0 1 1007.66 1671)">8</text><rect x="641.5" y="1341.5" width="260" height="130" stroke="#2983A9" stroke-width="4.58333" stroke-miterlimit="8" fill="#3CB4E6"/><text fill="#FFFFFF" font-family="Arial,Arial_MSFontService,sans-serif" font-weight="400" font-size="83" transform="matrix(1 0 0 1 747.79 1437)">5</text><rect x="901.5" y="1341.5" width="260" height="130" stroke="#2983A9" stroke-width="4.58333" stroke-miterlimit="8" fill="#3CB4E6"/><text fill="#FFFFFF" font-family="Arial,Arial_MSFontService,sans-serif" font-weight="400" font-size="83" transform="matrix(1 0 0 1 1007.66 1437)">6</text><rect x="1550.5" y="692.5" width="260" height="130" stroke="#2983A9" stroke-width="4.58333" stroke-miterlimit="8" fill="#3CB4E6"/><text fill="#FFFFFF" font-family="Arial,Arial_MSFontService,sans-serif" font-weight="400" font-size="83" transform="matrix(1 0 0 1 1657.34 787)">1</text><rect x="1810.5" y="692.5" width="260" height="130" stroke="#2983A9" stroke-width="4.58333" stroke-miterlimit="8" fill="#3CB4E6"/><text fill="#FFFFFF" font-family="Arial,Arial_MSFontService,sans-serif" font-weight="400" font-size="83" transform="matrix(1 0 0 1 1917.21 787)">2</text><rect x="1550.5" y="926.5" width="260" height="130" stroke="#2983A9" stroke-width="4.58333" stroke-miterlimit="8" fill="#3CB4E6"/><text fill="#FFFFFF" font-family="Arial,Arial_MSFontService,sans-serif" font-weight="400" font-size="83" transform="matrix(1 0 0 1 1657.34 1021)">3</text><rect x="1810.5" y="926.5" width="260" height="130" stroke="#2983A9" stroke-width="4.58333" stroke-miterlimit="8" fill="#3CB4E6"/><text fill="#FFFFFF" font-family="Arial,Arial_MSFontService,sans-serif" font-weight="400" font-size="83" transform="matrix(1 0 0 1 1917.21 1021)">4</text><rect x="1550.5" y="1575.5" width="260" height="130" stroke="#2983A9" stroke-width="4.58333" stroke-miterlimit="8" fill="#3CB4E6"/><text fill="#FFFFFF" font-family="Arial,Arial_MSFontService,sans-serif" font-weight="400" font-size="83" transform="matrix(1 0 0 1 1657.34 1671)">7</text><rect x="1810.5" y="1575.5" width="260" height="130" stroke="#2983A9" stroke-width="4.58333" stroke-miterlimit="8" fill="#3CB4E6"/><text fill="#FFFFFF" font-family="Arial,Arial_MSFontService,sans-serif" font-weight="400" font-size="83" transform="matrix(1 0 0 1 1917.21 1671)">8</text><rect x="1550.5" y="1341.5" width="260" height="130" stroke="#2983A9" stroke-width="4.58333" stroke-miterlimit="8" fill="#3CB4E6"/><text fill="#FFFFFF" font-family="Arial,Arial_MSFontService,sans-serif" font-weight="400" font-size="83" transform="matrix(1 0 0 1 1657.34 1437)">5</text><rect x="1810.5" y="1341.5" width="260" height="130" stroke="#2983A9" stroke-width="4.58333" stroke-miterlimit="8" fill="#3CB4E6"/><text fill="#FFFFFF" font-family="Arial,Arial_MSFontService,sans-serif" font-weight="400" font-size="83" transform="matrix(1 0 0 1 1917.21 1437)">6</text><rect x="2460.5" y="692.5" width="260" height="130" stroke="#2983A9" stroke-width="4.58333" stroke-miterlimit="8" fill="#3CB4E6"/><text fill="#FFFFFF" font-family="Arial,Arial_MSFontService,sans-serif" font-weight="400" font-size="83" transform="matrix(1 0 0 1 2566.89 787)">1</text><rect x="2720.5" y="692.5" width="260" height="130" stroke="#2983A9" stroke-width="4.58333" stroke-miterlimit="8" fill="#3CB4E6"/><text fill="#FFFFFF" font-family="Arial,Arial_MSFontService,sans-serif" font-weight="400" font-size="83" transform="matrix(1 0 0 1 2826.76 787)">2</text><rect x="2460.5" y="926.5" width="260" height="130" stroke="#2983A9" stroke-width="4.58333" stroke-miterlimit="8" fill="#3CB4E6"/><text fill="#FFFFFF" font-family="Arial,Arial_MSFontService,sans-serif" font-weight="400" font-size="83" transform="matrix(1 0 0 1 2566.89 1021)">3</text><rect x="2720.5" y="926.5" width="260" height="130" stroke="#2983A9" stroke-width="4.58333" stroke-miterlimit="8" fill="#3CB4E6"/><text fill="#FFFFFF" font-family="Arial,Arial_MSFontService,sans-serif" font-weight="400" font-size="83" transform="matrix(1 0 0 1 2826.76 1021)">4</text><rect x="2460.5" y="1575.5" width="260" height="130" stroke="#2983A9" stroke-width="4.58333" stroke-miterlimit="8" fill="#3CB4E6"/><text fill="#FFFFFF" font-family="Arial,Arial_MSFontService,sans-serif" font-weight="400" font-size="83" transform="matrix(1 0 0 1 2566.89 1671)">7</text><rect x="2720.5" y="1575.5" width="260" height="130" stroke="#2983A9" stroke-width="4.58333" stroke-miterlimit="8" fill="#3CB4E6"/><text fill="#FFFFFF" font-family="Arial,Arial_MSFontService,sans-serif" font-weight="400" font-size="83" transform="matrix(1 0 0 1 2826.76 1671)">8</text><rect x="2460.5" y="1341.5" width="260" height="130" stroke="#2983A9" stroke-width="4.58333" stroke-miterlimit="8" fill="#3CB4E6"/><text fill="#FFFFFF" font-family="Arial,Arial_MSFontService,sans-serif" font-weight="400" font-size="83" transform="matrix(1 0 0 1 2566.89 1437)">5</text><rect x="2720.5" y="1341.5" width="260" height="130" stroke="#2983A9" stroke-width="4.58333" stroke-miterlimit="8" fill="#3CB4E6"/><text fill="#FFFFFF" font-family="Arial,Arial_MSFontService,sans-serif" font-weight="400" font-size="83" transform="matrix(1 0 0 1 2826.76 1437)">6</text><rect x="3136.5" y="692.5" width="519" height="130" stroke="#2983A9" stroke-width="4.58333" stroke-miterlimit="8" fill="#3CB4E6"/><text fill="#FFFFFF" font-family="Arial,Arial_MSFontService,sans-serif" font-weight="400" font-size="83" transform="matrix(1 0 0 1 3298.01 787)">BL=2</text><path d="M1161 750.125 1516.43 750.125C1520.23 750.125 1523.31 753.203 1523.31 757 1523.31 760.797 1520.23 763.875 1516.43 763.875L1161 763.875C1157.2 763.875 1154.12 760.797 1154.12 757 1154.12 753.203 1157.2 750.125 1161 750.125ZM1509.56 736.375 1550.81 757 1509.56 777.625Z" fill="#E6007E"/><path d="M2070 750.125 2425.43 750.125C2429.23 750.125 2432.31 753.203 2432.31 757 2432.31 760.797 2429.23 763.875 2425.43 763.875L2070 763.875C2066.2 763.875 2063.12 760.797 2063.12 757 2063.12 753.203 2066.2 750.125 2070 750.125ZM2418.56 736.375 2459.81 757 2418.56 777.625Z" fill="#E6007E"/><path d="M2070 692 2070 821.936" stroke="#E6007E" stroke-width="13.75" stroke-miterlimit="8" fill="none" fill-rule="evenodd"/><path d="M1550 692 1550 821.936" stroke="#E6007E" stroke-width="13.75" stroke-miterlimit="8" fill="none" fill-rule="evenodd"/><path d="M1348.88 354 1348.88 709.432 1335.13 709.432 1335.12 354ZM1362.63 702.557 1342 743.807 1321.38 702.557Z" fill="#E6007E"/><text fill="#03234B" font-family="Arial,Arial_MSFontService,sans-serif" font-weight="400" font-size="83" transform="matrix(1 0 0 1 806.357 321)">DMA request</text><path d="M797 354 1342.73 354" stroke="#E6007E" stroke-width="13.75" stroke-miterlimit="8" fill="none" fill-rule="evenodd"/><rect x="3136.5" y="955.5" width="519" height="130" stroke="#2983A9" stroke-width="4.58333" stroke-miterlimit="8" fill="#3CB4E6"/><text fill="#FFFFFF" font-family="Arial,Arial_MSFontService,sans-serif" font-weight="400" font-size="83" transform="matrix(1 0 0 1 3236.14 1050)">BNDT=4</text><path d="M1161 692 1161 821.936" stroke="#E6007E" stroke-width="13.75" stroke-miterlimit="8" fill="none" fill-rule="evenodd"/><path d="M2460 692 2460 821.936" stroke="#E6007E" stroke-width="13.75" stroke-miterlimit="8" fill="none" fill-rule="evenodd"/><path d="M1161 984.125 1516.43 984.125C1520.23 984.125 1523.31 987.203 1523.31 991 1523.31 994.797 1520.23 997.875 1516.43 997.875L1161 997.875C1157.2 997.875 1154.12 994.797 1154.12 991 1154.12 987.203 1157.2 984.125 1161 984.125ZM1509.56 970.375 1550.81 991 1509.56 1011.63Z" fill="#FFD200"/><path d="M1550 926 1550 1055.94" stroke="#FFD200" stroke-width="13.75" stroke-miterlimit="8" fill="none" fill-rule="evenodd"/><path d="M1161 926 1161 1055.94" stroke="#FFD200" stroke-width="13.75" stroke-miterlimit="8" fill="none" fill-rule="evenodd"/><path d="M2070 984.125 2425.43 984.125C2429.23 984.125 2432.31 987.203 2432.31 991 2432.31 994.797 2429.23 997.875 2425.43 997.875L2070 997.875C2066.2 997.875 2063.12 994.797 2063.12 991 2063.12 987.203 2066.2 984.125 2070 984.125ZM2418.56 970.375 2459.81 991 2418.56 1011.63Z" fill="#FFD200"/><path d="M2070 926 2070 1055.94" stroke="#FFD200" stroke-width="13.75" stroke-miterlimit="8" fill="none" fill-rule="evenodd"/><path d="M2460 926 2460 1055.94" stroke="#FFD200" stroke-width="13.75" stroke-miterlimit="8" fill="none" fill-rule="evenodd"/><path d="M1161 1399.12 1516.43 1399.13C1520.23 1399.13 1523.31 1402.2 1523.31 1406 1523.31 1409.8 1520.23 1412.88 1516.43 1412.88L1161 1412.87C1157.2 1412.87 1154.12 1409.8 1154.12 1406 1154.12 1402.2 1157.2 1399.12 1161 1399.12ZM1509.56 1385.38 1550.81 1406 1509.56 1426.63Z" fill="#49B170"/><path d="M1550 1341 1550 1470.94" stroke="#49B170" stroke-width="13.75" stroke-miterlimit="8" fill="none" fill-rule="evenodd"/><path d="M1161 1341 1161 1470.94" stroke="#49B170" stroke-width="13.75" stroke-miterlimit="8" fill="none" fill-rule="evenodd"/><path d="M2070 1399.12 2425.43 1399.13C2429.23 1399.13 2432.31 1402.2 2432.31 1406 2432.31 1409.8 2429.23 1412.88 2425.43 1412.88L2070 1412.87C2066.2 1412.87 2063.12 1409.8 2063.12 1406 2063.12 1402.2 2066.2 1399.12 2070 1399.12ZM2418.56 1385.38 2459.81 1406 2418.56 1426.63Z" fill="#49B170"/><path d="M2070 1341 2070 1470.94" stroke="#49B170" stroke-width="13.75" stroke-miterlimit="8" fill="none" fill-rule="evenodd"/><path d="M2460 1341 2460 1470.94" stroke="#49B170" stroke-width="13.75" stroke-miterlimit="8" fill="none" fill-rule="evenodd"/><path d="M1161 1633.12 1516.43 1633.13C1520.23 1633.13 1523.31 1636.2 1523.31 1640 1523.31 1643.8 1520.23 1646.88 1516.43 1646.88L1161 1646.88C1157.2 1646.88 1154.12 1643.8 1154.12 1640 1154.12 1636.2 1157.2 1633.12 1161 1633.12ZM1509.56 1619.38 1550.81 1640 1509.56 1660.63Z" fill="#8C0078"/><path d="M1161 1575 1161 1704.94" stroke="#8C0078" stroke-width="13.75" stroke-miterlimit="8" fill="none" fill-rule="evenodd"/><path d="M2070 1633.12 2425.43 1633.13C2429.23 1633.13 2432.31 1636.2 2432.31 1640 2432.31 1643.8 2429.23 1646.88 2425.43 1646.88L2070 1646.88C2066.2 1646.88 2063.12 1643.8 2063.12 1640 2063.12 1636.2 2066.2 1633.12 2070 1633.12ZM2418.56 1619.38 2459.81 1640 2418.56 1660.63Z" fill="#8C0078"/><text fill="#03234B" font-family="Arial,Arial_MSFontService,sans-serif" font-weight="400" font-size="83" transform="matrix(1 0 0 1 3688.28 788)">Burst size = 2<tspan font-size="83" x="0" y="260">Block size = 4</tspan></text><path d="M1550 1705 2069.74 1705" stroke="#E6007E" stroke-width="13.75" stroke-miterlimit="8" fill="none" fill-rule="evenodd"/><text fill="#03234B" font-family="Arial,Arial_MSFontService,sans-serif" font-weight="400" font-size="83" transform="matrix(1 0 0 1 1578.72 1902)">DMA list end</text><path d="M6.875-2.46646e-05 6.87524 66.2201-6.87476 66.2202-6.875 2.46646e-05ZM20.6252 59.3451 0.000360892 100.595-20.6248 59.3452Z" fill="#E6007E" transform="matrix(1 0 0 -1 1810 1805.6)"/><path d="M1524 1806 2043.74 1806" stroke="#E6007E" stroke-width="13.75" stroke-miterlimit="8" fill="none" fill-rule="evenodd"/><path d="M34.375-6.87492 155.923-6.87464 155.923 6.87536 34.375 6.87508ZM41.25 20.6251 0 0 41.25-20.6249Z" fill="#E6007E" transform="matrix(-1 0 0 1 3135.92 770)"/><path d="M2980 692 2980 821.936" stroke="#E6007E" stroke-width="13.75" stroke-miterlimit="8" fill="none" fill-rule="evenodd"/><path d="M34.375-6.8749 129.936-6.87464 129.936 6.87536 34.375 6.8751ZM41.2499 20.6251 0 0 41.2501-20.6249Z" fill="#49B170" transform="matrix(-1 0 0 1 3135.94 1004)"/><path d="M3006 692 3006 1055.82" stroke="#49B170" stroke-width="13.75" stroke-miterlimit="8" fill="none" fill-rule="evenodd"/><rect x="3136.5" y="1367.5" width="519" height="130" stroke="#BC9A00" stroke-width="4.58333" stroke-miterlimit="8" fill="#FFD200"/><text fill="#FFFFFF" font-family="Arial,Arial_MSFontService,sans-serif" font-weight="400" font-size="83" transform="matrix(1 0 0 1 3261.35 1463)">BRC=2<tspan fill="#03234B" font-size="83" x="426.934" y="1">Block repeat = 2</tspan></text><path d="M1550 1575 1550 1704.94" stroke="#8C0078" stroke-width="13.75" stroke-miterlimit="8" fill="none" fill-rule="evenodd"/><path d="M2070 1575 2070 1704.94" stroke="#8C0078" stroke-width="13.75" stroke-miterlimit="8" fill="none" fill-rule="evenodd"/><path d="M2460 1575 2460 1704.94" stroke="#8C0078" stroke-width="13.75" stroke-miterlimit="8" fill="none" fill-rule="evenodd"/><path d="M2960.87 1168.38 2960.88 1203.57 2947.12 1203.57 2947.12 1168.38ZM2933.38 1175.25 2954 1134 2974.62 1175.25ZM2974.62 1196.7 2954 1237.95 2933.38 1196.7Z" fill="#E6007E"/><rect x="3136.5" y="1134.5" width="519" height="129" stroke="#A9005B" stroke-width="4.58333" stroke-miterlimit="8" fill="#E6007E"/><text fill="#FFFFFF" font-family="Arial,Arial_MSFontService,sans-serif" font-weight="400" font-size="83" transform="matrix(1 0 0 1 3306.03 1229)">RAO</text><path d="M2954 1192.12 3101.53 1192.13 3101.53 1205.88 2954 1205.88ZM3094.66 1178.38 3135.91 1199 3094.66 1219.63Z" fill="#E6007E"/><text fill="#03234B" font-family="Arial,Arial_MSFontService,sans-serif" font-weight="400" font-size="83" transform="matrix(1 0 0 1 3688.28 1230)">Repeated address <tspan font-size="83" x="0" y="99">offset +</tspan><tspan font-size="83" x="271.219" y="99">-</tspan>65536</text></g></svg>