<svg width="4241" height="2122" xmlns="http://www.w3.org/2000/svg" xmlns:xlink="http://www.w3.org/1999/xlink" overflow="hidden"><defs><clipPath id="clip0"><rect x="119" y="319" width="4241" height="2122"/></clipPath></defs><g clip-path="url(#clip0)" transform="translate(-119 -319)"><rect x="2798.5" y="2147.5" width="260" height="130" stroke="#2983A9" stroke-width="4.58333" stroke-miterlimit="8" fill="#3CB4E6"/><text fill="#FFFFFF" font-family="Arial,Arial_MSFontService,sans-serif" font-weight="400" font-size="83" transform="matrix(1 0 0 1 2904.72 2243)">1</text><rect x="3058.5" y="2147.5" width="259" height="130" stroke="#2983A9" stroke-width="4.58333" stroke-miterlimit="8" fill="#3CB4E6"/><text fill="#FFFFFF" font-family="Arial,Arial_MSFontService,sans-serif" font-weight="400" font-size="83" transform="matrix(1 0 0 1 3164.59 2243)">2</text><rect x="2798.5" y="2277.5" width="260" height="130" stroke="#2983A9" stroke-width="4.58333" stroke-miterlimit="8" fill="#3CB4E6"/><text fill="#FFFFFF" font-family="Arial,Arial_MSFontService,sans-serif" font-weight="400" font-size="83" transform="matrix(1 0 0 1 2904.72 2372)">7</text><rect x="3058.5" y="2277.5" width="259" height="130" stroke="#2983A9" stroke-width="4.58333" stroke-miterlimit="8" fill="#3CB4E6"/><text fill="#FFFFFF" font-family="Arial,Arial_MSFontService,sans-serif" font-weight="400" font-size="83" transform="matrix(1 0 0 1 3164.59 2372)">8</text><rect x="3317.5" y="2147.5" width="260" height="130" stroke="#2983A9" stroke-width="4.58333" stroke-miterlimit="8" fill="#3CB4E6"/><text fill="#FFFFFF" font-family="Arial,Arial_MSFontService,sans-serif" font-weight="400" font-size="83" transform="matrix(1 0 0 1 3424.47 2243)">3</text><rect x="3577.5" y="2147.5" width="260" height="130" stroke="#2983A9" stroke-width="4.58333" stroke-miterlimit="8" fill="#3CB4E6"/><text fill="#FFFFFF" font-family="Arial,Arial_MSFontService,sans-serif" font-weight="400" font-size="83" transform="matrix(1 0 0 1 3684.34 2243)">4</text><rect x="3317.5" y="2277.5" width="260" height="130" stroke="#2983A9" stroke-width="4.58333" stroke-miterlimit="8" fill="#3CB4E6"/><text fill="#FFFFFF" font-family="Arial,Arial_MSFontService,sans-serif" font-weight="400" font-size="83" transform="matrix(1 0 0 1 3424.47 2372)">9</text><rect x="3577.5" y="2277.5" width="260" height="130" stroke="#2983A9" stroke-width="4.58333" stroke-miterlimit="8" fill="#3CB4E6"/><text fill="#FFFFFF" font-family="Arial,Arial_MSFontService,sans-serif" font-weight="400" font-size="83" transform="matrix(1 0 0 1 3661.42 2372)">10</text><rect x="3837.5" y="2147.5" width="260" height="130" stroke="#2983A9" stroke-width="4.58333" stroke-miterlimit="8" fill="#3CB4E6"/><text fill="#FFFFFF" font-family="Arial,Arial_MSFontService,sans-serif" font-weight="400" font-size="83" transform="matrix(1 0 0 1 3944.21 2243)">5</text><rect x="4097.5" y="2147.5" width="260" height="130" stroke="#2983A9" stroke-width="4.58333" stroke-miterlimit="8" fill="#3CB4E6"/><text fill="#FFFFFF" font-family="Arial,Arial_MSFontService,sans-serif" font-weight="400" font-size="83" transform="matrix(1 0 0 1 4204.08 2243)">6</text><rect x="3837.5" y="2277.5" width="260" height="130" stroke="#2983A9" stroke-width="4.58333" stroke-miterlimit="8" fill="#3CB4E6"/><text fill="#FFFFFF" font-family="Arial,Arial_MSFontService,sans-serif" font-weight="400" font-size="83" transform="matrix(1 0 0 1 3924.35 2372)">11</text><rect x="4097.5" y="2277.5" width="260" height="130" stroke="#2983A9" stroke-width="4.58333" stroke-miterlimit="8" fill="#3CB4E6"/><text fill="#FFFFFF" font-family="Arial,Arial_MSFontService,sans-serif" font-weight="400" font-size="83" transform="matrix(1 0 0 1 4181.16 2372)">12</text><rect x="121.5" y="458.5" width="260" height="130" stroke="#BC9A00" stroke-width="4.58333" stroke-miterlimit="8" fill="#FFD200"/><text fill="#FFFFFF" font-family="Arial,Arial_MSFontService,sans-serif" font-weight="400" font-size="83" transform="matrix(1 0 0 1 228.048 553)">1</text><rect x="381.5" y="458.5" width="260" height="130" stroke="#BC9A00" stroke-width="4.58333" stroke-miterlimit="8" fill="#FFD200"/><text fill="#FFFFFF" font-family="Arial,Arial_MSFontService,sans-serif" font-weight="400" font-size="83" transform="matrix(1 0 0 1 487.919 553)">2</text><rect x="641.5" y="458.5" width="260" height="130" stroke="#2983A9" stroke-width="4.58333" stroke-miterlimit="8" fill="#3CB4E6"/><text fill="#FFFFFF" font-family="Arial,Arial_MSFontService,sans-serif" font-weight="400" font-size="83" transform="matrix(1 0 0 1 747.79 553)">7</text><rect x="901.5" y="458.5" width="260" height="130" stroke="#2983A9" stroke-width="4.58333" stroke-miterlimit="8" fill="#3CB4E6"/><text fill="#FFFFFF" font-family="Arial,Arial_MSFontService,sans-serif" font-weight="400" font-size="83" transform="matrix(1 0 0 1 1007.66 553)">8</text><rect x="1161.5" y="458.5" width="259" height="130" stroke="#2983A9" stroke-width="4.58333" stroke-miterlimit="8" fill="#3CB4E6"/><text fill="#FFFFFF" font-family="Arial,Arial_MSFontService,sans-serif" font-weight="400" font-size="83" transform="matrix(1 0 0 1 1267.53 553)">3</text><rect x="1420.5" y="458.5" width="260" height="130" stroke="#2983A9" stroke-width="4.58333" stroke-miterlimit="8" fill="#3CB4E6"/><text fill="#FFFFFF" font-family="Arial,Arial_MSFontService,sans-serif" font-weight="400" font-size="83" transform="matrix(1 0 0 1 1527.4 553)">4</text><rect x="121.5" y="588.5" width="260" height="130" stroke="#2983A9" stroke-width="4.58333" stroke-miterlimit="8" fill="#3CB4E6"/><text fill="#FFFFFF" font-family="Arial,Arial_MSFontService,sans-serif" font-weight="400" font-size="83" transform="matrix(1 0 0 1 228.048 683)">9</text><rect x="381.5" y="588.5" width="260" height="130" stroke="#2983A9" stroke-width="4.58333" stroke-miterlimit="8" fill="#3CB4E6"/><text fill="#FFFFFF" font-family="Arial,Arial_MSFontService,sans-serif" font-weight="400" font-size="83" transform="matrix(1 0 0 1 465.002 683)">10</text><rect x="641.5" y="588.5" width="260" height="130" stroke="#2983A9" stroke-width="4.58333" stroke-miterlimit="8" fill="#3CB4E6"/><text fill="#FFFFFF" font-family="Arial,Arial_MSFontService,sans-serif" font-weight="400" font-size="83" transform="matrix(1 0 0 1 747.79 683)">5</text><rect x="901.5" y="588.5" width="260" height="130" stroke="#2983A9" stroke-width="4.58333" stroke-miterlimit="8" fill="#3CB4E6"/><text fill="#FFFFFF" font-family="Arial,Arial_MSFontService,sans-serif" font-weight="400" font-size="83" transform="matrix(1 0 0 1 1007.66 683)">6</text><rect x="1161.5" y="588.5" width="259" height="130" stroke="#2983A9" stroke-width="4.58333" stroke-miterlimit="8" fill="#3CB4E6"/><text fill="#FFFFFF" font-family="Arial,Arial_MSFontService,sans-serif" font-weight="400" font-size="83" transform="matrix(1 0 0 1 1247.68 683)">11</text><rect x="1420.5" y="588.5" width="260" height="130" stroke="#2983A9" stroke-width="4.58333" stroke-miterlimit="8" fill="#3CB4E6"/><text fill="#FFFFFF" font-family="Arial,Arial_MSFontService,sans-serif" font-weight="400" font-size="83" transform="matrix(1 0 0 1 1504.49 683)">12</text><rect x="1940.5" y="458.5" width="260" height="130" stroke="#BC9A00" stroke-width="4.58333" stroke-miterlimit="8" fill="#FFD200"/><text fill="#FFFFFF" font-family="Arial,Arial_MSFontService,sans-serif" font-weight="400" font-size="83" transform="matrix(1 0 0 1 2047.15 553)">1<tspan fill="#03234B" font-size="83" x="511.033" y="-129">burst = 2</tspan><tspan fill="#E6007E" font-size="83" x="227.911" y="235">block offset = +4</tspan></text><rect x="121.5" y="978.5" width="260" height="130" stroke="#BC9A00" stroke-width="4.58333" stroke-miterlimit="8" fill="#FFD200"/><text fill="#FFFFFF" font-family="Arial,Arial_MSFontService,sans-serif" font-weight="400" font-size="83" transform="matrix(1 0 0 1 228.048 1073)">1</text><rect x="381.5" y="978.5" width="260" height="130" stroke="#BC9A00" stroke-width="4.58333" stroke-miterlimit="8" fill="#FFD200"/><text fill="#FFFFFF" font-family="Arial,Arial_MSFontService,sans-serif" font-weight="400" font-size="83" transform="matrix(1 0 0 1 487.919 1073)">2</text><rect x="641.5" y="978.5" width="260" height="130" stroke="#338150" stroke-width="4.58333" stroke-miterlimit="8" fill="#49B170"/><text fill="#FFFFFF" font-family="Arial,Arial_MSFontService,sans-serif" font-weight="400" font-size="83" transform="matrix(1 0 0 1 747.79 1073)">7</text><rect x="901.5" y="978.5" width="260" height="130" stroke="#338150" stroke-width="4.58333" stroke-miterlimit="8" fill="#49B170"/><text fill="#FFFFFF" font-family="Arial,Arial_MSFontService,sans-serif" font-weight="400" font-size="83" transform="matrix(1 0 0 1 1007.66 1073)">8</text><rect x="1161.5" y="978.5" width="259" height="130" stroke="#2983A9" stroke-width="4.58333" stroke-miterlimit="8" fill="#3CB4E6"/><text fill="#FFFFFF" font-family="Arial,Arial_MSFontService,sans-serif" font-weight="400" font-size="83" transform="matrix(1 0 0 1 1267.53 1073)">3</text><rect x="1420.5" y="978.5" width="260" height="130" stroke="#2983A9" stroke-width="4.58333" stroke-miterlimit="8" fill="#3CB4E6"/><text fill="#FFFFFF" font-family="Arial,Arial_MSFontService,sans-serif" font-weight="400" font-size="83" transform="matrix(1 0 0 1 1527.4 1073)">4</text><rect x="121.5" y="1108.5" width="260" height="130" stroke="#2983A9" stroke-width="4.58333" stroke-miterlimit="8" fill="#3CB4E6"/><text fill="#FFFFFF" font-family="Arial,Arial_MSFontService,sans-serif" font-weight="400" font-size="83" transform="matrix(1 0 0 1 228.048 1203)">9</text><rect x="381.5" y="1108.5" width="260" height="130" stroke="#2983A9" stroke-width="4.58333" stroke-miterlimit="8" fill="#3CB4E6"/><text fill="#FFFFFF" font-family="Arial,Arial_MSFontService,sans-serif" font-weight="400" font-size="83" transform="matrix(1 0 0 1 465.002 1203)">10</text><rect x="641.5" y="1108.5" width="260" height="130" stroke="#2983A9" stroke-width="4.58333" stroke-miterlimit="8" fill="#3CB4E6"/><text fill="#FFFFFF" font-family="Arial,Arial_MSFontService,sans-serif" font-weight="400" font-size="83" transform="matrix(1 0 0 1 747.79 1203)">5</text><rect x="901.5" y="1108.5" width="260" height="130" stroke="#2983A9" stroke-width="4.58333" stroke-miterlimit="8" fill="#3CB4E6"/><text fill="#FFFFFF" font-family="Arial,Arial_MSFontService,sans-serif" font-weight="400" font-size="83" transform="matrix(1 0 0 1 1007.66 1203)">6</text><rect x="1161.5" y="1108.5" width="259" height="130" stroke="#2983A9" stroke-width="4.58333" stroke-miterlimit="8" fill="#3CB4E6"/><text fill="#FFFFFF" font-family="Arial,Arial_MSFontService,sans-serif" font-weight="400" font-size="83" transform="matrix(1 0 0 1 1247.68 1203)">11</text><rect x="1420.5" y="1108.5" width="260" height="130" stroke="#2983A9" stroke-width="4.58333" stroke-miterlimit="8" fill="#3CB4E6"/><text fill="#FFFFFF" font-family="Arial,Arial_MSFontService,sans-serif" font-weight="400" font-size="83" transform="matrix(1 0 0 1 1504.49 1203)">12</text><rect x="1940.5" y="978.5" width="260" height="130" stroke="#BC9A00" stroke-width="4.58333" stroke-miterlimit="8" fill="#FFD200"/><text fill="#FFFFFF" font-family="Arial,Arial_MSFontService,sans-serif" font-weight="400" font-size="83" transform="matrix(1 0 0 1 2047.15 1073)">1</text><rect x="2200.5" y="978.5" width="260" height="130" stroke="#BC9A00" stroke-width="4.58333" stroke-miterlimit="8" fill="#FFD200"/><text fill="#FFFFFF" font-family="Arial,Arial_MSFontService,sans-serif" font-weight="400" font-size="83" transform="matrix(1 0 0 1 2307.02 1073)">2<tspan fill="#03234B" font-size="83" x="251.161" y="1">burst = 2</tspan><tspan fill="#E6007E" font-size="83" x="194.281" y="261">repeated block </tspan><tspan fill="#E6007E" font-size="83" x="280.952" y="360">offset = </tspan><tspan fill="#E6007E" font-size="83" x="575.087" y="360">-</tspan><tspan fill="#E6007E" font-size="83" x="602.587" y="360">6</tspan></text><rect x="1940.5" y="1108.5" width="260" height="130" stroke="#338150" stroke-width="4.58333" stroke-miterlimit="8" fill="#49B170"/><text fill="#FFFFFF" font-family="Arial,Arial_MSFontService,sans-serif" font-weight="400" font-size="83" transform="matrix(1 0 0 1 2047.15 1203)">7</text><path d="M1946.88 666 1946.88 1073.41C1946.88 1077.2 1943.8 1080.28 1940 1080.28 1936.2 1080.28 1933.13 1077.2 1933.13 1073.41L1933.13 666C1933.13 662.203 1936.2 659.125 1940 659.125 1943.8 659.125 1946.88 662.203 1946.88 666ZM1960.63 1066.53 1940 1107.78 1919.38 1066.53Z" fill="#E6007E"/><path d="M2460 588 2460 665.962" stroke="#E6007E" stroke-width="13.75" stroke-linecap="round" stroke-miterlimit="8" fill="none" fill-rule="evenodd"/><path d="M0 0 519.743 0.000360892" stroke="#E6007E" stroke-width="13.75" stroke-linecap="round" stroke-miterlimit="8" fill="none" fill-rule="evenodd" transform="matrix(-1 0 0 1 2459.74 666)"/><rect x="2200.5" y="458.5" width="260" height="130" stroke="#BC9A00" stroke-width="4.58333" stroke-miterlimit="8" fill="#FFD200"/><text fill="#FFFFFF" font-family="Arial,Arial_MSFontService,sans-serif" font-weight="400" font-size="83" transform="matrix(1 0 0 1 2307.02 553)">2</text><path d="M1940 458 2927.51 458" stroke="#03234B" stroke-width="13.75" stroke-miterlimit="8" fill="none" fill-rule="evenodd"/><path d="M1940 1108 2927.51 1108" stroke="#03234B" stroke-width="13.75" stroke-miterlimit="8" fill="none" fill-rule="evenodd"/><rect x="121.5" y="1497.5" width="260" height="130" stroke="#BC9A00" stroke-width="4.58333" stroke-miterlimit="8" fill="#FFD200"/><text fill="#FFFFFF" font-family="Arial,Arial_MSFontService,sans-serif" font-weight="400" font-size="83" transform="matrix(1 0 0 1 228.048 1593)">1</text><rect x="381.5" y="1497.5" width="260" height="130" stroke="#BC9A00" stroke-width="4.58333" stroke-miterlimit="8" fill="#FFD200"/><text fill="#FFFFFF" font-family="Arial,Arial_MSFontService,sans-serif" font-weight="400" font-size="83" transform="matrix(1 0 0 1 487.919 1593)">2</text><rect x="641.5" y="1497.5" width="260" height="130" stroke="#338150" stroke-width="4.58333" stroke-miterlimit="8" fill="#49B170"/><text fill="#FFFFFF" font-family="Arial,Arial_MSFontService,sans-serif" font-weight="400" font-size="83" transform="matrix(1 0 0 1 747.79 1593)">7</text><rect x="901.5" y="1497.5" width="260" height="130" stroke="#338150" stroke-width="4.58333" stroke-miterlimit="8" fill="#49B170"/><text fill="#FFFFFF" font-family="Arial,Arial_MSFontService,sans-serif" font-weight="400" font-size="83" transform="matrix(1 0 0 1 1007.66 1593)">8</text><rect x="1161.5" y="1497.5" width="259" height="130" stroke="#650056" stroke-width="4.58333" stroke-miterlimit="8" fill="#8C0078"/><text fill="#FFFFFF" font-family="Arial,Arial_MSFontService,sans-serif" font-weight="400" font-size="83" transform="matrix(1 0 0 1 1267.53 1593)">3</text><rect x="1420.5" y="1497.5" width="260" height="130" stroke="#650056" stroke-width="4.58333" stroke-miterlimit="8" fill="#8C0078"/><text fill="#FFFFFF" font-family="Arial,Arial_MSFontService,sans-serif" font-weight="400" font-size="83" transform="matrix(1 0 0 1 1527.4 1593)">4</text><rect x="121.5" y="1627.5" width="260" height="130" stroke="#2983A9" stroke-width="4.58333" stroke-miterlimit="8" fill="#3CB4E6"/><text fill="#FFFFFF" font-family="Arial,Arial_MSFontService,sans-serif" font-weight="400" font-size="83" transform="matrix(1 0 0 1 228.048 1723)">9</text><rect x="381.5" y="1627.5" width="260" height="130" stroke="#2983A9" stroke-width="4.58333" stroke-miterlimit="8" fill="#3CB4E6"/><text fill="#FFFFFF" font-family="Arial,Arial_MSFontService,sans-serif" font-weight="400" font-size="83" transform="matrix(1 0 0 1 465.002 1723)">10</text><rect x="641.5" y="1627.5" width="260" height="130" stroke="#2983A9" stroke-width="4.58333" stroke-miterlimit="8" fill="#3CB4E6"/><text fill="#FFFFFF" font-family="Arial,Arial_MSFontService,sans-serif" font-weight="400" font-size="83" transform="matrix(1 0 0 1 747.79 1723)">5</text><rect x="901.5" y="1627.5" width="260" height="130" stroke="#2983A9" stroke-width="4.58333" stroke-miterlimit="8" fill="#3CB4E6"/><text fill="#FFFFFF" font-family="Arial,Arial_MSFontService,sans-serif" font-weight="400" font-size="83" transform="matrix(1 0 0 1 1007.66 1723)">6</text><rect x="1161.5" y="1627.5" width="259" height="130" stroke="#2983A9" stroke-width="4.58333" stroke-miterlimit="8" fill="#3CB4E6"/><text fill="#FFFFFF" font-family="Arial,Arial_MSFontService,sans-serif" font-weight="400" font-size="83" transform="matrix(1 0 0 1 1247.68 1723)">11</text><rect x="1420.5" y="1627.5" width="260" height="130" stroke="#2983A9" stroke-width="4.58333" stroke-miterlimit="8" fill="#3CB4E6"/><text fill="#FFFFFF" font-family="Arial,Arial_MSFontService,sans-serif" font-weight="400" font-size="83" transform="matrix(1 0 0 1 1504.49 1723)">12</text><rect x="1940.5" y="1497.5" width="260" height="130" stroke="#BC9A00" stroke-width="4.58333" stroke-miterlimit="8" fill="#FFD200"/><text fill="#FFFFFF" font-family="Arial,Arial_MSFontService,sans-serif" font-weight="400" font-size="83" transform="matrix(1 0 0 1 2047.15 1593)">1</text><rect x="2200.5" y="1497.5" width="260" height="130" stroke="#BC9A00" stroke-width="4.58333" stroke-miterlimit="8" fill="#FFD200"/><text fill="#FFFFFF" font-family="Arial,Arial_MSFontService,sans-serif" font-weight="400" font-size="83" transform="matrix(1 0 0 1 2307.02 1593)">2<tspan fill="#03234B" font-size="83" x="822.878" y="-129">burst = 2</tspan></text><rect x="1940.5" y="1627.5" width="260" height="130" stroke="#338150" stroke-width="4.58333" stroke-miterlimit="8" fill="#49B170"/><text fill="#FFFFFF" font-family="Arial,Arial_MSFontService,sans-serif" font-weight="400" font-size="83" transform="matrix(1 0 0 1 2047.15 1723)">7</text><rect x="2200.5" y="1627.5" width="260" height="130" stroke="#338150" stroke-width="4.58333" stroke-miterlimit="8" fill="#49B170"/><text fill="#FFFFFF" font-family="Arial,Arial_MSFontService,sans-serif" font-weight="400" font-size="83" transform="matrix(1 0 0 1 2307.02 1723)">8</text><rect x="2460.5" y="1497.5" width="260" height="130" stroke="#650056" stroke-width="4.58333" stroke-miterlimit="8" fill="#8C0078"/><text fill="#FFFFFF" font-family="Arial,Arial_MSFontService,sans-serif" font-weight="400" font-size="83" transform="matrix(1 0 0 1 2566.89 1593)">3</text><rect x="2720.5" y="1497.5" width="260" height="130" stroke="#650056" stroke-width="4.58333" stroke-miterlimit="8" fill="#8C0078"/><text fill="#FFFFFF" font-family="Arial,Arial_MSFontService,sans-serif" font-weight="400" font-size="83" transform="matrix(1 0 0 1 2826.76 1593)">4</text><path d="M2460 1497 3447.51 1497" stroke="#03234B" stroke-width="13.75" stroke-miterlimit="8" fill="none" fill-rule="evenodd"/><path d="M2466.87 1238 2466.88 1463.5C2466.88 1467.29 2463.8 1470.37 2460 1470.37 2456.2 1470.37 2453.12 1467.29 2453.12 1463.5L2453.12 1238C2453.12 1234.2 2456.2 1231.12 2460 1231.12 2463.8 1231.12 2466.87 1234.2 2466.87 1238ZM2480.62 1456.62 2460 1497.87 2439.38 1456.62Z" fill="#E6007E"/><rect x="2200.5" y="1108.5" width="260" height="130" stroke="#338150" stroke-width="4.58333" stroke-miterlimit="8" fill="#49B170"/><text fill="#FFFFFF" font-family="Arial,Arial_MSFontService,sans-serif" font-weight="400" font-size="83" transform="matrix(1 0 0 1 2307.02 1203)">8</text><path d="M2460 2270.12 2501.25 2270.12 2501.25 2283.88 2460 2283.88ZM2515 2270.12 2556.25 2270.12 2556.25 2283.88 2515 2283.88ZM2570 2270.12 2611.25 2270.13 2611.25 2283.88 2570 2283.88ZM2625 2270.13 2666.25 2270.13 2666.25 2283.88 2625 2283.88ZM2680 2270.13 2721.25 2270.13 2721.25 2283.88 2680 2283.88ZM2735 2270.13 2763.46 2270.13 2763.46 2283.88 2735 2283.88ZM2756.58 2256.38 2797.83 2277 2756.58 2297.63Z" fill="#E6007E"/><path d="M2460 1783 2460 2276.76" stroke="#E6007E" stroke-width="13.75" stroke-miterlimit="8" stroke-dasharray="41.25 13.75" fill="none" fill-rule="evenodd"/></g></svg>