<svg width="3816" height="1574" xmlns="http://www.w3.org/2000/svg" xmlns:xlink="http://www.w3.org/1999/xlink" overflow="hidden"><defs><clipPath id="clip0"><rect x="121" y="397" width="3816" height="1574"/></clipPath></defs><g clip-path="url(#clip0)" transform="translate(-121 -397)"><rect x="1628" y="406" width="780" height="1377" fill="#03234B"/><text fill="#FFFFFF" font-family="Arial,Arial_MSFontService,sans-serif" font-weight="400" font-size="83" transform="matrix(1 0 0 1 1814.12 502)">GPDMA <tspan font-size="83" x="320.856" y="0">ch</tspan></text><rect x="797" y="432" width="623" height="1351" fill="#03234B" fill-opacity="0.501961"/><text fill="#FFFFFF" font-family="Arial,Arial_MSFontService,sans-serif" font-weight="400" font-size="83" transform="matrix(1 0 0 1 977.915 528)">Source <tspan font-size="83" x="-18.3333" y="99">memory</tspan></text><rect x="2616" y="406" width="623" height="1377" fill="#03234B" fill-opacity="0.501961"/><text fill="#FFFFFF" font-family="Arial,Arial_MSFontService,sans-serif" font-weight="400" font-size="83" transform="matrix(1 0 0 1 2721.39 502)">Destination <tspan font-size="83" x="57.2918" y="99">memory</tspan></text><rect x="745" y="1289" width="2572" height="468" fill="#FFD200" fill-opacity="0.501961"/><rect x="745" y="640" width="2572" height="468" fill="#FFD200" fill-opacity="0.501961"/><rect x="849.5" y="692.5" width="260" height="130" stroke="#2983A9" stroke-width="4.58333" stroke-miterlimit="8" fill="#3CB4E6"/><text fill="#FFFFFF" font-family="Arial,Arial_MSFontService,sans-serif" font-weight="400" font-size="83" transform="matrix(1 0 0 1 955.688 787)">1</text><rect x="1109.5" y="692.5" width="259" height="130" stroke="#2983A9" stroke-width="4.58333" stroke-miterlimit="8" fill="#3CB4E6"/><text fill="#FFFFFF" font-family="Arial,Arial_MSFontService,sans-serif" font-weight="400" font-size="83" transform="matrix(1 0 0 1 1215.56 787)">2</text><rect x="849.5" y="926.5" width="260" height="130" stroke="#2983A9" stroke-width="4.58333" stroke-miterlimit="8" fill="#3CB4E6"/><text fill="#FFFFFF" font-family="Arial,Arial_MSFontService,sans-serif" font-weight="400" font-size="83" transform="matrix(1 0 0 1 955.688 1021)">3</text><rect x="1109.5" y="926.5" width="259" height="130" stroke="#2983A9" stroke-width="4.58333" stroke-miterlimit="8" fill="#3CB4E6"/><text fill="#FFFFFF" font-family="Arial,Arial_MSFontService,sans-serif" font-weight="400" font-size="83" transform="matrix(1 0 0 1 1215.56 1021)">4</text><rect x="849.5" y="1575.5" width="260" height="130" stroke="#2983A9" stroke-width="4.58333" stroke-miterlimit="8" fill="#3CB4E6"/><text fill="#FFFFFF" font-family="Arial,Arial_MSFontService,sans-serif" font-weight="400" font-size="83" transform="matrix(1 0 0 1 955.688 1671)">7</text><rect x="1109.5" y="1575.5" width="259" height="130" stroke="#2983A9" stroke-width="4.58333" stroke-miterlimit="8" fill="#3CB4E6"/><text fill="#FFFFFF" font-family="Arial,Arial_MSFontService,sans-serif" font-weight="400" font-size="83" transform="matrix(1 0 0 1 1215.56 1671)">8</text><rect x="849.5" y="1341.5" width="260" height="130" stroke="#2983A9" stroke-width="4.58333" stroke-miterlimit="8" fill="#3CB4E6"/><text fill="#FFFFFF" font-family="Arial,Arial_MSFontService,sans-serif" font-weight="400" font-size="83" transform="matrix(1 0 0 1 955.688 1437)">5</text><rect x="1109.5" y="1341.5" width="259" height="130" stroke="#2983A9" stroke-width="4.58333" stroke-miterlimit="8" fill="#3CB4E6"/><text fill="#FFFFFF" font-family="Arial,Arial_MSFontService,sans-serif" font-weight="400" font-size="83" transform="matrix(1 0 0 1 1215.56 1437)">6</text><rect x="1758.5" y="692.5" width="260" height="130" stroke="#2983A9" stroke-width="4.58333" stroke-miterlimit="8" fill="#3CB4E6"/><text fill="#FFFFFF" font-family="Arial,Arial_MSFontService,sans-serif" font-weight="400" font-size="83" transform="matrix(1 0 0 1 1865.24 787)">1</text><rect x="2018.5" y="692.5" width="260" height="130" stroke="#2983A9" stroke-width="4.58333" stroke-miterlimit="8" fill="#3CB4E6"/><text fill="#FFFFFF" font-family="Arial,Arial_MSFontService,sans-serif" font-weight="400" font-size="83" transform="matrix(1 0 0 1 2125.11 787)">2</text><rect x="1758.5" y="926.5" width="260" height="130" stroke="#2983A9" stroke-width="4.58333" stroke-miterlimit="8" fill="#3CB4E6"/><text fill="#FFFFFF" font-family="Arial,Arial_MSFontService,sans-serif" font-weight="400" font-size="83" transform="matrix(1 0 0 1 1865.24 1021)">3</text><rect x="2018.5" y="926.5" width="260" height="130" stroke="#2983A9" stroke-width="4.58333" stroke-miterlimit="8" fill="#3CB4E6"/><text fill="#FFFFFF" font-family="Arial,Arial_MSFontService,sans-serif" font-weight="400" font-size="83" transform="matrix(1 0 0 1 2125.11 1021)">4</text><rect x="1758.5" y="1575.5" width="260" height="130" stroke="#2983A9" stroke-width="4.58333" stroke-miterlimit="8" fill="#3CB4E6"/><text fill="#FFFFFF" font-family="Arial,Arial_MSFontService,sans-serif" font-weight="400" font-size="83" transform="matrix(1 0 0 1 1865.24 1671)">7</text><rect x="2018.5" y="1575.5" width="260" height="130" stroke="#2983A9" stroke-width="4.58333" stroke-miterlimit="8" fill="#3CB4E6"/><text fill="#FFFFFF" font-family="Arial,Arial_MSFontService,sans-serif" font-weight="400" font-size="83" transform="matrix(1 0 0 1 2125.11 1671)">8</text><rect x="1758.5" y="1341.5" width="260" height="130" stroke="#2983A9" stroke-width="4.58333" stroke-miterlimit="8" fill="#3CB4E6"/><text fill="#FFFFFF" font-family="Arial,Arial_MSFontService,sans-serif" font-weight="400" font-size="83" transform="matrix(1 0 0 1 1865.24 1437)">5</text><rect x="2018.5" y="1341.5" width="260" height="130" stroke="#2983A9" stroke-width="4.58333" stroke-miterlimit="8" fill="#3CB4E6"/><text fill="#FFFFFF" font-family="Arial,Arial_MSFontService,sans-serif" font-weight="400" font-size="83" transform="matrix(1 0 0 1 2125.11 1437)">6</text><rect x="2668.5" y="692.5" width="260" height="130" stroke="#2983A9" stroke-width="4.58333" stroke-miterlimit="8" fill="#3CB4E6"/><text fill="#FFFFFF" font-family="Arial,Arial_MSFontService,sans-serif" font-weight="400" font-size="83" transform="matrix(1 0 0 1 2774.79 787)">1</text><rect x="2928.5" y="692.5" width="260" height="130" stroke="#2983A9" stroke-width="4.58333" stroke-miterlimit="8" fill="#3CB4E6"/><text fill="#FFFFFF" font-family="Arial,Arial_MSFontService,sans-serif" font-weight="400" font-size="83" transform="matrix(1 0 0 1 3034.66 787)">2</text><rect x="2668.5" y="926.5" width="260" height="130" stroke="#2983A9" stroke-width="4.58333" stroke-miterlimit="8" fill="#3CB4E6"/><text fill="#FFFFFF" font-family="Arial,Arial_MSFontService,sans-serif" font-weight="400" font-size="83" transform="matrix(1 0 0 1 2774.79 1021)">3</text><rect x="2928.5" y="926.5" width="260" height="130" stroke="#2983A9" stroke-width="4.58333" stroke-miterlimit="8" fill="#3CB4E6"/><text fill="#FFFFFF" font-family="Arial,Arial_MSFontService,sans-serif" font-weight="400" font-size="83" transform="matrix(1 0 0 1 3034.66 1021)">4</text><rect x="2668.5" y="1575.5" width="260" height="130" stroke="#2983A9" stroke-width="4.58333" stroke-miterlimit="8" fill="#3CB4E6"/><text fill="#FFFFFF" font-family="Arial,Arial_MSFontService,sans-serif" font-weight="400" font-size="83" transform="matrix(1 0 0 1 2774.79 1671)">7</text><rect x="2928.5" y="1575.5" width="260" height="130" stroke="#2983A9" stroke-width="4.58333" stroke-miterlimit="8" fill="#3CB4E6"/><text fill="#FFFFFF" font-family="Arial,Arial_MSFontService,sans-serif" font-weight="400" font-size="83" transform="matrix(1 0 0 1 3034.66 1671)">8</text><rect x="2668.5" y="1341.5" width="260" height="130" stroke="#2983A9" stroke-width="4.58333" stroke-miterlimit="8" fill="#3CB4E6"/><text fill="#FFFFFF" font-family="Arial,Arial_MSFontService,sans-serif" font-weight="400" font-size="83" transform="matrix(1 0 0 1 2774.79 1437)">5</text><rect x="2928.5" y="1341.5" width="260" height="130" stroke="#2983A9" stroke-width="4.58333" stroke-miterlimit="8" fill="#3CB4E6"/><text fill="#FFFFFF" font-family="Arial,Arial_MSFontService,sans-serif" font-weight="400" font-size="83" transform="matrix(1 0 0 1 3034.66 1437)">6</text><path d="M1368 750.125 1723.43 750.125C1727.23 750.125 1730.31 753.203 1730.31 757 1730.31 760.797 1727.23 763.875 1723.43 763.875L1368 763.875C1364.2 763.875 1361.13 760.797 1361.13 757 1361.13 753.203 1364.2 750.125 1368 750.125ZM1716.56 736.375 1757.81 757 1716.56 777.625Z" fill="#E6007E"/><path d="M2278 750.125 2633.43 750.125C2637.23 750.125 2640.31 753.203 2640.31 757 2640.31 760.797 2637.23 763.875 2633.43 763.875L2278 763.875C2274.2 763.875 2271.12 760.797 2271.12 757 2271.12 753.203 2274.2 750.125 2278 750.125ZM2626.56 736.375 2667.81 757 2626.56 777.625Z" fill="#E6007E"/><path d="M2278 692 2278 821.936" stroke="#E6007E" stroke-width="13.75" stroke-miterlimit="8" fill="none" fill-rule="evenodd"/><path d="M1758 692 1758 821.936" stroke="#E6007E" stroke-width="13.75" stroke-miterlimit="8" fill="none" fill-rule="evenodd"/><path d="M1368 692 1368 821.936" stroke="#E6007E" stroke-width="13.75" stroke-miterlimit="8" fill="none" fill-rule="evenodd"/><path d="M2668 692 2668 821.936" stroke="#E6007E" stroke-width="13.75" stroke-miterlimit="8" fill="none" fill-rule="evenodd"/><path d="M1368 984.125 1723.43 984.125C1727.23 984.125 1730.31 987.203 1730.31 991 1730.31 994.797 1727.23 997.875 1723.43 997.875L1368 997.875C1364.2 997.875 1361.13 994.797 1361.13 991 1361.13 987.203 1364.2 984.125 1368 984.125ZM1716.56 970.375 1757.81 991 1716.56 1011.63Z" fill="#FFD200"/><path d="M1758 926 1758 1055.94" stroke="#FFD200" stroke-width="13.75" stroke-miterlimit="8" fill="none" fill-rule="evenodd"/><path d="M1368 926 1368 1055.94" stroke="#FFD200" stroke-width="13.75" stroke-miterlimit="8" fill="none" fill-rule="evenodd"/><path d="M2278 984.125 2633.43 984.125C2637.23 984.125 2640.31 987.203 2640.31 991 2640.31 994.797 2637.23 997.875 2633.43 997.875L2278 997.875C2274.2 997.875 2271.12 994.797 2271.12 991 2271.12 987.203 2274.2 984.125 2278 984.125ZM2626.56 970.375 2667.81 991 2626.56 1011.63Z" fill="#FFD200"/><path d="M2278 926 2278 1055.94" stroke="#FFD200" stroke-width="13.75" stroke-miterlimit="8" fill="none" fill-rule="evenodd"/><path d="M2668 926 2668 1055.94" stroke="#FFD200" stroke-width="13.75" stroke-miterlimit="8" fill="none" fill-rule="evenodd"/><path d="M1368 1399.12 1723.43 1399.13C1727.23 1399.13 1730.31 1402.2 1730.31 1406 1730.31 1409.8 1727.23 1412.88 1723.43 1412.88L1368 1412.87C1364.2 1412.87 1361.13 1409.8 1361.13 1406 1361.13 1402.2 1364.2 1399.12 1368 1399.12ZM1716.56 1385.38 1757.81 1406 1716.56 1426.63Z" fill="#49B170"/><path d="M1758 1341 1758 1470.94" stroke="#49B170" stroke-width="13.75" stroke-miterlimit="8" fill="none" fill-rule="evenodd"/><path d="M1368 1341 1368 1470.94" stroke="#49B170" stroke-width="13.75" stroke-miterlimit="8" fill="none" fill-rule="evenodd"/><path d="M2278 1399.12 2633.43 1399.13C2637.23 1399.13 2640.31 1402.2 2640.31 1406 2640.31 1409.8 2637.23 1412.88 2633.43 1412.88L2278 1412.87C2274.2 1412.87 2271.12 1409.8 2271.12 1406 2271.12 1402.2 2274.2 1399.12 2278 1399.12ZM2626.56 1385.38 2667.81 1406 2626.56 1426.63Z" fill="#49B170"/><path d="M2278 1341 2278 1470.94" stroke="#49B170" stroke-width="13.75" stroke-miterlimit="8" fill="none" fill-rule="evenodd"/><path d="M2668 1341 2668 1470.94" stroke="#49B170" stroke-width="13.75" stroke-miterlimit="8" fill="none" fill-rule="evenodd"/><path d="M1368 1633.12 1723.43 1633.13C1727.23 1633.13 1730.31 1636.2 1730.31 1640 1730.31 1643.8 1727.23 1646.88 1723.43 1646.88L1368 1646.88C1364.2 1646.88 1361.13 1643.8 1361.13 1640 1361.13 1636.2 1364.2 1633.12 1368 1633.12ZM1716.56 1619.38 1757.81 1640 1716.56 1660.63Z" fill="#8C0078"/><path d="M1368 1575 1368 1704.94" stroke="#8C0078" stroke-width="13.75" stroke-miterlimit="8" fill="none" fill-rule="evenodd"/><path d="M2278 1633.12 2633.43 1633.13C2637.23 1633.13 2640.31 1636.2 2640.31 1640 2640.31 1643.8 2637.23 1646.88 2633.43 1646.88L2278 1646.88C2274.2 1646.88 2271.12 1643.8 2271.12 1640 2271.12 1636.2 2274.2 1633.12 2278 1633.12ZM2626.56 1619.38 2667.81 1640 2626.56 1660.63Z" fill="#8C0078"/><text fill="#03234B" font-family="Arial,Arial_MSFontService,sans-serif" font-weight="400" font-size="83" transform="matrix(1 0 0 1 3350.45 788)">Burst size = 2<tspan font-size="83" x="25.9871" y="234">Block size = 4</tspan></text><path d="M1758 1705 2277.74 1705" stroke="#E6007E" stroke-width="13.75" stroke-miterlimit="8" fill="none" fill-rule="evenodd"/><text fill="#03234B" font-family="Arial,Arial_MSFontService,sans-serif" font-weight="400" font-size="83" transform="matrix(1 0 0 1 1786.62 1902)">DMA list end</text><path d="M6.875-2.46646e-05 6.87524 66.2201-6.87476 66.2202-6.875 2.46646e-05ZM20.6252 59.3451 0.000360892 100.595-20.6248 59.3452Z" fill="#E6007E" transform="matrix(1 0 0 -1 2018 1805.6)"/><path d="M1732 1806 2329.7 1806" stroke="#E6007E" stroke-width="13.75" stroke-miterlimit="8" fill="none" fill-rule="evenodd"/><path d="M34.375-6.87492 155.923-6.87464 155.923 6.87536 34.375 6.87508ZM41.25 20.6251 0 0 41.25-20.6249Z" fill="#E6007E" transform="matrix(-1 0 0 1 3343.92 770)"/><path d="M3188 692 3188 821.936" stroke="#E6007E" stroke-width="13.75" stroke-miterlimit="8" fill="none" fill-rule="evenodd"/><path d="M34.375-6.8749 129.936-6.87464 129.936 6.87536 34.375 6.8751ZM41.2499 20.6251 0 0 41.2501-20.6249Z" fill="#49B170" transform="matrix(-1 0 0 1 3342.94 1004)"/><path d="M3213 692 3213 1055.82" stroke="#49B170" stroke-width="13.75" stroke-miterlimit="8" fill="none" fill-rule="evenodd"/><path d="M1758 1575 1758 1704.94" stroke="#8C0078" stroke-width="13.75" stroke-miterlimit="8" fill="none" fill-rule="evenodd"/><path d="M2278 1575 2278 1704.94" stroke="#8C0078" stroke-width="13.75" stroke-miterlimit="8" fill="none" fill-rule="evenodd"/><path d="M2668 1575 2668 1704.94" stroke="#8C0078" stroke-width="13.75" stroke-miterlimit="8" fill="none" fill-rule="evenodd"/><path d="M251 1179.12 814.329 1179.13C818.126 1179.13 821.204 1182.2 821.204 1186 821.204 1189.8 818.126 1192.88 814.329 1192.88L251 1192.87C247.203 1192.87 244.125 1189.8 244.125 1186 244.125 1182.2 247.203 1179.12 251 1179.12ZM807.454 1165.38 848.704 1186 807.454 1206.63Z" fill="#E6007E"/><text fill="#03234B" font-family="Arial,Arial_MSFontService,sans-serif" font-weight="400" font-size="83" transform="matrix(1 0 0 1 261 1149)">HC event</text><path d="M251 1747.13 814.329 1747.13C818.126 1747.13 821.204 1750.2 821.204 1754 821.204 1757.8 818.126 1760.88 814.329 1760.88L251 1760.88C247.203 1760.88 244.125 1757.8 244.125 1754 244.125 1750.2 247.203 1747.13 251 1747.13ZM807.454 1733.38 848.704 1754 807.454 1774.63Z" fill="#E6007E"/><text fill="#03234B" font-family="Arial,Arial_MSFontService,sans-serif" font-weight="400" font-size="83" transform="matrix(1 0 0 1 265.583 1720)">TC event</text></g></svg>