<svg width="3378" height="1988" xmlns="http://www.w3.org/2000/svg" xmlns:xlink="http://www.w3.org/1999/xlink" overflow="hidden"><defs><clipPath id="clip0"><rect x="381" y="386" width="3378" height="1988"/></clipPath></defs><g clip-path="url(#clip0)" transform="translate(-381 -386)"><rect x="381" y="458" width="780" height="1559" fill="#03234B" fill-opacity="0.501961"/><text fill="#FFFFFF" font-family="Arial,Arial_MSFontService,sans-serif" font-weight="400" font-size="83" transform="matrix(1 0 0 1 566.737 554)">GPDMA <tspan font-size="83" x="320.856" y="0">ch</tspan></text><rect x="485" y="855" width="572" height="1110" fill="#49B170" fill-opacity="0.501961"/><rect x="511.5" y="1160.5" width="520" height="129" stroke="#2983A9" stroke-width="4.58333" stroke-miterlimit="8" fill="#3CB4E6"/><text fill="#FFFFFF" font-family="Arial,Arial_MSFontService,sans-serif" font-weight="400" font-size="83" transform="matrix(1 0 0 1 690.499 1255)">BR1</text><rect x="511.5" y="900.5" width="520" height="130" stroke="#2983A9" stroke-width="4.58333" stroke-miterlimit="8" fill="#3CB4E6"/><text fill="#FFFFFF" font-family="Arial,Arial_MSFontService,sans-serif" font-weight="400" font-size="83" transform="matrix(1 0 0 1 692.79 995)">TR1</text><rect x="511.5" y="1030.5" width="520" height="130" stroke="#2983A9" stroke-width="4.58333" stroke-miterlimit="8" fill="#3CB4E6"/><text fill="#FFFFFF" font-family="Arial,Arial_MSFontService,sans-serif" font-weight="400" font-size="83" transform="matrix(1 0 0 1 692.79 1125)">TR2</text><rect x="511.5" y="1289.5" width="520" height="130" stroke="#2983A9" stroke-width="4.58333" stroke-miterlimit="8" fill="#3CB4E6"/><text fill="#FFFFFF" font-family="Arial,Arial_MSFontService,sans-serif" font-weight="400" font-size="83" transform="matrix(1 0 0 1 685.915 1385)">SA<tspan font-size="83" x="110" y="0">R</tspan></text><rect x="511.5" y="1419.5" width="520" height="130" stroke="#2983A9" stroke-width="4.58333" stroke-miterlimit="8" fill="#3CB4E6"/><text fill="#FFFFFF" font-family="Arial,Arial_MSFontService,sans-serif" font-weight="400" font-size="83" transform="matrix(1 0 0 1 683.624 1515)">DAR</text><rect x="511" y="1549" width="520" height="130" fill="#3CB4E6" fill-opacity="0.501961"/><text fill="#FFFFFF" font-family="Arial,Arial_MSFontService,sans-serif" font-weight="400" font-size="83" transform="matrix(1 0 0 1 692.79 1645)">TR<tspan font-size="83" x="110" y="0">3</tspan></text><rect x="511" y="1679" width="520" height="130" fill="#3CB4E6" fill-opacity="0.501961"/><text fill="#FFFFFF" font-family="Arial,Arial_MSFontService,sans-serif" font-weight="400" font-size="83" transform="matrix(1 0 0 1 690.499 1775)">BR2</text><rect x="511.5" y="1809.5" width="520" height="130" stroke="#2983A9" stroke-width="4.58333" stroke-miterlimit="8" fill="#3CB4E6"/><text fill="#FFFFFF" font-family="Arial,Arial_MSFontService,sans-serif" font-weight="400" font-size="83" transform="matrix(1 0 0 1 695.082 1905)">LLR</text><rect x="511.5" y="614.5" width="520" height="130" stroke="#2983A9" stroke-width="4.58333" stroke-miterlimit="8" fill="#3CB4E6"/><text fill="#FFFFFF" font-family="Arial,Arial_MSFontService,sans-serif" font-weight="400" font-size="83" transform="matrix(1 0 0 1 662.999 709)">LBAR</text><rect x="1680" y="458" width="2079" height="1559" fill="#03234B" fill-opacity="0.501961"/><text fill="#FFFFFF" font-family="Arial,Arial_MSFontService,sans-serif" font-weight="400" font-size="83" transform="matrix(1 0 0 1 2408.08 554)">LLI memory area</text><path d="M1031 1913 1420.81 1913" stroke="#E6007E" stroke-width="13.75" stroke-linecap="round" stroke-miterlimit="8" fill="none" fill-rule="evenodd"/><rect x="1758" y="822" width="572" height="1110" fill="#49B170" fill-opacity="0.501961"/><rect x="1784.5" y="1126.5" width="520" height="130" stroke="#2983A9" stroke-width="4.58333" stroke-miterlimit="8" fill="#3CB4E6"/><text fill="#FFFFFF" font-family="Arial,Arial_MSFontService,sans-serif" font-weight="400" font-size="83" transform="matrix(1 0 0 1 1963.87 1221)">BR1</text><rect x="1784.5" y="866.5" width="520" height="130" stroke="#2983A9" stroke-width="4.58333" stroke-miterlimit="8" fill="#3CB4E6"/><text fill="#FFFFFF" font-family="Arial,Arial_MSFontService,sans-serif" font-weight="400" font-size="83" transform="matrix(1 0 0 1 1966.16 962)">TR1</text><rect x="1784.5" y="996.5" width="520" height="130" stroke="#2983A9" stroke-width="4.58333" stroke-miterlimit="8" fill="#3CB4E6"/><text fill="#FFFFFF" font-family="Arial,Arial_MSFontService,sans-serif" font-weight="400" font-size="83" transform="matrix(1 0 0 1 1966.16 1091)">TR2</text><rect x="1784.5" y="1256.5" width="520" height="130" stroke="#2983A9" stroke-width="4.58333" stroke-miterlimit="8" fill="#3CB4E6"/><text fill="#FFFFFF" font-family="Arial,Arial_MSFontService,sans-serif" font-weight="400" font-size="83" transform="matrix(1 0 0 1 1959.29 1351)">SA<tspan font-size="83" x="110" y="0">R</tspan></text><rect x="1784.5" y="1386.5" width="520" height="130" stroke="#2983A9" stroke-width="4.58333" stroke-miterlimit="8" fill="#3CB4E6"/><text fill="#FFFFFF" font-family="Arial,Arial_MSFontService,sans-serif" font-weight="400" font-size="83" transform="matrix(1 0 0 1 1956.99 1481)">DAR</text><rect x="1784" y="1516" width="520" height="130" fill="#3CB4E6" fill-opacity="0.501961"/><text fill="#FFFFFF" font-family="Arial,Arial_MSFontService,sans-serif" font-weight="400" font-size="83" transform="matrix(1 0 0 1 1966.16 1611)">TR<tspan font-size="83" x="110" y="0">3</tspan></text><rect x="1784" y="1646" width="520" height="130" fill="#3CB4E6" fill-opacity="0.501961"/><text fill="#FFFFFF" font-family="Arial,Arial_MSFontService,sans-serif" font-weight="400" font-size="83" transform="matrix(1 0 0 1 1963.87 1741)">BR2</text><rect x="1784.5" y="1776.5" width="520" height="130" stroke="#2983A9" stroke-width="4.58333" stroke-miterlimit="8" fill="#3CB4E6"/><text fill="#FFFFFF" font-family="Arial,Arial_MSFontService,sans-serif" font-weight="400" font-size="83" transform="matrix(1 0 0 1 1968.45 1871)">LLR</text><path d="M1031 672.125 1646.3 672.125 1646.3 685.875 1031 685.875ZM1639.43 658.375 1680.68 679 1639.43 699.625Z" fill="#E6007E"/><path d="M0 0 0.000360892 1039.49" stroke="#E6007E" stroke-width="13.75" stroke-linecap="round" stroke-miterlimit="8" fill="none" fill-rule="evenodd" transform="matrix(1 0 0 -1 1420 1913.49)"/><path d="M1420 867.125 1749.45 867.125C1753.24 867.125 1756.32 870.204 1756.32 874 1756.32 877.797 1753.24 880.875 1749.45 880.875L1420 880.875C1416.2 880.875 1413.12 877.797 1413.12 874 1413.12 870.203 1416.2 867.125 1420 867.125ZM1742.57 853.375 1783.82 874.001 1742.57 894.625Z" fill="#E6007E"/><rect x="2434" y="822" width="572" height="1110" fill="#49B170" fill-opacity="0.501961"/><rect x="2460.5" y="1126.5" width="520" height="130" stroke="#2983A9" stroke-width="4.58333" stroke-miterlimit="8" fill="#3CB4E6"/><text fill="#FFFFFF" font-family="Arial,Arial_MSFontService,sans-serif" font-weight="400" font-size="83" transform="matrix(1 0 0 1 2639.53 1221)">BR1</text><rect x="2460.5" y="866.5" width="520" height="130" stroke="#2983A9" stroke-width="4.58333" stroke-miterlimit="8" fill="#3CB4E6"/><text fill="#FFFFFF" font-family="Arial,Arial_MSFontService,sans-serif" font-weight="400" font-size="83" transform="matrix(1 0 0 1 2641.83 962)">TR1</text><rect x="2460.5" y="996.5" width="520" height="130" stroke="#2983A9" stroke-width="4.58333" stroke-miterlimit="8" fill="#3CB4E6"/><text fill="#FFFFFF" font-family="Arial,Arial_MSFontService,sans-serif" font-weight="400" font-size="83" transform="matrix(1 0 0 1 2641.83 1091)">TR2</text><rect x="2460.5" y="1256.5" width="520" height="130" stroke="#2983A9" stroke-width="4.58333" stroke-miterlimit="8" fill="#3CB4E6"/><text fill="#FFFFFF" font-family="Arial,Arial_MSFontService,sans-serif" font-weight="400" font-size="83" transform="matrix(1 0 0 1 2634.95 1351)">SA<tspan font-size="83" x="110" y="0">R</tspan></text><rect x="2460.5" y="1386.5" width="520" height="130" stroke="#2983A9" stroke-width="4.58333" stroke-miterlimit="8" fill="#3CB4E6"/><text fill="#FFFFFF" font-family="Arial,Arial_MSFontService,sans-serif" font-weight="400" font-size="83" transform="matrix(1 0 0 1 2632.66 1481)">DAR</text><rect x="2460" y="1516" width="520" height="130" fill="#3CB4E6" fill-opacity="0.501961"/><text fill="#FFFFFF" font-family="Arial,Arial_MSFontService,sans-serif" font-weight="400" font-size="83" transform="matrix(1 0 0 1 2641.83 1611)">TR<tspan font-size="83" x="110" y="0">3</tspan></text><rect x="2460" y="1646" width="520" height="130" fill="#3CB4E6" fill-opacity="0.501961"/><text fill="#FFFFFF" font-family="Arial,Arial_MSFontService,sans-serif" font-weight="400" font-size="83" transform="matrix(1 0 0 1 2639.53 1741)">BR2</text><rect x="2460.5" y="1776.5" width="520" height="130" stroke="#2983A9" stroke-width="4.58333" stroke-miterlimit="8" fill="#3CB4E6"/><text fill="#FFFFFF" font-family="Arial,Arial_MSFontService,sans-serif" font-weight="400" font-size="83" transform="matrix(1 0 0 1 2644.12 1871)">LLR</text><rect x="3110" y="822" width="571" height="1110" fill="#49B170" fill-opacity="0.501961"/><rect x="3136.5" y="1126.5" width="519" height="130" stroke="#2983A9" stroke-width="4.58333" stroke-miterlimit="8" fill="#3CB4E6"/><text fill="#FFFFFF" font-family="Arial,Arial_MSFontService,sans-serif" font-weight="400" font-size="83" transform="matrix(1 0 0 1 3315.2 1221)">BR1</text><rect x="3136.5" y="866.5" width="519" height="130" stroke="#2983A9" stroke-width="4.58333" stroke-miterlimit="8" fill="#3CB4E6"/><text fill="#FFFFFF" font-family="Arial,Arial_MSFontService,sans-serif" font-weight="400" font-size="83" transform="matrix(1 0 0 1 3317.49 962)">TR1</text><rect x="3136.5" y="996.5" width="519" height="130" stroke="#2983A9" stroke-width="4.58333" stroke-miterlimit="8" fill="#3CB4E6"/><text fill="#FFFFFF" font-family="Arial,Arial_MSFontService,sans-serif" font-weight="400" font-size="83" transform="matrix(1 0 0 1 3317.49 1091)">TR2</text><rect x="3136.5" y="1256.5" width="519" height="130" stroke="#2983A9" stroke-width="4.58333" stroke-miterlimit="8" fill="#3CB4E6"/><text fill="#FFFFFF" font-family="Arial,Arial_MSFontService,sans-serif" font-weight="400" font-size="83" transform="matrix(1 0 0 1 3310.62 1351)">SA<tspan font-size="83" x="110" y="0">R</tspan></text><rect x="3136.5" y="1386.5" width="519" height="130" stroke="#2983A9" stroke-width="4.58333" stroke-miterlimit="8" fill="#3CB4E6"/><text fill="#FFFFFF" font-family="Arial,Arial_MSFontService,sans-serif" font-weight="400" font-size="83" transform="matrix(1 0 0 1 3308.32 1481)">DAR</text><rect x="3136" y="1516" width="519" height="130" fill="#3CB4E6" fill-opacity="0.501961"/><text fill="#FFFFFF" font-family="Arial,Arial_MSFontService,sans-serif" font-weight="400" font-size="83" transform="matrix(1 0 0 1 3317.49 1611)">TR<tspan font-size="83" x="110" y="0">3</tspan></text><rect x="3136" y="1646" width="519" height="130" fill="#3CB4E6" fill-opacity="0.501961"/><text fill="#FFFFFF" font-family="Arial,Arial_MSFontService,sans-serif" font-weight="400" font-size="83" transform="matrix(1 0 0 1 3315.2 1741)">BR2</text><rect x="3136.5" y="1776.5" width="519" height="130" stroke="#2983A9" stroke-width="4.58333" stroke-miterlimit="8" fill="#3CB4E6"/><text fill="#FFFFFF" font-family="Arial,Arial_MSFontService,sans-serif" font-weight="400" font-size="83" transform="matrix(1 0 0 1 3249.89 1871)">LLR = 0</text><path d="M2304 1887 2381.96 1887" stroke="#E6007E" stroke-width="13.75" stroke-linecap="round" stroke-miterlimit="8" fill="none" fill-rule="evenodd"/><path d="M0 0 0.000360892 1013.5" stroke="#E6007E" stroke-width="13.75" stroke-linecap="round" stroke-miterlimit="8" fill="none" fill-rule="evenodd" transform="matrix(1 0 0 -1 2382 1887.5)"/><path d="M2382 867.125 2425.59 867.125C2429.38 867.125 2432.46 870.203 2432.46 874 2432.46 877.797 2429.38 880.875 2425.59 880.875L2382 880.875C2378.2 880.875 2375.12 877.797 2375.12 874 2375.12 870.203 2378.2 867.125 2382 867.125ZM2418.71 853.375 2459.96 874.001 2418.71 894.625Z" fill="#E6007E"/><path d="M2980 1887 3057.96 1887" stroke="#E6007E" stroke-width="13.75" stroke-linecap="round" stroke-miterlimit="8" fill="none" fill-rule="evenodd"/><path d="M0 0 0.000360892 1013.5" stroke="#E6007E" stroke-width="13.75" stroke-linecap="round" stroke-miterlimit="8" fill="none" fill-rule="evenodd" transform="matrix(1 0 0 -1 3058 1887.5)"/><path d="M3058 867.125 3101.59 867.125C3105.38 867.125 3108.46 870.203 3108.46 874 3108.46 877.797 3105.38 880.875 3101.59 880.875L3058 880.875C3054.2 880.875 3051.12 877.797 3051.12 874 3051.12 870.203 3054.2 867.125 3058 867.125ZM3094.71 853.375 3135.96 874.001 3094.71 894.625Z" fill="#E6007E"/><path d="M1212.5 441.168C1212.5 422.021 1228.02 406.5 1247.17 406.5L1312.17 406.5 1312.17 406.5 1461.67 406.5 1775.83 406.5C1794.98 406.5 1810.5 422.021 1810.5 441.168L1810.5 527.833 1810.5 527.833 1810.5 579.833 1810.5 579.833C1810.5 598.979 1794.98 614.5 1775.83 614.5L1461.67 614.5 1386.92 640.5 1312.17 614.5 1247.17 614.5C1228.02 614.5 1212.5 598.979 1212.5 579.833L1212.5 579.833 1212.5 527.833 1212.5 527.833Z" stroke="#A9005B" stroke-width="4.58333" stroke-miterlimit="8" fill="#E6007E" fill-rule="evenodd"/><text fill="#FFFFFF" font-family="Arial,Arial_MSFontService,sans-serif" font-weight="400" font-size="83" transform="matrix(1 0 0 1 1298.22 491)">LLI list area <tspan font-size="83" x="146.667" y="99">65k</tspan></text><path d="M1161.5 2156.17C1161.5 2137.02 1177.02 2121.5 1196.17 2121.5L1282.67 2121.5 1369.45 1910.79 1464.42 2121.5 1853.83 2121.5C1872.98 2121.5 1888.5 2137.02 1888.5 2156.17L1888.5 2156.17 1888.5 2156.17 1888.5 2208.17 1888.5 2294.83C1888.5 2313.98 1872.98 2329.5 1853.83 2329.5L1464.42 2329.5 1282.67 2329.5 1282.67 2329.5 1196.17 2329.5C1177.02 2329.5 1161.5 2313.98 1161.5 2294.83L1161.5 2208.17 1161.5 2156.17 1161.5 2156.17Z" stroke="#A9005B" stroke-width="4.58333" stroke-miterlimit="8" fill="#E6007E" fill-rule="evenodd"/><text fill="#FFFFFF" font-family="Arial,Arial_MSFontService,sans-serif" font-weight="400" font-size="83" transform="matrix(1 0 0 1 1222.98 2206)">Next list LBAR + <tspan font-size="83" x="147.813" y="99">LA(LLR)</tspan></text></g></svg>