<svg width="3361" height="1279" xmlns="http://www.w3.org/2000/svg" xmlns:xlink="http://www.w3.org/1999/xlink" overflow="hidden"><defs><clipPath id="clip0"><rect x="350" y="400" width="3361" height="1279"/></clipPath></defs><g clip-path="url(#clip0)" transform="translate(-350 -400)"><rect x="381" y="458" width="780" height="702" fill="#03234B" fill-opacity="0.501961"/><text fill="#FFFFFF" font-family="Arial,Arial_MSFontService,sans-serif" font-weight="400" font-size="83" transform="matrix(1 0 0 1 566.737 554)">GPDMA <tspan font-size="83" x="320.856" y="0">ch</tspan></text><rect x="485.5" y="718.5" width="572" height="252" stroke="#2983A9" stroke-width="4.58333" stroke-miterlimit="8" fill="#3CB4E6"/><text fill="#FFFFFF" font-family="Arial,Arial_MSFontService,sans-serif" font-weight="400" font-size="83" transform="matrix(1 0 0 1 713.415 874)">LLI</text><rect x="381" y="1238" width="3274" height="441" fill="#03234B" fill-opacity="0.501961"/><text fill="#FFFFFF" font-family="Arial,Arial_MSFontService,sans-serif" font-weight="400" font-size="83" transform="matrix(1 0 0 1 413.9 1334)">LLI memory area</text><path d="M0 0 129.936 0.000360892" stroke="#E6007E" stroke-width="13.75" stroke-linecap="round" stroke-miterlimit="8" fill="none" fill-rule="evenodd" transform="matrix(-1 0 0 1 1186.94 952)"/><path d="M1394 867.125 1723.45 867.125C1727.24 867.125 1730.32 870.204 1730.32 874 1730.32 877.797 1727.24 880.875 1723.45 880.875L1394 880.875C1390.2 880.875 1387.12 877.797 1387.12 874 1387.12 870.203 1390.2 867.125 1394 867.125ZM1716.57 853.375 1757.82 874.001 1716.57 894.625Z" fill="#E6007E"/><rect x="1316.5" y="1375.5" width="572" height="252" stroke="#BC9A00" stroke-width="4.58333" stroke-miterlimit="8" fill="#FFD200"/><text fill="#FFFFFF" font-family="Arial,Arial_MSFontService,sans-serif" font-weight="400" font-size="83" transform="matrix(1 0 0 1 1545 1532)">LLI</text><rect x="1212" y="458" width="780" height="702" fill="#03234B" fill-opacity="0.501961"/><text fill="#FFFFFF" font-family="Arial,Arial_MSFontService,sans-serif" font-weight="400" font-size="83" transform="matrix(1 0 0 1 1398.33 554)">GPDMA <tspan font-size="83" x="320.856" y="0">ch</tspan></text><rect x="1316.5" y="718.5" width="572" height="252" stroke="#BC9A00" stroke-width="4.58333" stroke-miterlimit="8" fill="#FFD200"/><text fill="#FFFFFF" font-family="Arial,Arial_MSFontService,sans-serif" font-weight="400" font-size="83" transform="matrix(1 0 0 1 1545 874)">LLI</text><rect x="2044" y="458" width="780" height="702" fill="#03234B" fill-opacity="0.501961"/><text fill="#FFFFFF" font-family="Arial,Arial_MSFontService,sans-serif" font-weight="400" font-size="83" transform="matrix(1 0 0 1 2229.91 554)">GPDMA <tspan font-size="83" x="320.856" y="0">ch</tspan></text><rect x="2148.5" y="718.5" width="572" height="252" stroke="#650056" stroke-width="4.58333" stroke-miterlimit="8" fill="#8C0078"/><text fill="#FFFFFF" font-family="Arial,Arial_MSFontService,sans-serif" font-weight="400" font-size="83" transform="matrix(1 0 0 1 2376.59 874)">LLI</text><rect x="2876" y="458" width="779" height="702" fill="#03234B" fill-opacity="0.501961"/><text fill="#FFFFFF" font-family="Arial,Arial_MSFontService,sans-serif" font-weight="400" font-size="83" transform="matrix(1 0 0 1 3061.5 554)">GPDMA <tspan font-size="83" x="320.856" y="0">ch</tspan></text><rect x="2980.5" y="718.5" width="571" height="252" stroke="#338150" stroke-width="4.58333" stroke-miterlimit="8" fill="#49B170"/><text fill="#FFFFFF" font-family="Arial,Arial_MSFontService,sans-serif" font-weight="400" font-size="83" transform="matrix(1 0 0 1 3208.18 874)">LLI</text><rect x="2148.5" y="1367.5" width="572" height="253" stroke="#650056" stroke-width="4.58333" stroke-miterlimit="8" fill="#8C0078"/><text fill="#FFFFFF" font-family="Arial,Arial_MSFontService,sans-serif" font-weight="400" font-size="83" transform="matrix(1 0 0 1 2376.59 1524)">LLI</text><path d="M61.875-6.87483 129.936-6.87464C133.733-6.87463 136.811-3.79658 136.811 0.000379987 136.811 3.79734 133.733 6.87537 129.936 6.87536L61.875 6.87517C58.078 6.87516 55 3.79711 55 0.000152761 55-3.7968 58.0781-6.87484 61.875-6.87483ZM68.7499 34.3752 0 0 68.7501-34.3748Z" fill="#E6007E" transform="matrix(-1 0 0 1 1316.94 1367)"/><path d="M0 0 0.000360892 415.794" stroke="#E6007E" stroke-width="13.75" stroke-linecap="round" stroke-miterlimit="8" fill="none" fill-rule="evenodd" transform="matrix(1 0 0 -1 1187 1367.79)"/><rect x="2980.5" y="1367.5" width="571" height="253" stroke="#338150" stroke-width="4.58333" stroke-miterlimit="8" fill="#49B170"/><text fill="#FFFFFF" font-family="Arial,Arial_MSFontService,sans-serif" font-weight="400" font-size="83" transform="matrix(1 0 0 1 3208.18 1524)">LLI</text><path d="M0 0 129.936 0.000360892" stroke="#E6007E" stroke-width="13.75" stroke-linecap="round" stroke-miterlimit="8" fill="none" fill-rule="evenodd" transform="matrix(-1 0 0 1 2017.94 952)"/><path d="M61.875-6.87483 129.936-6.87464C133.733-6.87463 136.811-3.79658 136.811 0.000379987 136.811 3.79734 133.733 6.87537 129.936 6.87536L61.875 6.87517C58.078 6.87516 55 3.79711 55 0.000152761 55-3.7968 58.0781-6.87484 61.875-6.87483ZM68.7499 34.3752 0 0 68.7501-34.3748Z" fill="#E6007E" transform="matrix(-1 0 0 1 2147.94 1367)"/><path d="M0 0 0.000360892 415.794" stroke="#E6007E" stroke-width="13.75" stroke-linecap="round" stroke-miterlimit="8" fill="none" fill-rule="evenodd" transform="matrix(1 0 0 -1 2018 1367.79)"/><path d="M0 0 129.936 0.000360892" stroke="#E6007E" stroke-width="13.75" stroke-linecap="round" stroke-miterlimit="8" fill="none" fill-rule="evenodd" transform="matrix(-1 0 0 1 2849.94 952)"/><path d="M61.875-6.87483 129.936-6.87464C133.733-6.87463 136.811-3.79658 136.811 0.000379987 136.811 3.79734 133.733 6.87537 129.936 6.87536L61.875 6.87517C58.078 6.87516 55 3.79711 55 0.000152761 55-3.7968 58.0781-6.87484 61.875-6.87483ZM68.7499 34.3752 0 0 68.7501-34.3748Z" fill="#E6007E" transform="matrix(-1 0 0 1 2979.94 1367)"/><path d="M0 0 0.000360892 415.794" stroke="#E6007E" stroke-width="13.75" stroke-linecap="round" stroke-miterlimit="8" fill="none" fill-rule="evenodd" transform="matrix(1 0 0 -1 2850 1367.79)"/><path d="M1608.87 1031.88 1608.88 1375.03C1608.88 1378.83 1605.8 1381.91 1602 1381.91 1598.2 1381.91 1595.13 1378.83 1595.13 1375.03L1595.12 1031.88C1595.12 1028.08 1598.2 1025 1602 1025 1605.8 1025 1608.87 1028.08 1608.87 1031.88ZM1567.62 1038.75 1602 970 1636.38 1038.75Z" fill="#E6007E"/><path d="M2440.88 1031.88 2440.88 1367.42C2440.88 1371.22 2437.8 1374.3 2434 1374.3 2430.2 1374.3 2427.13 1371.22 2427.13 1367.42L2427.12 1031.88C2427.12 1028.08 2430.2 1025 2434 1025 2437.8 1025 2440.88 1028.08 2440.88 1031.88ZM2399.62 1038.75 2434 970 2468.38 1038.75Z" fill="#E6007E"/><path d="M3271.88 1031.88 3271.88 1367.42C3271.88 1371.22 3268.8 1374.3 3265 1374.3 3261.2 1374.3 3258.13 1371.22 3258.13 1367.42L3258.12 1031.88C3258.12 1028.08 3261.2 1025 3265 1025 3268.8 1025 3271.88 1028.08 3271.88 1031.88ZM3230.62 1038.75 3265 970 3299.38 1038.75Z" fill="#E6007E"/><text fill="#E6007E" font-family="Arial,Arial_MSFontService,sans-serif" font-weight="400" font-size="83" transform="matrix(1 0 0 1 1635.3 1074)">Load LLI <tspan font-size="83" x="0" y="99">&amp; disable </tspan><tspan font-size="83" x="0" y="198">ch</tspan><tspan font-size="83" x="831.589" y="0">Load LLI </tspan><tspan font-size="83" x="831.589" y="99">&amp; disable </tspan><tspan font-size="83" x="831.589" y="198">ch</tspan><tspan font-size="83" x="1663.18" y="0">Load LLI </tspan><tspan font-size="83" x="1663.18" y="99">&amp; disable </tspan><tspan font-size="83" x="1663.18" y="198">ch</tspan></text><path d="M2018.5 458.5C2018.5 429.781 2041.78 406.5 2070.5 406.5 2099.22 406.5 2122.5 429.781 2122.5 458.5 2122.5 487.219 2099.22 510.5 2070.5 510.5 2041.78 510.5 2018.5 487.219 2018.5 458.5Z" stroke="#A9005B" stroke-width="4.58333" stroke-miterlimit="8" fill="#E6007E" fill-rule="evenodd"/><text fill="#FFFFFF" font-family="Arial,Arial_MSFontService,sans-serif" font-weight="400" font-size="64" transform="matrix(1 0 0 1 2052.3 481)">3</text><path d="M355.5 458.5C355.5 429.781 378.781 406.5 407.5 406.5 436.219 406.5 459.5 429.781 459.5 458.5 459.5 487.219 436.219 510.5 407.5 510.5 378.781 510.5 355.5 487.219 355.5 458.5Z" stroke="#A9005B" stroke-width="4.58333" stroke-miterlimit="8" fill="#E6007E" fill-rule="evenodd"/><text fill="#FFFFFF" font-family="Arial,Arial_MSFontService,sans-serif" font-weight="400" font-size="64" transform="matrix(1 0 0 1 389.127 481)">1</text><path d="M1187.5 458.5C1187.5 429.781 1210.56 406.5 1239 406.5 1267.44 406.5 1290.5 429.781 1290.5 458.5 1290.5 487.219 1267.44 510.5 1239 510.5 1210.56 510.5 1187.5 487.219 1187.5 458.5Z" stroke="#A9005B" stroke-width="4.58333" stroke-miterlimit="8" fill="#E6007E" fill-rule="evenodd"/><text fill="#FFFFFF" font-family="Arial,Arial_MSFontService,sans-serif" font-weight="400" font-size="64" transform="matrix(1 0 0 1 1220.72 481)">2</text><path d="M2850.5 458.5C2850.5 429.781 2873.78 406.5 2902.5 406.5 2931.22 406.5 2954.5 429.781 2954.5 458.5 2954.5 487.219 2931.22 510.5 2902.5 510.5 2873.78 510.5 2850.5 487.219 2850.5 458.5Z" stroke="#A9005B" stroke-width="4.58333" stroke-miterlimit="8" fill="#E6007E" fill-rule="evenodd"/><text fill="#FFFFFF" font-family="Arial,Arial_MSFontService,sans-serif" font-weight="400" font-size="64" transform="matrix(1 0 0 1 2883.89 481)">4</text></g></svg>