<svg width="4133" height="2056" xmlns="http://www.w3.org/2000/svg" xmlns:xlink="http://www.w3.org/1999/xlink" overflow="hidden"><defs><clipPath id="clip0"><rect x="210" y="380" width="4133" height="2056"/></clipPath></defs><g clip-path="url(#clip0)" transform="translate(-210 -380)"><rect x="1264" y="380" width="988" height="1637" fill="#FFD200" fill-opacity="0.501961"/><rect x="2304" y="380" width="987" height="1637" fill="#FFD200" fill-opacity="0.501961"/><rect x="3343" y="380" width="988" height="1637" fill="#FFD200" fill-opacity="0.501961"/><rect x="225" y="380" width="987" height="1637" fill="#FFD200" fill-opacity="0.501961"/><path d="M277 867.125 346.574 867.125C350.371 867.125 353.449 870.203 353.449 874 353.449 877.797 350.371 880.875 346.574 880.875L277 880.875C273.203 880.875 270.125 877.797 270.125 874 270.125 870.203 273.203 867.125 277 867.125ZM339.699 853.375 380.949 874.001 339.699 894.625Z" fill="#E6007E"/><rect x="381" y="692" width="780" height="286" fill="#03234B" fill-opacity="0.501961"/><text fill="#FFFFFF" font-family="Arial,Arial_MSFontService,sans-serif" font-weight="400" font-size="83" transform="matrix(1 0 0 1 543.821 788)">GPDMA <tspan font-size="83" x="320.856" y="0">ch0</tspan></text><path d="M329.5 692.5C329.5 663.781 352.781 640.5 381.5 640.5 410.219 640.5 433.5 663.781 433.5 692.5 433.5 721.219 410.219 744.5 381.5 744.5 352.781 744.5 329.5 721.219 329.5 692.5Z" stroke="#A9005B" stroke-width="4.58333" stroke-miterlimit="8" fill="#E6007E" fill-rule="evenodd"/><text fill="#FFFFFF" font-family="Arial,Arial_MSFontService,sans-serif" font-weight="400" font-size="64" transform="matrix(1 0 0 1 363.14 715)">1</text><rect x="511.5" y="822.5" width="520" height="130" stroke="#2983A9" stroke-width="4.58333" stroke-miterlimit="8" fill="#3CB4E6"/><text fill="#FFFFFF" font-family="Arial,Arial_MSFontService,sans-serif" font-weight="400" font-size="83" transform="matrix(1 0 0 1 666.436 917)">BR=8</text><path d="M277 1231.12 346.574 1231.13C350.371 1231.13 353.449 1234.2 353.449 1238 353.449 1241.8 350.371 1244.88 346.574 1244.88L277 1244.87C273.203 1244.87 270.125 1241.8 270.125 1238 270.125 1234.2 273.203 1231.12 277 1231.12ZM339.699 1217.38 380.949 1238 339.699 1258.63Z" fill="#E6007E"/><rect x="381" y="1082" width="780" height="285" fill="#03234B" fill-opacity="0.501961"/><text fill="#FFFFFF" font-family="Arial,Arial_MSFontService,sans-serif" font-weight="400" font-size="83" transform="matrix(1 0 0 1 543.821 1178)">GPDMA <tspan font-size="83" x="320.856" y="0">ch2</tspan></text><rect x="511.5" y="1212.5" width="520" height="129" stroke="#2983A9" stroke-width="4.58333" stroke-miterlimit="8" fill="#3CB4E6"/><text fill="#FFFFFF" font-family="Arial,Arial_MSFontService,sans-serif" font-weight="400" font-size="83" transform="matrix(1 0 0 1 666.436 1307)">BR=8</text><path d="M0 0 0.000360892 623.691" stroke="#E6007E" stroke-width="13.75" stroke-linecap="round" stroke-miterlimit="8" fill="none" fill-rule="evenodd" transform="matrix(1 0 0 -1 277 1237.69)"/><text fill="#03234B" font-family="Arial,Arial_MSFontService,sans-serif" font-weight="400" font-size="83" transform="matrix(1 0 0 1 311.977 577)">EXTI single trigger</text><rect x="1420" y="692" width="780" height="286" fill="#03234B" fill-opacity="0.501961"/><text fill="#FFFFFF" font-family="Arial,Arial_MSFontService,sans-serif" font-weight="400" font-size="83" transform="matrix(1 0 0 1 1583.31 788)">GPDMA <tspan font-size="83" x="320.856" y="0">ch0</tspan></text><path d="M1368.5 692.5C1368.5 663.781 1391.78 640.5 1420.5 640.5 1449.22 640.5 1472.5 663.781 1472.5 692.5 1472.5 721.219 1449.22 744.5 1420.5 744.5 1391.78 744.5 1368.5 721.219 1368.5 692.5Z" stroke="#A9005B" stroke-width="4.58333" stroke-miterlimit="8" fill="#E6007E" fill-rule="evenodd"/><text fill="#FFFFFF" font-family="Arial,Arial_MSFontService,sans-serif" font-weight="400" font-size="64" transform="matrix(1 0 0 1 1402.63 715)">2</text><rect x="1550.5" y="822.5" width="520" height="130" stroke="#2983A9" stroke-width="4.58333" stroke-miterlimit="8" fill="#3CB4E6"/><text fill="#FFFFFF" font-family="Arial,Arial_MSFontService,sans-serif" font-weight="400" font-size="83" transform="matrix(1 0 0 1 1705.92 917)">BR=4</text><rect x="1420" y="1082" width="780" height="285" fill="#03234B" fill-opacity="0.501961"/><text fill="#FFFFFF" font-family="Arial,Arial_MSFontService,sans-serif" font-weight="400" font-size="83" transform="matrix(1 0 0 1 1583.31 1178)">GPDMA <tspan font-size="83" x="320.856" y="0">ch2</tspan></text><rect x="1550.5" y="1212.5" width="520" height="129" stroke="#2983A9" stroke-width="4.58333" stroke-miterlimit="8" fill="#3CB4E6"/><text fill="#FFFFFF" font-family="Arial,Arial_MSFontService,sans-serif" font-weight="400" font-size="83" transform="matrix(1 0 0 1 1705.92 1307)">BR=4</text><rect x="1498.5" y="1445.5" width="624" height="130" stroke="#650056" stroke-width="4.58333" stroke-miterlimit="8" fill="#8C0078"/><text fill="#FFFFFF" font-family="Arial,Arial_MSFontService,sans-serif" font-weight="400" font-size="83" transform="matrix(1 0 0 1 1584.46 1541)">GPIO<tspan font-size="83" x="206.25" y="0">-</tspan>&gt;BSR</text><rect x="1498.5" y="484.5" width="624" height="130" stroke="#338150" stroke-width="4.58333" stroke-miterlimit="8" fill="#49B170"/><text fill="#FFFFFF" font-family="Arial,Arial_MSFontService,sans-serif" font-weight="400" font-size="83" transform="matrix(1 0 0 1 1584.46 579)">GPIO<tspan font-size="83" x="206.25" y="0">-</tspan>&gt;BSR</text><path d="M6.875-3.18252e-05 6.8752 43.5864-6.8748 43.5864-6.875 3.18252e-05ZM20.6252 36.7113 0.000360892 77.9614-20.6248 36.7115Z" fill="#E6007E" transform="matrix(1 0 0 -1 1810 691.961)"/><path d="M1816.87 1367 1816.88 1410.59 1803.13 1410.59 1803.12 1367ZM1830.62 1403.71 1810 1444.96 1789.38 1403.71Z" fill="#E6007E"/><rect x="3499" y="692" width="780" height="286" fill="#03234B" fill-opacity="0.501961"/><text fill="#FFFFFF" font-family="Arial,Arial_MSFontService,sans-serif" font-weight="400" font-size="83" transform="matrix(1 0 0 1 3662.28 788)">GPDMA <tspan font-size="83" x="320.856" y="0">ch0</tspan></text><path d="M3447.5 692.5C3447.5 663.781 3470.78 640.5 3499.5 640.5 3528.22 640.5 3551.5 663.781 3551.5 692.5 3551.5 721.219 3528.22 744.5 3499.5 744.5 3470.78 744.5 3447.5 721.219 3447.5 692.5Z" stroke="#A9005B" stroke-width="4.58333" stroke-miterlimit="8" fill="#E6007E" fill-rule="evenodd"/><text fill="#FFFFFF" font-family="Arial,Arial_MSFontService,sans-serif" font-weight="400" font-size="64" transform="matrix(1 0 0 1 3481.6 715)">4</text><rect x="3629.5" y="822.5" width="520" height="130" stroke="#2983A9" stroke-width="4.58333" stroke-miterlimit="8" fill="#3CB4E6"/><text fill="#FFFFFF" font-family="Arial,Arial_MSFontService,sans-serif" font-weight="400" font-size="83" transform="matrix(1 0 0 1 3784.89 917)">BR=0</text><rect x="3499" y="1082" width="780" height="285" fill="#03234B" fill-opacity="0.501961"/><text fill="#FFFFFF" font-family="Arial,Arial_MSFontService,sans-serif" font-weight="400" font-size="83" transform="matrix(1 0 0 1 3662.28 1178)">GPDMA <tspan font-size="83" x="320.856" y="0">ch2</tspan></text><rect x="3629.5" y="1212.5" width="520" height="129" stroke="#2983A9" stroke-width="4.58333" stroke-miterlimit="8" fill="#3CB4E6"/><text fill="#FFFFFF" font-family="Arial,Arial_MSFontService,sans-serif" font-weight="400" font-size="83" transform="matrix(1 0 0 1 3784.89 1307)">BR=0</text><rect x="3577" y="1445" width="624" height="130" fill="#8C0078" fill-opacity="0.501961"/><text fill="#FFFFFF" font-family="Arial,Arial_MSFontService,sans-serif" font-weight="400" font-size="83" transform="matrix(1 0 0 1 3661.14 1541)">GPIO<tspan font-size="83" x="206.25" y="0">-</tspan>&gt;BRR</text><rect x="3577" y="484" width="624" height="130" fill="#49B170" fill-opacity="0.501961"/><text fill="#FFFFFF" font-family="Arial,Arial_MSFontService,sans-serif" font-weight="400" font-size="83" transform="matrix(1 0 0 1 3661.14 579)">GPIO<tspan font-size="83" x="206.25" y="0">-</tspan>&gt;BRR</text><path d="M6.875-3.18252e-05 6.8752 43.5864-6.8748 43.5864-6.875 3.18252e-05ZM20.6252 36.7113 0.000360892 77.9614-20.6248 36.7115Z" fill="#E6007E" transform="matrix(1 0 0 -1 3889 691.961)"/><path d="M3895.87 1367 3895.88 1410.59 3882.12 1410.59 3882.12 1367ZM3909.62 1403.71 3889 1444.96 3868.38 1403.71Z" fill="#E6007E"/><path d="M2356 867.125 2425.57 867.125C2429.37 867.125 2432.45 870.203 2432.45 874 2432.45 877.797 2429.37 880.875 2425.57 880.875L2356 880.875C2352.2 880.875 2349.12 877.797 2349.12 874 2349.12 870.203 2352.2 867.125 2356 867.125ZM2418.7 853.375 2459.95 874.001 2418.7 894.625Z" fill="#E6007E"/><rect x="2460" y="692" width="779" height="286" fill="#03234B" fill-opacity="0.501961"/><text fill="#FFFFFF" font-family="Arial,Arial_MSFontService,sans-serif" font-weight="400" font-size="83" transform="matrix(1 0 0 1 2622.79 788)">GPDMA <tspan font-size="83" x="320.856" y="0">ch0</tspan></text><path d="M2408.5 692.5C2408.5 663.781 2431.78 640.5 2460.5 640.5 2489.22 640.5 2512.5 663.781 2512.5 692.5 2512.5 721.219 2489.22 744.5 2460.5 744.5 2431.78 744.5 2408.5 721.219 2408.5 692.5Z" stroke="#A9005B" stroke-width="4.58333" stroke-miterlimit="8" fill="#E6007E" fill-rule="evenodd"/><text fill="#FFFFFF" font-family="Arial,Arial_MSFontService,sans-serif" font-weight="400" font-size="64" transform="matrix(1 0 0 1 2442.11 715)">3</text><rect x="2590.5" y="822.5" width="520" height="130" stroke="#2983A9" stroke-width="4.58333" stroke-miterlimit="8" fill="#3CB4E6"/><text fill="#FFFFFF" font-family="Arial,Arial_MSFontService,sans-serif" font-weight="400" font-size="83" transform="matrix(1 0 0 1 2745.41 917)">BR=4</text><path d="M2356 1231.12 2425.57 1231.13C2429.37 1231.13 2432.45 1234.2 2432.45 1238 2432.45 1241.8 2429.37 1244.88 2425.57 1244.88L2356 1244.87C2352.2 1244.87 2349.12 1241.8 2349.12 1238 2349.12 1234.2 2352.2 1231.12 2356 1231.12ZM2418.7 1217.38 2459.95 1238 2418.7 1258.63Z" fill="#E6007E"/><rect x="2460" y="1082" width="779" height="285" fill="#03234B" fill-opacity="0.501961"/><text fill="#FFFFFF" font-family="Arial,Arial_MSFontService,sans-serif" font-weight="400" font-size="83" transform="matrix(1 0 0 1 2622.79 1178)">GPDMA <tspan font-size="83" x="320.856" y="0">ch2</tspan></text><rect x="2590.5" y="1212.5" width="520" height="129" stroke="#2983A9" stroke-width="4.58333" stroke-miterlimit="8" fill="#3CB4E6"/><text fill="#FFFFFF" font-family="Arial,Arial_MSFontService,sans-serif" font-weight="400" font-size="83" transform="matrix(1 0 0 1 2745.41 1307)">BR=4</text><path d="M0 0 0.000360892 623.691" stroke="#E6007E" stroke-width="13.75" stroke-linecap="round" stroke-miterlimit="8" fill="none" fill-rule="evenodd" transform="matrix(1 0 0 -1 2356 1237.69)"/><text fill="#03234B" font-family="Arial,Arial_MSFontService,sans-serif" font-weight="400" font-size="83" transform="matrix(1 0 0 1 2390.95 577)">EXTI single trigger</text><path d="M277 614 1030.63 614" stroke="#E6007E" stroke-width="13.75" stroke-miterlimit="8" fill="none" fill-rule="evenodd"/><path d="M2356 614 3109.63 614" stroke="#E6007E" stroke-width="13.75" stroke-miterlimit="8" fill="none" fill-rule="evenodd"/><rect x="225.5" y="1653.5" width="987" height="364" stroke="#BC9A00" stroke-width="4.58333" stroke-miterlimit="8" fill="#FFD200"/><text fill="#FFFFFF" font-family="Arial,Arial_MSFontService,sans-serif" font-weight="400" font-size="83" transform="matrix(1 0 0 1 260.388 1816)">GPDMA<tspan font-size="83" x="320.856" y="0">is triggered from </tspan><tspan font-size="83" x="366.69" y="99">EXTI</tspan></text><rect x="1264.5" y="1653.5" width="988" height="364" stroke="#BC9A00" stroke-width="4.58333" stroke-miterlimit="8" fill="#FFD200"/><text fill="#FFFFFF" font-family="Arial,Arial_MSFontService,sans-serif" font-weight="400" font-size="83" transform="matrix(1 0 0 1 1315.92 1816)">GPDMA<tspan font-size="83" x="320.856" y="0">set GPIO pin to </tspan><tspan font-size="83" x="146.69" y="99">high over BSRR</tspan></text><rect x="2304.5" y="1653.5" width="987" height="364" stroke="#BC9A00" stroke-width="4.58333" stroke-miterlimit="8" fill="#FFD200"/><text fill="#FFFFFF" font-family="Arial,Arial_MSFontService,sans-serif" font-weight="400" font-size="83" transform="matrix(1 0 0 1 2343.94 1816)">GPDM<tspan font-size="83" x="247.5" y="0">A</tspan><tspan font-size="83" x="320.856" y="0">transfer is again </tspan><tspan font-size="83" x="291.064" y="99">triggered</tspan></text><rect x="3343.5" y="1653.5" width="988" height="364" stroke="#BC9A00" stroke-width="4.58333" stroke-miterlimit="8" fill="#FFD200"/><text fill="#FFFFFF" font-family="Arial,Arial_MSFontService,sans-serif" font-weight="400" font-size="83" transform="matrix(1 0 0 1 3404.05 1816)">GPDMA reset GPIO pin <tspan font-size="83" x="107.731" y="99">to low over BSRR</tspan></text><rect x="1810.5" y="2069.5" width="988" height="364" stroke="#BC9A00" stroke-width="4.58333" stroke-miterlimit="8" fill="#FFD200"/><text fill="#FFFFFF" font-family="Arial,Arial_MSFontService,sans-serif" font-weight="400" font-size="83" transform="matrix(1 0 0 1 1930.41 2232)">New LLI is loaded to <tspan font-size="83" x="222.292" y="99">GPDMA</tspan></text><path d="M6.875-1.06084e-05 6.87531 199.509C6.87531 203.306 3.79728 206.384 0.000318459 206.384-3.79664 206.384-6.87469 203.306-6.87469 199.509L-6.875 1.06084e-05C-6.87501-3.79695-3.79697-6.87499-1.06084e-05-6.875 3.79695-6.87501 6.87499-3.79697 6.875-1.06084e-05ZM20.6253 192.634 0.000360892 233.884-20.6247 192.634Z" fill="#E6007E" transform="matrix(1 0 0 -1 719 2250.88)"/><path d="M0 0 1091.46 0.000360892" stroke="#E6007E" stroke-width="13.75" stroke-linecap="round" stroke-miterlimit="8" fill="none" fill-rule="evenodd" transform="matrix(-1 0 0 1 1810.46 2251)"/><path d="M2.38689e-06-6.875 1005.11-6.87465C1008.91-6.87465 1011.99-3.79661 1011.99 0.000351345 1011.99 3.79731 1008.91 6.87535 1005.11 6.87535L-2.38689e-06 6.875C-3.79696 6.875-6.875 3.79696-6.875-2.38689e-06-6.875-3.79696-3.79696-6.875 2.38689e-06-6.875ZM998.236-20.6247 1039.49 0.000360892 998.236 20.6253Z" fill="#E6007E" transform="matrix(-1 0 0 1 3837.49 2251)"/><path d="M3837 2017 3837 2250.88" stroke="#E6007E" stroke-width="13.75" stroke-linecap="round" stroke-miterlimit="8" fill="none" fill-rule="evenodd"/></g></svg>