<svg width="4124" height="1970" xmlns="http://www.w3.org/2000/svg" xmlns:xlink="http://www.w3.org/1999/xlink" overflow="hidden"><defs><clipPath id="clip0"><rect x="210" y="380" width="4124" height="1970"/></clipPath></defs><g clip-path="url(#clip0)" transform="translate(-210 -380)"><rect x="1264" y="380" width="988" height="1325" fill="#FFD200" fill-opacity="0.501961"/><rect x="2304" y="380" width="987" height="1325" fill="#FFD200" fill-opacity="0.501961"/><rect x="3343" y="380" width="988" height="1325" fill="#FFD200" fill-opacity="0.501961"/><rect x="225" y="380" width="987" height="1299" fill="#FFD200" fill-opacity="0.501961"/><path d="M277 867.125 346.574 867.125C350.371 867.125 353.449 870.203 353.449 874 353.449 877.797 350.371 880.875 346.574 880.875L277 880.875C273.203 880.875 270.125 877.797 270.125 874 270.125 870.203 273.203 867.125 277 867.125ZM339.699 853.375 380.949 874.001 339.699 894.625Z" fill="#E6007E"/><rect x="381" y="692" width="780" height="286" fill="#03234B" fill-opacity="0.501961"/><text fill="#FFFFFF" font-family="Arial,Arial_MSFontService,sans-serif" font-weight="400" font-size="83" transform="matrix(1 0 0 1 543.821 788)">GPDMA <tspan font-size="83" x="320.856" y="0">ch2</tspan></text><path d="M329.5 692.5C329.5 663.781 352.781 640.5 381.5 640.5 410.219 640.5 433.5 663.781 433.5 692.5 433.5 721.219 410.219 744.5 381.5 744.5 352.781 744.5 329.5 721.219 329.5 692.5Z" stroke="#A9005B" stroke-width="4.58333" stroke-miterlimit="8" fill="#E6007E" fill-rule="evenodd"/><text fill="#FFFFFF" font-family="Arial,Arial_MSFontService,sans-serif" font-weight="400" font-size="64" transform="matrix(1 0 0 1 363.14 715)">1</text><rect x="511.5" y="822.5" width="520" height="130" stroke="#2983A9" stroke-width="4.58333" stroke-miterlimit="8" fill="#3CB4E6"/><text fill="#FFFFFF" font-family="Arial,Arial_MSFontService,sans-serif" font-weight="400" font-size="83" transform="matrix(1 0 0 1 666.436 917)">BR=4</text><path d="M0 0 0.000360892 259.871" stroke="#E6007E" stroke-width="13.75" stroke-linecap="round" stroke-miterlimit="8" fill="none" fill-rule="evenodd" transform="matrix(1 0 0 -1 277 873.871)"/><text fill="#03234B" font-family="Arial,Arial_MSFontService,sans-serif" font-weight="400" font-size="83" transform="matrix(1 0 0 1 311.977 577)">EXTI single trigger</text><rect x="1420" y="692" width="780" height="286" fill="#03234B" fill-opacity="0.501961"/><text fill="#FFFFFF" font-family="Arial,Arial_MSFontService,sans-serif" font-weight="400" font-size="83" transform="matrix(1 0 0 1 1583.31 788)">GPDMA <tspan font-size="83" x="320.856" y="0">ch2</tspan></text><path d="M1368.5 692.5C1368.5 663.781 1391.78 640.5 1420.5 640.5 1449.22 640.5 1472.5 663.781 1472.5 692.5 1472.5 721.219 1449.22 744.5 1420.5 744.5 1391.78 744.5 1368.5 721.219 1368.5 692.5Z" stroke="#A9005B" stroke-width="4.58333" stroke-miterlimit="8" fill="#E6007E" fill-rule="evenodd"/><text fill="#FFFFFF" font-family="Arial,Arial_MSFontService,sans-serif" font-weight="400" font-size="64" transform="matrix(1 0 0 1 1402.63 715)">2</text><rect x="1550.5" y="822.5" width="520" height="130" stroke="#2983A9" stroke-width="4.58333" stroke-miterlimit="8" fill="#3CB4E6"/><text fill="#FFFFFF" font-family="Arial,Arial_MSFontService,sans-serif" font-weight="400" font-size="83" transform="matrix(1 0 0 1 1705.92 917)">BR=4</text><rect x="1498.5" y="1108.5" width="624" height="130" stroke="#650056" stroke-width="4.58333" stroke-miterlimit="8" fill="#8C0078"/><text fill="#FFFFFF" font-family="Arial,Arial_MSFontService,sans-serif" font-weight="400" font-size="83" transform="matrix(1 0 0 1 1584.46 1203)">GPIO<tspan font-size="83" x="206.25" y="0">-</tspan>&gt;BSR</text><rect x="459.5" y="1108.5" width="624" height="130" stroke="#338150" stroke-width="4.58333" stroke-miterlimit="8" fill="#49B170"/><text fill="#FFFFFF" font-family="Arial,Arial_MSFontService,sans-serif" font-weight="400" font-size="83" transform="matrix(1 0 0 1 544.978 1203)">GPIO<tspan font-size="83" x="206.25" y="0">-</tspan>&gt;BSR</text><path d="M777.875 978 777.875 1073.56 764.125 1073.56 764.125 978ZM791.625 1066.69 771 1107.94 750.375 1066.69Z" fill="#E6007E"/><path d="M1816.87 978 1816.88 1073.56 1803.13 1073.56 1803.12 978ZM1830.63 1066.69 1810 1107.94 1789.38 1066.69Z" fill="#E6007E"/><rect x="3499" y="692" width="780" height="286" fill="#03234B" fill-opacity="0.501961"/><text fill="#FFFFFF" font-family="Arial,Arial_MSFontService,sans-serif" font-weight="400" font-size="83" transform="matrix(1 0 0 1 3662.28 788)">GPDMA <tspan font-size="83" x="320.856" y="0">ch0</tspan></text><path d="M3447.5 692.5C3447.5 663.781 3470.78 640.5 3499.5 640.5 3528.22 640.5 3551.5 663.781 3551.5 692.5 3551.5 721.219 3528.22 744.5 3499.5 744.5 3470.78 744.5 3447.5 721.219 3447.5 692.5Z" stroke="#A9005B" stroke-width="4.58333" stroke-miterlimit="8" fill="#E6007E" fill-rule="evenodd"/><text fill="#FFFFFF" font-family="Arial,Arial_MSFontService,sans-serif" font-weight="400" font-size="64" transform="matrix(1 0 0 1 3481.6 715)">4</text><rect x="3629.5" y="822.5" width="520" height="130" stroke="#2983A9" stroke-width="4.58333" stroke-miterlimit="8" fill="#3CB4E6"/><text fill="#FFFFFF" font-family="Arial,Arial_MSFontService,sans-serif" font-weight="400" font-size="83" transform="matrix(1 0 0 1 3784.89 917)">BR=4</text><rect x="3577" y="1108" width="624" height="130" fill="#8C0078" fill-opacity="0.501961"/><text fill="#FFFFFF" font-family="Arial,Arial_MSFontService,sans-serif" font-weight="400" font-size="83" transform="matrix(1 0 0 1 3661.14 1203)">GPIO<tspan font-size="83" x="206.25" y="0">-</tspan>&gt;BRR</text><path d="M3895.87 978 3895.88 1073.56 3882.12 1073.56 3882.12 978ZM3909.62 1066.69 3889 1107.94 3868.38 1066.69Z" fill="#E6007E"/><path d="M2356 867.125 2425.57 867.125C2429.37 867.125 2432.45 870.203 2432.45 874 2432.45 877.797 2429.37 880.875 2425.57 880.875L2356 880.875C2352.2 880.875 2349.12 877.797 2349.12 874 2349.12 870.203 2352.2 867.125 2356 867.125ZM2418.7 853.375 2459.95 874.001 2418.7 894.625Z" fill="#E6007E"/><rect x="2460" y="692" width="779" height="286" fill="#03234B" fill-opacity="0.501961"/><text fill="#FFFFFF" font-family="Arial,Arial_MSFontService,sans-serif" font-weight="400" font-size="83" transform="matrix(1 0 0 1 2622.79 788)">GPDMA <tspan font-size="83" x="320.856" y="0">ch2</tspan></text><path d="M2408.5 692.5C2408.5 663.781 2431.78 640.5 2460.5 640.5 2489.22 640.5 2512.5 663.781 2512.5 692.5 2512.5 721.219 2489.22 744.5 2460.5 744.5 2431.78 744.5 2408.5 721.219 2408.5 692.5Z" stroke="#A9005B" stroke-width="4.58333" stroke-miterlimit="8" fill="#E6007E" fill-rule="evenodd"/><text fill="#FFFFFF" font-family="Arial,Arial_MSFontService,sans-serif" font-weight="400" font-size="64" transform="matrix(1 0 0 1 2442.11 715)">3</text><rect x="2590.5" y="822.5" width="520" height="130" stroke="#2983A9" stroke-width="4.58333" stroke-miterlimit="8" fill="#3CB4E6"/><text fill="#FFFFFF" font-family="Arial,Arial_MSFontService,sans-serif" font-weight="400" font-size="83" transform="matrix(1 0 0 1 2745.41 917)">BR=4</text><path d="M0 0 0.000360892 259.871" stroke="#E6007E" stroke-width="13.75" stroke-linecap="round" stroke-miterlimit="8" fill="none" fill-rule="evenodd" transform="matrix(1 0 0 -1 2356 873.871)"/><text fill="#03234B" font-family="Arial,Arial_MSFontService,sans-serif" font-weight="400" font-size="83" transform="matrix(1 0 0 1 2390.95 577)">EXTI single trigger</text><path d="M277 614 1030.63 614" stroke="#E6007E" stroke-width="13.75" stroke-miterlimit="8" fill="none" fill-rule="evenodd"/><path d="M2356 614 3109.63 614" stroke="#E6007E" stroke-width="13.75" stroke-miterlimit="8" fill="none" fill-rule="evenodd"/><path d="M6.875-4.54645e-06 6.87534 511.355C6.87534 515.152 3.7973 518.23 0.000342707 518.23-3.79662 518.23-6.87466 515.152-6.87466 511.355L-6.875 4.54645e-06C-6.875-3.79695-3.79696-6.875-4.54645e-06-6.875 3.79695-6.875 6.875-3.79696 6.875-4.54645e-06ZM20.6253 504.48 0.000360892 545.73-20.6247 504.48Z" fill="#E6007E" transform="matrix(1 0 0 -1 719 2250.73)"/><path d="M0 0 1377.32 0.000360892" stroke="#E6007E" stroke-width="13.75" stroke-linecap="round" stroke-miterlimit="8" fill="none" fill-rule="evenodd" transform="matrix(-1 0 0 1 2096.32 2251)"/><path d="M1.87207e-06-6.875 1290.97-6.87465C1294.77-6.87465 1297.84-3.7966 1297.84 0.000353404 1297.84 3.79731 1294.77 6.87535 1290.97 6.87535L-1.87207e-06 6.875C-3.79696 6.875-6.875 3.79696-6.875-1.87207e-06-6.875-3.79696-3.79696-6.875 1.87207e-06-6.875ZM1284.09-20.6247 1325.34 0.000360892 1284.09 20.6253Z" fill="#E6007E" transform="matrix(-1 0 0 1 3837.34 2251)"/><path d="M3837 1705 3837 2250.73" stroke="#E6007E" stroke-width="13.75" stroke-linecap="round" stroke-miterlimit="8" fill="none" fill-rule="evenodd"/><rect x="2538" y="1108" width="624" height="130" fill="#49B170" fill-opacity="0.501961"/><text fill="#FFFFFF" font-family="Arial,Arial_MSFontService,sans-serif" font-weight="400" font-size="83" transform="matrix(1 0 0 1 2621.66 1203)">GPIO<tspan font-size="83" x="206.25" y="0">-</tspan>&gt;BRR</text><path d="M2856.88 978 2856.88 1073.56 2843.13 1073.56 2843.12 978ZM2870.63 1066.69 2850 1107.94 2829.38 1066.69Z" fill="#E6007E"/><rect x="1031.5" y="1757.5" width="415" height="156" stroke="#A9005B" stroke-width="4.58333" stroke-miterlimit="8" fill="#E6007E"/><text fill="#FFFFFF" font-family="Arial,Arial_MSFontService,sans-serif" font-weight="400" font-size="83" transform="matrix(1 0 0 1 1068.89 1866)">LLI2 load</text><rect x="2070.5" y="1783.5" width="416" height="156" stroke="#A9005B" stroke-width="4.58333" stroke-miterlimit="8" fill="#E6007E"/><text fill="#FFFFFF" font-family="Arial,Arial_MSFontService,sans-serif" font-weight="400" font-size="83" transform="matrix(1 0 0 1 2108.38 1892)">LLI3 load</text><rect x="3110.5" y="1783.5" width="415" height="156" stroke="#A9005B" stroke-width="4.58333" stroke-miterlimit="8" fill="#E6007E"/><text fill="#FFFFFF" font-family="Arial,Arial_MSFontService,sans-serif" font-weight="400" font-size="83" transform="matrix(1 0 0 1 3147.86 1892)">LLI4 load</text><rect x="2096.5" y="2173.5" width="416" height="156" stroke="#A9005B" stroke-width="4.58333" stroke-miterlimit="8" fill="#E6007E"/><text fill="#FFFFFF" font-family="Arial,Arial_MSFontService,sans-serif" font-weight="400" font-size="83" transform="matrix(1 0 0 1 2134.36 2282)">LLI1 load</text><path d="M953 1828.12 996.586 1828.13C1000.38 1828.13 1003.46 1831.2 1003.46 1835 1003.46 1838.8 1000.38 1841.88 996.586 1841.88L953 1841.87C949.203 1841.87 946.125 1838.8 946.125 1835 946.125 1831.2 949.203 1828.12 953 1828.12ZM989.711 1814.38 1030.96 1835 989.711 1855.62Z" fill="#E6007E"/><path d="M0 0 0.000360892 129.936" stroke="#E6007E" stroke-width="13.75" stroke-linecap="round" stroke-miterlimit="8" fill="none" fill-rule="evenodd" transform="matrix(1 0 0 -1 953 1834.94)"/><path d="M6.875-1.90951e-05 6.87527 95.5607C6.87528 99.3576 3.79724 102.436 0.000284512 102.436-3.79667 102.436-6.87472 99.3577-6.87473 95.5607L-6.875 1.90951e-05C-6.87501-3.79694-3.79698-6.87499-1.90951e-05-6.875 3.79694-6.87501 6.87499-3.79698 6.875-1.90951e-05ZM20.6252 88.6856 0.000360892 129.936-20.6248 88.6858Z" fill="#E6007E" transform="matrix(1 0 0 -1 1524 1834.94)"/><path d="M1446 1835 1523.96 1835" stroke="#E6007E" stroke-width="13.75" stroke-linecap="round" stroke-miterlimit="8" fill="none" fill-rule="evenodd"/><path d="M1992 1854.13 2035.59 1854.13C2039.38 1854.13 2042.46 1857.2 2042.46 1861 2042.46 1864.8 2039.38 1867.88 2035.59 1867.88L1992 1867.88C1988.2 1867.88 1985.12 1864.8 1985.12 1861 1985.12 1857.2 1988.2 1854.13 1992 1854.13ZM2028.71 1840.38 2069.96 1861 2028.71 1881.63Z" fill="#E6007E"/><path d="M0 0 0.000360892 155.923" stroke="#E6007E" stroke-width="13.75" stroke-linecap="round" stroke-miterlimit="8" fill="none" fill-rule="evenodd" transform="matrix(1 0 0 -1 1992 1860.92)"/><path d="M6.875-1.59126e-05 6.87528 121.548C6.87529 125.345 3.79726 128.423 0.000297242 128.423-3.79666 128.423-6.87471 125.345-6.87472 121.548L-6.875 1.59126e-05C-6.87501-3.79694-3.79697-6.87499-1.59126e-05-6.875 3.79694-6.87501 6.87499-3.79697 6.875-1.59126e-05ZM20.6253 114.673 0.000360892 155.923-20.6247 114.673Z" fill="#E6007E" transform="matrix(1 0 0 -1 2564 1860.92)"/><path d="M2486 1861 2563.96 1861" stroke="#E6007E" stroke-width="13.75" stroke-linecap="round" stroke-miterlimit="8" fill="none" fill-rule="evenodd"/><path d="M3032 1854.13 3075.59 1854.13C3079.38 1854.13 3082.46 1857.2 3082.46 1861 3082.46 1864.8 3079.38 1867.88 3075.59 1867.88L3032 1867.88C3028.2 1867.88 3025.12 1864.8 3025.12 1861 3025.12 1857.2 3028.2 1854.13 3032 1854.13ZM3068.71 1840.38 3109.96 1861 3068.71 1881.63Z" fill="#E6007E"/><path d="M0 0 0.000360892 155.923" stroke="#E6007E" stroke-width="13.75" stroke-linecap="round" stroke-miterlimit="8" fill="none" fill-rule="evenodd" transform="matrix(1 0 0 -1 3032 1860.92)"/><path d="M6.875-1.59126e-05 6.87528 121.548C6.87529 125.345 3.79726 128.423 0.000297242 128.423-3.79666 128.423-6.87471 125.345-6.87472 121.548L-6.875 1.59126e-05C-6.87501-3.79694-3.79697-6.87499-1.59126e-05-6.875 3.79694-6.87501 6.87499-3.79697 6.875-1.59126e-05ZM20.6253 114.673 0.000360892 155.923-20.6247 114.673Z" fill="#E6007E" transform="matrix(1 0 0 -1 3603 1860.92)"/><path d="M3525 1861 3602.96 1861" stroke="#E6007E" stroke-width="13.75" stroke-linecap="round" stroke-miterlimit="8" fill="none" fill-rule="evenodd"/><rect x="225.5" y="1341.5" width="987" height="364" stroke="#BC9A00" stroke-width="4.58333" stroke-miterlimit="8" fill="#FFD200"/><text fill="#FFFFFF" font-family="Arial,Arial_MSFontService,sans-serif" font-weight="400" font-size="83" transform="matrix(1 0 0 1 260.388 1504)">GPDMA<tspan font-size="83" x="320.856" y="0">is triggered from </tspan><tspan font-size="83" x="41.2729" y="99">EXTI and GPIO1 is set</tspan></text><rect x="1264.5" y="1341.5" width="988" height="364" stroke="#BC9A00" stroke-width="4.58333" stroke-miterlimit="8" fill="#FFD200"/><text fill="#FFFFFF" font-family="Arial,Arial_MSFontService,sans-serif" font-weight="400" font-size="83" transform="matrix(1 0 0 1 1524.47 1554)">GPIO2 is set</text><rect x="2304.5" y="1341.5" width="987" height="364" stroke="#BC9A00" stroke-width="4.58333" stroke-miterlimit="8" fill="#FFD200"/><text fill="#FFFFFF" font-family="Arial,Arial_MSFontService,sans-serif" font-weight="400" font-size="83" transform="matrix(1 0 0 1 2339.36 1504)">GPDMA is triggered from <tspan font-size="83" x="4.6062" y="99">EXTI and GPIO1 is reset</tspan></text><rect x="3343.5" y="1341.5" width="988" height="364" stroke="#BC9A00" stroke-width="4.58333" stroke-miterlimit="8" fill="#FFD200"/><text fill="#FFFFFF" font-family="Arial,Arial_MSFontService,sans-serif" font-weight="400" font-size="83" transform="matrix(1 0 0 1 3566.77 1554)">GPIO2 is reset</text></g></svg>