<svg width="3950" height="1672" xmlns="http://www.w3.org/2000/svg" xmlns:xlink="http://www.w3.org/1999/xlink" overflow="hidden"><defs><clipPath id="clip0"><rect x="329" y="458" width="3950" height="1672"/></clipPath></defs><g clip-path="url(#clip0)" transform="translate(-329 -458)"><path d="M34.375-6.87494 173.522-6.8747 173.522 6.8753 34.375 6.87506ZM41.25 20.6251 0 0 41.25-20.6249ZM166.647-20.6247 207.897 0.000360892 166.647 20.6253Z" fill="#E6007E" transform="matrix(-1 0 0 1 1939.9 588)"/><path d="M1.19344e-05-6.875 173.522-6.8747 173.522 6.8753-1.19344e-05 6.875ZM166.647-20.6247 207.897 0.000360892 166.647 20.6253Z" fill="#E6007E" transform="matrix(-1 0 0 1 1939.9 822)"/><path d="M1628 1153.13 1905.47 1153.13 1905.47 1166.88 1628 1166.88ZM1898.6 1139.38 1939.85 1160 1898.6 1180.63Z" fill="#E6007E"/><path d="M0 0 0.000360892 259.871" stroke="#E6007E" stroke-width="13.75" stroke-miterlimit="8" fill="none" fill-rule="evenodd" transform="matrix(1 0 0 -1 1628 1159.87)"/><path d="M3348.12 1155.42 3689.02 1536.41 3678.78 1545.57 3337.88 1164.58ZM3694.68 1522.11 3706.82 1566.61 3663.94 1549.62Z" fill="#E6007E"/><rect x="329" y="510" width="1403" height="156" fill="#03234B"/><text fill="#FFFFFF" font-family="Arial,Arial_MSFontService,sans-serif" font-weight="400" font-size="83" transform="matrix(1 0 0 1 622.662 618)">HAL_DMAEx_List_Init</text><rect x="1940" y="458" width="1403" height="260" fill="#03234B"/><text fill="#FFFFFF" font-family="Arial,Arial_MSFontService,sans-serif" font-weight="400" font-size="83" transform="matrix(1 0 0 1 2243.01 569)">DMA_HandleTypeDef<tspan font-size="83" x="-66.4353" y="99">handle_GPDMA_channel</tspan></text><rect x="1940" y="744" width="1403" height="260" fill="#03234B"/><text fill="#FFFFFF" font-family="Arial,Arial_MSFontService,sans-serif" font-weight="400" font-size="83" transform="matrix(1 0 0 1 2188.02 855)">DMA_NodeConfTypeDef<tspan font-size="83" x="116.898" y="99">nodeConfiguration</tspan></text><rect x="329" y="744" width="1403" height="156" fill="#03234B"/><text fill="#FFFFFF" font-family="Arial,Arial_MSFontService,sans-serif" font-weight="400" font-size="83" transform="matrix(1 0 0 1 487.454 852)">HAL_DMAEx_List_BuildNode</text><rect x="1940" y="1030" width="1403" height="259" fill="#03234B"/><text fill="#FFFFFF" font-family="Arial,Arial_MSFontService,sans-serif" font-weight="400" font-size="83" transform="matrix(1 0 0 1 2275.1 1141)">DMA_NodeTypeDef<tspan font-size="83" x="263.565" y="99">name</tspan></text><rect x="3707" y="1011" width="572" height="1110" fill="#49B170" fill-opacity="0.501961"/><rect x="3733.5" y="1315.5" width="520" height="130" stroke="#2983A9" stroke-width="4.58333" stroke-miterlimit="8" fill="#3CB4E6"/><text fill="#FFFFFF" font-family="Arial,Arial_MSFontService,sans-serif" font-weight="400" font-size="83" transform="matrix(1 0 0 1 3912.9 1411)">BR1</text><rect x="3733.5" y="1056.5" width="520" height="130" stroke="#2983A9" stroke-width="4.58333" stroke-miterlimit="8" fill="#3CB4E6"/><text fill="#FFFFFF" font-family="Arial,Arial_MSFontService,sans-serif" font-weight="400" font-size="83" transform="matrix(1 0 0 1 3915.2 1151)">TR1</text><rect x="3733.5" y="1186.5" width="520" height="129" stroke="#2983A9" stroke-width="4.58333" stroke-miterlimit="8" fill="#3CB4E6"/><text fill="#FFFFFF" font-family="Arial,Arial_MSFontService,sans-serif" font-weight="400" font-size="83" transform="matrix(1 0 0 1 3915.2 1281)">TR2</text><rect x="3733.5" y="1445.5" width="520" height="130" stroke="#2983A9" stroke-width="4.58333" stroke-miterlimit="8" fill="#3CB4E6"/><text fill="#FFFFFF" font-family="Arial,Arial_MSFontService,sans-serif" font-weight="400" font-size="83" transform="matrix(1 0 0 1 3908.32 1541)">SAR</text><rect x="3733.5" y="1575.5" width="520" height="130" stroke="#2983A9" stroke-width="4.58333" stroke-miterlimit="8" fill="#3CB4E6"/><text fill="#FFFFFF" font-family="Arial,Arial_MSFontService,sans-serif" font-weight="400" font-size="83" transform="matrix(1 0 0 1 3906.03 1671)">DAR</text><rect x="3733" y="1705" width="520" height="130" fill="#3CB4E6" fill-opacity="0.501961"/><text fill="#FFFFFF" font-family="Arial,Arial_MSFontService,sans-serif" font-weight="400" font-size="83" transform="matrix(1 0 0 1 3915.2 1801)">TR3</text><rect x="3733" y="1835" width="520" height="130" fill="#3CB4E6" fill-opacity="0.501961"/><text fill="#FFFFFF" font-family="Arial,Arial_MSFontService,sans-serif" font-weight="400" font-size="83" transform="matrix(1 0 0 1 3912.9 1931)">BR2</text><rect x="3733.5" y="1965.5" width="520" height="130" stroke="#2983A9" stroke-width="4.58333" stroke-miterlimit="8" fill="#3CB4E6"/><text fill="#FFFFFF" font-family="Arial,Arial_MSFontService,sans-serif" font-weight="400" font-size="83" transform="matrix(1 0 0 1 3917.49 2061)">LLR</text></g></svg>