<svg width="3017" height="1925" xmlns="http://www.w3.org/2000/svg" xmlns:xlink="http://www.w3.org/1999/xlink" overflow="hidden"><defs><clipPath id="clip0"><rect x="277" y="456" width="3017" height="1925"/></clipPath></defs><g clip-path="url(#clip0)" transform="translate(-277 -456)"><rect x="511" y="1056" width="2391" height="1325" fill="#8C0078" fill-opacity="0.501961"/><rect x="1888.5" y="458.5" width="1403" height="260" stroke="#BC9A00" stroke-width="4.58333" stroke-miterlimit="8" fill="#FFD200"/><text fill="#FFFFFF" font-family="Arial,Arial_MSFontService,sans-serif" font-weight="400" font-size="83" transform="matrix(1 0 0 1 2223.13 569)">DMA_NodeTypeDef<tspan font-size="83" x="263.565" y="99">name</tspan></text><rect x="277" y="458" width="1403" height="156" fill="#03234B"/><text fill="#FFFFFF" font-family="Arial,Arial_MSFontService,sans-serif" font-weight="400" font-size="83" transform="matrix(1 0 0 1 339.218 566)">HAL_DMAEx_List_InsertNode_Tail</text><rect x="1888.5" y="744.5" width="1403" height="260" stroke="#650056" stroke-width="4.58333" stroke-miterlimit="8" fill="#8C0078"/><text fill="#FFFFFF" font-family="Arial,Arial_MSFontService,sans-serif" font-weight="400" font-size="83" transform="matrix(1 0 0 1 2225.42 855)">DMA_QListTypeDef<tspan font-size="83" x="139.815" y="99">queueName</tspan></text><rect x="641.5" y="1167.5" width="571" height="1110" stroke="#338150" stroke-width="4.58333" stroke-miterlimit="8" fill="#49B170"/><rect x="667.5" y="1471.5" width="520" height="130" stroke="#2983A9" stroke-width="4.58333" stroke-miterlimit="8" fill="#3CB4E6"/><text fill="#FFFFFF" font-family="Arial,Arial_MSFontService,sans-serif" font-weight="400" font-size="83" transform="matrix(1 0 0 1 846.422 1567)">BR1</text><rect x="667.5" y="1212.5" width="520" height="129" stroke="#2983A9" stroke-width="4.58333" stroke-miterlimit="8" fill="#3CB4E6"/><text fill="#FFFFFF" font-family="Arial,Arial_MSFontService,sans-serif" font-weight="400" font-size="83" transform="matrix(1 0 0 1 848.713 1307)">TR1</text><rect x="667.5" y="1341.5" width="520" height="130" stroke="#2983A9" stroke-width="4.58333" stroke-miterlimit="8" fill="#3CB4E6"/><text fill="#FFFFFF" font-family="Arial,Arial_MSFontService,sans-serif" font-weight="400" font-size="83" transform="matrix(1 0 0 1 848.713 1437)">TR2</text><rect x="667.5" y="1601.5" width="520" height="130" stroke="#2983A9" stroke-width="4.58333" stroke-miterlimit="8" fill="#3CB4E6"/><text fill="#FFFFFF" font-family="Arial,Arial_MSFontService,sans-serif" font-weight="400" font-size="83" transform="matrix(1 0 0 1 841.838 1697)">SAR</text><rect x="667.5" y="1731.5" width="520" height="130" stroke="#2983A9" stroke-width="4.58333" stroke-miterlimit="8" fill="#3CB4E6"/><text fill="#FFFFFF" font-family="Arial,Arial_MSFontService,sans-serif" font-weight="400" font-size="83" transform="matrix(1 0 0 1 839.547 1827)">DAR</text><rect x="667" y="1861" width="520" height="130" fill="#3CB4E6" fill-opacity="0.501961"/><text fill="#FFFFFF" font-family="Arial,Arial_MSFontService,sans-serif" font-weight="400" font-size="83" transform="matrix(1 0 0 1 848.713 1957)">TR3</text><rect x="667" y="1991" width="520" height="130" fill="#3CB4E6" fill-opacity="0.501961"/><text fill="#FFFFFF" font-family="Arial,Arial_MSFontService,sans-serif" font-weight="400" font-size="83" transform="matrix(1 0 0 1 846.422 2087)">BR2</text><rect x="667.5" y="2121.5" width="520" height="130" stroke="#2983A9" stroke-width="4.58333" stroke-miterlimit="8" fill="#3CB4E6"/><text fill="#FFFFFF" font-family="Arial,Arial_MSFontService,sans-serif" font-weight="400" font-size="83" transform="matrix(1 0 0 1 851.005 2217)">LLR</text><path d="M1.19344e-05-6.875 173.522-6.8747C177.319-6.87469 180.397-3.79664 180.397 0.000313155 180.397 3.79727 177.319 6.87531 173.522 6.8753L-1.19344e-05 6.875C-3.79697 6.87499-6.87501 3.79695-6.875-1.19344e-05-6.87499-3.79697-3.79695-6.87501 1.19344e-05-6.875ZM166.647-20.6247 207.897 0.000360892 166.647 20.6253Z" fill="#E6007E" transform="matrix(-1 0 0 1 1887.9 536)"/><path d="M1576 867.125 1853.47 867.125C1857.27 867.125 1860.35 870.204 1860.35 874 1860.35 877.797 1857.27 880.875 1853.47 880.875L1576 880.875C1572.2 880.875 1569.13 877.797 1569.13 874 1569.13 870.203 1572.2 867.125 1576 867.125ZM1846.6 853.375 1887.85 874.001 1846.6 894.625Z" fill="#E6007E"/><path d="M0 0 0.000360892 259.871" stroke="#E6007E" stroke-width="13.75" stroke-linecap="round" stroke-miterlimit="8" fill="none" fill-rule="evenodd" transform="matrix(1 0 0 -1 1576 873.871)"/><rect x="1420.5" y="1167.5" width="572" height="1110" stroke="#338150" stroke-width="4.58333" stroke-miterlimit="8" fill="#49B170"/><rect x="1446.5" y="1471.5" width="520" height="130" stroke="#2983A9" stroke-width="4.58333" stroke-miterlimit="8" fill="#3CB4E6"/><text fill="#FFFFFF" font-family="Arial,Arial_MSFontService,sans-serif" font-weight="400" font-size="83" transform="matrix(1 0 0 1 1626.04 1567)">BR1</text><rect x="1446.5" y="1212.5" width="520" height="129" stroke="#2983A9" stroke-width="4.58333" stroke-miterlimit="8" fill="#3CB4E6"/><text fill="#FFFFFF" font-family="Arial,Arial_MSFontService,sans-serif" font-weight="400" font-size="83" transform="matrix(1 0 0 1 1628.33 1307)">TR1</text><rect x="1446.5" y="1341.5" width="520" height="130" stroke="#2983A9" stroke-width="4.58333" stroke-miterlimit="8" fill="#3CB4E6"/><text fill="#FFFFFF" font-family="Arial,Arial_MSFontService,sans-serif" font-weight="400" font-size="83" transform="matrix(1 0 0 1 1628.33 1437)">TR2</text><rect x="1446.5" y="1601.5" width="520" height="130" stroke="#2983A9" stroke-width="4.58333" stroke-miterlimit="8" fill="#3CB4E6"/><text fill="#FFFFFF" font-family="Arial,Arial_MSFontService,sans-serif" font-weight="400" font-size="83" transform="matrix(1 0 0 1 1621.45 1697)">SAR</text><rect x="1446.5" y="1731.5" width="520" height="130" stroke="#2983A9" stroke-width="4.58333" stroke-miterlimit="8" fill="#3CB4E6"/><text fill="#FFFFFF" font-family="Arial,Arial_MSFontService,sans-serif" font-weight="400" font-size="83" transform="matrix(1 0 0 1 1619.16 1827)">DAR</text><rect x="1446" y="1861" width="520" height="130" fill="#3CB4E6" fill-opacity="0.501961"/><text fill="#FFFFFF" font-family="Arial,Arial_MSFontService,sans-serif" font-weight="400" font-size="83" transform="matrix(1 0 0 1 1628.33 1957)">TR3</text><rect x="1446" y="1991" width="520" height="130" fill="#3CB4E6" fill-opacity="0.501961"/><text fill="#FFFFFF" font-family="Arial,Arial_MSFontService,sans-serif" font-weight="400" font-size="83" transform="matrix(1 0 0 1 1626.04 2087)">BR2</text><rect x="1446.5" y="2121.5" width="520" height="130" stroke="#2983A9" stroke-width="4.58333" stroke-miterlimit="8" fill="#3CB4E6"/><text fill="#FFFFFF" font-family="Arial,Arial_MSFontService,sans-serif" font-weight="400" font-size="83" transform="matrix(1 0 0 1 1630.62 2217)">LLR</text><rect x="2200.5" y="1167.5" width="572" height="1110" stroke="#BC9A00" stroke-width="4.58333" stroke-miterlimit="8" fill="#FFD200"/><rect x="2226.5" y="1471.5" width="520" height="130" stroke="#2983A9" stroke-width="4.58333" stroke-miterlimit="8" fill="#3CB4E6"/><text fill="#FFFFFF" font-family="Arial,Arial_MSFontService,sans-serif" font-weight="400" font-size="83" transform="matrix(1 0 0 1 2405.65 1567)">BR1</text><rect x="2226.5" y="1212.5" width="520" height="129" stroke="#2983A9" stroke-width="4.58333" stroke-miterlimit="8" fill="#3CB4E6"/><text fill="#FFFFFF" font-family="Arial,Arial_MSFontService,sans-serif" font-weight="400" font-size="83" transform="matrix(1 0 0 1 2407.94 1307)">TR1</text><rect x="2226.5" y="1341.5" width="520" height="130" stroke="#2983A9" stroke-width="4.58333" stroke-miterlimit="8" fill="#3CB4E6"/><text fill="#FFFFFF" font-family="Arial,Arial_MSFontService,sans-serif" font-weight="400" font-size="83" transform="matrix(1 0 0 1 2407.94 1437)">TR2</text><rect x="2226.5" y="1601.5" width="520" height="130" stroke="#2983A9" stroke-width="4.58333" stroke-miterlimit="8" fill="#3CB4E6"/><text fill="#FFFFFF" font-family="Arial,Arial_MSFontService,sans-serif" font-weight="400" font-size="83" transform="matrix(1 0 0 1 2401.07 1697)">SAR</text><rect x="2226.5" y="1731.5" width="520" height="130" stroke="#2983A9" stroke-width="4.58333" stroke-miterlimit="8" fill="#3CB4E6"/><text fill="#FFFFFF" font-family="Arial,Arial_MSFontService,sans-serif" font-weight="400" font-size="83" transform="matrix(1 0 0 1 2398.77 1827)">DAR</text><rect x="2226" y="1861" width="520" height="130" fill="#3CB4E6" fill-opacity="0.501961"/><text fill="#FFFFFF" font-family="Arial,Arial_MSFontService,sans-serif" font-weight="400" font-size="83" transform="matrix(1 0 0 1 2407.94 1957)">TR3</text><rect x="2226" y="1991" width="520" height="130" fill="#3CB4E6" fill-opacity="0.501961"/><text fill="#FFFFFF" font-family="Arial,Arial_MSFontService,sans-serif" font-weight="400" font-size="83" transform="matrix(1 0 0 1 2405.65 2087)">BR2</text><rect x="2226.5" y="2121.5" width="520" height="130" stroke="#2983A9" stroke-width="4.58333" stroke-miterlimit="8" fill="#3CB4E6"/><text fill="#FFFFFF" font-family="Arial,Arial_MSFontService,sans-serif" font-weight="400" font-size="83" transform="matrix(1 0 0 1 2410.23 2217)">LLR</text><path d="M1187 2199 1264.96 2199" stroke="#E6007E" stroke-width="13.75" stroke-linecap="round" stroke-miterlimit="8" fill="none" fill-rule="evenodd"/><path d="M0 0 0.000360892 987.511" stroke="#E6007E" stroke-width="13.75" stroke-linecap="round" stroke-miterlimit="8" fill="none" fill-rule="evenodd" transform="matrix(1 0 0 -1 1264 2199.51)"/><path d="M1264 1205.13 1411.54 1205.13C1415.33 1205.13 1418.41 1208.2 1418.41 1212 1418.41 1215.8 1415.33 1218.88 1411.54 1218.88L1264 1218.88C1260.2 1218.88 1257.12 1215.8 1257.12 1212 1257.12 1208.2 1260.2 1205.13 1264 1205.13ZM1404.66 1191.38 1445.91 1212 1404.66 1232.63Z" fill="#E6007E"/><path d="M1966 2199 2043.96 2199" stroke="#E6007E" stroke-width="13.75" stroke-linecap="round" stroke-miterlimit="8" fill="none" fill-rule="evenodd"/><path d="M0 0 0.000360892 987.511" stroke="#E6007E" stroke-width="13.75" stroke-linecap="round" stroke-miterlimit="8" fill="none" fill-rule="evenodd" transform="matrix(1 0 0 -1 2044 2199.51)"/><path d="M2044 1205.13 2191.53 1205.13C2195.33 1205.13 2198.41 1208.2 2198.41 1212 2198.41 1215.8 2195.33 1218.88 2191.53 1218.88L2044 1218.88C2040.2 1218.88 2037.12 1215.8 2037.12 1212 2037.12 1208.2 2040.2 1205.13 2044 1205.13ZM2184.66 1191.38 2225.91 1212 2184.66 1232.63Z" fill="#E6007E"/></g></svg>