<svg width="3435" height="2029" xmlns="http://www.w3.org/2000/svg" xmlns:xlink="http://www.w3.org/1999/xlink" overflow="hidden"><defs><clipPath id="clip0"><rect x="119" y="352" width="3435" height="2029"/></clipPath></defs><g clip-path="url(#clip0)" transform="translate(-119 -352)"><rect x="2148.5" y="666.5" width="1403" height="260" stroke="#BC9A00" stroke-width="4.58333" stroke-miterlimit="8" fill="#FFD200"/><text fill="#FFFFFF" font-family="Arial,Arial_MSFontService,sans-serif" font-weight="400" font-size="83" transform="matrix(1 0 0 1 2483 777)">DMA_NodeTypeDef<tspan font-size="83" x="263.564" y="99">name</tspan></text><rect x="2148.5" y="354.5" width="1403" height="260" stroke="#650056" stroke-width="4.58333" stroke-miterlimit="8" fill="#8C0078"/><text fill="#FFFFFF" font-family="Arial,Arial_MSFontService,sans-serif" font-weight="400" font-size="83" transform="matrix(1 0 0 1 2485.29 465)">DMA_QListTypeDef<tspan font-size="83" x="139.815" y="99">queueName</tspan></text><rect x="511" y="1056" width="2391" height="1325" fill="#8C0078" fill-opacity="0.501961"/><rect x="641" y="1167" width="571" height="1110" fill="#03234B" fill-opacity="0.501961"/><rect x="667.5" y="1471.5" width="520" height="130" stroke="#2983A9" stroke-width="4.58333" stroke-miterlimit="8" fill="#3CB4E6"/><text fill="#FFFFFF" font-family="Arial,Arial_MSFontService,sans-serif" font-weight="400" font-size="83" transform="matrix(1 0 0 1 846.422 1567)">BR1</text><rect x="667.5" y="1212.5" width="520" height="129" stroke="#2983A9" stroke-width="4.58333" stroke-miterlimit="8" fill="#3CB4E6"/><text fill="#FFFFFF" font-family="Arial,Arial_MSFontService,sans-serif" font-weight="400" font-size="83" transform="matrix(1 0 0 1 848.713 1307)">TR1</text><rect x="667.5" y="1341.5" width="520" height="130" stroke="#2983A9" stroke-width="4.58333" stroke-miterlimit="8" fill="#3CB4E6"/><text fill="#FFFFFF" font-family="Arial,Arial_MSFontService,sans-serif" font-weight="400" font-size="83" transform="matrix(1 0 0 1 848.713 1437)">TR2</text><rect x="667.5" y="1601.5" width="520" height="130" stroke="#2983A9" stroke-width="4.58333" stroke-miterlimit="8" fill="#3CB4E6"/><text fill="#FFFFFF" font-family="Arial,Arial_MSFontService,sans-serif" font-weight="400" font-size="83" transform="matrix(1 0 0 1 841.838 1697)">SAR</text><rect x="667.5" y="1731.5" width="520" height="130" stroke="#2983A9" stroke-width="4.58333" stroke-miterlimit="8" fill="#3CB4E6"/><text fill="#FFFFFF" font-family="Arial,Arial_MSFontService,sans-serif" font-weight="400" font-size="83" transform="matrix(1 0 0 1 839.547 1827)">DAR</text><rect x="667" y="1861" width="520" height="130" fill="#3CB4E6" fill-opacity="0.501961"/><text fill="#FFFFFF" font-family="Arial,Arial_MSFontService,sans-serif" font-weight="400" font-size="83" transform="matrix(1 0 0 1 848.713 1957)">TR3</text><rect x="667" y="1991" width="520" height="130" fill="#3CB4E6" fill-opacity="0.501961"/><text fill="#FFFFFF" font-family="Arial,Arial_MSFontService,sans-serif" font-weight="400" font-size="83" transform="matrix(1 0 0 1 846.422 2087)">BR2</text><rect x="667.5" y="2121.5" width="520" height="130" stroke="#2983A9" stroke-width="4.58333" stroke-miterlimit="8" fill="#3CB4E6"/><text fill="#FFFFFF" font-family="Arial,Arial_MSFontService,sans-serif" font-weight="400" font-size="83" transform="matrix(1 0 0 1 851.005 2217)">LLR</text><rect x="1420.5" y="1167.5" width="572" height="1110" stroke="#BC9A00" stroke-width="4.58333" stroke-miterlimit="8" fill="#FFD200"/><rect x="1446.5" y="1471.5" width="520" height="130" stroke="#2983A9" stroke-width="4.58333" stroke-miterlimit="8" fill="#3CB4E6"/><text fill="#FFFFFF" font-family="Arial,Arial_MSFontService,sans-serif" font-weight="400" font-size="83" transform="matrix(1 0 0 1 1626.04 1567)">BR1</text><rect x="1446.5" y="1212.5" width="520" height="129" stroke="#2983A9" stroke-width="4.58333" stroke-miterlimit="8" fill="#3CB4E6"/><text fill="#FFFFFF" font-family="Arial,Arial_MSFontService,sans-serif" font-weight="400" font-size="83" transform="matrix(1 0 0 1 1628.33 1307)">TR1</text><rect x="1446.5" y="1341.5" width="520" height="130" stroke="#2983A9" stroke-width="4.58333" stroke-miterlimit="8" fill="#3CB4E6"/><text fill="#FFFFFF" font-family="Arial,Arial_MSFontService,sans-serif" font-weight="400" font-size="83" transform="matrix(1 0 0 1 1628.33 1437)">TR2</text><rect x="1446.5" y="1601.5" width="520" height="130" stroke="#2983A9" stroke-width="4.58333" stroke-miterlimit="8" fill="#3CB4E6"/><text fill="#FFFFFF" font-family="Arial,Arial_MSFontService,sans-serif" font-weight="400" font-size="83" transform="matrix(1 0 0 1 1621.45 1697)">SAR</text><rect x="1446.5" y="1731.5" width="520" height="130" stroke="#2983A9" stroke-width="4.58333" stroke-miterlimit="8" fill="#3CB4E6"/><text fill="#FFFFFF" font-family="Arial,Arial_MSFontService,sans-serif" font-weight="400" font-size="83" transform="matrix(1 0 0 1 1619.16 1827)">DAR</text><rect x="1446" y="1861" width="520" height="130" fill="#3CB4E6" fill-opacity="0.501961"/><text fill="#FFFFFF" font-family="Arial,Arial_MSFontService,sans-serif" font-weight="400" font-size="83" transform="matrix(1 0 0 1 1628.33 1957)">TR3</text><rect x="1446" y="1991" width="520" height="130" fill="#3CB4E6" fill-opacity="0.501961"/><text fill="#FFFFFF" font-family="Arial,Arial_MSFontService,sans-serif" font-weight="400" font-size="83" transform="matrix(1 0 0 1 1626.04 2087)">BR2</text><rect x="1446.5" y="2121.5" width="520" height="130" stroke="#2983A9" stroke-width="4.58333" stroke-miterlimit="8" fill="#3CB4E6"/><text fill="#FFFFFF" font-family="Arial,Arial_MSFontService,sans-serif" font-weight="400" font-size="83" transform="matrix(1 0 0 1 1630.62 2217)">LLR</text><rect x="2200" y="1167" width="572" height="1110" fill="#03234B" fill-opacity="0.501961"/><rect x="2226.5" y="1471.5" width="520" height="130" stroke="#2983A9" stroke-width="4.58333" stroke-miterlimit="8" fill="#3CB4E6"/><text fill="#FFFFFF" font-family="Arial,Arial_MSFontService,sans-serif" font-weight="400" font-size="83" transform="matrix(1 0 0 1 2405.65 1567)">BR1</text><rect x="2226.5" y="1212.5" width="520" height="129" stroke="#2983A9" stroke-width="4.58333" stroke-miterlimit="8" fill="#3CB4E6"/><text fill="#FFFFFF" font-family="Arial,Arial_MSFontService,sans-serif" font-weight="400" font-size="83" transform="matrix(1 0 0 1 2407.94 1307)">TR1</text><rect x="2226.5" y="1341.5" width="520" height="130" stroke="#2983A9" stroke-width="4.58333" stroke-miterlimit="8" fill="#3CB4E6"/><text fill="#FFFFFF" font-family="Arial,Arial_MSFontService,sans-serif" font-weight="400" font-size="83" transform="matrix(1 0 0 1 2407.94 1437)">TR2</text><rect x="2226.5" y="1601.5" width="520" height="130" stroke="#2983A9" stroke-width="4.58333" stroke-miterlimit="8" fill="#3CB4E6"/><text fill="#FFFFFF" font-family="Arial,Arial_MSFontService,sans-serif" font-weight="400" font-size="83" transform="matrix(1 0 0 1 2401.07 1697)">SAR</text><rect x="2226.5" y="1731.5" width="520" height="130" stroke="#2983A9" stroke-width="4.58333" stroke-miterlimit="8" fill="#3CB4E6"/><text fill="#FFFFFF" font-family="Arial,Arial_MSFontService,sans-serif" font-weight="400" font-size="83" transform="matrix(1 0 0 1 2398.77 1827)">DAR</text><rect x="2226" y="1861" width="520" height="130" fill="#3CB4E6" fill-opacity="0.501961"/><text fill="#FFFFFF" font-family="Arial,Arial_MSFontService,sans-serif" font-weight="400" font-size="83" transform="matrix(1 0 0 1 2407.94 1957)">TR3</text><rect x="2226" y="1991" width="520" height="130" fill="#3CB4E6" fill-opacity="0.501961"/><text fill="#FFFFFF" font-family="Arial,Arial_MSFontService,sans-serif" font-weight="400" font-size="83" transform="matrix(1 0 0 1 2405.65 2087)">BR2</text><rect x="2226.5" y="2121.5" width="520" height="130" stroke="#2983A9" stroke-width="4.58333" stroke-miterlimit="8" fill="#3CB4E6"/><text fill="#FFFFFF" font-family="Arial,Arial_MSFontService,sans-serif" font-weight="400" font-size="83" transform="matrix(1 0 0 1 2410.23 2217)">LLR</text><path d="M1187 2199 1264.96 2199" stroke="#E6007E" stroke-width="13.75" stroke-linecap="round" stroke-miterlimit="8" fill="none" fill-rule="evenodd"/><path d="M0 0 0.000360892 987.511" stroke="#E6007E" stroke-width="13.75" stroke-linecap="round" stroke-miterlimit="8" fill="none" fill-rule="evenodd" transform="matrix(1 0 0 -1 1264 2199.51)"/><path d="M1264 1205.13 1411.54 1205.13C1415.33 1205.13 1418.41 1208.2 1418.41 1212 1418.41 1215.8 1415.33 1218.88 1411.54 1218.88L1264 1218.88C1260.2 1218.88 1257.12 1215.8 1257.12 1212 1257.12 1208.2 1260.2 1205.13 1264 1205.13ZM1404.66 1191.38 1445.91 1212 1404.66 1232.63Z" fill="#E6007E"/><path d="M1966 2199 2043.96 2199" stroke="#E6007E" stroke-width="13.75" stroke-linecap="round" stroke-miterlimit="8" fill="none" fill-rule="evenodd"/><path d="M0 0 0.000360892 987.511" stroke="#E6007E" stroke-width="13.75" stroke-linecap="round" stroke-miterlimit="8" fill="none" fill-rule="evenodd" transform="matrix(1 0 0 -1 2044 2199.51)"/><path d="M2044 1205.13 2191.53 1205.13C2195.33 1205.13 2198.41 1208.2 2198.41 1212 2198.41 1215.8 2195.33 1218.88 2191.53 1218.88L2044 1218.88C2040.2 1218.88 2037.12 1215.8 2037.12 1212 2037.12 1208.2 2040.2 1205.13 2044 1205.13ZM2184.66 1191.38 2225.91 1212 2184.66 1232.63Z" fill="#E6007E"/><path d="M1.19344e-05-6.875 173.522-6.8747C177.319-6.87469 180.397-3.79664 180.397 0.000313155 180.397 3.79727 177.319 6.87531 173.522 6.8753L-1.19344e-05 6.875C-3.79697 6.87499-6.87501 3.79695-6.875-1.19344e-05-6.87499-3.79697-3.79695-6.87501 1.19344e-05-6.875ZM166.647-20.6247 207.897 0.000360892 166.647 20.6253Z" fill="#E6007E" transform="matrix(-1 0 0 1 2147.9 432)"/><path d="M1836 763.125 2113.47 763.125C2117.27 763.125 2120.35 766.203 2120.35 770 2120.35 773.797 2117.27 776.875 2113.47 776.875L1836 776.875C1832.2 776.875 1829.12 773.797 1829.12 770 1829.12 766.203 1832.2 763.125 1836 763.125ZM2106.6 749.375 2147.85 770 2106.6 790.625Z" fill="#E6007E"/><path d="M0 0 0.000360892 259.871" stroke="#E6007E" stroke-width="13.75" stroke-linecap="round" stroke-miterlimit="8" fill="none" fill-rule="evenodd" transform="matrix(1 0 0 -1 1836 769.872)"/><path d="M2746 2225 3005.87 2225" stroke="#49B170" stroke-width="13.75" stroke-linecap="round" stroke-miterlimit="8" fill="none" fill-rule="evenodd"/><path d="M0 0 0.000360892 1247.38" stroke="#49B170" stroke-width="13.75" stroke-linecap="round" stroke-miterlimit="8" fill="none" fill-rule="evenodd" transform="matrix(1 0 0 -1 3006 2225.38)"/><path d="M0 0 1559.23 0.000360892" stroke="#49B170" stroke-width="13.75" stroke-linecap="round" stroke-miterlimit="8" fill="none" fill-rule="evenodd" transform="matrix(-1 0 0 1 3005.23 978)"/><path d="M1452.88 978 1452.88 1177.51C1452.88 1181.31 1449.8 1184.38 1446 1184.38 1442.2 1184.38 1439.13 1181.31 1439.13 1177.51L1439.13 978C1439.13 974.203 1442.2 971.125 1446 971.125 1449.8 971.125 1452.88 974.203 1452.88 978ZM1466.63 1170.63 1446 1211.88 1425.38 1170.63Z" fill="#49B170"/><rect x="121.5" y="354.5" width="1819" height="156" stroke="#338150" stroke-width="4.58333" stroke-miterlimit="8" fill="#49B170"/><text fill="#FFFFFF" font-family="Arial,Arial_MSFontService,sans-serif" font-weight="400" font-size="83" transform="matrix(1 0 0 1 251.412 462)">HAL_DMAEx_List_SetCircularModeConfig</text></g></svg>