<svg width="2965" height="879" xmlns="http://www.w3.org/2000/svg" xmlns:xlink="http://www.w3.org/1999/xlink" overflow="hidden"><defs><clipPath id="clip0"><rect x="381" y="456" width="2965" height="879"/></clipPath></defs><g clip-path="url(#clip0)" transform="translate(-381 -456)"><rect x="1940.5" y="458.5" width="1403" height="260" stroke="#650056" stroke-width="4.58333" stroke-miterlimit="8" fill="#8C0078"/><text fill="#FFFFFF" font-family="Arial,Arial_MSFontService,sans-serif" font-weight="400" font-size="83" transform="matrix(1 0 0 1 2277.39 569)">DMA_QListTypeDef<tspan font-size="83" x="139.814" y="99">queueName</tspan></text><rect x="381" y="796" width="1403" height="156" fill="#03234B"/><text fill="#FFFFFF" font-family="Arial,Arial_MSFontService,sans-serif" font-weight="400" font-size="83" transform="matrix(1 0 0 1 621.928 904)">HAL_DMAEx_List_LinkQ</text><rect x="381" y="1108" width="1403" height="155" fill="#03234B"/><text fill="#FFFFFF" font-family="Arial,Arial_MSFontService,sans-serif" font-weight="400" font-size="83" transform="matrix(1 0 0 1 642.553 1216)">HAL_DMAEx_List_Start</text><rect x="1940.5" y="1056.5" width="1403" height="259" stroke="#2983A9" stroke-width="4.58333" stroke-miterlimit="8" fill="#3CB4E6"/><text fill="#FFFFFF" font-family="Arial,Arial_MSFontService,sans-serif" font-weight="400" font-size="83" transform="matrix(1 0 0 1 2243.01 1167)">DMA_HandleTypeDef<tspan font-size="83" x="-66.4353" y="99">handle_GPDMA_channel</tspan></text><rect x="1940.5" y="744.5" width="1403" height="260" stroke="#2983A9" stroke-width="4.58333" stroke-miterlimit="8" fill="#3CB4E6"/><text fill="#FFFFFF" font-family="Arial,Arial_MSFontService,sans-serif" font-weight="400" font-size="83" transform="matrix(1 0 0 1 2243.01 855)">DMA_HandleTypeDef<tspan font-size="83" x="-66.4353" y="99">handle_GPDMA_channel</tspan></text><path d="M1818.38 867.125 1905.55 867.125C1909.34 867.125 1912.42 870.204 1912.42 874 1912.42 877.797 1909.34 880.875 1905.55 880.875L1818.38 880.875C1814.58 880.875 1811.5 877.797 1811.5 874 1811.5 870.203 1814.58 867.125 1818.38 867.125ZM1825.25 894.625 1784 874 1825.25 853.375ZM1898.67 853.375 1939.92 874.001 1898.67 894.625Z" fill="#E6007E"/><path d="M0 0 259.871 0.000360892" stroke="#E6007E" stroke-width="13.75" stroke-linecap="round" stroke-miterlimit="8" fill="none" fill-rule="evenodd" transform="matrix(-1 0 0 1 1939.87 588)"/><path d="M1686.87 588 1686.88 761.522C1686.88 765.319 1683.8 768.397 1680 768.397 1676.2 768.397 1673.13 765.319 1673.13 761.522L1673.12 588C1673.12 584.203 1676.2 581.125 1680 581.125 1683.8 581.125 1686.87 584.203 1686.87 588ZM1700.63 754.647 1680 795.897 1659.38 754.647Z" fill="#E6007E"/><path d="M34.375-6.87492 121.548-6.87472C125.345-6.87471 128.423-3.79666 128.423 0.000297242 128.423 3.79726 125.345 6.87529 121.548 6.87528L34.375 6.87508C30.578 6.87507 27.5 3.79702 27.5 6.36503e-05 27.5-3.79689 30.5781-6.87493 34.375-6.87492ZM41.25 20.6251 0 0 41.25-20.6249ZM114.673-20.6247 155.923 0.000360892 114.673 20.6253Z" fill="#E6007E" transform="matrix(-1 0 0 1 1939.92 1186)"/></g></svg>