<svg width="1280" height="720" xmlns="http://www.w3.org/2000/svg" xmlns:xlink="http://www.w3.org/1999/xlink" overflow="hidden"><defs><clipPath id="clip0"><rect x="0" y="0" width="1280" height="720"/></clipPath></defs><g clip-path="url(#clip0)"><rect x="0" y="0" width="1280" height="720" fill="#FFFFFF"/><rect x="285" y="315" width="181" height="234" fill="#03234B" fill-opacity="0.501961"/><text fill="#FFFFFF" font-family="Arial,Arial_MSFontService,sans-serif" font-weight="400" font-size="24" transform="translate(337.404 342)">Source <tspan font-size="24" x="-5.33334" y="29">memory</tspan></text><rect x="814" y="315" width="181" height="234" fill="#03234B" fill-opacity="0.501961"/><text fill="#FFFFFF" font-family="Arial,Arial_MSFontService,sans-serif" font-weight="400" font-size="24" transform="translate(844.596 342)">Destination <tspan font-size="24" x="16.6667" y="29">memory</tspan></text><rect x="829.5" y="383.5" width="151" height="37" stroke="#2983A9" stroke-width="1.33333" stroke-miterlimit="8" fill="#3CB4E6"/><text fill="#FFFFFF" font-family="Arial,Arial_MSFontService,sans-serif" font-weight="400" font-size="24" transform="translate(897.93 410)">a</text><rect x="527" y="315" width="226" height="121" fill="#03234B"/><text fill="#FFFFFF" font-family="Arial,Arial_MSFontService,sans-serif" font-weight="400" font-size="24" transform="translate(580.663 342)">GPDMA <tspan font-size="24" x="93.34" y="0">ch</tspan></text><path d="M716.632 400.103 820.544 434.74C821.592 435.089 822.158 436.222 821.809 437.27 821.46 438.318 820.327 438.884 819.279 438.535L715.368 403.897C714.32 403.548 713.753 402.415 714.103 401.368 714.452 400.32 715.585 399.753 716.632 400.103ZM819.912 430.313 829.398 439.799 816.117 441.697Z" fill="#E6007E"/><rect x="564.5" y="383.5" width="152" height="37" stroke="#2983A9" stroke-width="1.33333" stroke-miterlimit="8" fill="#3CB4E6"/><text fill="#FFFFFF" font-family="Arial,Arial_MSFontService,sans-serif" font-weight="400" font-size="24" transform="translate(596.667 410)">2BDTR)</text><rect x="829.5" y="420.5" width="151" height="38" stroke="#2983A9" stroke-width="1.33333" stroke-miterlimit="8" fill="#3CB4E6"/><text fill="#FFFFFF" font-family="Arial,Arial_MSFontService,sans-serif" font-weight="400" font-size="24" transform="translate(897.93 448)">b</text><path d="M0.632455-1.89737 104.544 32.7398C105.592 33.0891 106.158 34.2217 105.809 35.2696 105.46 36.3175 104.327 36.8838 103.279 36.5345L-0.632455 1.89737C-1.68034 1.54807-2.24666 0.415431-1.89737-0.632455-1.54807-1.68034-0.415431-2.24666 0.632455-1.89737ZM103.912 28.3126 113.398 37.7995 100.117 39.6968Z" fill="#E6007E" transform="matrix(1 0 0 -1 451 439.799)"/><rect x="300.5" y="383.5" width="151" height="37" stroke="#2983A9" stroke-width="1.33333" stroke-miterlimit="8" fill="#3CB4E6"/><text fill="#FFFFFF" font-family="Arial,Arial_MSFontService,sans-serif" font-weight="400" font-size="24" transform="translate(368.737 410)">a</text><rect x="300.5" y="420.5" width="151" height="38" stroke="#2983A9" stroke-width="1.33333" stroke-miterlimit="8" fill="#3CB4E6"/><text fill="#FFFFFF" font-family="Arial,Arial_MSFontService,sans-serif" font-weight="400" font-size="24" transform="translate(368.737 448)">b</text><rect x="300.5" y="458.5" width="151" height="38" stroke="#2983A9" stroke-width="1.33333" stroke-miterlimit="8" fill="#3CB4E6"/><text fill="#FFFFFF" font-family="Arial,Arial_MSFontService,sans-serif" font-weight="400" font-size="24" transform="translate(369.404 486)">c</text><rect x="300.5" y="496.5" width="151" height="38" stroke="#2983A9" stroke-width="1.33333" stroke-miterlimit="8" fill="#3CB4E6"/><text fill="#FFFFFF" font-family="Arial,Arial_MSFontService,sans-serif" font-weight="400" font-size="24" transform="translate(368.737 524)">d</text></g></svg>