<svg width="1280" height="720" xmlns="http://www.w3.org/2000/svg" xmlns:xlink="http://www.w3.org/1999/xlink" overflow="hidden"><defs><clipPath id="clip0"><rect x="0" y="0" width="1280" height="720"/></clipPath></defs><g clip-path="url(#clip0)"><rect x="0" y="0" width="1280" height="720" fill="#FFFFFF"/><rect x="73.5001" y="254.5" width="937" height="439" stroke="#FFFFFF" stroke-width="1.33333" stroke-miterlimit="8" fill="#FFFFFF"/><rect x="118" y="375" width="855" height="280" fill="#FFD200"/><text fill="#FFFFFF" font-family="Arial,Arial_MSFontService,sans-serif" font-weight="400" font-size="24" transform="translate(474.168 403)">LLI list queue<tspan font-size="24" x="-20.9" y="29">YourQueueName</tspan></text><path d="M375 479 402.799 479C403.904 479 404.799 479.896 404.799 481 404.799 482.105 403.904 483 402.799 483L375 483C373.895 483 373 482.105 373 481 373 479.895 373.895 479 375 479ZM400.799 475 412.799 481 400.799 487Z" fill="#03234B"/><path d="M655 479 682.799 479C683.904 479 684.799 479.896 684.799 481 684.799 482.105 683.904 483 682.799 483L655 483C653.895 483 653 482.105 653 481 653 479.895 653.895 479 655 479ZM680.799 475 692.799 481 680.799 487Z" fill="#03234B"/><rect x="413" y="451" width="242" height="174" fill="#49B170"/><text fill="#FFFFFF" font-family="Arial,Arial_MSFontService,sans-serif" font-weight="400" font-size="24" transform="translate(449.261 479)">YourNodeName</text><rect x="133" y="451" width="242" height="174" fill="#49B170"/><text fill="#FFFFFF" font-family="Arial,Arial_MSFontService,sans-serif" font-weight="400" font-size="24" transform="translate(202.445 479)">FirstNode</text><rect x="693" y="451" width="242" height="174" fill="#49B170"/><text fill="#FFFFFF" font-family="Arial,Arial_MSFontService,sans-serif" font-weight="400" font-size="24" transform="translate(762.544 479)">LastNode</text></g></svg>