<svg width="1280" height="720" xmlns="http://www.w3.org/2000/svg" xmlns:xlink="http://www.w3.org/1999/xlink" overflow="hidden"><defs><clipPath id="clip0"><rect x="0" y="0" width="1280" height="720"/></clipPath></defs><g clip-path="url(#clip0)"><rect x="0" y="0" width="1280" height="720" fill="#FFFFFF"/><rect x="73.5001" y="254.5" width="937" height="439" stroke="#FFFFFF" stroke-width="1.33333" stroke-miterlimit="8" fill="#FFFFFF"/><rect x="534" y="292" width="439" height="68" fill="#E6007E"/><text fill="#FFFFFF" font-family="Arial,Arial_MSFontService,sans-serif" font-weight="400" font-size="24" transform="translate(668.065 320)">First Loop Node<tspan font-size="24" x="0.433289" y="29">YourNodeName</tspan></text><rect x="118" y="375" width="855" height="280" fill="#FFD200"/><text fill="#FFFFFF" font-family="Arial,Arial_MSFontService,sans-serif" font-weight="400" font-size="24" transform="translate(474.168 403)">LLI list queue<tspan font-size="24" x="-20.9" y="29">YourQueueName</tspan></text><path d="M0 0 0.000104987 113.398" stroke="#E6007E" stroke-width="5.33333" stroke-linecap="round" stroke-miterlimit="8" fill="none" fill-rule="evenodd" transform="matrix(1 0 0 -1 391.5 639.898)"/><path d="M0 0 0.000104987 37.7995" stroke="#E6007E" stroke-width="5.33333" stroke-linecap="round" stroke-miterlimit="8" fill="none" fill-rule="evenodd" transform="matrix(1 0 0 -1 958.5 640.299)"/><path d="M391.5 523.833 400.846 523.833C402.319 523.833 403.513 525.027 403.513 526.5 403.513 527.973 402.319 529.167 400.846 529.167L391.5 529.167C390.027 529.167 388.833 527.973 388.833 526.5 388.833 525.027 390.027 523.833 391.5 523.833ZM398.18 518.5 414.18 526.5 398.18 534.5Z" fill="#E6007E"/><path d="M935.5 602.5 958.18 602.5" stroke="#E6007E" stroke-width="5.33333" stroke-linecap="round" stroke-miterlimit="8" fill="none" fill-rule="evenodd"/><path d="M391.5 640.5 958.492 640.5" stroke="#E6007E" stroke-width="5.33333" stroke-linecap="round" stroke-miterlimit="8" fill="none" fill-rule="evenodd"/><path d="M375 479 402.799 479C403.904 479 404.799 479.896 404.799 481 404.799 482.105 403.904 483 402.799 483L375 483C373.895 483 373 482.105 373 481 373 479.895 373.895 479 375 479ZM400.799 475 412.799 481 400.799 487Z" fill="#03234B"/><path d="M655 479 682.799 479C683.904 479 684.799 479.896 684.799 481 684.799 482.105 683.904 483 682.799 483L655 483C653.895 483 653 482.105 653 481 653 479.895 653.895 479 655 479ZM680.799 475 692.799 481 680.799 487Z" fill="#03234B"/><rect x="413" y="451" width="242" height="174" fill="#49B170"/><text fill="#FFFFFF" font-family="Arial,Arial_MSFontService,sans-serif" font-weight="400" font-size="24" transform="translate(449.261 479)">YourNodeName</text><rect x="133" y="451" width="242" height="174" fill="#49B170"/><text fill="#FFFFFF" font-family="Arial,Arial_MSFontService,sans-serif" font-weight="400" font-size="24" transform="translate(202.445 479)">FirstNode</text><rect x="693" y="451" width="242" height="174" fill="#49B170"/><text fill="#FFFFFF" font-family="Arial,Arial_MSFontService,sans-serif" font-weight="400" font-size="24" transform="translate(762.544 479)">LastNode</text></g></svg>