<svg width="1280" height="720" xmlns="http://www.w3.org/2000/svg" xmlns:xlink="http://www.w3.org/1999/xlink" overflow="hidden"><defs><clipPath id="clip0"><rect x="0" y="0" width="1280" height="720"/></clipPath></defs><g clip-path="url(#clip0)"><rect x="0" y="0" width="1280" height="720" fill="#FFFFFF"/><rect x="285" y="315" width="181" height="121" fill="#03234B" fill-opacity="0.501961"/><text fill="#FFFFFF" font-family="Arial,Arial_MSFontService,sans-serif" font-weight="400" font-size="24" transform="translate(343.404 342)">ADC1</text><rect x="814" y="315" width="181" height="234" fill="#03234B" fill-opacity="0.501961"/><text fill="#FFFFFF" font-family="Arial,Arial_MSFontService,sans-serif" font-weight="400" font-size="24" transform="translate(844.596 342)">Destination <tspan font-size="24" x="16.6667" y="29">memory</tspan></text><rect x="829.5" y="383.5" width="151" height="37" stroke="#2983A9" stroke-width="1.33333" stroke-miterlimit="8" fill="#3CB4E6"/><text fill="#FFFFFF" font-family="Arial,Arial_MSFontService,sans-serif" font-weight="400" font-size="24" transform="translate(880.596 410)">CH1</text><rect x="527" y="315" width="226" height="121" fill="#03234B"/><text fill="#FFFFFF" font-family="Arial,Arial_MSFontService,sans-serif" font-weight="400" font-size="24" transform="translate(580.663 342)">GPDMA <tspan font-size="24" x="93.34" y="0">ch</tspan></text><path d="M717.437 396.609 823.881 506.601C824.65 507.395 824.629 508.661 823.835 509.43 823.041 510.198 821.775 510.177 821.007 509.383L714.563 399.391C713.795 398.597 713.815 397.331 714.609 396.563 715.403 395.795 716.669 395.815 717.437 396.609ZM825.365 502.383 829.398 515.178 816.742 510.728Z" fill="#E6007E"/><path d="M451 400 554.398 400C555.503 400 556.398 400.896 556.398 402 556.398 403.105 555.503 404 554.398 404L451 404C449.895 404 449 403.105 449 402 449 400.895 449.895 400 451 400ZM552.398 396 564.398 402 552.398 408Z" fill="#E6007E"/><rect x="829.5" y="420.5" width="151" height="38" stroke="#2983A9" stroke-width="1.33333" stroke-miterlimit="8" fill="#3CB4E6"/><text fill="#FFFFFF" font-family="Arial,Arial_MSFontService,sans-serif" font-weight="400" font-size="24" transform="translate(880.596 448)">CH2</text><rect x="829.5" y="458.5" width="151" height="38" stroke="#2983A9" stroke-width="1.33333" stroke-miterlimit="8" fill="#3CB4E6"/><text fill="#FFFFFF" font-family="Arial,Arial_MSFontService,sans-serif" font-weight="400" font-size="24" transform="translate(880.596 486)">CH3</text><rect x="829.5" y="496.5" width="151" height="38" stroke="#2983A9" stroke-width="1.33333" stroke-miterlimit="8" fill="#3CB4E6"/><text fill="#FFFFFF" font-family="Arial,Arial_MSFontService,sans-serif" font-weight="400" font-size="24" transform="translate(880.596 524)">CH4</text><rect x="300.5" y="383.5" width="151" height="37" stroke="#2983A9" stroke-width="1.33333" stroke-miterlimit="8" fill="#3CB4E6"/><text fill="#FFFFFF" font-family="Arial,Arial_MSFontService,sans-serif" font-weight="400" font-size="24" transform="translate(351.404 410)">CH4</text><rect x="564.5" y="383.5" width="152" height="37" stroke="#2983A9" stroke-width="1.33333" stroke-miterlimit="8" fill="#3CB4E6"/><text fill="#FFFFFF" font-family="Arial,Arial_MSFontService,sans-serif" font-weight="400" font-size="24" transform="translate(586 410)">60(BDTR)</text></g></svg>