<svg width="1280" height="720" xmlns="http://www.w3.org/2000/svg" xmlns:xlink="http://www.w3.org/1999/xlink" overflow="hidden"><defs><clipPath id="clip0"><rect x="0" y="0" width="1280" height="720"/></clipPath></defs><g clip-path="url(#clip0)"><rect x="0" y="0" width="1280" height="720" fill="#FFFFFF"/><rect x="232" y="405" width="181" height="121" fill="#03234B" fill-opacity="0.501961"/><text fill="#FFFFFF" font-family="Arial,Arial_MSFontService,sans-serif" font-weight="400" font-size="24" transform="translate(290.484 433)">ADC1</text><rect x="791" y="405" width="182" height="235" fill="#03234B" fill-opacity="0.501961"/><text fill="#FFFFFF" font-family="Arial,Arial_MSFontService,sans-serif" font-weight="400" font-size="24" transform="translate(858.583 433)">data</text><rect x="179" y="58" width="854" height="249" fill="#FFD200" fill-opacity="0.501961"/><text fill="#FFFFFF" font-family="Arial,Arial_MSFontService,sans-serif" font-weight="400" font-size="24" transform="translate(516.644 85)">GPDMA QUEUE</text><path d="M489 169 584.839 169C585.943 169 586.839 169.896 586.839 171 586.839 172.105 585.943 173 584.839 173L489 173C487.895 173 487 172.105 487 171 487 169.895 487.895 169 489 169ZM582.839 165 594.839 171 582.839 177Z" fill="#03234B"/><rect x="481" y="103" width="242" height="174" fill="#8C0078"/><text fill="#FFFFFF" font-family="Arial,Arial_MSFontService,sans-serif" font-weight="400" font-size="24" transform="translate(510.864 131)">GPDMA NODE 2</text><rect x="489.5" y="156.5" width="227" height="38" stroke="#2983A9" stroke-width="1.33333" stroke-miterlimit="8" fill="#3CB4E6"/><text fill="#FFFFFF" font-family="Arial,Arial_MSFontService,sans-serif" font-weight="400" font-size="24" transform="translate(547.534 183)">2D<tspan font-size="24" x="37.3333" y="0">sortin</tspan><tspan font-size="24" x="96" y="0">g</tspan></text><path d="M451 254 466.12 254" stroke="#03234B" stroke-width="4" stroke-linecap="round" stroke-miterlimit="8" fill="none" fill-rule="evenodd"/><path d="M0 0 0.000104987 75.5989" stroke="#03234B" stroke-width="4" stroke-linecap="round" stroke-miterlimit="8" fill="none" fill-rule="evenodd" transform="matrix(1 0 0 -1 466 254.599)"/><path d="M466 177 478.68 177C479.784 177 480.68 177.895 480.68 179 480.68 180.105 479.784 181 478.68 181L466 181C464.895 181 464 180.105 464 179 464 177.895 464.895 177 466 177ZM476.68 173 488.68 179 476.68 185Z" fill="#03234B"/><path d="M0 0 0.000104987 113.398" stroke="#03234B" stroke-width="4" stroke-linecap="round" stroke-miterlimit="8" fill="none" fill-rule="evenodd" transform="matrix(1 0 0 -1 194 292.398)"/><path d="M0 0 0.000104987 37.7995" stroke="#03234B" stroke-width="4" stroke-linecap="round" stroke-miterlimit="8" fill="none" fill-rule="evenodd" transform="matrix(1 0 0 -1 1010 291.799)"/><path d="M995 254 1010.12 254" stroke="#03234B" stroke-width="4" stroke-linecap="round" stroke-miterlimit="8" fill="none" fill-rule="evenodd"/><path d="M194 292 1010.47 292" stroke="#03234B" stroke-width="4" stroke-linecap="round" stroke-miterlimit="8" fill="none" fill-rule="evenodd"/><rect x="232" y="541" width="181" height="121" fill="#03234B" fill-opacity="0.501961"/><text fill="#FFFFFF" font-family="Arial,Arial_MSFontService,sans-serif" font-weight="400" font-size="24" transform="translate(283.368 569)">UART1</text><rect x="247.5" y="609.5" width="151" height="38" stroke="#2983A9" stroke-width="1.33333" stroke-miterlimit="8" fill="#3CB4E6"/><text fill="#FFFFFF" font-family="Arial,Arial_MSFontService,sans-serif" font-weight="400" font-size="24" transform="translate(298.484 637)">CH4</text><rect x="806.5" y="473.5" width="152" height="38" stroke="#2983A9" stroke-width="1.33333" stroke-miterlimit="8" fill="#3CB4E6"/><text fill="#FFFFFF" font-family="Arial,Arial_MSFontService,sans-serif" font-weight="400" font-size="24" transform="translate(857.917 501)">CH1</text><rect x="806.5" y="511.5" width="152" height="38" stroke="#2983A9" stroke-width="1.33333" stroke-miterlimit="8" fill="#3CB4E6"/><text fill="#FFFFFF" font-family="Arial,Arial_MSFontService,sans-serif" font-weight="400" font-size="24" transform="translate(857.917 539)">CH2</text><rect x="806.5" y="549.5" width="152" height="38" stroke="#2983A9" stroke-width="1.33333" stroke-miterlimit="8" fill="#3CB4E6"/><text fill="#FFFFFF" font-family="Arial,Arial_MSFontService,sans-serif" font-weight="400" font-size="24" transform="translate(869.917 576)">…</text><rect x="806.5" y="587.5" width="152" height="38" stroke="#2983A9" stroke-width="1.33333" stroke-miterlimit="8" fill="#3CB4E6"/><text fill="#FFFFFF" font-family="Arial,Arial_MSFontService,sans-serif" font-weight="400" font-size="24" transform="translate(857.917 614)">CH4</text><rect x="489.5" y="625.5" width="227" height="37" stroke="#021735" stroke-width="1.33333" stroke-miterlimit="8" fill="#03234B"/><text fill="#FFFFFF" font-family="Arial,Arial_MSFontService,sans-serif" font-weight="400" font-size="24" transform="translate(564.867 652)">TIM 15</text><path d="M0.248069-1.98456 81.044 8.11493C82.14 8.25194 82.9175 9.25152 82.7805 10.3476 82.6435 11.4436 81.6439 12.2211 80.5479 12.084L-0.248069 1.98456C-1.34411 1.84755-2.12156 0.84797-1.98456-0.248069-1.84755-1.34411-0.84797-2.12156 0.248069-1.98456ZM79.5556 3.89776 90.7187 11.3398 78.0672 15.8051Z" fill="#E6007E" transform="matrix(1 0 0 -1 398 496.34)"/><rect x="1018" y="405" width="181" height="235" fill="#03234B" fill-opacity="0.501961"/><text fill="#FFFFFF" font-family="Arial,Arial_MSFontService,sans-serif" font-weight="400" font-size="24" transform="translate(1078.71 433)">data2</text><rect x="753" y="103" width="242" height="174" fill="#FFD200"/><text fill="#FFFFFF" font-family="Arial,Arial_MSFontService,sans-serif" font-weight="400" font-size="24" transform="translate(783.02 131)">GPDMA NODE <tspan font-size="24" x="169.34" y="0">3</tspan></text><rect x="761.5" y="156.5" width="227" height="38" stroke="#2983A9" stroke-width="1.33333" stroke-miterlimit="8" fill="#3CB4E6"/><text fill="#FFFFFF" font-family="Arial,Arial_MSFontService,sans-serif" font-weight="400" font-size="24" transform="translate(823.673 183)">UART TX</text><path d="M723 254 738.12 254" stroke="#03234B" stroke-width="4" stroke-linecap="round" stroke-miterlimit="8" fill="none" fill-rule="evenodd"/><path d="M0 0 0.000104987 75.5989" stroke="#03234B" stroke-width="4" stroke-linecap="round" stroke-miterlimit="8" fill="none" fill-rule="evenodd" transform="matrix(1 0 0 -1 738 254.599)"/><path d="M738 177 750.68 177C751.784 177 752.68 177.895 752.68 179 752.68 180.105 751.784 181 750.68 181L738 181C736.895 181 736 180.105 736 179 736 177.895 736.895 177 738 177ZM748.68 173 760.68 179 748.68 185Z" fill="#03234B"/><path d="M217 169 312.839 169C313.943 169 314.839 169.896 314.839 171 314.839 172.105 313.943 173 312.839 173L217 173C215.895 173 215 172.105 215 171 215 169.895 215.895 169 217 169ZM310.839 165 322.839 171 310.839 177Z" fill="#03234B"/><rect x="209" y="103" width="242" height="174" fill="#49B170"/><text fill="#FFFFFF" font-family="Arial,Arial_MSFontService,sans-serif" font-weight="400" font-size="24" transform="translate(238.708 131)">GPDMA NODE 1</text><rect x="217.5" y="156.5" width="226" height="38" stroke="#2983A9" stroke-width="1.33333" stroke-miterlimit="8" fill="#3CB4E6"/><text fill="#FFFFFF" font-family="Arial,Arial_MSFontService,sans-serif" font-weight="400" font-size="24" transform="translate(273.374 183)">Read ADC</text><rect x="217.5" y="194.5" width="226" height="37" stroke="#2983A9" stroke-width="1.33333" stroke-miterlimit="8" fill="#3CB4E6"/><text fill="#FFFFFF" font-family="Arial,Arial_MSFontService,sans-serif" font-weight="400" font-size="24" transform="translate(292.491 221)">Trigger</text><path d="M194 177 206.68 177C207.784 177 208.68 177.895 208.68 179 208.68 180.105 207.784 181 206.68 181L194 181C192.895 181 192 180.105 192 179 192 177.895 192.895 177 194 177ZM204.68 173 216.68 179 204.68 185Z" fill="#03234B"/><path d="M716.166 483.007 796.919 489.736C798.02 489.828 798.838 490.795 798.746 491.896 798.655 492.996 797.688 493.814 796.587 493.723L715.834 486.993C714.733 486.901 713.915 485.935 714.007 484.834 714.099 483.733 715.065 482.915 716.166 483.007ZM795.258 485.584 806.719 492.56 794.262 497.543Z" fill="#E6007E"/><path d="M716.894 483.211 798.669 524.098C799.657 524.592 800.057 525.794 799.563 526.782 799.069 527.77 797.868 528.17 796.88 527.676L715.106 486.789C714.118 486.295 713.717 485.094 714.211 484.106 714.705 483.118 715.906 482.717 716.894 483.211ZM798.669 519.626 806.719 530.359 793.302 530.359Z" fill="#E6007E"/><path d="M717.351 483.526 800.699 559.927C801.513 560.674 801.568 561.939 800.821 562.753 800.075 563.567 798.81 563.622 797.996 562.876L714.649 486.474C713.834 485.728 713.779 484.463 714.526 483.649 715.272 482.834 716.537 482.779 717.351 483.526ZM801.927 555.627 806.719 568.159 793.819 564.473Z" fill="#E6007E"/><path d="M717.6 483.8 802.319 596.758C802.982 597.642 802.802 598.896 801.919 599.558 801.035 600.221 799.781 600.042 799.119 599.158L714.4 486.2C713.737 485.316 713.916 484.063 714.8 483.4 715.684 482.737 716.937 482.916 717.6 483.8ZM804.319 592.758 806.719 605.958 794.719 599.958Z" fill="#E6007E"/><path d="M511 352.5C511 348.358 514.358 345 518.5 345L670.5 345C674.642 345 678 348.358 678 352.5L678 382.5C678 386.642 674.642 390 670.5 390L518.5 390C514.358 390 511 386.642 511 382.5Z" fill="#E6007E" fill-rule="evenodd"/><text fill="#FFFFFF" font-family="Arial,Arial_MSFontService,sans-serif" font-weight="400" font-size="24" transform="translate(531.307 376)">64x transfer</text><rect x="489" y="405" width="227" height="159" fill="#03234B"/><text fill="#FFFFFF" font-family="Arial,Arial_MSFontService,sans-serif" font-weight="400" font-size="24" transform="translate(542.864 433)">GPDMA <tspan font-size="24" x="93.34" y="0">ch</tspan></text><rect x="519" y="466" width="166" height="91" fill="#49B170"/><rect x="527.5" y="511.5" width="151" height="38" stroke="#2983A9" stroke-width="1.33333" stroke-miterlimit="8" fill="#3CB4E6"/><text fill="#FFFFFF" font-family="Arial,Arial_MSFontService,sans-serif" font-weight="400" font-size="24" transform="translate(564.647 539)">Trigger</text><rect x="527.5" y="473.5" width="151" height="38" stroke="#2983A9" stroke-width="1.33333" stroke-miterlimit="8" fill="#3CB4E6"/><text fill="#FFFFFF" font-family="Arial,Arial_MSFontService,sans-serif" font-weight="400" font-size="24" transform="translate(545.531 501)">Read ADC</text><rect x="247.5" y="473.5" width="151" height="38" stroke="#2983A9" stroke-width="1.33333" stroke-miterlimit="8" fill="#3CB4E6"/><text fill="#FFFFFF" font-family="Arial,Arial_MSFontService,sans-serif" font-weight="400" font-size="24" transform="translate(305.151 501)">DR</text></g></svg>