<svg width="1280" height="720" xmlns="http://www.w3.org/2000/svg" xmlns:xlink="http://www.w3.org/1999/xlink" overflow="hidden"><defs><clipPath id="clip0"><rect x="0" y="0" width="1280" height="720"/></clipPath></defs><g clip-path="url(#clip0)"><rect x="0" y="0" width="1280" height="720" fill="#FFFFFF"/><rect x="527" y="315" width="226" height="204" fill="#03234B"/><text fill="#FFFFFF" font-family="Arial,Arial_MSFontService,sans-serif" font-weight="400" font-size="24" transform="translate(580.663 342)">GPDMA <tspan font-size="24" x="93.34" y="0">ch</tspan></text><rect x="564.5" y="466.5" width="152" height="38" stroke="#2983A9" stroke-width="1.33333" stroke-miterlimit="8" fill="#3CB4E6"/><text fill="#FFFFFF" font-family="Arial,Arial_MSFontService,sans-serif" font-weight="400" font-size="24" transform="translate(598.667 493)">Circular</text><rect x="285" y="315" width="181" height="121" fill="#03234B" fill-opacity="0.501961"/><text fill="#FFFFFF" font-family="Arial,Arial_MSFontService,sans-serif" font-weight="400" font-size="24" transform="translate(337.404 342)">Source <tspan font-size="24" x="-5.33334" y="29">memory</tspan></text><rect x="814" y="315" width="181" height="121" fill="#03234B" fill-opacity="0.501961"/><text fill="#FFFFFF" font-family="Arial,Arial_MSFontService,sans-serif" font-weight="400" font-size="24" transform="translate(844.596 342)">Destination <tspan font-size="24" x="16.6667" y="29">memory</tspan></text><rect x="829.5" y="383.5" width="151" height="37" stroke="#2983A9" stroke-width="1.33333" stroke-miterlimit="8" fill="#3CB4E6"/><text fill="#FFFFFF" font-family="Arial,Arial_MSFontService,sans-serif" font-weight="400" font-size="24" transform="translate(897.93 410)">b</text><path d="M716 400 819.398 400C820.503 400 821.398 400.896 821.398 402 821.398 403.105 820.503 404 819.398 404L716 404C714.895 404 714 403.105 714 402 714 400.895 714.895 400 716 400ZM817.398 396 829.398 402 817.398 408Z" fill="#E6007E"/><path d="M451 400 554.398 400C555.503 400 556.398 400.896 556.398 402 556.398 403.105 555.503 404 554.398 404L451 404C449.895 404 449 403.105 449 402 449 400.895 449.895 400 451 400ZM552.398 396 564.398 402 552.398 408Z" fill="#E6007E"/><rect x="564.5" y="420.5" width="152" height="38" stroke="#7F7F7F" stroke-width="1.33333" stroke-miterlimit="8" fill="#7F7F7F"/><text fill="#FFFFFF" font-family="Arial,Arial_MSFontService,sans-serif" font-weight="400" font-size="24" transform="translate(586 448)">64(BDTR)</text><rect x="300.5" y="383.5" width="151" height="37" stroke="#2983A9" stroke-width="1.33333" stroke-miterlimit="8" fill="#3CB4E6"/><text fill="#FFFFFF" font-family="Arial,Arial_MSFontService,sans-serif" font-weight="400" font-size="24" transform="translate(368.737 410)">b</text><rect x="564.5" y="383.5" width="152" height="37" stroke="#2983A9" stroke-width="1.33333" stroke-miterlimit="8" fill="#3CB4E6"/><text fill="#FFFFFF" font-family="Arial,Arial_MSFontService,sans-serif" font-weight="400" font-size="24" transform="translate(586 410)">62(BDTR)</text></g></svg>