<svg width="1280" height="720" xmlns="http://www.w3.org/2000/svg" xmlns:xlink="http://www.w3.org/1999/xlink" overflow="hidden"><defs><clipPath id="clip0"><rect x="0" y="0" width="1280" height="720"/></clipPath><clipPath id="clip1"><rect x="24" y="640" width="104" height="80"/></clipPath><clipPath id="clip2"><rect x="24" y="640" width="104" height="80"/></clipPath><clipPath id="clip3"><rect x="24" y="640" width="104" height="80"/></clipPath></defs><g clip-path="url(#clip0)"><rect x="0" y="0" width="1280" height="720" fill="#FFFFFF"/><g clip-path="url(#clip1)"><g clip-path="url(#clip2)"><g clip-path="url(#clip3)"><path d="M37.5719 64.1623C36.4038 64.1623 35.5213 63.2894 35.5213 62.1309 35.5213 60.7735 36.5514 60.0611 37.5719 60.0611 38.6758 60.0611 39.5743 60.9853 39.5743 62.1213 39.5743 63.2669 38.695 64.1623 37.5719 64.1623M39.5358 60.3659C38.9325 59.4963 37.9666 59.4 37.5687 59.4 35.8293 59.4 34.7928 60.7735 34.7928 62.102 34.7928 63.6296 36.0122 64.8233 37.5687 64.8233 37.9602 64.8233 38.9229 64.7271 39.5358 63.8638L39.5358 64.7078 40.2643 64.7078 40.2643 59.5412 39.5358 59.5412 39.5358 60.3659Z" fill="#00234B" transform="matrix(1.00217 0 0 1 24 640.102)"/><path d="M45.4919 62.2721C45.4919 63.1771 45.2448 63.498 44.972 63.774 44.7024 64.0435 44.3591 64.1751 43.9194 64.1751 43.4284 64.1751 43.0401 64.0146 42.7641 63.7034 42.5267 63.4049 42.4079 62.9717 42.4079 62.3844L42.4079 59.5412 41.6795 59.5412 41.6795 62.3941C41.6795 63.1257 41.8335 63.6841 42.1352 64.0564 42.3694 64.3484 42.9086 64.833 43.9162 64.833 44.9271 64.833 45.3795 64.2521 45.5272 63.9922L45.5272 64.7046 46.2171 64.7046 46.2171 59.538 45.4887 59.538 45.4887 62.2721Z" fill="#00234B" transform="matrix(1.00217 0 0 1 24 640.102)"/><path d="M49.7375 64.1623C48.6496 64.1623 47.7639 63.2477 47.7639 62.1213 47.7639 60.9853 48.6496 60.0611 49.7375 60.0611 50.8318 60.0611 51.7207 60.9853 51.7207 62.1213 51.7239 62.9428 51.0917 64.1623 49.7375 64.1623M51.6854 60.3852C51.0628 59.4963 50.1226 59.4 49.7375 59.4 48.4378 59.4 47.0354 60.4462 47.0354 62.1405 47.0354 63.7996 48.4378 64.8233 49.7375 64.8233 50.3793 64.8233 51.265 64.557 51.6854 63.8381L51.6854 64.1815C51.6854 65.555 50.7098 66.046 49.8787 66.046 48.6432 66.046 48.1554 65.1635 48.0046 64.7848L47.9949 64.7592 47.228 64.7592 47.2408 64.8073C47.7575 66.5723 49.3973 66.7071 49.8851 66.7071 50.0231 66.7071 51.2682 66.6814 51.9389 65.7508 52.4106 65.1154 52.4106 64.4222 52.4106 63.8638L52.4106 59.538 51.6822 59.538 51.6822 60.3852Z" fill="#00234B" transform="matrix(1.00217 0 0 1 24 640.102)"/><path d="M59.0213 59.4064C58.5656 59.4064 57.7088 59.6054 57.3077 60.3403 56.9065 59.6054 56.0465 59.4064 55.5908 59.4064 55.1255 59.4064 54.5415 59.6054 54.2398 60.0354L54.2398 59.538 53.5113 59.538 53.5113 64.711 54.2398 64.711 54.2398 61.7202C54.2398 61.1907 54.3297 60.9211 54.4676 60.6772 54.6987 60.2857 55.0966 60.0707 55.5908 60.0707 56.085 60.0707 56.4829 60.2857 56.714 60.6772 56.852 60.9211 56.9418 61.1939 56.9418 61.7202L56.9418 64.711 57.6703 64.711 57.6703 61.7202C57.6703 61.1907 57.7602 60.9211 57.8981 60.6772 58.1292 60.2857 58.5271 60.0707 59.0213 60.0707 59.5155 60.0707 59.9134 60.2857 60.1445 60.6772 60.2825 60.9211 60.3723 61.1939 60.3723 61.7202L60.3723 64.711 61.1008 64.711 61.1008 61.6431C61.1008 59.8781 59.7947 59.4064 59.0213 59.4064" fill="#00234B" transform="matrix(1.00217 0 0 1 24 640.102)"/><path d="M62.7086 61.733C62.9011 60.6387 63.8221 60.0675 64.6468 60.0675 65.4395 60.0675 66.3797 60.5906 66.5947 61.733L62.7086 61.733ZM64.6372 59.4032C63.1578 59.4321 61.9544 60.6515 61.9544 62.1245 61.9544 63.6135 63.1642 64.8265 64.6468 64.8265 65.7893 64.8265 66.813 64.0981 67.1884 63.0134L67.2077 62.9621 66.4375 62.9621 66.4279 62.9877C66.2321 63.5172 65.6449 64.1462 64.6372 64.1655 63.6617 64.1655 62.7695 63.3439 62.7021 62.3973L67.3392 62.3973 67.3425 62.362C67.3778 61.7522 67.243 61.2035 66.9477 60.7286 66.5819 60.0932 65.7861 59.4128 64.6372 59.4032" fill="#00234B" transform="matrix(1.00217 0 0 1 24 640.102)"/><path d="M70.5933 59.4064C69.8295 59.4064 69.2968 59.7787 69.0465 60.1317L69.0465 59.5348 68.318 59.5348 68.318 64.7078 69.0465 64.7078 69.0465 61.8646C69.0368 61.2773 69.2037 60.7927 69.5118 60.4943 69.9193 60.0964 70.4424 60.0675 70.5933 60.0675 70.7441 60.0675 71.2672 60.0996 71.6747 60.4943 71.9796 60.7895 72.1464 61.2773 72.1464 61.8646L72.1464 64.7078 72.8749 64.7078 72.8749 61.8646C72.8749 61.0816 72.6535 60.4494 72.2299 60.0386 71.7934 59.6022 71.2896 59.4064 70.5933 59.4064" fill="#00234B" transform="matrix(1.00217 0 0 1 24 640.102)"/><path d="M75.4775 57.7345 74.749 57.7345 74.749 59.538 73.6804 59.538 73.6804 60.2023 74.749 60.2023 74.749 64.711 75.4775 64.711 75.4775 60.2023 76.7001 60.2023 76.7001 59.538 75.4775 59.538Z" fill="#00234B" transform="matrix(1.00217 0 0 1 24 640.102)"/><path d="M77.8682 61.7298C78.0608 60.6355 78.985 60.0643 79.8097 60.0643 80.6024 60.0643 81.5426 60.5874 81.7576 61.7298L77.8682 61.7298ZM79.8001 59.4C78.3207 59.4289 77.1173 60.6483 77.1173 62.1213 77.1173 63.6103 78.3239 64.8233 79.8097 64.8233 80.9521 64.8233 81.9726 64.0949 82.3513 63.0102L82.3706 62.9589 81.6004 62.9589 81.5908 62.9845C81.395 63.514 80.811 64.143 79.8001 64.1623 78.8277 64.1623 77.9324 63.3407 77.865 62.3941L82.5021 62.3941 82.5053 62.3588C82.5406 61.749 82.4059 61.2003 82.1106 60.7253 81.7448 60.0899 80.9457 59.4096 79.8001 59.4" fill="#00234B" transform="matrix(1.00217 0 0 1 24 640.102)"/><path d="M86.0032 64.1655C84.8351 64.1655 83.9526 63.2926 83.9526 62.1341 83.9526 60.7767 84.9827 60.0675 86.0032 60.0675 87.1072 60.0675 88.0057 60.9917 88.0057 62.1277 88.0057 63.2701 87.1264 64.1655 86.0032 64.1655M87.9672 57.7377 87.9672 60.3595C87.3125 59.477 86.3017 59.4064 86 59.4064 84.2607 59.4064 83.2242 60.7799 83.2242 62.1085 83.2242 63.6328 84.4436 64.8298 86 64.8298 86.6258 64.8298 87.4666 64.573 87.9672 63.8702L87.9672 64.711 88.6957 64.711 88.6957 57.7409 87.9672 57.7409Z" fill="#00234B" transform="matrix(1.00217 0 0 1 24 640.102)"/><path d="M19.0298 57.558 19.723 57.558 19.723 58.5977 19.0298 58.5977Z" fill="#00234B" transform="matrix(1.00217 0 0 1 24 640.102)"/><path d="M16.6712 57.7377 15.1597 57.7377 15.1597 58.3891 15.9812 58.3891 15.9812 64.0564 15.1051 64.0564 15.1051 64.7078 17.483 64.7078 17.483 64.0564 16.6712 64.0564Z" fill="#00234B" transform="matrix(1.00217 0 0 1 24 640.102)"/><path d="M19.8899 59.538 18.3784 59.538 18.3784 60.1926 19.1999 60.1926 19.1999 64.0564 18.3591 64.0564 18.3591 64.7078 20.7082 64.7078 20.7082 64.0564 19.8899 64.0564Z" fill="#00234B" transform="matrix(1.00217 0 0 1 24 640.102)"/><path d="M22.7395 58.0682C22.287 58.4726 22.271 58.9379 22.2517 59.5027L22.2517 59.538 21.4302 59.538 21.4302 60.2087 22.2614 60.2087 22.2614 64.0532 21.4302 64.0532 21.4302 64.7078 23.7889 64.7078 23.7889 64.0532 22.9513 64.0532 22.9513 60.2087 23.7889 60.2087 23.7889 59.538 22.9513 59.538 22.9513 59.4257C22.9609 59.0534 22.9674 58.7293 23.2818 58.495 23.4487 58.357 23.6669 58.2832 23.9397 58.2608L23.975 58.2576 23.975 57.6318 23.9365 57.635C23.3942 57.6735 23.0251 57.8051 22.7395 58.0682" fill="#00234B" transform="matrix(1.00217 0 0 1 24 640.102)"/><path d="M25.4576 61.8357C25.5924 60.9211 26.4267 60.183 27.3413 60.183 28.349 60.183 29.1833 60.8762 29.3374 61.8357L25.4576 61.8357ZM27.351 59.538C25.9165 59.538 24.7484 60.735 24.7484 62.2079 24.7484 63.6488 25.9325 64.8201 27.3895 64.8201 28.4292 64.8201 29.3759 64.2104 29.7995 63.2669L29.8219 63.2124 29.0742 63.2124 29.0614 63.2316C28.7148 63.8349 28.0955 64.1815 27.367 64.1815 26.3594 64.1815 25.5282 63.4146 25.4512 62.4262L30.0081 62.4262 30.0081 62.1983C30.0113 60.7061 28.8432 59.538 27.351 59.538" fill="#00234B" transform="matrix(1.00217 0 0 1 24 640.102)"/><path d="M32.3699 64.8458C32.8641 64.8458 33.2653 64.4447 33.2653 63.9505 33.2653 63.4563 32.8641 63.0551 32.3699 63.0551 31.8758 63.0551 31.4746 63.4563 31.4746 63.9505 31.4746 64.4447 31.8758 64.8458 32.3699 64.8458" fill="#00234B" transform="matrix(1.00217 0 0 1 24 640.102)"/><path d="M88.1726 15.1244 37.8735 15.1276C37.8735 15.1276 37.8767 15.1308 37.8767 15.1308 34.0611 15.1308 30.7815 17.4124 29.3566 20.6664L19.4277 44.5837C19.4021 44.6447 19.386 44.7121 19.386 44.7859 19.386 45.0715 19.6235 45.3057 19.9123 45.3057L42.6229 45.3057C44.2371 45.3057 44.9399 43.7525 43.6819 42.5106L35.3416 34.7062C30.958 30.4092 32.8385 20.445 41.9426 20.445L86.4044 20.445C86.6354 20.445 86.8312 20.2974 86.9018 20.0952L88.6603 15.8432C88.686 15.7822 88.6989 15.7148 88.6989 15.6442 88.6989 15.3554 88.4646 15.1244 88.1726 15.1244Z" fill="#00234B" transform="matrix(1.00217 0 0 1 24 640.102)"/><path d="M83.1632 27.2964 74.6238 27.306C74.0494 27.306 73.552 27.6526 73.3466 28.15L63.7804 51.265C63.7419 51.3356 63.7194 51.419 63.7194 51.5057 63.7194 51.7913 63.9569 52.0223 64.2457 52.0223L67.4323 52.0223 67.4323 52.0191C71.3025 52.0191 74.6431 49.6765 76.0358 46.3487 76.0358 46.3487 76.0423 46.3519 76.0455 46.3551L83.6478 28.0024C83.6702 27.9414 83.6863 27.8772 83.6863 27.8099 83.6863 27.5275 83.452 27.2964 83.1632 27.2964Z" fill="#00234B" transform="matrix(1.00217 0 0 1 24 640.102)"/><path d="M66.3797 27.8163C66.3797 27.5275 66.1423 27.2964 65.8534 27.2964L41.6474 27.2964C40.3349 27.2964 39.186 28.9106 40.5756 30.191L48.5726 37.6328C48.5726 37.6328 51.8105 40.6173 51.1174 44.8886 50.5044 48.6496 47.9404 50.9505 46.0823 51.7784L46.0759 51.7784C46.031 51.8009 46.0021 51.8458 46.0021 51.894 46.0021 51.9646 46.0599 52.0255 46.1337 52.0255L55.4625 52.0255C56.0401 52.0255 56.5343 51.679 56.7397 51.1816L66.3412 27.9992C66.3669 27.9414 66.3797 27.8805 66.3797 27.8163Z" fill="#00234B" transform="matrix(1.00217 0 0 1 24 640.102)"/></g></g></g><rect x="1260" y="0" width="20" height="120" fill="#03234B"/><rect x="0" y="0" width="1250" height="119" fill="#03234B"/><text fill="#FFFFFF" font-family="Arial,Arial_MSFontService,sans-serif" font-weight="400" font-size="53" transform="translate(440.18 76)">TempSense<tspan font-size="53" x="296.42" y="0">application : Queue 2</tspan><tspan fill="#464650" font-size="15" x="813.578" y="611">5</tspan></text><rect x="15.5001" y="147.5" width="1204" height="445" stroke="#E6007E" stroke-width="3" stroke-linejoin="round" stroke-miterlimit="10" fill="none"/><text fill="#464650" font-family="Wingdings,Wingdings_MSFontService,sans-serif" font-weight="400" font-size="24" transform="translate(52.846 175)"><tspan fill="#E6007E" font-family="Verdana,Verdana_MSFontService,sans-serif" font-weight="700" font-size="24" x="28" y="0">Queue 2 (ADC conversion after AWD1 threshold 1 detection)</tspan><tspan font-size="16" x="28.3333" y="56"></tspan><tspan fill="#03234B" font-family="Verdana,Verdana_MSFontService,sans-serif" font-size="16" x="57" y="56">ADC4 is configured to perform conversion from </tspan><tspan fill="#03234B" font-family="Verdana,Verdana_MSFontService,sans-serif" font-size="16" x="442.54" y="56">TempSense</tspan><tspan fill="#03234B" font-family="Verdana,Verdana_MSFontService,sans-serif" font-size="16" x="534.153" y="56">.</tspan><tspan font-size="16" x="28.3333" y="83"></tspan><tspan fill="#03234B" font-family="Verdana,Verdana_MSFontService,sans-serif" font-size="16" x="57" y="83">Threshold 2 is configured on ADC4 </tspan><tspan fill="#03234B" font-family="Verdana,Verdana_MSFontService,sans-serif" font-size="16" x="341.833" y="83">AnalogWDG</tspan><tspan fill="#03234B" font-family="Verdana,Verdana_MSFontService,sans-serif" font-size="16" x="442.833" y="83">1.</tspan><tspan font-size="16" x="28.3333" y="110"></tspan><tspan fill="#03234B" font-family="Verdana,Verdana_MSFontService,sans-serif" font-size="16" x="57" y="110">ADC4 conversion are triggered by LPTIM1 PWM signal.</tspan><tspan font-size="14" x="47.1333" y="136"></tspan><tspan fill="#00B050" font-family="Verdana,Verdana_MSFontService,sans-serif" font-weight="700" font-size="14" x="75.3333" y="136">10 </tspan><tspan fill="#00B050" font-family="Verdana,Verdana_MSFontService,sans-serif" font-weight="700" font-size="14" x="100.167" y="136">ms</tspan><tspan font-family="Verdana,Verdana_MSFontService,sans-serif" font-size="14" x="128.167" y="136">conversion period</tspan><tspan font-size="16" x="28.3333" y="162"></tspan><tspan fill="#03234B" font-family="Verdana,Verdana_MSFontService,sans-serif" font-size="16" x="57" y="162">ADC4 data are stored in SRAM4 buffer 2.</tspan><tspan font-size="14" x="47.1333" y="188"></tspan><tspan font-family="Verdana,Verdana_MSFontService,sans-serif" font-size="14" x="75.3333" y="188">LPDMA1 CH0 is used.</tspan><tspan font-size="16" x="28.3333" y="264"></tspan><tspan fill="#00B0F0" font-family="Verdana,Verdana_MSFontService,sans-serif" font-size="16" x="57" y="264">Configuration is done by LPDMA.</tspan><tspan font-size="16" x="28.3333" y="291"></tspan><tspan fill="#00B0F0" font-family="Verdana,Verdana_MSFontService,sans-serif" font-size="16" x="57" y="291">Call only Data node for ADC4.</tspan></text><path d="M699.5 276.5C699.5 253.856 719.647 235.5 744.5 235.5 769.353 235.5 789.5 253.856 789.5 276.5 789.5 299.144 769.353 317.5 744.5 317.5 719.647 317.5 699.5 299.144 699.5 276.5Z" stroke="#E6007E" stroke-width="1.33333" stroke-miterlimit="8" fill="#E6007E" fill-rule="evenodd"/><text fill="#FFFFFF" font-family="Arial,Arial_MSFontService,sans-serif" font-weight="400" font-size="24" transform="translate(727.767 285)">Q2</text><rect x="805" y="252" width="388" height="49" fill="#E6007E"/><text fill="#FFFFFF" font-family="Arial,Arial_MSFontService,sans-serif" font-weight="400" font-size="24" transform="translate(814.416 285)">Threshold2_Conversion</text><rect x="699" y="335" width="494" height="48" fill="#E6007E"/><text fill="#FFFFFF" font-family="Arial,Arial_MSFontService,sans-serif" font-weight="400" font-size="24" transform="translate(815.103 368)">Threshold2_Data_Buffer</text></g></svg>