<svg width="2708" height="1070" xmlns="http://www.w3.org/2000/svg" xmlns:xlink="http://www.w3.org/1999/xlink" overflow="hidden"><defs><clipPath id="clip0"><rect x="457" y="950" width="2708" height="1070"/></clipPath></defs><g clip-path="url(#clip0)" transform="translate(-457 -950)"><rect x="459.5" y="952.5" width="2703" height="1065" stroke="#FFFFFF" stroke-width="4.58333" stroke-miterlimit="8" fill="#FFFFFF"/><rect x="589" y="1082" width="623" height="805" fill="#03234B" fill-opacity="0.501961"/><text fill="#FFFFFF" font-family="Arial,Arial_MSFontService,sans-serif" font-weight="400" font-size="83" transform="matrix(1 0 0 1 770.018 1178)">Source <tspan font-size="83" x="-18.3333" y="99">memory</tspan></text><rect x="641.5" y="1315.5" width="520" height="130" stroke="#2983A9" stroke-width="4.58333" stroke-miterlimit="8" fill="#3CB4E6"/><text fill="#FFFFFF" font-family="Arial,Arial_MSFontService,sans-serif" font-weight="400" font-size="83" transform="matrix(1 0 0 1 877.726 1411)">a</text><rect x="2408" y="1082" width="624" height="805" fill="#03234B" fill-opacity="0.501961"/><text fill="#FFFFFF" font-family="Arial,Arial_MSFontService,sans-serif" font-weight="400" font-size="83" transform="matrix(1 0 0 1 2513.49 1178)">Destination <tspan font-size="83" x="57.2918" y="99">memory</tspan></text><rect x="2460.5" y="1315.5" width="520" height="130" stroke="#2983A9" stroke-width="4.58333" stroke-miterlimit="8" fill="#3CB4E6"/><text fill="#FFFFFF" font-family="Arial,Arial_MSFontService,sans-serif" font-weight="400" font-size="83" transform="matrix(1 0 0 1 2696.83 1411)">a</text><rect x="1420" y="1082" width="780" height="415" fill="#03234B"/><text fill="#FFFFFF" font-family="Arial,Arial_MSFontService,sans-serif" font-weight="400" font-size="83" transform="matrix(1 0 0 1 1606.22 1178)">GPDMA <tspan font-size="83" x="320.856" y="0">ch</tspan></text><rect x="1550.5" y="1315.5" width="520" height="130" stroke="#2983A9" stroke-width="4.58333" stroke-miterlimit="8" fill="#3CB4E6"/><text fill="#FFFFFF" font-family="Arial,Arial_MSFontService,sans-serif" font-weight="400" font-size="83" transform="matrix(1 0 0 1 1647.48 1411)">0(BDTR)</text><rect x="641.5" y="1445.5" width="520" height="130" stroke="#2983A9" stroke-width="4.58333" stroke-miterlimit="8" fill="#3CB4E6"/><text fill="#FFFFFF" font-family="Arial,Arial_MSFontService,sans-serif" font-weight="400" font-size="83" transform="matrix(1 0 0 1 877.726 1541)">b</text><rect x="641.5" y="1575.5" width="520" height="130" stroke="#2983A9" stroke-width="4.58333" stroke-miterlimit="8" fill="#3CB4E6"/><text fill="#FFFFFF" font-family="Arial,Arial_MSFontService,sans-serif" font-weight="400" font-size="83" transform="matrix(1 0 0 1 880.018 1671)">c</text><rect x="641.5" y="1705.5" width="520" height="130" stroke="#2983A9" stroke-width="4.58333" stroke-miterlimit="8" fill="#3CB4E6"/><text fill="#FFFFFF" font-family="Arial,Arial_MSFontService,sans-serif" font-weight="400" font-size="83" transform="matrix(1 0 0 1 877.726 1801)">d</text><rect x="2460.5" y="1445.5" width="520" height="130" stroke="#2983A9" stroke-width="4.58333" stroke-miterlimit="8" fill="#3CB4E6"/><text fill="#FFFFFF" font-family="Arial,Arial_MSFontService,sans-serif" font-weight="400" font-size="83" transform="matrix(1 0 0 1 2696.83 1541)">b</text><rect x="2460.5" y="1575.5" width="520" height="130" stroke="#2983A9" stroke-width="4.58333" stroke-miterlimit="8" fill="#3CB4E6"/><text fill="#FFFFFF" font-family="Arial,Arial_MSFontService,sans-serif" font-weight="400" font-size="83" transform="matrix(1 0 0 1 2699.12 1671)">c</text><rect x="2460.5" y="1705.5" width="520" height="130" stroke="#2983A9" stroke-width="4.58333" stroke-miterlimit="8" fill="#3CB4E6"/><text fill="#FFFFFF" font-family="Arial,Arial_MSFontService,sans-serif" font-weight="400" font-size="83" transform="matrix(1 0 0 1 2696.83 1801)">d</text><path d="M2074.86 1375.14 2440.36 1740.64C2443.05 1743.32 2443.05 1747.68 2440.36 1750.36 2437.68 1753.05 2433.32 1753.05 2430.64 1750.36L2065.14 1384.86C2062.45 1382.18 2062.45 1377.82 2065.14 1375.14 2067.82 1372.45 2072.18 1372.45 2074.86 1375.14ZM2445.22 1726.05 2459.81 1769.81 2416.05 1755.22Z" fill="#E6007E"/><path d="M4.86136-4.86136 370.361 360.639C373.046 363.324 373.046 367.677 370.361 370.361 367.677 373.046 363.324 373.046 360.639 370.361L-4.86136 4.86136C-7.54621 2.1765-7.54621-2.1765-4.86136-4.86136-2.1765-7.54621 2.1765-7.54621 4.86136-4.86136ZM375.223 346.055 389.807 389.807 346.055 375.223Z" fill="#E6007E" transform="matrix(1 0 0 -1 1161 1769.81)"/></g></svg>