<svg width="2708" height="1070" xmlns="http://www.w3.org/2000/svg" xmlns:xlink="http://www.w3.org/1999/xlink" overflow="hidden"><defs><clipPath id="clip0"><rect x="457" y="950" width="2708" height="1070"/></clipPath></defs><g clip-path="url(#clip0)" transform="translate(-457 -950)"><rect x="459.5" y="952.5" width="2703" height="1065" stroke="#FFFFFF" stroke-width="4.58333" stroke-miterlimit="8" fill="#FFFFFF"/><rect x="589" y="1082" width="623" height="805" fill="#03234B" fill-opacity="0.501961"/><text fill="#FFFFFF" font-family="Arial,Arial_MSFontService,sans-serif" font-weight="400" font-size="83" transform="matrix(1 0 0 1 770.018 1178)">Source <tspan font-size="83" x="-18.3333" y="99">memory</tspan></text><rect x="641.5" y="1315.5" width="520" height="130" stroke="#2983A9" stroke-width="4.58333" stroke-miterlimit="8" fill="#3CB4E6"/><text fill="#FFFFFF" font-family="Arial,Arial_MSFontService,sans-serif" font-weight="400" font-size="83" transform="matrix(1 0 0 1 877.726 1411)">a</text><rect x="2408" y="1082" width="624" height="805" fill="#03234B" fill-opacity="0.501961"/><text fill="#FFFFFF" font-family="Arial,Arial_MSFontService,sans-serif" font-weight="400" font-size="83" transform="matrix(1 0 0 1 2513.49 1178)">Destination <tspan font-size="83" x="57.2918" y="99">memory</tspan></text><rect x="2460.5" y="1315.5" width="520" height="130" stroke="#2983A9" stroke-width="4.58333" stroke-miterlimit="8" fill="#3CB4E6"/><text fill="#FFFFFF" font-family="Arial,Arial_MSFontService,sans-serif" font-weight="400" font-size="83" transform="matrix(1 0 0 1 2696.83 1411)">a</text><rect x="1420" y="1082" width="780" height="415" fill="#03234B"/><text fill="#FFFFFF" font-family="Arial,Arial_MSFontService,sans-serif" font-weight="400" font-size="83" transform="matrix(1 0 0 1 1606.22 1178)">GPDMA <tspan font-size="83" x="320.856" y="0">ch</tspan></text><path d="M1161 1386.12 2425.98 1386.13C2429.78 1386.13 2432.86 1389.2 2432.86 1393 2432.86 1396.8 2429.78 1399.88 2425.98 1399.88L1161 1399.87C1157.2 1399.87 1154.12 1396.8 1154.12 1393 1154.12 1389.2 1157.2 1386.12 1161 1386.12ZM2419.11 1372.38 2460.36 1393 2419.11 1413.63Z" fill="#E6007E"/><rect x="1550.5" y="1315.5" width="520" height="130" stroke="#2983A9" stroke-width="4.58333" stroke-miterlimit="8" fill="#3CB4E6"/><text fill="#FFFFFF" font-family="Arial,Arial_MSFontService,sans-serif" font-weight="400" font-size="83" transform="matrix(1 0 0 1 1647.48 1411)">3(BDTR)</text><rect x="641.5" y="1445.5" width="520" height="130" stroke="#2983A9" stroke-width="4.58333" stroke-miterlimit="8" fill="#3CB4E6"/><text fill="#FFFFFF" font-family="Arial,Arial_MSFontService,sans-serif" font-weight="400" font-size="83" transform="matrix(1 0 0 1 877.726 1541)">b</text><rect x="641.5" y="1575.5" width="520" height="130" stroke="#2983A9" stroke-width="4.58333" stroke-miterlimit="8" fill="#3CB4E6"/><text fill="#FFFFFF" font-family="Arial,Arial_MSFontService,sans-serif" font-weight="400" font-size="83" transform="matrix(1 0 0 1 880.018 1671)">c</text><rect x="641.5" y="1705.5" width="520" height="130" stroke="#2983A9" stroke-width="4.58333" stroke-miterlimit="8" fill="#3CB4E6"/><text fill="#FFFFFF" font-family="Arial,Arial_MSFontService,sans-serif" font-weight="400" font-size="83" transform="matrix(1 0 0 1 877.726 1801)">d</text></g></svg>