<svg width="2708" height="1382" xmlns="http://www.w3.org/2000/svg" xmlns:xlink="http://www.w3.org/1999/xlink" overflow="hidden"><defs><clipPath id="clip0"><rect x="457" y="950" width="2708" height="1382"/></clipPath></defs><g clip-path="url(#clip0)" transform="translate(-457 -950)"><rect x="459.5" y="952.5" width="2703" height="1377" stroke="#FFFFFF" stroke-width="4.58333" stroke-miterlimit="8" fill="#FFFFFF"/><rect x="589" y="1082" width="623" height="415" fill="#03234B" fill-opacity="0.501961"/><text fill="#FFFFFF" font-family="Arial,Arial_MSFontService,sans-serif" font-weight="400" font-size="83" transform="matrix(1 0 0 1 790.643 1178)">ADC1</text><rect x="641.5" y="1315.5" width="520" height="130" stroke="#2983A9" stroke-width="4.58333" stroke-miterlimit="8" fill="#3CB4E6"/><text fill="#FFFFFF" font-family="Arial,Arial_MSFontService,sans-serif" font-weight="400" font-size="83" transform="matrix(1 0 0 1 818.143 1411)">CH1</text><rect x="2408" y="1082" width="624" height="415" fill="#03234B" fill-opacity="0.501961"/><text fill="#FFFFFF" font-family="Arial,Arial_MSFontService,sans-serif" font-weight="400" font-size="83" transform="matrix(1 0 0 1 2513.49 1178)">Destination <tspan font-size="83" x="57.2918" y="99">memory</tspan></text><rect x="2460.5" y="1315.5" width="520" height="130" stroke="#2983A9" stroke-width="4.58333" stroke-miterlimit="8" fill="#3CB4E6"/><text fill="#FFFFFF" font-family="Arial,Arial_MSFontService,sans-serif" font-weight="400" font-size="83" transform="matrix(1 0 0 1 2637.24 1411)">CH1</text><rect x="1420" y="1082" width="780" height="415" fill="#03234B"/><text fill="#FFFFFF" font-family="Arial,Arial_MSFontService,sans-serif" font-weight="400" font-size="83" transform="matrix(1 0 0 1 1606.22 1178)">GPDMA <tspan font-size="83" x="320.856" y="0">ch</tspan></text><rect x="1550.5" y="1315.5" width="520" height="130" stroke="#2983A9" stroke-width="4.58333" stroke-miterlimit="8" fill="#3CB4E6"/><text fill="#FFFFFF" font-family="Arial,Arial_MSFontService,sans-serif" font-weight="400" font-size="83" transform="matrix(1 0 0 1 1624.57 1411)">63(BDTR)</text><path d="M2070 1373.13 2425.43 1373.13C2429.23 1373.13 2432.31 1376.2 2432.31 1380 2432.31 1383.8 2429.23 1386.88 2425.43 1386.88L2070 1386.88C2066.2 1386.88 2063.12 1383.8 2063.12 1380 2063.12 1376.2 2066.2 1373.13 2070 1373.13ZM2418.56 1359.38 2459.81 1380 2418.56 1400.63Z" fill="#E6007E"/><path d="M1161 1373.13 1516.43 1373.13C1520.23 1373.13 1523.31 1376.2 1523.31 1380 1523.31 1383.8 1520.23 1386.88 1516.43 1386.88L1161 1386.88C1157.2 1386.88 1154.12 1383.8 1154.12 1380 1154.12 1376.2 1157.2 1373.13 1161 1373.13ZM1509.56 1359.38 1550.81 1380 1509.56 1400.63Z" fill="#E6007E"/></g></svg>