<svg width="2708" height="1382" xmlns="http://www.w3.org/2000/svg" xmlns:xlink="http://www.w3.org/1999/xlink" overflow="hidden"><defs><clipPath id="clip0"><rect x="457" y="950" width="2708" height="1382"/></clipPath></defs><g clip-path="url(#clip0)" transform="translate(-457 -950)"><rect x="459.5" y="952.5" width="2703" height="1377" stroke="#FFFFFF" stroke-width="4.58333" stroke-miterlimit="8" fill="#FFFFFF"/><rect x="589" y="1082" width="623" height="415" fill="#03234B" fill-opacity="0.501961"/><text fill="#FFFFFF" font-family="Arial,Arial_MSFontService,sans-serif" font-weight="400" font-size="83" transform="matrix(1 0 0 1 790.643 1178)">ADC1</text><rect x="641.5" y="1315.5" width="520" height="130" stroke="#2983A9" stroke-width="4.58333" stroke-miterlimit="8" fill="#3CB4E6"/><text fill="#FFFFFF" font-family="Arial,Arial_MSFontService,sans-serif" font-weight="400" font-size="83" transform="matrix(1 0 0 1 818.143 1411)">CH1</text><rect x="2408" y="1082" width="624" height="415" fill="#03234B" fill-opacity="0.501961"/><text fill="#FFFFFF" font-family="Arial,Arial_MSFontService,sans-serif" font-weight="400" font-size="83" transform="matrix(1 0 0 1 2513.49 1178)">Destination <tspan font-size="83" x="57.2918" y="99">memory</tspan></text><rect x="1420" y="1082" width="780" height="415" fill="#03234B"/><text fill="#FFFFFF" font-family="Arial,Arial_MSFontService,sans-serif" font-weight="400" font-size="83" transform="matrix(1 0 0 1 1606.22 1178)">GPDMA <tspan font-size="83" x="320.856" y="0">ch</tspan></text><rect x="1550.5" y="1315.5" width="520" height="130" stroke="#2983A9" stroke-width="4.58333" stroke-miterlimit="8" fill="#3CB4E6"/><text fill="#FFFFFF" font-family="Arial,Arial_MSFontService,sans-serif" font-weight="400" font-size="83" transform="matrix(1 0 0 1 1624.57 1411)">64(BDTR)</text></g></svg>