<svg width="1280" height="720" xmlns="http://www.w3.org/2000/svg" xmlns:xlink="http://www.w3.org/1999/xlink" overflow="hidden"><defs><clipPath id="clip0"><rect x="0" y="0" width="1280" height="720"/></clipPath></defs><g clip-path="url(#clip0)"><rect x="0" y="0" width="1280" height="720" fill="#FFFFFF"/><rect x="217" y="269" width="196" height="424" fill="#03234B" fill-opacity="0.501961"/><text fill="#FFFFFF" font-family="Arial,Arial_MSFontService,sans-serif" font-weight="400" font-size="24" transform="translate(230.258 297)">Source memory</text><rect x="224" y="330" width="182" height="355" fill="#49B170"/><rect x="232" y="337" width="166" height="167" fill="#FFD200"/><rect x="232" y="511" width="166" height="167" fill="#FFD200"/><rect x="239.5" y="345.5" width="152" height="38" stroke="#2983A9" stroke-width="1.33333" stroke-miterlimit="8" fill="#3CB4E6"/><text fill="#FFFFFF" font-family="Arial,Arial_MSFontService,sans-serif" font-weight="400" font-size="24" transform="translate(308.258 372)">a</text><rect x="239.5" y="383.5" width="152" height="37" stroke="#2983A9" stroke-width="1.33333" stroke-miterlimit="8" fill="#3CB4E6"/><text fill="#FFFFFF" font-family="Arial,Arial_MSFontService,sans-serif" font-weight="400" font-size="24" transform="translate(308.258 410)">b</text><rect x="239.5" y="458.5" width="152" height="38" stroke="#2983A9" stroke-width="1.33333" stroke-miterlimit="8" fill="#3CB4E6"/><text fill="#FFFFFF" font-family="Arial,Arial_MSFontService,sans-serif" font-weight="400" font-size="24" transform="translate(308.258 486)">d</text><rect x="239.5" y="519.5" width="152" height="38" stroke="#2983A9" stroke-width="1.33333" stroke-miterlimit="8" fill="#3CB4E6"/><text fill="#FFFFFF" font-family="Arial,Arial_MSFontService,sans-serif" font-weight="400" font-size="24" transform="translate(308.258 546)">e</text><rect x="239.5" y="557.5" width="152" height="37" stroke="#2983A9" stroke-width="1.33333" stroke-miterlimit="8" fill="#3CB4E6"/><text fill="#FFFFFF" font-family="Arial,Arial_MSFontService,sans-serif" font-weight="400" font-size="24" transform="translate(311.591 584)">f</text><rect x="239.5" y="594.5" width="152" height="38" stroke="#2983A9" stroke-width="1.33333" stroke-miterlimit="8" fill="#3CB4E6"/><text fill="#FFFFFF" font-family="Arial,Arial_MSFontService,sans-serif" font-weight="400" font-size="24" transform="translate(308.258 622)">g</text><rect x="239.5" y="632.5" width="152" height="38" stroke="#2983A9" stroke-width="1.33333" stroke-miterlimit="8" fill="#3CB4E6"/><text fill="#FFFFFF" font-family="Arial,Arial_MSFontService,sans-serif" font-weight="400" font-size="24" transform="translate(308.258 660)">h</text><rect x="791" y="269" width="197" height="424" fill="#03234B" fill-opacity="0.501961"/><text fill="#FFFFFF" font-family="Arial,Arial_MSFontService,sans-serif" font-weight="400" font-size="24" transform="translate(829.477 297)">Destination <tspan font-size="24" x="16.6666" y="29">memory</tspan></text><rect x="814.5" y="345.5" width="151" height="38" stroke="#2983A9" stroke-width="1.33333" stroke-miterlimit="8" fill="#3CB4E6"/><text fill="#FFFFFF" font-family="Arial,Arial_MSFontService,sans-serif" font-weight="400" font-size="24" transform="translate(882.81 372)">a</text><rect x="814.5" y="383.5" width="151" height="37" stroke="#2983A9" stroke-width="1.33333" stroke-miterlimit="8" fill="#3CB4E6"/><text fill="#FFFFFF" font-family="Arial,Arial_MSFontService,sans-serif" font-weight="400" font-size="24" transform="translate(882.81 410)">b</text><rect x="814.5" y="420.5" width="151" height="38" stroke="#2983A9" stroke-width="1.33333" stroke-miterlimit="8" fill="#3CB4E6"/><text fill="#FFFFFF" font-family="Arial,Arial_MSFontService,sans-serif" font-weight="400" font-size="24" transform="translate(883.477 448)">c</text><path d="M0.77928-1.84193 89.8483 35.8411C90.8655 36.2715 91.3413 37.445 90.9109 38.4623 90.4805 39.4796 89.307 39.9554 88.2897 39.525L-0.77928 1.84193C-1.79655 1.41155-2.27232 0.237992-1.84193-0.77928-1.41155-1.79655-0.237992-2.27232 0.77928-1.84193ZM89.5649 31.3779 98.2786 41.5794 84.8892 42.4295Z" fill="#E6007E" transform="matrix(1 0 0 -1 716 480.579)"/><rect x="489" y="398" width="227" height="166" fill="#03234B"/><text fill="#FFFFFF" font-family="Arial,Arial_MSFontService,sans-serif" font-weight="400" font-size="24" transform="translate(542.864 426)">GPDMA <tspan font-size="24" x="93.34" y="0">ch</tspan></text><rect x="519" y="458" width="166" height="91" fill="#49B170"/><path d="M391.779 437.158 480.848 474.841C481.866 475.271 482.341 476.445 481.911 477.462 481.481 478.48 480.307 478.955 479.29 478.525L390.221 440.842C389.203 440.412 388.728 439.238 389.158 438.221 389.588 437.203 390.762 436.728 391.779 437.158ZM480.565 470.378 489.279 480.579 475.889 481.43Z" fill="#E6007E"/><rect x="527.5" y="466.5" width="151" height="38" stroke="#2983A9" stroke-width="1.33333" stroke-miterlimit="8" fill="#3CB4E6"/><text fill="#FFFFFF" font-family="Arial,Arial_MSFontService,sans-serif" font-weight="400" font-size="24" transform="translate(554.867 493)">1<tspan font-size="24" x="13.3334" y="0">(</tspan>BDTR)</text><rect x="527.5" y="504.5" width="151" height="37" stroke="#BC9A00" stroke-width="1.33333" stroke-miterlimit="8" fill="#FFD200"/><text fill="#FFFFFF" font-family="Arial,Arial_MSFontService,sans-serif" font-weight="400" font-size="24" transform="translate(562.201 531)">1(<tspan font-size="24" x="21.3334" y="0">BRC)</tspan></text><rect x="239.5" y="420.5" width="152" height="38" stroke="#2983A9" stroke-width="1.33333" stroke-miterlimit="8" fill="#3CB4E6"/><text fill="#FFFFFF" font-family="Arial,Arial_MSFontService,sans-serif" font-weight="400" font-size="24" transform="translate(308.924 448)">c</text></g></svg>