<svg width="1280" height="720" xmlns="http://www.w3.org/2000/svg" xmlns:xlink="http://www.w3.org/1999/xlink" overflow="hidden"><defs><clipPath id="clip0"><rect x="0" y="0" width="1280" height="720"/></clipPath></defs><g clip-path="url(#clip0)"><rect x="0" y="0" width="1280" height="720" fill="#FFFFFF"/><rect x="141" y="269" width="197" height="265" fill="#03234B" fill-opacity="0.501961"/><text fill="#FFFFFF" font-family="Arial,Arial_MSFontService,sans-serif" font-weight="400" font-size="24" transform="translate(154.659 297)">Source memory</text><rect x="149" y="322" width="181" height="204" fill="#49B170"/><rect x="156" y="330" width="166" height="90" fill="#FFD200"/><rect x="156" y="428" width="166" height="91" fill="#FFD200"/><rect x="164.5" y="375.5" width="151" height="38" stroke="#2983A9" stroke-width="1.33333" stroke-miterlimit="8" fill="#3CB4E6"/><text fill="#FFFFFF" font-family="Arial,Arial_MSFontService,sans-serif" font-weight="400" font-size="24" transform="translate(232.659 403)">b</text><rect x="164.5" y="436.5" width="151" height="37" stroke="#2983A9" stroke-width="1.33333" stroke-miterlimit="8" fill="#3CB4E6"/><text fill="#FFFFFF" font-family="Arial,Arial_MSFontService,sans-serif" font-weight="400" font-size="24" transform="translate(233.326 463)">c</text><rect x="164.5" y="473.5" width="151" height="38" stroke="#2983A9" stroke-width="1.33333" stroke-miterlimit="8" fill="#3CB4E6"/><text fill="#FFFFFF" font-family="Arial,Arial_MSFontService,sans-serif" font-weight="400" font-size="24" transform="translate(232.659 501)">d</text><rect x="716" y="111" width="378" height="551" fill="#03234B" fill-opacity="0.501961"/><text fill="#FFFFFF" font-family="Arial,Arial_MSFontService,sans-serif" font-weight="400" font-size="24" transform="translate(797.93 138)">Destination memory</text><rect x="731.5" y="163.5" width="151" height="38" stroke="#2983A9" stroke-width="1.33333" stroke-miterlimit="8" fill="#3CB4E6"/><text fill="#FFFFFF" font-family="Arial,Arial_MSFontService,sans-serif" font-weight="400" font-size="24" transform="translate(799.651 191)">a</text><path d="M315.838 354.184 405.037 395.353C406.04 395.816 406.478 397.004 406.015 398.007 405.552 399.01 404.364 399.448 403.361 398.985L314.162 357.816C313.159 357.353 312.721 356.165 313.184 355.162 313.647 354.159 314.835 353.721 315.838 354.184ZM404.897 390.883 413.279 401.359 399.869 401.778Z" fill="#E6007E"/><path d="M1.84803-0.764704 88.7431 209.232C89.1655 210.252 88.6805 211.422 87.6598 211.845 86.6392 212.267 85.4694 211.782 85.0471 210.761L-1.84803 0.764704C-2.27037-0.255937-1.78534-1.4257-0.764704-1.84803 0.255937-2.27037 1.4257-1.78534 1.84803-0.764704ZM91.6746 205.855 90.7187 219.237 80.5864 210.443Z" fill="#E6007E" transform="matrix(1 0 0 -1 640 401.237)"/><rect x="164.5" y="337.5" width="151" height="38" stroke="#2983A9" stroke-width="1.33333" stroke-miterlimit="8" fill="#3CB4E6"/><text fill="#FFFFFF" font-family="Arial,Arial_MSFontService,sans-serif" font-weight="400" font-size="24" transform="translate(232.659 365)">a</text><rect x="413" y="284" width="227" height="235" fill="#03234B"/><text fill="#FFFFFF" font-family="Arial,Arial_MSFontService,sans-serif" font-weight="400" font-size="24" transform="translate(467.265 312)">GPDMA <tspan font-size="24" x="93.34" y="0">ch</tspan></text><rect x="436.5" y="352.5" width="181" height="38" stroke="#2983A9" stroke-width="1.33333" stroke-miterlimit="8" fill="#3CB4E6"/><text fill="#FFFFFF" font-family="Arial,Arial_MSFontService,sans-serif" font-weight="400" font-size="24" transform="translate(479.268 380)">1<tspan font-size="24" x="13.3333" y="0">(</tspan>BDTR)</text><rect x="436.5" y="390.5" width="181" height="38" stroke="#BC9A00" stroke-width="1.33333" stroke-miterlimit="8" fill="#FFD200"/><text fill="#FFFFFF" font-family="Arial,Arial_MSFontService,sans-serif" font-weight="400" font-size="24" transform="translate(486.602 418)">1<tspan font-size="24" x="13.3333" y="0">(</tspan>BRC)</text><rect x="451.5" y="428.5" width="166" height="38" stroke="#BFBFBF" stroke-width="1.33333" stroke-miterlimit="8" fill="#D9D9D9"/><text fill="#FFFFFF" font-family="Arial,Arial_MSFontService,sans-serif" font-weight="400" font-size="24" transform="translate(493.495 456)">2(<tspan font-size="24" x="21.3333" y="0">DAO)</tspan></text><rect x="451.5" y="466.5" width="166" height="38" stroke="#7F7F7F" stroke-width="1.33333" stroke-miterlimit="8" fill="#A6A6A6"/><text fill="#FFFFFF" font-family="Arial,Arial_MSFontService,sans-serif" font-weight="400" font-size="24" transform="translate(476.828 493)">2(<tspan font-size="24" x="21.3333" y="0">BRDAO)</tspan></text><rect x="436.5" y="428.5" width="15" height="38" stroke="#BFBFBF" stroke-width="1.33333" stroke-miterlimit="8" fill="#D9D9D9"/><text fill="#FFFFFF" font-family="Arial,Arial_MSFontService,sans-serif" font-weight="400" font-size="24" transform="translate(436.443 456)">+</text><rect x="436.5" y="466.5" width="15" height="38" stroke="#7F7F7F" stroke-width="1.33333" stroke-miterlimit="8" fill="#A6A6A6"/><text fill="#FFFFFF" font-family="Arial,Arial_MSFontService,sans-serif" font-weight="400" font-size="24" transform="translate(436.443 493)">+</text></g></svg>