<svg width="1280" height="720" xmlns="http://www.w3.org/2000/svg" xmlns:xlink="http://www.w3.org/1999/xlink" overflow="hidden"><defs><clipPath id="clip0"><rect x="0" y="0" width="1280" height="720"/></clipPath></defs><g clip-path="url(#clip0)"><rect x="0" y="0" width="1280" height="720" fill="#FFFFFF"/><rect x="133.5" y="118.5" width="794" height="544" stroke="#FFFFFF" stroke-width="1.33333" stroke-miterlimit="8" fill="#FFFFFF"/><path d="M648 320 743.839 320C744.943 320 745.839 320.896 745.839 322 745.839 323.105 744.943 324 743.839 324L648 324C646.895 324 646 323.105 646 322 646 320.895 646.895 320 648 320ZM741.839 316 753.839 322 741.839 328Z" fill="#E6007E"/><rect x="640" y="254" width="242" height="363" fill="#49B170"/><text fill="#FFFFFF" font-family="Arial,Arial_MSFontService,sans-serif" font-weight="400" font-size="24" transform="translate(654.288 282)">DMA_NodeTypeDef</text><rect x="648.5" y="383.5" width="226" height="37" stroke="#2983A9" stroke-width="1.33333" stroke-miterlimit="8" fill="#3CB4E6"/><text fill="#FFFFFF" font-family="Arial,Arial_MSFontService,sans-serif" font-weight="400" font-size="24" transform="translate(737.625 410)">BR1</text><rect x="648.5" y="307.5" width="226" height="38" stroke="#2983A9" stroke-width="1.33333" stroke-miterlimit="8" fill="#3CB4E6"/><text fill="#FFFFFF" font-family="Arial,Arial_MSFontService,sans-serif" font-weight="400" font-size="24" transform="translate(738.292 335)">TR1</text><rect x="648.5" y="345.5" width="226" height="38" stroke="#2983A9" stroke-width="1.33333" stroke-miterlimit="8" fill="#3CB4E6"/><text fill="#FFFFFF" font-family="Arial,Arial_MSFontService,sans-serif" font-weight="400" font-size="24" transform="translate(738.292 372)">TR2</text><rect x="648.5" y="420.5" width="226" height="38" stroke="#2983A9" stroke-width="1.33333" stroke-miterlimit="8" fill="#3CB4E6"/><text fill="#FFFFFF" font-family="Arial,Arial_MSFontService,sans-serif" font-weight="400" font-size="24" transform="translate(736.292 448)">SAR</text><rect x="648.5" y="458.5" width="226" height="38" stroke="#2983A9" stroke-width="1.33333" stroke-miterlimit="8" fill="#3CB4E6"/><text fill="#FFFFFF" font-family="Arial,Arial_MSFontService,sans-serif" font-weight="400" font-size="24" transform="translate(735.625 486)">DAR</text><rect x="648" y="496" width="226" height="38" fill="#3CB4E6" fill-opacity="0.501961"/><text fill="#FFFFFF" font-family="Arial,Arial_MSFontService,sans-serif" font-weight="400" font-size="24" transform="translate(738.292 524)">TR3</text><rect x="648" y="534" width="226" height="38" fill="#3CB4E6" fill-opacity="0.501961"/><text fill="#FFFFFF" font-family="Arial,Arial_MSFontService,sans-serif" font-weight="400" font-size="24" transform="translate(737.625 561)">BR2</text><rect x="648" y="572" width="226" height="37" fill="#03234B" fill-opacity="0.501961"/><text fill="#FFFFFF" font-family="Arial,Arial_MSFontService,sans-serif" font-weight="400" font-size="24" transform="translate(738.958 599)">LLR</text><rect x="171" y="269" width="318" height="333" fill="#03234B" fill-opacity="0.501961"/><text fill="#FFFFFF" font-family="Arial,Arial_MSFontService,sans-serif" font-weight="400" font-size="24" transform="translate(184.041 297)">DMA Config Node structure<tspan font-size="24" x="14" y="29">DMA_NodeConfTypeDef</tspan></text><rect x="209.5" y="352.5" width="242" height="38" stroke="#2983A9" stroke-width="1.33333" stroke-miterlimit="8" fill="#3CB4E6"/><text fill="#FFFFFF" font-family="Arial,Arial_MSFontService,sans-serif" font-weight="400" font-size="24" transform="translate(248.711 380)">BlkHWRequest</text><rect x="209.5" y="390.5" width="242" height="38" stroke="#2983A9" stroke-width="1.33333" stroke-miterlimit="8" fill="#3CB4E6"/><text fill="#FFFFFF" font-family="Arial,Arial_MSFontService,sans-serif" font-weight="400" font-size="24" transform="translate(285.378 418)">Request</text><rect x="209.5" y="428.5" width="242" height="38" stroke="#2983A9" stroke-width="1.33333" stroke-miterlimit="8" fill="#3CB4E6"/><text fill="#FFFFFF" font-family="Arial,Arial_MSFontService,sans-serif" font-weight="400" font-size="24" transform="translate(282.711 456)">Direction</text><rect x="209.5" y="466.5" width="242" height="38" stroke="#2983A9" stroke-width="1.33333" stroke-miterlimit="8" fill="#3CB4E6"/><text fill="#FFFFFF" font-family="Arial,Arial_MSFontService,sans-serif" font-weight="400" font-size="24" transform="translate(296.044 493)">SrcInc</text><rect x="209.5" y="504.5" width="242" height="37" stroke="#2983A9" stroke-width="1.33333" stroke-miterlimit="8" fill="#3CB4E6"/><text fill="#FFFFFF" font-family="Arial,Arial_MSFontService,sans-serif" font-weight="400" font-size="24" transform="translate(289.378 531)">DestInc</text><rect x="209.5" y="541.5" width="242" height="38" stroke="#2983A9" stroke-width="1.33333" stroke-miterlimit="8" fill="#3CB4E6"/><text fill="#FFFFFF" font-family="Arial,Arial_MSFontService,sans-serif" font-weight="400" font-size="24" transform="translate(318.044 569)">…</text><rect x="375" y="156" width="378" height="75" fill="#E6007E"/><text fill="#FFFFFF" font-family="Arial,Arial_MSFontService,sans-serif" font-weight="400" font-size="24" transform="translate(406.401 202)">HAL_DMAEx_List_BuildNode</text><path d="M489.5 429.833 607.365 429.833 607.365 443.167 489.5 443.167ZM600.698 416.5 640.698 436.5 600.698 456.5Z" fill="#E6007E"/><path d="M564 231 564 435.117" stroke="#E6007E" stroke-width="4" stroke-miterlimit="8" fill="none" fill-rule="evenodd"/></g></svg>