<svg width="1280" height="720" xmlns="http://www.w3.org/2000/svg" xmlns:xlink="http://www.w3.org/1999/xlink" overflow="hidden"><defs><clipPath id="clip0"><rect x="0" y="0" width="1280" height="720"/></clipPath></defs><g clip-path="url(#clip0)"><rect x="0" y="0" width="1280" height="720" fill="#FFFFFF"/><rect x="300" y="20" width="589" height="249" fill="#FFD200" fill-opacity="0.501961"/><text fill="#FFFFFF" font-family="Arial,Arial_MSFontService,sans-serif" font-weight="400" font-size="24" transform="translate(505.304 48)">GPDMA QUEUE</text><path d="M338 131 433.839 131C434.943 131 435.839 131.896 435.839 133 435.839 134.105 434.943 135 433.839 135L338 135C336.895 135 336 134.105 336 133 336 131.895 336.895 131 338 131ZM431.839 127 443.839 133 431.839 139Z" fill="#03234B"/><rect x="330" y="65" width="242" height="174" fill="#49B170"/><text fill="#FFFFFF" font-family="Arial,Arial_MSFontService,sans-serif" font-weight="400" font-size="24" transform="translate(359.666 93)">GPDMA NODE 1</text><path d="M610 131 705.839 131C706.943 131 707.839 131.896 707.839 133 707.839 134.105 706.943 135 705.839 135L610 135C608.895 135 608 134.105 608 133 608 131.895 608.895 131 610 131ZM703.839 127 715.839 133 703.839 139Z" fill="#03234B"/><rect x="602" y="65" width="242" height="174" fill="#8C0078"/><text fill="#FFFFFF" font-family="Arial,Arial_MSFontService,sans-serif" font-weight="400" font-size="24" transform="translate(631.822 93)">GPDMA NODE 2</text><rect x="338.5" y="118.5" width="226" height="38" stroke="#2983A9" stroke-width="1.33333" stroke-miterlimit="8" fill="#3CB4E6"/><text fill="#FFFFFF" font-family="Arial,Arial_MSFontService,sans-serif" font-weight="400" font-size="24" transform="translate(400.336 146)">4<tspan font-size="24" x="20" y="0">(BDTR)</tspan></text><path d="M572 216 587.12 216" stroke="#03234B" stroke-width="4" stroke-linecap="round" stroke-miterlimit="8" fill="none" fill-rule="evenodd"/><path d="M0 0 0.000104987 75.5989" stroke="#03234B" stroke-width="4" stroke-linecap="round" stroke-miterlimit="8" fill="none" fill-rule="evenodd" transform="matrix(1 0 0 -1 587 216.599)"/><path d="M587 139 599.68 139C600.784 139 601.68 139.895 601.68 141 601.68 142.105 600.784 143 599.68 143L587 143C585.895 143 585 142.105 585 141 585 139.895 585.895 139 587 139ZM597.68 135 609.68 141 597.68 147Z" fill="#03234B"/><path d="M0 0 0.000104987 113.398" stroke="#03234B" stroke-width="4" stroke-linecap="round" stroke-miterlimit="8" fill="none" fill-rule="evenodd" transform="matrix(1 0 0 -1 315 254.398)"/><path d="M0 0 0.000104987 37.7995" stroke="#03234B" stroke-width="4" stroke-linecap="round" stroke-miterlimit="8" fill="none" fill-rule="evenodd" transform="matrix(1 0 0 -1 859 253.799)"/><path d="M315 139 327.68 139C328.784 139 329.68 139.895 329.68 141 329.68 142.105 328.784 143 327.68 143L315 143C313.895 143 313 142.105 313 141 313 139.895 313.895 139 315 139ZM325.68 135 337.68 141 325.68 147Z" fill="#03234B"/><path d="M844 216 859.12 216" stroke="#03234B" stroke-width="4" stroke-linecap="round" stroke-miterlimit="8" fill="none" fill-rule="evenodd"/><path d="M315 254 859.312 254" stroke="#03234B" stroke-width="4" stroke-linecap="round" stroke-miterlimit="8" fill="none" fill-rule="evenodd"/><rect x="338.5" y="156.5" width="226" height="38" stroke="#BC9A00" stroke-width="1.33333" stroke-miterlimit="8" fill="#FFD200"/><text fill="#FFFFFF" font-family="Arial,Arial_MSFontService,sans-serif" font-weight="400" font-size="24" transform="translate(411.003 183)">2(<tspan font-size="24" x="21.3333" y="0">BRC)</tspan></text><rect x="610.5" y="118.5" width="227" height="38" stroke="#2983A9" stroke-width="1.33333" stroke-miterlimit="8" fill="#3CB4E6"/><text fill="#FFFFFF" font-family="Arial,Arial_MSFontService,sans-serif" font-weight="400" font-size="24" transform="translate(672.492 146)">4 (BDTR)</text><rect x="610.5" y="156.5" width="227" height="38" stroke="#BC9A00" stroke-width="1.33333" stroke-miterlimit="8" fill="#FFD200"/><text fill="#FFFFFF" font-family="Arial,Arial_MSFontService,sans-serif" font-weight="400" font-size="24" transform="translate(683.159 183)">2(<tspan font-size="24" x="21.3333" y="0">BRC)</tspan></text><rect x="217" y="284" width="196" height="424" fill="#03234B" fill-opacity="0.501961"/><text fill="#FFFFFF" font-family="Arial,Arial_MSFontService,sans-serif" font-weight="400" font-size="24" transform="translate(230.258 312)">Source memory</text><rect x="224" y="345" width="182" height="355" fill="#49B170"/><rect x="232" y="352" width="166" height="167" fill="#FFD200"/><rect x="232" y="526" width="166" height="167" fill="#FFD200"/><rect x="239.5" y="360.5" width="152" height="38" stroke="#2983A9" stroke-width="1.33333" stroke-miterlimit="8" fill="#3CB4E6"/><text fill="#FFFFFF" font-family="Arial,Arial_MSFontService,sans-serif" font-weight="400" font-size="24" transform="translate(308.258 387)">a</text><rect x="239.5" y="647.5" width="152" height="38" stroke="#2983A9" stroke-width="1.33333" stroke-miterlimit="8" fill="#3CB4E6"/><text fill="#FFFFFF" font-family="Arial,Arial_MSFontService,sans-serif" font-weight="400" font-size="24" transform="translate(308.258 675)">h</text><rect x="791" y="284" width="197" height="424" fill="#03234B" fill-opacity="0.501961"/><text fill="#FFFFFF" font-family="Arial,Arial_MSFontService,sans-serif" font-weight="400" font-size="24" transform="translate(829.477 312)">Destination <tspan font-size="24" x="16.6666" y="29">memory</tspan></text><rect x="814.5" y="360.5" width="151" height="38" stroke="#2983A9" stroke-width="1.33333" stroke-miterlimit="8" fill="#3CB4E6"/><text fill="#FFFFFF" font-family="Arial,Arial_MSFontService,sans-serif" font-weight="400" font-size="24" transform="translate(882.81 387)">a</text><rect x="814.5" y="398.5" width="151" height="38" stroke="#2983A9" stroke-width="1.33333" stroke-miterlimit="8" fill="#3CB4E6"/><text fill="#FFFFFF" font-family="Arial,Arial_MSFontService,sans-serif" font-weight="400" font-size="24" transform="translate(882.81 425)">b</text><rect x="814.5" y="436.5" width="151" height="37" stroke="#2983A9" stroke-width="1.33333" stroke-miterlimit="8" fill="#3CB4E6"/><text fill="#FFFFFF" font-family="Arial,Arial_MSFontService,sans-serif" font-weight="400" font-size="24" transform="translate(883.477 463)">c</text><rect x="814.5" y="473.5" width="151" height="38" stroke="#2983A9" stroke-width="1.33333" stroke-miterlimit="8" fill="#3CB4E6"/><text fill="#FFFFFF" font-family="Arial,Arial_MSFontService,sans-serif" font-weight="400" font-size="24" transform="translate(882.81 501)">d</text><rect x="814.5" y="534.5" width="151" height="38" stroke="#2983A9" stroke-width="1.33333" stroke-miterlimit="8" fill="#3CB4E6"/><text fill="#FFFFFF" font-family="Arial,Arial_MSFontService,sans-serif" font-weight="400" font-size="24" transform="translate(882.81 561)">e</text><path d="M391.779 415.158 480.848 452.841C481.866 453.271 482.341 454.445 481.911 455.462 481.481 456.48 480.307 456.955 479.29 456.525L390.221 418.842C389.203 418.412 388.728 417.238 389.158 416.221 389.588 415.203 390.762 414.728 391.779 415.158ZM480.565 448.378 489.279 458.579 475.889 459.43Z" fill="#E6007E"/><path d="M391.378 452.036 479.836 469.047C480.921 469.256 481.631 470.304 481.423 471.389 481.214 472.474 480.166 473.184 479.081 472.975L390.622 455.964C389.538 455.755 388.827 454.707 389.036 453.622 389.245 452.538 390.293 451.827 391.378 452.036ZM478.628 464.742 489.279 472.9 476.361 476.526Z" fill="#E6007E"/><path d="M0.0768662-1.99852 88.3629 1.39709C89.4666 1.43955 90.327 2.36873 90.2845 3.47248 90.2421 4.57624 89.3129 5.43659 88.2091 5.39414L-0.0768662 1.99852C-1.18062 1.95607-2.04097 1.02689-1.99852-0.0768662-1.95607-1.18062-1.02689-2.04097 0.0768662-1.99852ZM86.5181-2.67682 98.2786 3.77995 86.0569 9.31432Z" fill="#E6007E" transform="matrix(1 0 0 -1 391 492.78)"/><rect x="239.5" y="398.5" width="152" height="38" stroke="#2983A9" stroke-width="1.33333" stroke-miterlimit="8" fill="#3CB4E6"/><text fill="#FFFFFF" font-family="Arial,Arial_MSFontService,sans-serif" font-weight="400" font-size="24" transform="translate(308.258 425)">b</text><rect x="239.5" y="436.5" width="152" height="37" stroke="#2983A9" stroke-width="1.33333" stroke-miterlimit="8" fill="#3CB4E6"/><text fill="#FFFFFF" font-family="Arial,Arial_MSFontService,sans-serif" font-weight="400" font-size="24" transform="translate(308.924 463)">c</text><rect x="239.5" y="473.5" width="152" height="38" stroke="#2983A9" stroke-width="1.33333" stroke-miterlimit="8" fill="#3CB4E6"/><text fill="#FFFFFF" font-family="Arial,Arial_MSFontService,sans-serif" font-weight="400" font-size="24" transform="translate(308.258 501)">d</text><path d="M0.9482-1.76094 90.4221 46.4173C91.3947 46.941 91.7585 48.1539 91.2349 49.1265 90.7112 50.099 89.4983 50.4629 88.5257 49.9392L-0.9482 1.76094C-1.92074 1.23727-2.28462 0.024342-1.76094-0.9482-1.23727-1.92074-0.024342-2.28462 0.9482-1.76094ZM90.5576 41.9472 98.2786 52.9193 84.8684 52.5129Z" fill="#E6007E" transform="matrix(1 0 0 -1 391 556.919)"/><path d="M1.25667-1.55588 91.7559 71.5396C92.6152 72.2337 92.7492 73.4929 92.0551 74.3522 91.3611 75.2115 90.1018 75.3455 89.2426 74.6514L-1.25667 1.55588C-2.11596 0.86184-2.24992-0.397384-1.55588-1.25667-0.86184-2.11596 0.397384-2.24992 1.25667-1.55588ZM92.7134 67.1712 98.2786 79.3789 85.1733 76.5065Z" fill="#E6007E" transform="matrix(1 0 0 -1 716 496.379)"/><path d="M0.77928-1.84193 89.8483 35.8411C90.8655 36.2715 91.3413 37.445 90.9109 38.4623 90.4805 39.4796 89.307 39.9554 88.2897 39.525L-0.77928 1.84193C-1.79655 1.41155-2.27232 0.237992-1.84193-0.77928-1.41155-1.79655-0.237992-2.27232 0.77928-1.84193ZM89.5649 31.3779 98.2786 41.5794 84.8892 42.4295Z" fill="#E6007E" transform="matrix(1 0 0 -1 716 495.579)"/><path d="M0.0768662-1.99852 88.3629 1.39709C89.4666 1.43955 90.327 2.36873 90.2845 3.47248 90.2421 4.57624 89.3129 5.43659 88.2091 5.39414L-0.0768662 1.99852C-1.18062 1.95607-2.04097 1.02689-1.99852-0.0768662-1.95607-1.18062-1.02689-2.04097 0.0768662-1.99852ZM86.5181-2.67682 98.2786 3.77995 86.0569 9.31432Z" fill="#E6007E" transform="matrix(1 0 0 -1 716 495.78)"/><path d="M716.999 494.268 806.616 545.97C807.573 546.522 807.901 547.745 807.349 548.701 806.797 549.658 805.574 549.986 804.617 549.434L715.001 497.732C714.044 497.18 713.716 495.957 714.268 495.001 714.82 494.044 716.043 493.716 716.999 494.268ZM806.883 541.505 814.279 552.699 800.886 551.9Z" fill="#E6007E"/><rect x="239.5" y="534.5" width="152" height="38" stroke="#2983A9" stroke-width="1.33333" stroke-miterlimit="8" fill="#3CB4E6"/><text fill="#FFFFFF" font-family="Arial,Arial_MSFontService,sans-serif" font-weight="400" font-size="24" transform="translate(308.258 561)">e</text><rect x="814.5" y="572.5" width="151" height="37" stroke="#2983A9" stroke-width="1.33333" stroke-miterlimit="8" fill="#3CB4E6"/><text fill="#FFFFFF" font-family="Arial,Arial_MSFontService,sans-serif" font-weight="400" font-size="24" transform="translate(886.143 599)">f</text><rect x="814.5" y="609.5" width="151" height="38" stroke="#2983A9" stroke-width="1.33333" stroke-miterlimit="8" fill="#3CB4E6"/><text fill="#FFFFFF" font-family="Arial,Arial_MSFontService,sans-serif" font-weight="400" font-size="24" transform="translate(882.81 637)">g</text><path d="M717.386 494.558 808.457 582.126C809.253 582.892 809.278 584.158 808.512 584.954 807.746 585.75 806.48 585.775 805.684 585.009L714.614 497.442C713.818 496.676 713.793 495.41 714.558 494.614 715.324 493.818 716.59 493.793 717.386 494.558ZM809.787 577.856 814.279 590.499 801.47 586.506Z" fill="#E6007E"/><path d="M717.605 494.807 809.921 619.078C810.58 619.965 810.395 621.217 809.508 621.876 808.621 622.535 807.369 622.35 806.71 621.463L714.395 497.193C713.736 496.306 713.921 495.053 714.807 494.395 715.694 493.736 716.947 493.921 717.605 494.807ZM811.939 615.087 814.279 628.298 802.306 622.243Z" fill="#E6007E"/><rect x="489" y="413" width="227" height="166" fill="#03234B"/><text fill="#FFFFFF" font-family="Arial,Arial_MSFontService,sans-serif" font-weight="400" font-size="24" transform="translate(542.864 441)">GPDMA <tspan font-size="24" x="93.34" y="0">ch</tspan></text><rect x="519" y="473" width="166" height="91" fill="#49B170"/><rect x="527.5" y="481.5" width="151" height="38" stroke="#2983A9" stroke-width="1.33333" stroke-miterlimit="8" fill="#3CB4E6"/><text fill="#FFFFFF" font-family="Arial,Arial_MSFontService,sans-serif" font-weight="400" font-size="24" transform="translate(554.867 508)">1<tspan font-size="24" x="13.3334" y="0">(</tspan>BDTR)</text><rect x="527.5" y="519.5" width="151" height="38" stroke="#BC9A00" stroke-width="1.33333" stroke-miterlimit="8" fill="#FFD200"/><text fill="#FFFFFF" font-family="Arial,Arial_MSFontService,sans-serif" font-weight="400" font-size="24" transform="translate(562.201 546)">0<tspan font-size="24" x="13.3334" y="0">(</tspan>BRC)</text><path d="M519 367.5C519 363.358 522.358 360 526.5 360L677.5 360C681.642 360 685 363.358 685 367.5L685 397.5C685 401.642 681.642 405 677.5 405L526.5 405C522.358 405 519 401.642 519 397.5Z" fill="#E6007E" fill-rule="evenodd"/><text fill="#FFFFFF" font-family="Arial,Arial_MSFontService,sans-serif" font-weight="400" font-size="24" transform="translate(545.534 391)">6<tspan font-size="24" x="13.3333" y="0">x transfer</tspan></text><path d="M1.18003-1.61478 91.3848 64.3041C92.2766 64.9558 92.4712 66.2071 91.8195 67.0989 91.1678 67.9907 89.9165 68.1853 89.0247 67.5336L-1.18003 1.61478C-2.07185 0.963068-2.2665-0.288214-1.61478-1.18003-0.963068-2.07185 0.288214-2.2665 1.18003-1.61478ZM92.13 59.8945 98.2786 71.819 85.0498 69.5832Z" fill="#E6007E" transform="matrix(1 0 0 -1 391 590.819)"/><path d="M1.38622-1.44167 92.4565 86.1259C93.2527 86.8915 93.2776 88.1576 92.512 88.9538 91.7464 89.75 90.4803 89.7749 89.6841 89.0093L-1.38622 1.44167C-2.18243 0.676079-2.20725-0.590007-1.44167-1.38622-0.676079-2.18243 0.590007-2.20725 1.38622-1.44167ZM93.7873 81.8564 98.2786 94.4987 85.47 90.5064Z" fill="#E6007E" transform="matrix(1 0 0 -1 391 628.499)"/><rect x="239.5" y="572.5" width="152" height="37" stroke="#2983A9" stroke-width="1.33333" stroke-miterlimit="8" fill="#3CB4E6"/><text fill="#FFFFFF" font-family="Arial,Arial_MSFontService,sans-serif" font-weight="400" font-size="24" transform="translate(311.591 599)">f</text><rect x="239.5" y="609.5" width="152" height="38" stroke="#2983A9" stroke-width="1.33333" stroke-miterlimit="8" fill="#3CB4E6"/><text fill="#FFFFFF" font-family="Arial,Arial_MSFontService,sans-serif" font-weight="400" font-size="24" transform="translate(308.258 637)">g</text></g></svg>