<svg width="1280" height="720" xmlns="http://www.w3.org/2000/svg" xmlns:xlink="http://www.w3.org/1999/xlink" overflow="hidden"><defs><clipPath id="clip0"><rect x="0" y="0" width="1280" height="720"/></clipPath></defs><g clip-path="url(#clip0)"><rect x="0" y="0" width="1280" height="720" fill="#FFFFFF"/><rect x="28.5001" y="73.5001" width="1035" height="627" stroke="#FFFFFF" stroke-width="1.33333" stroke-miterlimit="8" fill="#FFFFFF"/><rect x="65" y="209" width="273" height="453" fill="#FFD200" fill-opacity="0.501961"/><text fill="#FFFFFF" font-family="Arial,Arial_MSFontService,sans-serif" font-weight="400" font-size="24" transform="translate(110.859 237)">LLI memory area</text><path d="M88 350 183.839 350C184.943 350 185.839 350.896 185.839 352 185.839 353.105 184.943 354 183.839 354L88 354C86.8954 354 86 353.105 86 352 86 350.895 86.8954 350 88 350ZM181.839 346 193.839 352 181.839 358Z" fill="#E6007E"/><rect x="81" y="284" width="241" height="363" fill="#49B170" fill-opacity="0.501961"/><text fill="#FFFFFF" font-family="Arial,Arial_MSFontService,sans-serif" font-weight="400" font-size="24" transform="translate(94.8561 312)">DMA_NodeTypeDef</text><rect x="88.5001" y="413.5" width="227" height="38" stroke="#2983A9" stroke-width="1.33333" stroke-miterlimit="8" fill="#3CB4E6"/><text fill="#FFFFFF" font-family="Arial,Arial_MSFontService,sans-serif" font-weight="400" font-size="24" transform="translate(178.193 440)">BR1</text><rect x="88.5001" y="337.5" width="227" height="38" stroke="#2983A9" stroke-width="1.33333" stroke-miterlimit="8" fill="#3CB4E6"/><text fill="#FFFFFF" font-family="Arial,Arial_MSFontService,sans-serif" font-weight="400" font-size="24" transform="translate(178.859 365)">TR1</text><rect x="88.5001" y="375.5" width="227" height="38" stroke="#2983A9" stroke-width="1.33333" stroke-miterlimit="8" fill="#3CB4E6"/><text fill="#FFFFFF" font-family="Arial,Arial_MSFontService,sans-serif" font-weight="400" font-size="24" transform="translate(178.859 403)">TR2</text><rect x="88.5001" y="451.5" width="227" height="38" stroke="#2983A9" stroke-width="1.33333" stroke-miterlimit="8" fill="#3CB4E6"/><text fill="#FFFFFF" font-family="Arial,Arial_MSFontService,sans-serif" font-weight="400" font-size="24" transform="translate(176.859 478)">SAR</text><rect x="88.5001" y="489.5" width="227" height="37" stroke="#2983A9" stroke-width="1.33333" stroke-miterlimit="8" fill="#3CB4E6"/><text fill="#FFFFFF" font-family="Arial,Arial_MSFontService,sans-serif" font-weight="400" font-size="24" transform="translate(176.193 516)">DAR</text><rect x="88" y="526" width="227" height="38" fill="#3CB4E6" fill-opacity="0.501961"/><text fill="#FFFFFF" font-family="Arial,Arial_MSFontService,sans-serif" font-weight="400" font-size="24" transform="translate(178.859 554)">TR3</text><rect x="88" y="564" width="227" height="38" fill="#3CB4E6" fill-opacity="0.501961"/><text fill="#FFFFFF" font-family="Arial,Arial_MSFontService,sans-serif" font-weight="400" font-size="24" transform="translate(178.193 592)">BR2</text><rect x="88" y="602" width="227" height="38" fill="#03234B" fill-opacity="0.501961"/><text fill="#FFFFFF" font-family="Arial,Arial_MSFontService,sans-serif" font-weight="400" font-size="24" transform="translate(179.526 629)">LLR</text><rect x="345.5" y="111.5" width="378" height="75" stroke="#A9005B" stroke-width="1.33333" stroke-miterlimit="8" fill="#E6007E"/><text fill="#FFFFFF" font-family="Arial,Arial_MSFontService,sans-serif" font-weight="400" font-size="24" transform="translate(372.828 157)">HAL_DMAEx_List_InsertNode</text><rect x="489" y="209" width="537" height="453" fill="#8C0078" fill-opacity="0.501961"/><text fill="#FFFFFF" font-family="Arial,Arial_MSFontService,sans-serif" font-weight="400" font-size="24" transform="translate(685.842 237)">LLI list queue<tspan font-size="24" x="-34.6667" y="29">DMA_QListTypeDef</tspan></text><path d="M511 350 606.839 350C607.943 350 608.839 350.896 608.839 352 608.839 353.105 607.943 354 606.839 354L511 354C509.895 354 509 353.105 509 352 509 350.895 509.895 350 511 350ZM604.839 346 616.839 352 604.839 358Z" fill="#E6007E"/><rect x="504" y="284" width="242" height="363" fill="#49B170" fill-opacity="0.501961"/><text fill="#FFFFFF" font-family="Arial,Arial_MSFontService,sans-serif" font-weight="400" font-size="24" transform="translate(518.21 312)">DMA_NodeTypeDef</text><rect x="511.5" y="413.5" width="227" height="38" stroke="#2983A9" stroke-width="1.33333" stroke-miterlimit="8" fill="#3CB4E6"/><text fill="#FFFFFF" font-family="Arial,Arial_MSFontService,sans-serif" font-weight="400" font-size="24" transform="translate(601.547 440)">BR1</text><rect x="511.5" y="337.5" width="227" height="38" stroke="#2983A9" stroke-width="1.33333" stroke-miterlimit="8" fill="#3CB4E6"/><text fill="#FFFFFF" font-family="Arial,Arial_MSFontService,sans-serif" font-weight="400" font-size="24" transform="translate(602.214 365)">TR1</text><rect x="511.5" y="375.5" width="227" height="38" stroke="#2983A9" stroke-width="1.33333" stroke-miterlimit="8" fill="#3CB4E6"/><text fill="#FFFFFF" font-family="Arial,Arial_MSFontService,sans-serif" font-weight="400" font-size="24" transform="translate(602.214 403)">TR2</text><rect x="511.5" y="451.5" width="227" height="38" stroke="#2983A9" stroke-width="1.33333" stroke-miterlimit="8" fill="#3CB4E6"/><text fill="#FFFFFF" font-family="Arial,Arial_MSFontService,sans-serif" font-weight="400" font-size="24" transform="translate(600.214 478)">SAR</text><rect x="511.5" y="489.5" width="227" height="37" stroke="#2983A9" stroke-width="1.33333" stroke-miterlimit="8" fill="#3CB4E6"/><text fill="#FFFFFF" font-family="Arial,Arial_MSFontService,sans-serif" font-weight="400" font-size="24" transform="translate(599.547 516)">DAR</text><rect x="511" y="526" width="227" height="38" fill="#3CB4E6" fill-opacity="0.501961"/><text fill="#FFFFFF" font-family="Arial,Arial_MSFontService,sans-serif" font-weight="400" font-size="24" transform="translate(602.214 554)">TR3</text><rect x="511" y="564" width="227" height="38" fill="#3CB4E6" fill-opacity="0.501961"/><text fill="#FFFFFF" font-family="Arial,Arial_MSFontService,sans-serif" font-weight="400" font-size="24" transform="translate(601.547 592)">BR2</text><rect x="511" y="602" width="227" height="38" fill="#03234B" fill-opacity="0.501961"/><text fill="#FFFFFF" font-family="Arial,Arial_MSFontService,sans-serif" font-weight="400" font-size="24" transform="translate(602.88 629)">LLR</text><path d="M776 350 871.839 350C872.943 350 873.839 350.896 873.839 352 873.839 353.105 872.943 354 871.839 354L776 354C774.895 354 774 353.105 774 352 774 350.895 774.895 350 776 350ZM869.839 346 881.839 352 869.839 358Z" fill="#E6007E"/><rect x="769" y="284" width="241" height="363" fill="#FFD200" fill-opacity="0.501961"/><text fill="#FFFFFF" font-family="Arial,Arial_MSFontService,sans-serif" font-weight="400" font-size="24" transform="translate(782.807 312)">DMA_NodeTypeDef</text><rect x="776.5" y="413.5" width="227" height="38" stroke="#2983A9" stroke-width="1.33333" stroke-miterlimit="8" fill="#3CB4E6"/><text fill="#FFFFFF" font-family="Arial,Arial_MSFontService,sans-serif" font-weight="400" font-size="24" transform="translate(866.143 440)">BR1</text><rect x="776.5" y="337.5" width="227" height="38" stroke="#2983A9" stroke-width="1.33333" stroke-miterlimit="8" fill="#3CB4E6"/><text fill="#FFFFFF" font-family="Arial,Arial_MSFontService,sans-serif" font-weight="400" font-size="24" transform="translate(866.81 365)">TR1</text><rect x="776.5" y="375.5" width="227" height="38" stroke="#2983A9" stroke-width="1.33333" stroke-miterlimit="8" fill="#3CB4E6"/><text fill="#FFFFFF" font-family="Arial,Arial_MSFontService,sans-serif" font-weight="400" font-size="24" transform="translate(866.81 403)">TR2</text><rect x="776.5" y="451.5" width="227" height="38" stroke="#2983A9" stroke-width="1.33333" stroke-miterlimit="8" fill="#3CB4E6"/><text fill="#FFFFFF" font-family="Arial,Arial_MSFontService,sans-serif" font-weight="400" font-size="24" transform="translate(864.81 478)">SAR</text><rect x="776.5" y="489.5" width="227" height="37" stroke="#2983A9" stroke-width="1.33333" stroke-miterlimit="8" fill="#3CB4E6"/><text fill="#FFFFFF" font-family="Arial,Arial_MSFontService,sans-serif" font-weight="400" font-size="24" transform="translate(864.143 516)">DAR</text><rect x="776" y="526" width="227" height="38" fill="#3CB4E6" fill-opacity="0.501961"/><text fill="#FFFFFF" font-family="Arial,Arial_MSFontService,sans-serif" font-weight="400" font-size="24" transform="translate(866.81 554)">TR3</text><rect x="776" y="564" width="227" height="38" fill="#3CB4E6" fill-opacity="0.501961"/><text fill="#FFFFFF" font-family="Arial,Arial_MSFontService,sans-serif" font-weight="400" font-size="24" transform="translate(866.143 592)">BR2</text><rect x="776" y="602" width="227" height="38" fill="#03234B" fill-opacity="0.501961"/><text fill="#FFFFFF" font-family="Arial,Arial_MSFontService,sans-serif" font-weight="400" font-size="24" transform="translate(867.477 629)">LLR</text><path d="M202.5 186.5 890.451 186.5" stroke="#E6007E" stroke-width="6.66667" stroke-linecap="round" stroke-miterlimit="8" fill="none" fill-rule="evenodd"/><path d="M0 0 0.000104987 98.2786" stroke="#E6007E" stroke-width="6.66667" stroke-linecap="round" stroke-miterlimit="8" fill="none" fill-rule="evenodd" transform="matrix(1 0 0 -1 202.5 284.779)"/><path d="M892.833 186.5 892.833 268.112C892.833 269.953 891.341 271.445 889.5 271.445 887.659 271.445 886.167 269.953 886.167 268.112L886.167 186.5C886.167 184.659 887.659 183.167 889.5 183.167 891.341 183.167 892.833 184.659 892.833 186.5ZM899.5 264.779 889.5 284.779 879.5 264.779Z" fill="#E6007E"/></g></svg>