<svg width="1280" height="720" xmlns="http://www.w3.org/2000/svg" xmlns:xlink="http://www.w3.org/1999/xlink" overflow="hidden"><defs><clipPath id="clip0"><rect x="0" y="0" width="1280" height="720"/></clipPath></defs><g clip-path="url(#clip0)"><rect x="0" y="0" width="1280" height="720" fill="#FFFFFF"/><rect x="111.5" y="133.5" width="907" height="378" stroke="#FFFFFF" stroke-width="1.33333" stroke-miterlimit="8" fill="#FFFFFF"/><text fill="#03234B" font-family="Arial,Arial_MSFontService,sans-serif" font-weight="400" font-size="24" transform="translate(687.399 296)">DATA</text><rect x="186" y="247" width="152" height="75" fill="#49B170"/><text fill="#FFFFFF" font-family="Arial,Arial_MSFontService,sans-serif" font-weight="400" font-size="24" transform="translate(220.672 293)">LPDMA</text><path d="M338 282 479.198 282 479.198 286 338 286ZM477.198 278 489.198 284 477.198 290Z" fill="#03234B"/><text fill="#03234B" font-family="Arial,Arial_MSFontService,sans-serif" font-weight="400" font-size="24" transform="translate(347.204 274)">LPDMA_TC</text><rect x="489" y="247" width="151" height="75" fill="#3CB4E6"/><text fill="#FFFFFF" font-family="Arial,Arial_MSFontService,sans-serif" font-weight="400" font-size="24" transform="translate(520.401 293)">GPDMA</text><rect x="791" y="247" width="151" height="75" fill="#8C0078"/><text fill="#FFFFFF" font-family="Arial,Arial_MSFontService,sans-serif" font-weight="400" font-size="24" transform="translate(827.68 293)">UART1</text><path d="M1.38873e-06-2 141.198-1.9999 141.198 2.0001-1.38873e-06 2ZM139.198-5.9999 151.198 0.000104987 139.198 6.0001Z" fill="#03234B" transform="matrix(-1 0 0 1 791.198 269)"/><text fill="#03234B" font-family="Arial,Arial_MSFontService,sans-serif" font-weight="400" font-size="24" transform="translate(649.6 259)">UART_TXE</text><path d="M640 305 781.198 305 781.198 309 640 309ZM779.198 301 791.198 307 779.198 313Z" fill="#03234B"/><path d="M2-5.55494e-06 2.00008 27.7995-1.99992 27.7995-2 5.55494e-06ZM6.00007 25.7995 0.000104987 37.7995-5.99993 25.7995Z" fill="#03234B" transform="matrix(1 0 0 -1 262 359.799)"/><path d="M262 360 564.396 360" stroke="#03234B" stroke-width="4" stroke-miterlimit="8" fill="none" fill-rule="evenodd"/><path d="M566 322 566 387.599 562 387.599 562 322ZM570 385.599 564 397.599 558 385.599Z" fill="#03234B"/><rect x="489" y="398" width="151" height="38" fill="#FFD200"/><text fill="#FFFFFF" font-family="Arial,Arial_MSFontService,sans-serif" font-weight="400" font-size="24" transform="translate(520.401 425)">IRQ_TC</text><path d="M398 228C398 217.507 406.507 209 417 209 427.493 209 436 217.507 436 228 436 238.493 427.493 247 417 247 406.507 247 398 238.493 398 228Z" fill="#E6007E" fill-rule="evenodd"/><text fill="#FFFFFF" font-family="Arial,Arial_MSFontService,sans-serif" font-weight="400" font-size="24" transform="translate(410.316 236)">1</text><path d="M693 212.5C693 202.283 701.507 194 712 194 722.493 194 731 202.283 731 212.5 731 222.717 722.493 231 712 231 701.507 231 693 222.717 693 212.5Z" fill="#E6007E" fill-rule="evenodd"/><text fill="#FFFFFF" font-family="Arial,Arial_MSFontService,sans-serif" font-weight="400" font-size="24" transform="translate(705.152 221)">2</text><path d="M700 333.5C700 323.283 708.507 315 719 315 729.493 315 738 323.283 738 333.5 738 343.717 729.493 352 719 352 708.507 352 700 343.717 700 333.5Z" fill="#E6007E" fill-rule="evenodd"/><text fill="#FFFFFF" font-family="Arial,Arial_MSFontService,sans-serif" font-weight="400" font-size="24" transform="translate(712.712 342)">3</text><path d="M572 356C572 345.507 580.507 337 591 337 601.493 337 610 345.507 610 356 610 366.493 601.493 375 591 375 580.507 375 572 366.493 572 356Z" fill="#E6007E" fill-rule="evenodd"/><text fill="#FFFFFF" font-family="Arial,Arial_MSFontService,sans-serif" font-weight="400" font-size="24" transform="translate(584.194 365)">4</text></g></svg>