<svg width="1280" height="720" xmlns="http://www.w3.org/2000/svg" xmlns:xlink="http://www.w3.org/1999/xlink" overflow="hidden"><defs><clipPath id="clip0"><rect x="0" y="0" width="1280" height="720"/></clipPath></defs><g clip-path="url(#clip0)"><rect x="0" y="0" width="1280" height="720" fill="#FFFFFF"/><rect x="217" y="269" width="196" height="424" fill="#03234B" fill-opacity="0.501961"/><text fill="#FFFFFF" font-family="Arial,Arial_MSFontService,sans-serif" font-weight="400" font-size="24" transform="translate(230.258 297)">Source memory</text><rect x="224" y="330" width="182" height="355" fill="#49B170"/><rect x="232" y="337" width="166" height="167" fill="#FFD200"/><rect x="232" y="511" width="166" height="167" fill="#FFD200"/><rect x="239.5" y="345.5" width="152" height="38" stroke="#2983A9" stroke-width="1.33333" stroke-miterlimit="8" fill="#3CB4E6"/><text fill="#FFFFFF" font-family="Arial,Arial_MSFontService,sans-serif" font-weight="400" font-size="24" transform="translate(308.258 372)">a</text><rect x="239.5" y="420.5" width="152" height="38" stroke="#2983A9" stroke-width="1.33333" stroke-miterlimit="8" fill="#3CB4E6"/><text fill="#FFFFFF" font-family="Arial,Arial_MSFontService,sans-serif" font-weight="400" font-size="24" transform="translate(308.924 448)">c</text><rect x="239.5" y="458.5" width="152" height="38" stroke="#2983A9" stroke-width="1.33333" stroke-miterlimit="8" fill="#3CB4E6"/><text fill="#FFFFFF" font-family="Arial,Arial_MSFontService,sans-serif" font-weight="400" font-size="24" transform="translate(308.258 486)">d</text><rect x="239.5" y="519.5" width="152" height="38" stroke="#2983A9" stroke-width="1.33333" stroke-miterlimit="8" fill="#3CB4E6"/><text fill="#FFFFFF" font-family="Arial,Arial_MSFontService,sans-serif" font-weight="400" font-size="24" transform="translate(308.258 546)">e</text><rect x="239.5" y="557.5" width="152" height="37" stroke="#2983A9" stroke-width="1.33333" stroke-miterlimit="8" fill="#3CB4E6"/><text fill="#FFFFFF" font-family="Arial,Arial_MSFontService,sans-serif" font-weight="400" font-size="24" transform="translate(311.591 584)">f</text><rect x="239.5" y="594.5" width="152" height="38" stroke="#2983A9" stroke-width="1.33333" stroke-miterlimit="8" fill="#3CB4E6"/><text fill="#FFFFFF" font-family="Arial,Arial_MSFontService,sans-serif" font-weight="400" font-size="24" transform="translate(308.258 622)">g</text><rect x="239.5" y="632.5" width="152" height="38" stroke="#2983A9" stroke-width="1.33333" stroke-miterlimit="8" fill="#3CB4E6"/><text fill="#FFFFFF" font-family="Arial,Arial_MSFontService,sans-serif" font-weight="400" font-size="24" transform="translate(308.258 660)">h</text><rect x="791" y="269" width="197" height="424" fill="#03234B" fill-opacity="0.501961"/><text fill="#FFFFFF" font-family="Arial,Arial_MSFontService,sans-serif" font-weight="400" font-size="24" transform="translate(829.477 297)">Destination <tspan font-size="24" x="16.6666" y="29">memory</tspan></text><rect x="814.5" y="345.5" width="151" height="38" stroke="#2983A9" stroke-width="1.33333" stroke-miterlimit="8" fill="#3CB4E6"/><text fill="#FFFFFF" font-family="Arial,Arial_MSFontService,sans-serif" font-weight="400" font-size="24" transform="translate(882.81 372)">a</text><path d="M1.25667-1.55588 91.7559 71.5396C92.6152 72.2337 92.7492 73.4929 92.0551 74.3522 91.3611 75.2115 90.1018 75.3455 89.2426 74.6514L-1.25667 1.55588C-2.11596 0.86184-2.24992-0.397384-1.55588-1.25667-0.86184-2.11596 0.397384-2.24992 1.25667-1.55588ZM92.7134 67.1712 98.2786 79.3789 85.1733 76.5065Z" fill="#E6007E" transform="matrix(1 0 0 -1 716 481.379)"/><rect x="489" y="398" width="227" height="166" fill="#03234B"/><text fill="#FFFFFF" font-family="Arial,Arial_MSFontService,sans-serif" font-weight="400" font-size="24" transform="translate(542.864 426)">GPDMA <tspan font-size="24" x="93.34" y="0">ch</tspan></text><rect x="519" y="458" width="166" height="91" fill="#49B170"/><path d="M392.257 400.444 482.756 473.54C483.615 474.234 483.749 475.493 483.055 476.352 482.361 477.211 481.102 477.345 480.243 476.651L389.743 403.556C388.884 402.862 388.75 401.603 389.444 400.743 390.138 399.884 391.397 399.75 392.257 400.444ZM483.713 469.171 489.279 481.379 476.173 478.507Z" fill="#E6007E"/><rect x="527.5" y="466.5" width="151" height="38" stroke="#2983A9" stroke-width="1.33333" stroke-miterlimit="8" fill="#3CB4E6"/><text fill="#FFFFFF" font-family="Arial,Arial_MSFontService,sans-serif" font-weight="400" font-size="24" transform="translate(554.867 493)">2(<tspan font-size="24" x="21.3334" y="0">BDTR)</tspan></text><rect x="527.5" y="504.5" width="151" height="37" stroke="#BC9A00" stroke-width="1.33333" stroke-miterlimit="8" fill="#FFD200"/><text fill="#FFFFFF" font-family="Arial,Arial_MSFontService,sans-serif" font-weight="400" font-size="24" transform="translate(562.201 531)">1(<tspan font-size="24" x="21.3334" y="0">BRC)</tspan></text><rect x="239.5" y="383.5" width="152" height="37" stroke="#2983A9" stroke-width="1.33333" stroke-miterlimit="8" fill="#3CB4E6"/><text fill="#FFFFFF" font-family="Arial,Arial_MSFontService,sans-serif" font-weight="400" font-size="24" transform="translate(308.258 410)">b</text><rect x="814.5" y="383.5" width="151" height="37" stroke="#2983A9" stroke-width="1.33333" stroke-miterlimit="8" fill="#3CB4E6"/><text fill="#FFFFFF" font-family="Arial,Arial_MSFontService,sans-serif" font-weight="400" font-size="24" transform="translate(882.81 410)">b</text></g></svg>