<svg width="1280" height="720" xmlns="http://www.w3.org/2000/svg" xmlns:xlink="http://www.w3.org/1999/xlink" overflow="hidden"><defs><clipPath id="clip0"><rect x="0" y="0" width="1280" height="720"/></clipPath></defs><g clip-path="url(#clip0)"><rect x="0" y="0" width="1280" height="720" fill="#FFFFFF"/><rect x="73.5001" y="141.5" width="937" height="552" stroke="#FFFFFF" stroke-width="1.33333" stroke-miterlimit="8" fill="#FFFFFF"/><rect x="111" y="420" width="196" height="212" fill="#FFD200"/><text fill="#FFFFFF" font-family="Arial,Arial_MSFontService,sans-serif" font-weight="400" font-size="24" transform="translate(149.749 448)">GPDMA ch</text><rect x="126" y="476" width="166" height="141" fill="#49B170" fill-opacity="0.501961"/><rect x="133.5" y="564.5" width="152" height="38" stroke="#2983A9" stroke-width="1.33333" stroke-miterlimit="8" fill="#3CB4E6"/><text fill="#FFFFFF" font-family="Arial,Arial_MSFontService,sans-serif" font-weight="400" font-size="24" transform="translate(197.086 592)">…</text><rect x="133.5" y="489.5" width="152" height="37" stroke="#2983A9" stroke-width="1.33333" stroke-miterlimit="8" fill="#3CB4E6"/><text fill="#FFFFFF" font-family="Arial,Arial_MSFontService,sans-serif" font-weight="400" font-size="24" transform="translate(186.419 516)">TR1</text><rect x="133.5" y="526.5" width="152" height="38" stroke="#2983A9" stroke-width="1.33333" stroke-miterlimit="8" fill="#3CB4E6"/><text fill="#FFFFFF" font-family="Arial,Arial_MSFontService,sans-serif" font-weight="400" font-size="24" transform="translate(186.419 554)">TR2</text><rect x="111" y="179" width="438" height="68" fill="#FFD200"/><text fill="#FFFFFF" font-family="Arial,Arial_MSFontService,sans-serif" font-weight="400" font-size="24" transform="translate(219.374 207)">DMA channel handle<tspan font-size="24" x="-5.33333" y="29">DMA_HandleTypeDef</tspan></text><rect x="383" y="375" width="590" height="280" fill="#FFD200"/><text fill="#FFFFFF" font-family="Arial,Arial_MSFontService,sans-serif" font-weight="400" font-size="24" transform="translate(606.469 403)">LLI list queue<tspan font-size="24" x="-34.6733" y="29">DMA_QListTypeDef</tspan></text><path d="M421 517 516.839 517C517.943 517 518.839 517.896 518.839 519 518.839 520.105 517.943 521 516.839 521L421 521C419.895 521 419 520.105 419 519 419 517.895 419.895 517 421 517ZM514.839 513 526.839 519 514.839 525Z" fill="#E6007E"/><rect x="413" y="451" width="242" height="174" fill="#49B170" fill-opacity="0.501961"/><text fill="#FFFFFF" font-family="Arial,Arial_MSFontService,sans-serif" font-weight="400" font-size="24" transform="translate(427.491 479)">DMA_NodeTypeDef</text><rect x="421.5" y="504.5" width="227" height="37" stroke="#2983A9" stroke-width="1.33333" stroke-miterlimit="8" fill="#3CB4E6"/><text fill="#FFFFFF" font-family="Arial,Arial_MSFontService,sans-serif" font-weight="400" font-size="24" transform="translate(511.495 531)">TR1</text><rect x="421.5" y="541.5" width="227" height="38" stroke="#2983A9" stroke-width="1.33333" stroke-miterlimit="8" fill="#3CB4E6"/><text fill="#FFFFFF" font-family="Arial,Arial_MSFontService,sans-serif" font-weight="400" font-size="24" transform="translate(511.495 569)">TR2</text><path d="M693 517 788.839 517C789.943 517 790.839 517.896 790.839 519 790.839 520.105 789.943 521 788.839 521L693 521C691.895 521 691 520.105 691 519 691 517.895 691.895 517 693 517ZM786.839 513 798.839 519 786.839 525Z" fill="#E6007E"/><rect x="685" y="451" width="242" height="174" fill="#49B170" fill-opacity="0.501961"/><text fill="#FFFFFF" font-family="Arial,Arial_MSFontService,sans-serif" font-weight="400" font-size="24" transform="translate(699.648 479)">DMA_NodeTypeDef</text><rect x="693.5" y="579.5" width="227" height="38" stroke="#2983A9" stroke-width="1.33333" stroke-miterlimit="8" fill="#3CB4E6"/><text fill="#FFFFFF" font-family="Arial,Arial_MSFontService,sans-serif" font-weight="400" font-size="24" transform="translate(794.318 607)">…</text><rect x="693.5" y="504.5" width="227" height="37" stroke="#2983A9" stroke-width="1.33333" stroke-miterlimit="8" fill="#3CB4E6"/><text fill="#FFFFFF" font-family="Arial,Arial_MSFontService,sans-serif" font-weight="400" font-size="24" transform="translate(783.651 531)">TR1</text><rect x="693.5" y="541.5" width="227" height="38" stroke="#2983A9" stroke-width="1.33333" stroke-miterlimit="8" fill="#3CB4E6"/><text fill="#FFFFFF" font-family="Arial,Arial_MSFontService,sans-serif" font-weight="400" font-size="24" transform="translate(783.651 569)">TR2</text><rect x="421.5" y="579.5" width="227" height="38" stroke="#2983A9" stroke-width="1.33333" stroke-miterlimit="8" fill="#3CB4E6"/><text fill="#FFFFFF" font-family="Arial,Arial_MSFontService,sans-serif" font-weight="400" font-size="24" transform="translate(522.161 607)">…</text><path d="M655 602 670.12 602" stroke="#E6007E" stroke-width="4" stroke-linecap="round" stroke-miterlimit="8" fill="none" fill-rule="evenodd"/><path d="M0 0 0.000104987 75.5989" stroke="#E6007E" stroke-width="4" stroke-linecap="round" stroke-miterlimit="8" fill="none" fill-rule="evenodd" transform="matrix(1 0 0 -1 670 601.599)"/><path d="M670 524 682.68 524C683.784 524 684.68 524.896 684.68 526 684.68 527.105 683.784 528 682.68 528L670 528C668.895 528 668 527.105 668 526 668 524.895 668.895 524 670 524ZM680.68 520 692.68 526 680.68 532Z" fill="#E6007E"/><path d="M0 0 0.000104987 113.398" stroke="#E6007E" stroke-width="4" stroke-linecap="round" stroke-miterlimit="8" fill="none" fill-rule="evenodd" transform="matrix(1 0 0 -1 398 639.398)"/><path d="M0 0 0.000104987 37.7995" stroke="#E6007E" stroke-width="4" stroke-linecap="round" stroke-miterlimit="8" fill="none" fill-rule="evenodd" transform="matrix(1 0 0 -1 942 639.799)"/><path d="M398 524 410.68 524C411.784 524 412.68 524.896 412.68 526 412.68 527.105 411.784 528 410.68 528L398 528C396.895 528 396 527.105 396 526 396 524.895 396.895 524 398 524ZM408.68 520 420.68 526 408.68 532Z" fill="#E6007E"/><path d="M927 602 942.12 602" stroke="#E6007E" stroke-width="4" stroke-linecap="round" stroke-miterlimit="8" fill="none" fill-rule="evenodd"/><path d="M398 640 942.312 640" stroke="#E6007E" stroke-width="4" stroke-linecap="round" stroke-miterlimit="8" fill="none" fill-rule="evenodd"/><rect x="466" y="277" width="439" height="68" fill="#E6007E"/><text fill="#FFFFFF" font-family="Arial,Arial_MSFontService,sans-serif" font-weight="400" font-size="24" transform="translate(551.359 319)">HAL_DMAEx_List_LinkQ</text><path d="M2.00001 9.99999 2.0001 173.878-1.99989 173.878-1.99999 9.99999ZM-5.99999 12 0 0 6.00001 12Z" fill="#FFD200" transform="matrix(1 0 0 -1 209 420.878)"/><path d="M3.33335 16.6667 3.33344 128.518-3.33323 128.518-3.33332 16.6667ZM-9.99998 20 0 0 10 20Z" fill="#E6007E" transform="matrix(1 0 0 -1 466.5 376.018)"/></g></svg>