<svg width="1280" height="720" xmlns="http://www.w3.org/2000/svg" xmlns:xlink="http://www.w3.org/1999/xlink" overflow="hidden"><defs><clipPath id="clip0"><rect x="0" y="0" width="1280" height="720"/></clipPath></defs><g clip-path="url(#clip0)"><rect x="0" y="0" width="1280" height="720" fill="#FFFFFF"/><rect x="111.5" y="133.5" width="907" height="378" stroke="#FFFFFF" stroke-width="1.33333" stroke-miterlimit="8" fill="#FFFFFF"/><rect x="186" y="247" width="152" height="75" fill="#49B170"/><text fill="#FFFFFF" font-family="Arial,Arial_MSFontService,sans-serif" font-weight="400" font-size="24" transform="translate(220.672 293)">LPDMA</text><rect x="489" y="247" width="151" height="75" fill="#3CB4E6"/><text fill="#FFFFFF" font-family="Arial,Arial_MSFontService,sans-serif" font-weight="400" font-size="24" transform="translate(520.401 293)">GPDMA</text><rect x="791" y="247" width="151" height="75" fill="#8C0078"/><text fill="#FFFFFF" font-family="Arial,Arial_MSFontService,sans-serif" font-weight="400" font-size="24" transform="translate(827.68 293)">UART1</text><path d="M2-5.55494e-06 2.00008 27.7995-1.99992 27.7995-2 5.55494e-06ZM6.00007 25.7995 0.000104987 37.7995-5.99993 25.7995Z" fill="#03234B" transform="matrix(1 0 0 -1 262 359.799)"/><path d="M262 360 564.396 360" stroke="#03234B" stroke-width="4" stroke-miterlimit="8" fill="none" fill-rule="evenodd"/><path d="M566 322 566 387.599 562 387.599 562 322ZM570 385.599 564 397.599 558 385.599Z" fill="#03234B"/><rect x="489" y="398" width="151" height="38" fill="#FFD200"/><text fill="#FFFFFF" font-family="Arial,Arial_MSFontService,sans-serif" font-weight="400" font-size="24" transform="translate(520.401 425)">IRQ_TC</text><path d="M572 356C572 345.507 580.507 337 591 337 601.493 337 610 345.507 610 356 610 366.493 601.493 375 591 375 580.507 375 572 366.493 572 356Z" fill="#E6007E" fill-rule="evenodd"/><text fill="#FFFFFF" font-family="Arial,Arial_MSFontService,sans-serif" font-weight="400" font-size="24" transform="translate(584.194 365)">4</text></g></svg>