<svg width="1280" height="720" xmlns="http://www.w3.org/2000/svg" xmlns:xlink="http://www.w3.org/1999/xlink" overflow="hidden"><defs><clipPath id="clip0"><rect x="0" y="0" width="1280" height="720"/></clipPath></defs><g clip-path="url(#clip0)"><rect x="0" y="0" width="1280" height="720" fill="#FFFFFF"/><rect x="194.5" y="73.5001" width="816" height="627" stroke="#FFFFFF" stroke-width="1.33333" stroke-miterlimit="8" fill="#FFFFFF"/><rect x="489" y="405" width="227" height="121" fill="#03234B"/><text fill="#FFFFFF" font-family="Arial,Arial_MSFontService,sans-serif" font-weight="400" font-size="24" transform="translate(542.864 433)">GPDMA <tspan font-size="24" x="93.34" y="0">ch</tspan></text><rect x="519" y="466" width="166" height="53" fill="#49B170"/><rect x="232" y="405" width="181" height="121" fill="#03234B" fill-opacity="0.501961"/><text fill="#FFFFFF" font-family="Arial,Arial_MSFontService,sans-serif" font-weight="400" font-size="24" transform="translate(290.484 433)">ADC1</text><rect x="791" y="405" width="182" height="235" fill="#03234B" fill-opacity="0.501961"/><text fill="#FFFFFF" font-family="Arial,Arial_MSFontService,sans-serif" font-weight="400" font-size="24" transform="translate(821.917 433)">Destination <tspan font-size="24" x="16.6667" y="29">memory</tspan></text><rect x="806.5" y="473.5" width="152" height="38" stroke="#2983A9" stroke-width="1.33333" stroke-miterlimit="8" fill="#3CB4E6"/><text fill="#FFFFFF" font-family="Arial,Arial_MSFontService,sans-serif" font-weight="400" font-size="24" transform="translate(857.917 501)">CH1</text><rect x="307" y="111" width="590" height="249" fill="#FFD200" fill-opacity="0.501961"/><text fill="#FFFFFF" font-family="Arial,Arial_MSFontService,sans-serif" font-weight="400" font-size="24" transform="translate(512.864 138)">GPDMA QUEUE</text><path d="M345 222 440.839 222C441.943 222 442.839 222.896 442.839 224 442.839 225.105 441.943 226 440.839 226L345 226C343.895 226 343 225.105 343 224 343 222.895 343.895 222 345 222ZM438.839 218 450.839 224 438.839 230Z" fill="#03234B"/><rect x="338" y="156" width="242" height="174" fill="#49B170"/><text fill="#FFFFFF" font-family="Arial,Arial_MSFontService,sans-serif" font-weight="400" font-size="24" transform="translate(367.226 184)">GPDMA NODE 1</text><rect x="345.5" y="209.5" width="227" height="38" stroke="#2983A9" stroke-width="1.33333" stroke-miterlimit="8" fill="#3CB4E6"/><text fill="#FFFFFF" font-family="Arial,Arial_MSFontService,sans-serif" font-weight="400" font-size="24" transform="translate(397.892 236)">SRC <tspan font-size="24" x="57.3333" y="0">-</tspan><tspan font-size="24" x="70.6733" y="0">ADC</tspan></text><rect x="345.5" y="247.5" width="227" height="37" stroke="#2983A9" stroke-width="1.33333" stroke-miterlimit="8" fill="#3CB4E6"/><text fill="#FFFFFF" font-family="Arial,Arial_MSFontService,sans-serif" font-weight="400" font-size="24" transform="translate(396.112 274)">DST -<tspan font-size="24" x="68.9" y="0">MEM</tspan></text><path d="M617 222 712.839 222C713.943 222 714.839 222.896 714.839 224 714.839 225.105 713.943 226 712.839 226L617 226C615.895 226 615 225.105 615 224 615 222.895 615.895 222 617 222ZM710.839 218 722.839 224 710.839 230Z" fill="#03234B"/><rect x="610" y="156" width="242" height="174" fill="#8C0078"/><text fill="#FFFFFF" font-family="Arial,Arial_MSFontService,sans-serif" font-weight="400" font-size="24" transform="translate(639.382 184)">GPDMA NODE 2</text><rect x="617.5" y="284.5" width="227" height="38" stroke="#2983A9" stroke-width="1.33333" stroke-miterlimit="8" fill="#3CB4E6"/><text fill="#FFFFFF" font-family="Arial,Arial_MSFontService,sans-serif" font-weight="400" font-size="24" transform="translate(670.719 312)">64  <tspan font-size="24" x="40" y="0">-</tspan><tspan font-size="24" x="54.6667" y="0">BDTR</tspan></text><rect x="617.5" y="209.5" width="227" height="38" stroke="#2983A9" stroke-width="1.33333" stroke-miterlimit="8" fill="#3CB4E6"/><text fill="#FFFFFF" font-family="Arial,Arial_MSFontService,sans-serif" font-weight="400" font-size="24" transform="translate(666.719 236)">SRC <tspan font-size="24" x="57.3333" y="0">-</tspan><tspan font-size="24" x="72" y="0">MEM</tspan></text><rect x="617.5" y="247.5" width="227" height="37" stroke="#2983A9" stroke-width="1.33333" stroke-miterlimit="8" fill="#3CB4E6"/><text fill="#FFFFFF" font-family="Arial,Arial_MSFontService,sans-serif" font-weight="400" font-size="24" transform="translate(663.819 274)">DST -<tspan font-size="24" x="68.9" y="0">UART</tspan></text><rect x="345.5" y="284.5" width="227" height="38" stroke="#2983A9" stroke-width="1.33333" stroke-miterlimit="8" fill="#3CB4E6"/><text fill="#FFFFFF" font-family="Arial,Arial_MSFontService,sans-serif" font-weight="400" font-size="24" transform="translate(401.896 312)">64 <tspan font-size="24" x="33.3333" y="0">-</tspan><tspan font-size="24" x="48" y="0">BDTR</tspan></text><path d="M580 307 595.12 307" stroke="#03234B" stroke-width="4" stroke-linecap="round" stroke-miterlimit="8" fill="none" fill-rule="evenodd"/><path d="M0 0 0.000104987 75.5989" stroke="#03234B" stroke-width="4" stroke-linecap="round" stroke-miterlimit="8" fill="none" fill-rule="evenodd" transform="matrix(1 0 0 -1 595 306.599)"/><path d="M595 229 607.68 229C608.784 229 609.68 229.895 609.68 231 609.68 232.105 608.784 233 607.68 233L595 233C593.895 233 593 232.105 593 231 593 229.895 593.895 229 595 229ZM605.68 225 617.68 231 605.68 237Z" fill="#03234B"/><path d="M0 0 0.000104987 113.398" stroke="#03234B" stroke-width="4" stroke-linecap="round" stroke-miterlimit="8" fill="none" fill-rule="evenodd" transform="matrix(1 0 0 -1 322 344.398)"/><path d="M0 0 0.000104987 37.7995" stroke="#03234B" stroke-width="4" stroke-linecap="round" stroke-miterlimit="8" fill="none" fill-rule="evenodd" transform="matrix(1 0 0 -1 867 344.799)"/><path d="M322 229 334.68 229C335.784 229 336.68 229.895 336.68 231 336.68 232.105 335.784 233 334.68 233L322 233C320.895 233 320 232.105 320 231 320 229.895 320.895 229 322 229ZM332.68 225 344.68 231 332.68 237Z" fill="#03234B"/><path d="M852 307 867.12 307" stroke="#03234B" stroke-width="4" stroke-linecap="round" stroke-miterlimit="8" fill="none" fill-rule="evenodd"/><path d="M322 345 866.312 345" stroke="#03234B" stroke-width="4" stroke-linecap="round" stroke-miterlimit="8" fill="none" fill-rule="evenodd"/><rect x="232" y="541" width="181" height="121" fill="#03234B" fill-opacity="0.501961"/><text fill="#FFFFFF" font-family="Arial,Arial_MSFontService,sans-serif" font-weight="400" font-size="24" transform="translate(283.368 569)">UART1</text><rect x="247.5" y="609.5" width="151" height="38" stroke="#2983A9" stroke-width="1.33333" stroke-miterlimit="8" fill="#3CB4E6"/><text fill="#FFFFFF" font-family="Arial,Arial_MSFontService,sans-serif" font-weight="400" font-size="24" transform="translate(305.151 637)">DR</text><path d="M398 490 516.518 490C517.623 490 518.518 490.896 518.518 492 518.518 493.105 517.623 494 516.518 494L398 494C396.895 494 396 493.105 396 492 396 490.895 396.895 490 398 490ZM514.518 486 526.518 492 514.518 498Z" fill="#E6007E"/><path d="M678 494 796.518 494C797.623 494 798.518 494.896 798.518 496 798.518 497.105 797.623 498 796.518 498L678 498C676.895 498 676 497.105 676 496 676 494.895 676.895 494 678 494ZM794.518 490 806.518 496 794.518 502Z" fill="#E6007E"/><rect x="527.5" y="473.5" width="151" height="38" stroke="#2983A9" stroke-width="1.33333" stroke-miterlimit="8" fill="#3CB4E6"/><text fill="#FFFFFF" font-family="Arial,Arial_MSFontService,sans-serif" font-weight="400" font-size="24" transform="translate(548.201 501)">63(BDTR)</text><rect x="247.5" y="473.5" width="151" height="38" stroke="#2983A9" stroke-width="1.33333" stroke-miterlimit="8" fill="#3CB4E6"/><text fill="#FFFFFF" font-family="Arial,Arial_MSFontService,sans-serif" font-weight="400" font-size="24" transform="translate(298.484 501)">CH1</text></g></svg>