<svg width="1280" height="720" xmlns="http://www.w3.org/2000/svg" xmlns:xlink="http://www.w3.org/1999/xlink" overflow="hidden"><defs><clipPath id="clip0"><rect x="0" y="0" width="1280" height="720"/></clipPath></defs><g clip-path="url(#clip0)"><rect x="0" y="0" width="1280" height="720" fill="#FFFFFF"/><rect x="232" y="405" width="181" height="121" fill="#03234B" fill-opacity="0.501961"/><text fill="#FFFFFF" font-family="Arial,Arial_MSFontService,sans-serif" font-weight="400" font-size="24" transform="translate(290.484 433)">ADC1</text><rect x="791" y="405" width="182" height="235" fill="#03234B" fill-opacity="0.501961"/><text fill="#FFFFFF" font-family="Arial,Arial_MSFontService,sans-serif" font-weight="400" font-size="24" transform="translate(858.583 433)">data</text><rect x="179" y="58" width="854" height="249" fill="#FFD200" fill-opacity="0.501961"/><text fill="#FFFFFF" font-family="Arial,Arial_MSFontService,sans-serif" font-weight="400" font-size="24" transform="translate(516.644 85)">GPDMA QUEUE</text><path d="M489 169 584.839 169C585.943 169 586.839 169.896 586.839 171 586.839 172.105 585.943 173 584.839 173L489 173C487.895 173 487 172.105 487 171 487 169.895 487.895 169 489 169ZM582.839 165 594.839 171 582.839 177Z" fill="#03234B"/><rect x="481" y="103" width="242" height="174" fill="#8C0078"/><text fill="#FFFFFF" font-family="Arial,Arial_MSFontService,sans-serif" font-weight="400" font-size="24" transform="translate(510.864 131)">GPDMA NODE 2</text><rect x="489.5" y="156.5" width="227" height="38" stroke="#2983A9" stroke-width="1.33333" stroke-miterlimit="8" fill="#3CB4E6"/><text fill="#FFFFFF" font-family="Arial,Arial_MSFontService,sans-serif" font-weight="400" font-size="24" transform="translate(547.534 183)">2D<tspan font-size="24" x="37.3333" y="0">sortin</tspan><tspan font-size="24" x="96" y="0">g</tspan></text><path d="M451 254 466.12 254" stroke="#03234B" stroke-width="4" stroke-linecap="round" stroke-miterlimit="8" fill="none" fill-rule="evenodd"/><path d="M0 0 0.000104987 75.5989" stroke="#03234B" stroke-width="4" stroke-linecap="round" stroke-miterlimit="8" fill="none" fill-rule="evenodd" transform="matrix(1 0 0 -1 466 254.599)"/><path d="M466 177 478.68 177C479.784 177 480.68 177.895 480.68 179 480.68 180.105 479.784 181 478.68 181L466 181C464.895 181 464 180.105 464 179 464 177.895 464.895 177 466 177ZM476.68 173 488.68 179 476.68 185Z" fill="#03234B"/><path d="M0 0 0.000104987 113.398" stroke="#03234B" stroke-width="4" stroke-linecap="round" stroke-miterlimit="8" fill="none" fill-rule="evenodd" transform="matrix(1 0 0 -1 194 292.398)"/><path d="M0 0 0.000104987 37.7995" stroke="#03234B" stroke-width="4" stroke-linecap="round" stroke-miterlimit="8" fill="none" fill-rule="evenodd" transform="matrix(1 0 0 -1 1010 291.799)"/><path d="M995 254 1010.12 254" stroke="#03234B" stroke-width="4" stroke-linecap="round" stroke-miterlimit="8" fill="none" fill-rule="evenodd"/><path d="M194 292 1010.47 292" stroke="#03234B" stroke-width="4" stroke-linecap="round" stroke-miterlimit="8" fill="none" fill-rule="evenodd"/><rect x="232" y="541" width="181" height="121" fill="#03234B" fill-opacity="0.501961"/><text fill="#FFFFFF" font-family="Arial,Arial_MSFontService,sans-serif" font-weight="400" font-size="24" transform="translate(283.368 569)">UART1</text><rect x="247.5" y="609.5" width="151" height="38" stroke="#2983A9" stroke-width="1.33333" stroke-miterlimit="8" fill="#3CB4E6"/><text fill="#FFFFFF" font-family="Arial,Arial_MSFontService,sans-serif" font-weight="400" font-size="24" transform="translate(298.484 637)">CH4</text><rect x="806.5" y="473.5" width="152" height="38" stroke="#2983A9" stroke-width="1.33333" stroke-miterlimit="8" fill="#3CB4E6"/><text fill="#FFFFFF" font-family="Arial,Arial_MSFontService,sans-serif" font-weight="400" font-size="24" transform="translate(857.917 501)">CH1</text><rect x="806.5" y="511.5" width="152" height="38" stroke="#2983A9" stroke-width="1.33333" stroke-miterlimit="8" fill="#3CB4E6"/><text fill="#FFFFFF" font-family="Arial,Arial_MSFontService,sans-serif" font-weight="400" font-size="24" transform="translate(857.917 539)">CH2</text><rect x="806.5" y="549.5" width="152" height="38" stroke="#2983A9" stroke-width="1.33333" stroke-miterlimit="8" fill="#3CB4E6"/><text fill="#FFFFFF" font-family="Arial,Arial_MSFontService,sans-serif" font-weight="400" font-size="24" transform="translate(869.917 576)">…</text><rect x="806.5" y="587.5" width="152" height="38" stroke="#2983A9" stroke-width="1.33333" stroke-miterlimit="8" fill="#3CB4E6"/><text fill="#FFFFFF" font-family="Arial,Arial_MSFontService,sans-serif" font-weight="400" font-size="24" transform="translate(857.917 614)">CH4</text><rect x="489.5" y="625.5" width="227" height="37" stroke="#021735" stroke-width="1.33333" stroke-miterlimit="8" fill="#03234B"/><text fill="#FFFFFF" font-family="Arial,Arial_MSFontService,sans-serif" font-weight="400" font-size="24" transform="translate(564.867 652)">TIM 15</text><rect x="1018" y="405" width="181" height="235" fill="#03234B" fill-opacity="0.501961"/><text fill="#FFFFFF" font-family="Arial,Arial_MSFontService,sans-serif" font-weight="400" font-size="24" transform="translate(1078.71 433)">data2</text><rect x="753" y="103" width="242" height="174" fill="#FFD200"/><text fill="#FFFFFF" font-family="Arial,Arial_MSFontService,sans-serif" font-weight="400" font-size="24" transform="translate(783.02 131)">GPDMA NODE <tspan font-size="24" x="169.34" y="0">3</tspan></text><rect x="761.5" y="156.5" width="227" height="38" stroke="#2983A9" stroke-width="1.33333" stroke-miterlimit="8" fill="#3CB4E6"/><text fill="#FFFFFF" font-family="Arial,Arial_MSFontService,sans-serif" font-weight="400" font-size="24" transform="translate(823.673 183)">UART TX</text><path d="M723 254 738.12 254" stroke="#03234B" stroke-width="4" stroke-linecap="round" stroke-miterlimit="8" fill="none" fill-rule="evenodd"/><path d="M0 0 0.000104987 75.5989" stroke="#03234B" stroke-width="4" stroke-linecap="round" stroke-miterlimit="8" fill="none" fill-rule="evenodd" transform="matrix(1 0 0 -1 738 254.599)"/><path d="M738 177 750.68 177C751.784 177 752.68 177.895 752.68 179 752.68 180.105 751.784 181 750.68 181L738 181C736.895 181 736 180.105 736 179 736 177.895 736.895 177 738 177ZM748.68 173 760.68 179 748.68 185Z" fill="#03234B"/><path d="M217 169 312.839 169C313.943 169 314.839 169.896 314.839 171 314.839 172.105 313.943 173 312.839 173L217 173C215.895 173 215 172.105 215 171 215 169.895 215.895 169 217 169ZM310.839 165 322.839 171 310.839 177Z" fill="#03234B"/><rect x="209" y="103" width="242" height="174" fill="#49B170"/><text fill="#FFFFFF" font-family="Arial,Arial_MSFontService,sans-serif" font-weight="400" font-size="24" transform="translate(238.708 131)">GPDMA NODE 1</text><rect x="217.5" y="156.5" width="226" height="38" stroke="#2983A9" stroke-width="1.33333" stroke-miterlimit="8" fill="#3CB4E6"/><text fill="#FFFFFF" font-family="Arial,Arial_MSFontService,sans-serif" font-weight="400" font-size="24" transform="translate(273.374 183)">Read ADC</text><rect x="217.5" y="194.5" width="226" height="37" stroke="#2983A9" stroke-width="1.33333" stroke-miterlimit="8" fill="#3CB4E6"/><text fill="#FFFFFF" font-family="Arial,Arial_MSFontService,sans-serif" font-weight="400" font-size="24" transform="translate(292.491 221)">Trigger</text><path d="M194 177 206.68 177C207.784 177 208.68 177.895 208.68 179 208.68 180.105 207.784 181 206.68 181L194 181C192.895 181 192 180.105 192 179 192 177.895 192.895 177 194 177ZM204.68 173 216.68 179 204.68 185Z" fill="#03234B"/><rect x="489" y="405" width="227" height="159" fill="#03234B"/><text fill="#FFFFFF" font-family="Arial,Arial_MSFontService,sans-serif" font-weight="400" font-size="24" transform="translate(542.864 433)">GPDMA <tspan font-size="24" x="93.34" y="0">ch</tspan></text><rect x="519" y="466" width="166" height="91" fill="#FFD200"/><rect x="527.5" y="473.5" width="151" height="38" stroke="#2983A9" stroke-width="1.33333" stroke-miterlimit="8" fill="#3CB4E6"/><text fill="#FFFFFF" font-family="Arial,Arial_MSFontService,sans-serif" font-weight="400" font-size="24" transform="translate(551.517 501)">UART TX</text><rect x="247.5" y="473.5" width="151" height="38" stroke="#2983A9" stroke-width="1.33333" stroke-miterlimit="8" fill="#3CB4E6"/><text fill="#FFFFFF" font-family="Arial,Arial_MSFontService,sans-serif" font-weight="400" font-size="24" transform="translate(305.151 501)">DR</text><path d="M1003 496 1033.24 496" stroke="#E6007E" stroke-width="4" stroke-linecap="round" stroke-miterlimit="8" fill="none" fill-rule="evenodd"/><path d="M1003 496 1033.24 533.799" stroke="#E6007E" stroke-width="4" stroke-linecap="round" stroke-miterlimit="8" fill="none" fill-rule="evenodd"/><path d="M1003 496 1033.24 571.599" stroke="#E6007E" stroke-width="4" stroke-linecap="round" stroke-miterlimit="8" fill="none" fill-rule="evenodd"/><path d="M1003 496 1033.24 609.398" stroke="#E6007E" stroke-width="4" stroke-linecap="round" stroke-miterlimit="8" fill="none" fill-rule="evenodd"/><path d="M738 375 1002.6 375" stroke="#E6007E" stroke-width="4" stroke-linecap="round" stroke-miterlimit="8" fill="none" fill-rule="evenodd"/><path d="M0 0 0.000104987 113.398" stroke="#E6007E" stroke-width="4" stroke-linecap="round" stroke-miterlimit="8" fill="none" fill-rule="evenodd" transform="matrix(1 0 0 -1 738 488.398)"/><path d="M0 0 0.000104987 120.958" stroke="#E6007E" stroke-width="4" stroke-linecap="round" stroke-miterlimit="8" fill="none" fill-rule="evenodd" transform="matrix(1 0 0 -1 1003 495.958)"/><path d="M726 487 738.68 487C739.784 487 740.68 487.896 740.68 489 740.68 490.105 739.784 491 738.68 491L726 491C724.895 491 724 490.105 724 489 724 487.895 724.895 487 726 487ZM728 495 716 489 728 483Z" fill="#E6007E"/><rect x="1033.5" y="473.5" width="151" height="38" stroke="#2983A9" stroke-width="1.33333" stroke-miterlimit="8" fill="#3CB4E6"/><text fill="#FFFFFF" font-family="Arial,Arial_MSFontService,sans-serif" font-weight="400" font-size="24" transform="translate(1084.71 501)">CH1</text><rect x="1033.5" y="511.5" width="151" height="38" stroke="#2983A9" stroke-width="1.33333" stroke-miterlimit="8" fill="#3CB4E6"/><text fill="#FFFFFF" font-family="Arial,Arial_MSFontService,sans-serif" font-weight="400" font-size="24" transform="translate(1084.71 539)">CH1</text><path d="M7.03081 7.38675 92.4097 142.57C92.9995 143.504 92.7206 144.739 91.7867 145.329 90.8528 145.919 89.6176 145.64 89.0278 144.706L3.64886 9.52272C3.05902 8.58882 3.33795 7.35359 4.27185 6.76376 5.20575 6.17392 6.44098 6.45285 7.03081 7.38675ZM1.33498 13.3498 0 0 11.4808 6.94191Z" fill="#E6007E" transform="matrix(1 0 0 -1 398 628.638)"/><path d="M511 352.5C511 348.358 514.358 345 518.5 345L670.5 345C674.642 345 678 348.358 678 352.5L678 382.5C678 386.642 674.642 390 670.5 390L518.5 390C514.358 390 511 386.642 511 382.5Z" fill="#E6007E" fill-rule="evenodd"/><text fill="#FFFFFF" font-family="Arial,Arial_MSFontService,sans-serif" font-weight="400" font-size="24" transform="translate(531.307 376)">64x transfer</text><path d="M1184 622 1252.16 622C1253.82 622 1255.16 623.343 1255.16 625 1255.16 626.657 1253.82 628 1252.16 628L1184 628C1182.34 628 1181 626.657 1181 625 1181 623.343 1182.34 622 1184 622ZM1249.16 616 1267.16 625 1249.16 634Z" fill="#E6007E"/><rect x="1192" y="587" width="53" height="38" fill="#E6007E"/><text fill="#FFFFFF" font-family="Arial,Arial_MSFontService,sans-serif" font-weight="400" font-size="24" transform="translate(1202.33 614)">TC</text><rect x="1033.5" y="587.5" width="151" height="38" stroke="#2983A9" stroke-width="1.33333" stroke-miterlimit="8" fill="#3CB4E6"/><text fill="#FFFFFF" font-family="Arial,Arial_MSFontService,sans-serif" font-weight="400" font-size="24" transform="translate(1084.71 614)">CH4</text><path d="M1184 561 1252.16 561C1253.82 561 1255.16 562.343 1255.16 564 1255.16 565.657 1253.82 567 1252.16 567L1184 567C1182.34 567 1181 565.657 1181 564 1181 562.343 1182.34 561 1184 561ZM1249.16 555 1267.16 564 1249.16 573Z" fill="#E6007E"/><rect x="1192" y="526" width="53" height="38" fill="#E6007E"/><text fill="#FFFFFF" font-family="Arial,Arial_MSFontService,sans-serif" font-weight="400" font-size="24" transform="translate(1202.33 554)">HT</text><rect x="1033.5" y="549.5" width="151" height="38" stroke="#2983A9" stroke-width="1.33333" stroke-miterlimit="8" fill="#3CB4E6"/><text fill="#FFFFFF" font-family="Arial,Arial_MSFontService,sans-serif" font-weight="400" font-size="24" transform="translate(1096.71 576)">…</text></g></svg>