<svg width="1280" height="720" xmlns="http://www.w3.org/2000/svg" xmlns:xlink="http://www.w3.org/1999/xlink" overflow="hidden"><defs><clipPath id="clip0"><rect x="0" y="0" width="1280" height="720"/></clipPath></defs><g clip-path="url(#clip0)"><rect x="0" y="0" width="1280" height="720" fill="#FFFFFF"/><rect x="111.5" y="133.5" width="907" height="378" stroke="#FFFFFF" stroke-width="1.33333" stroke-miterlimit="8" fill="#FFFFFF"/><rect x="186" y="247" width="152" height="75" fill="#49B170"/><text fill="#FFFFFF" font-family="Arial,Arial_MSFontService,sans-serif" font-weight="400" font-size="24" transform="translate(220.672 293)">LPDMA</text><rect x="489" y="247" width="151" height="75" fill="#3CB4E6"/><text fill="#FFFFFF" font-family="Arial,Arial_MSFontService,sans-serif" font-weight="400" font-size="24" transform="translate(520.401 293)">GPDMA</text><rect x="791" y="247" width="151" height="75" fill="#8C0078"/><text fill="#FFFFFF" font-family="Arial,Arial_MSFontService,sans-serif" font-weight="400" font-size="24" transform="translate(827.68 293)">UART1</text><path d="M1.38873e-06-2 141.198-1.9999 141.198 2.0001-1.38873e-06 2ZM139.198-5.9999 151.198 0.000104987 139.198 6.0001Z" fill="#03234B" transform="matrix(-1 0 0 1 791.198 269)"/><text fill="#03234B" font-family="Arial,Arial_MSFontService,sans-serif" font-weight="400" font-size="24" transform="translate(649.6 259)">UART_TXE</text><rect x="489" y="398" width="151" height="38" fill="#FFD200"/><text fill="#FFFFFF" font-family="Arial,Arial_MSFontService,sans-serif" font-weight="400" font-size="24" transform="translate(520.401 425)">IRQ_TC</text><path d="M693 212.5C693 202.283 701.507 194 712 194 722.493 194 731 202.283 731 212.5 731 222.717 722.493 231 712 231 701.507 231 693 222.717 693 212.5Z" fill="#E6007E" fill-rule="evenodd"/><text fill="#FFFFFF" font-family="Arial,Arial_MSFontService,sans-serif" font-weight="400" font-size="24" transform="translate(705.152 221)">2</text></g></svg>