<svg width="1280" height="720" xmlns="http://www.w3.org/2000/svg" xmlns:xlink="http://www.w3.org/1999/xlink" overflow="hidden"><defs><clipPath id="clip0"><rect x="0" y="0" width="1280" height="720"/></clipPath></defs><g clip-path="url(#clip0)"><rect x="0" y="0" width="1280" height="720" fill="#FFFFFF"/><rect x="118.5" y="95.5001" width="855" height="530" stroke="#FFFFFF" stroke-width="1.33333" stroke-miterlimit="8" fill="#FFFFFF"/><rect x="700" y="133" width="197" height="454" fill="#03234B" fill-opacity="0.501961"/><text fill="#FFFFFF" font-family="Arial,Arial_MSFontService,sans-serif" font-weight="400" font-size="24" transform="translate(735.424 161)">LLI memory <tspan font-size="24" x="39.3334" y="29">area</tspan></text><rect x="428.5" y="133.5" width="197" height="454" stroke="#021735" stroke-width="1.33333" stroke-miterlimit="8" fill="#03234B"/><text fill="#FFFFFF" font-family="Arial,Arial_MSFontService,sans-serif" font-weight="400" font-size="24" transform="translate(467.265 161)">GPDMA <tspan font-size="24" x="93.34" y="0">ch</tspan></text><rect x="443" y="249" width="167" height="323" fill="#49B170" fill-opacity="0.501961"/><rect x="451.5" y="337.5" width="151" height="38" stroke="#2983A9" stroke-width="1.33333" stroke-miterlimit="8" fill="#3CB4E6"/><text fill="#FFFFFF" font-family="Arial,Arial_MSFontService,sans-serif" font-weight="400" font-size="24" transform="translate(489.268 365)">0 -<tspan font-size="24" x="34.6667" y="0">BR1</tspan></text><rect x="451.5" y="262.5" width="151" height="38" stroke="#2983A9" stroke-width="1.33333" stroke-miterlimit="8" fill="#3CB4E6"/><text fill="#FFFFFF" font-family="Arial,Arial_MSFontService,sans-serif" font-weight="400" font-size="24" transform="translate(503.935 289)">TR1</text><rect x="451.5" y="300.5" width="151" height="37" stroke="#2983A9" stroke-width="1.33333" stroke-miterlimit="8" fill="#3CB4E6"/><text fill="#FFFFFF" font-family="Arial,Arial_MSFontService,sans-serif" font-weight="400" font-size="24" transform="translate(503.935 327)">TR2</text><rect x="451.5" y="375.5" width="151" height="38" stroke="#2983A9" stroke-width="1.33333" stroke-miterlimit="8" fill="#3CB4E6"/><text fill="#FFFFFF" font-family="Arial,Arial_MSFontService,sans-serif" font-weight="400" font-size="24" transform="translate(501.935 403)">SAR</text><rect x="451.5" y="413.5" width="151" height="38" stroke="#2983A9" stroke-width="1.33333" stroke-miterlimit="8" fill="#3CB4E6"/><text fill="#FFFFFF" font-family="Arial,Arial_MSFontService,sans-serif" font-weight="400" font-size="24" transform="translate(501.268 440)">DAR</text><rect x="451" y="451" width="151" height="38" fill="#3CB4E6" fill-opacity="0.501961"/><text fill="#FFFFFF" font-family="Arial,Arial_MSFontService,sans-serif" font-weight="400" font-size="24" transform="translate(503.935 478)">TR3</text><rect x="451" y="489" width="151" height="37" fill="#3CB4E6" fill-opacity="0.501961"/><text fill="#FFFFFF" font-family="Arial,Arial_MSFontService,sans-serif" font-weight="400" font-size="24" transform="translate(503.268 516)">BR2</text><rect x="451.5" y="179.5" width="151" height="37" stroke="#2983A9" stroke-width="1.33333" stroke-miterlimit="8" fill="#3CB4E6"/><text fill="#FFFFFF" font-family="Arial,Arial_MSFontService,sans-serif" font-weight="400" font-size="24" transform="translate(495.268 206)">LBAR</text><path d="M602 199 690.279 199 690.279 203 602 203ZM688.279 195 700.279 201 688.279 207Z" fill="#E6007E"/><path d="M723 275 818.839 275C819.943 275 820.839 275.896 820.839 277 820.839 278.105 819.943 279 818.839 279L723 279C721.895 279 721 278.105 721 277 721 275.895 721.895 275 723 275ZM816.839 271 828.839 277 816.839 283Z" fill="#E6007E"/><rect x="156" y="231" width="182" height="121" fill="#03234B" fill-opacity="0.501961"/><text fill="#FFFFFF" font-family="Arial,Arial_MSFontService,sans-serif" font-weight="400" font-size="24" transform="translate(208.885 259)">Source <tspan font-size="24" x="-5.33334" y="29">memory</tspan></text><rect x="171.5" y="300.5" width="151" height="37" stroke="#2983A9" stroke-width="1.33333" stroke-miterlimit="8" fill="#3CB4E6"/><text fill="#FFFFFF" font-family="Arial,Arial_MSFontService,sans-serif" font-weight="400" font-size="24" transform="translate(240.219 327)">b</text><rect x="156" y="368" width="182" height="121" fill="#03234B" fill-opacity="0.501961"/><text fill="#FFFFFF" font-family="Arial,Arial_MSFontService,sans-serif" font-weight="400" font-size="24" transform="translate(186.885 395)">Destination <tspan font-size="24" x="16.6667" y="29">memory</tspan></text><rect x="171.5" y="436.5" width="151" height="37" stroke="#2983A9" stroke-width="1.33333" stroke-miterlimit="8" fill="#3CB4E6"/><text fill="#FFFFFF" font-family="Arial,Arial_MSFontService,sans-serif" font-weight="400" font-size="24" transform="translate(240.219 463)">b</text><rect x="716" y="249" width="166" height="323" fill="#FFD200" fill-opacity="0.501961"/><rect x="723.5" y="337.5" width="151" height="38" stroke="#2983A9" stroke-width="1.33333" stroke-miterlimit="8" fill="#3CB4E6"/><text fill="#FFFFFF" font-family="Arial,Arial_MSFontService,sans-serif" font-weight="400" font-size="24" transform="translate(758.091 365)">2 -<tspan font-size="24" x="34.6667" y="0">BR1</tspan></text><rect x="723.5" y="262.5" width="151" height="38" stroke="#2983A9" stroke-width="1.33333" stroke-miterlimit="8" fill="#3CB4E6"/><text fill="#FFFFFF" font-family="Arial,Arial_MSFontService,sans-serif" font-weight="400" font-size="24" transform="translate(776.091 289)">TR1</text><rect x="723.5" y="300.5" width="151" height="37" stroke="#2983A9" stroke-width="1.33333" stroke-miterlimit="8" fill="#3CB4E6"/><text fill="#FFFFFF" font-family="Arial,Arial_MSFontService,sans-serif" font-weight="400" font-size="24" transform="translate(776.091 327)">TR2</text><rect x="723.5" y="375.5" width="151" height="38" stroke="#2983A9" stroke-width="1.33333" stroke-miterlimit="8" fill="#3CB4E6"/><text fill="#FFFFFF" font-family="Arial,Arial_MSFontService,sans-serif" font-weight="400" font-size="24" transform="translate(774.091 403)">SAR</text><rect x="723.5" y="413.5" width="151" height="38" stroke="#2983A9" stroke-width="1.33333" stroke-miterlimit="8" fill="#3CB4E6"/><text fill="#FFFFFF" font-family="Arial,Arial_MSFontService,sans-serif" font-weight="400" font-size="24" transform="translate(773.424 440)">DAR</text><rect x="723" y="451" width="151" height="38" fill="#3CB4E6" fill-opacity="0.501961"/><text fill="#FFFFFF" font-family="Arial,Arial_MSFontService,sans-serif" font-weight="400" font-size="24" transform="translate(776.091 478)">TR3</text><rect x="723" y="489" width="151" height="37" fill="#3CB4E6" fill-opacity="0.501961"/><text fill="#FFFFFF" font-family="Arial,Arial_MSFontService,sans-serif" font-weight="400" font-size="24" transform="translate(775.424 516)">BR2</text><path d="M874 549 934.479 549" stroke="#E6007E" stroke-width="4" stroke-linecap="round" stroke-miterlimit="8" fill="none" fill-rule="evenodd"/><path d="M0 0 0.000104987 264.596" stroke="#E6007E" stroke-width="4" stroke-linecap="round" stroke-miterlimit="8" fill="none" fill-rule="evenodd" transform="matrix(1 0 0 -1 935 548.596)"/><path d="M3.47184e-06-2 50.4792-1.99991C51.5837-1.99991 52.4792-1.10448 52.4792 9.10995e-05 52.4791 1.10466 51.5837 2.00009 50.4791 2.00009L-3.47184e-06 2C-1.10457 2-2 1.10457-2-3.47184e-06-2-1.10457-1.10457-2 3.47184e-06-2ZM48.4792-5.99992 60.4792 0.000104987 48.4791 6.00008Z" fill="#E6007E" transform="matrix(-1 0 0 1 934.479 284)"/><path d="M602 549 662.479 549" stroke="#E6007E" stroke-width="4" stroke-linecap="round" stroke-miterlimit="8" fill="none" fill-rule="evenodd"/><path d="M0 0 0.000104987 264.596" stroke="#E6007E" stroke-width="4" stroke-linecap="round" stroke-miterlimit="8" fill="none" fill-rule="evenodd" transform="matrix(1 0 0 -1 663 548.596)"/><path d="M663 282 713.479 282C714.584 282 715.479 282.896 715.479 284 715.479 285.105 714.584 286 713.479 286L663 286C661.895 286 661 285.105 661 284 661 282.895 661.895 282 663 282ZM711.479 278 723.479 284 711.479 290Z" fill="#E6007E"/><rect x="723.5" y="526.5" width="151" height="38" stroke="#2983A9" stroke-width="1.33333" stroke-miterlimit="8" fill="#3CB4E6"/><text fill="#FFFFFF" font-family="Arial,Arial_MSFontService,sans-serif" font-weight="400" font-size="24" transform="translate(776.758 554)">LLR</text><rect x="451.5" y="526.5" width="151" height="38" stroke="#2983A9" stroke-width="1.33333" stroke-miterlimit="8" fill="#3CB4E6"/><text fill="#FFFFFF" font-family="Arial,Arial_MSFontService,sans-serif" font-weight="400" font-size="24" transform="translate(504.602 554)">LLR</text></g></svg>