<svg width="1280" height="720" xmlns="http://www.w3.org/2000/svg" xmlns:xlink="http://www.w3.org/1999/xlink" overflow="hidden"><defs><clipPath id="clip0"><rect x="0" y="0" width="1280" height="720"/></clipPath></defs><g clip-path="url(#clip0)"><rect x="0" y="0" width="1280" height="720" fill="#FFFFFF"/><rect x="209.5" y="95.5001" width="650" height="605" stroke="#FFFFFF" stroke-width="1.33333" stroke-miterlimit="8" fill="#FFFFFF"/><rect x="247" y="133" width="574" height="469" fill="#8C0078" fill-opacity="0.501961"/><text fill="#FFFFFF" font-family="Arial,Arial_MSFontService,sans-serif" font-weight="400" font-size="24" transform="translate(462.831 161)">LLI list queue<tspan font-size="24" x="-34.6733" y="29">DMA_QListTypeDef</tspan></text><path d="M285 275 380.839 275C381.943 275 382.839 275.896 382.839 277 382.839 278.105 381.943 279 380.839 279L285 279C283.895 279 283 278.105 283 277 283 275.895 283.895 275 285 275ZM378.839 271 390.839 277 378.839 283Z" fill="#E6007E"/><rect x="277" y="209" width="242" height="363" fill="#49B170" fill-opacity="0.501961"/><text fill="#FFFFFF" font-family="Arial,Arial_MSFontService,sans-serif" font-weight="400" font-size="24" transform="translate(291.413 237)">DMA_NodeTypeDef</text><rect x="285.5" y="337.5" width="226" height="38" stroke="#2983A9" stroke-width="1.33333" stroke-miterlimit="8" fill="#3CB4E6"/><text fill="#FFFFFF" font-family="Arial,Arial_MSFontService,sans-serif" font-weight="400" font-size="24" transform="translate(374.75 365)">BR1</text><rect x="285.5" y="262.5" width="226" height="38" stroke="#2983A9" stroke-width="1.33333" stroke-miterlimit="8" fill="#3CB4E6"/><text fill="#FFFFFF" font-family="Arial,Arial_MSFontService,sans-serif" font-weight="400" font-size="24" transform="translate(375.417 289)">TR1</text><rect x="285.5" y="300.5" width="226" height="37" stroke="#2983A9" stroke-width="1.33333" stroke-miterlimit="8" fill="#3CB4E6"/><text fill="#FFFFFF" font-family="Arial,Arial_MSFontService,sans-serif" font-weight="400" font-size="24" transform="translate(375.417 327)">TR2</text><rect x="285.5" y="375.5" width="226" height="38" stroke="#2983A9" stroke-width="1.33333" stroke-miterlimit="8" fill="#3CB4E6"/><text fill="#FFFFFF" font-family="Arial,Arial_MSFontService,sans-serif" font-weight="400" font-size="24" transform="translate(373.417 403)">SAR</text><rect x="285.5" y="413.5" width="226" height="38" stroke="#2983A9" stroke-width="1.33333" stroke-miterlimit="8" fill="#3CB4E6"/><text fill="#FFFFFF" font-family="Arial,Arial_MSFontService,sans-serif" font-weight="400" font-size="24" transform="translate(372.75 440)">DAR</text><rect x="285" y="451" width="226" height="38" fill="#3CB4E6" fill-opacity="0.501961"/><text fill="#FFFFFF" font-family="Arial,Arial_MSFontService,sans-serif" font-weight="400" font-size="24" transform="translate(375.417 478)">TR3</text><rect x="285" y="489" width="226" height="37" fill="#3CB4E6" fill-opacity="0.501961"/><text fill="#FFFFFF" font-family="Arial,Arial_MSFontService,sans-serif" font-weight="400" font-size="24" transform="translate(374.75 516)">BR2</text><path d="M549 275 644.839 275C645.943 275 646.839 275.896 646.839 277 646.839 278.105 645.943 279 644.839 279L549 279C547.895 279 547 278.105 547 277 547 275.895 547.895 275 549 275ZM642.839 271 654.839 277 642.839 283Z" fill="#E6007E"/><rect x="542" y="209" width="242" height="363" fill="#FFD200" fill-opacity="0.501961"/><text fill="#FFFFFF" font-family="Arial,Arial_MSFontService,sans-serif" font-weight="400" font-size="24" transform="translate(556.01 237)">DMA_NodeTypeDef</text><rect x="549.5" y="337.5" width="227" height="38" stroke="#2983A9" stroke-width="1.33333" stroke-miterlimit="8" fill="#3CB4E6"/><text fill="#FFFFFF" font-family="Arial,Arial_MSFontService,sans-serif" font-weight="400" font-size="24" transform="translate(639.346 365)">BR1</text><rect x="549.5" y="262.5" width="227" height="38" stroke="#2983A9" stroke-width="1.33333" stroke-miterlimit="8" fill="#3CB4E6"/><text fill="#FFFFFF" font-family="Arial,Arial_MSFontService,sans-serif" font-weight="400" font-size="24" transform="translate(640.013 289)">TR1</text><rect x="549.5" y="300.5" width="227" height="37" stroke="#2983A9" stroke-width="1.33333" stroke-miterlimit="8" fill="#3CB4E6"/><text fill="#FFFFFF" font-family="Arial,Arial_MSFontService,sans-serif" font-weight="400" font-size="24" transform="translate(640.013 327)">TR2</text><rect x="549.5" y="375.5" width="227" height="38" stroke="#2983A9" stroke-width="1.33333" stroke-miterlimit="8" fill="#3CB4E6"/><text fill="#FFFFFF" font-family="Arial,Arial_MSFontService,sans-serif" font-weight="400" font-size="24" transform="translate(638.013 403)">SAR</text><rect x="549.5" y="413.5" width="227" height="38" stroke="#2983A9" stroke-width="1.33333" stroke-miterlimit="8" fill="#3CB4E6"/><text fill="#FFFFFF" font-family="Arial,Arial_MSFontService,sans-serif" font-weight="400" font-size="24" transform="translate(637.346 440)">DAR</text><rect x="549" y="451" width="227" height="38" fill="#3CB4E6" fill-opacity="0.501961"/><text fill="#FFFFFF" font-family="Arial,Arial_MSFontService,sans-serif" font-weight="400" font-size="24" transform="translate(640.013 478)">TR3</text><rect x="549" y="489" width="227" height="37" fill="#3CB4E6" fill-opacity="0.501961"/><text fill="#FFFFFF" font-family="Arial,Arial_MSFontService,sans-serif" font-weight="400" font-size="24" transform="translate(639.346 516)">BR2</text><path d="M511 549 526.12 549" stroke="#03234B" stroke-width="4" stroke-linecap="round" stroke-miterlimit="8" fill="none" fill-rule="evenodd"/><path d="M0 0 0.000104987 264.596" stroke="#03234B" stroke-width="4" stroke-linecap="round" stroke-miterlimit="8" fill="none" fill-rule="evenodd" transform="matrix(1 0 0 -1 527 548.596)"/><path d="M527 282 539.68 282C540.784 282 541.68 282.896 541.68 284 541.68 285.105 540.784 286 539.68 286L527 286C525.895 286 525 285.105 525 284 525 282.895 525.895 282 527 282ZM537.68 278 549.68 284 537.68 290Z" fill="#03234B"/><rect x="549" y="526" width="227" height="38" fill="#03234B" fill-opacity="0.501961"/><text fill="#FFFFFF" font-family="Arial,Arial_MSFontService,sans-serif" font-weight="400" font-size="24" transform="translate(640.68 554)">LLR</text><rect x="285.5" y="526.5" width="226" height="38" stroke="#BC9A00" stroke-width="1.33333" stroke-miterlimit="8" fill="#FFD200"/><text fill="#FFFFFF" font-family="Arial,Arial_MSFontService,sans-serif" font-weight="400" font-size="24" transform="translate(376.083 554)">LLR</text></g></svg>