<svg width="1280" height="720" xmlns="http://www.w3.org/2000/svg" xmlns:xlink="http://www.w3.org/1999/xlink" overflow="hidden"><defs><clipPath id="clip0"><rect x="0" y="0" width="1280" height="720"/></clipPath></defs><g clip-path="url(#clip0)"><rect x="0" y="0" width="1280" height="720" fill="#FFFFFF"/><rect x="111" y="133" width="196" height="514" fill="#03234B" fill-opacity="0.501961"/><text fill="#FFFFFF" font-family="Arial,Arial_MSFontService,sans-serif" font-weight="400" font-size="24" transform="translate(124.419 161)">Source memory</text><rect x="118" y="186" width="182" height="454" fill="#49B170"/><rect x="126" y="194" width="166" height="166" fill="#FFD200"/><rect x="126" y="368" width="166" height="166" fill="#FFD200"/><rect x="126" y="541" width="166" height="91" fill="#FFD200"/><rect x="133.5" y="239.5" width="152" height="38" stroke="#2983A9" stroke-width="1.33333" stroke-miterlimit="8" fill="#3CB4E6"/><text fill="#FFFFFF" font-family="Arial,Arial_MSFontService,sans-serif" font-weight="400" font-size="24" transform="translate(185.086 267)">CH2</text><rect x="133.5" y="277.5" width="152" height="38" stroke="#2983A9" stroke-width="1.33333" stroke-miterlimit="8" fill="#3CB4E6"/><text fill="#FFFFFF" font-family="Arial,Arial_MSFontService,sans-serif" font-weight="400" font-size="24" transform="translate(185.086 304)">CH3</text><rect x="133.5" y="315.5" width="152" height="37" stroke="#2983A9" stroke-width="1.33333" stroke-miterlimit="8" fill="#3CB4E6"/><text fill="#FFFFFF" font-family="Arial,Arial_MSFontService,sans-serif" font-weight="400" font-size="24" transform="translate(185.086 342)">CH4</text><rect x="133.5" y="587.5" width="152" height="38" stroke="#2983A9" stroke-width="1.33333" stroke-miterlimit="8" fill="#3CB4E6"/><text fill="#FFFFFF" font-family="Arial,Arial_MSFontService,sans-serif" font-weight="400" font-size="24" transform="translate(185.086 614)">CH4</text><rect x="133.5" y="375.5" width="152" height="38" stroke="#2983A9" stroke-width="1.33333" stroke-miterlimit="8" fill="#3CB4E6"/><text fill="#FFFFFF" font-family="Arial,Arial_MSFontService,sans-serif" font-weight="400" font-size="24" transform="translate(185.086 403)">CH1</text><rect x="133.5" y="413.5" width="152" height="38" stroke="#2983A9" stroke-width="1.33333" stroke-miterlimit="8" fill="#3CB4E6"/><text fill="#FFFFFF" font-family="Arial,Arial_MSFontService,sans-serif" font-weight="400" font-size="24" transform="translate(185.086 440)">CH2</text><rect x="133.5" y="451.5" width="152" height="38" stroke="#2983A9" stroke-width="1.33333" stroke-miterlimit="8" fill="#3CB4E6"/><text fill="#FFFFFF" font-family="Arial,Arial_MSFontService,sans-serif" font-weight="400" font-size="24" transform="translate(185.086 478)">CH3</text><rect x="133.5" y="489.5" width="152" height="37" stroke="#2983A9" stroke-width="1.33333" stroke-miterlimit="8" fill="#3CB4E6"/><text fill="#FFFFFF" font-family="Arial,Arial_MSFontService,sans-serif" font-weight="400" font-size="24" transform="translate(185.086 516)">CH4</text><rect x="133.5" y="549.5" width="152" height="38" stroke="#2983A9" stroke-width="1.33333" stroke-miterlimit="8" fill="#3CB4E6"/><text fill="#FFFFFF" font-family="Arial,Arial_MSFontService,sans-serif" font-weight="400" font-size="24" transform="translate(197.086 576)">…</text><rect x="685" y="111" width="341" height="551" fill="#03234B" fill-opacity="0.501961"/><text fill="#FFFFFF" font-family="Arial,Arial_MSFontService,sans-serif" font-weight="400" font-size="24" transform="translate(748.79 138)">Destination memory</text><rect x="700.5" y="163.5" width="152" height="38" stroke="#2983A9" stroke-width="1.33333" stroke-miterlimit="8" fill="#3CB4E6"/><text fill="#FFFFFF" font-family="Arial,Arial_MSFontService,sans-serif" font-weight="400" font-size="24" transform="translate(752.078 191)">CH1</text><path d="M286.62 222.828 409.278 392.383C409.925 393.278 409.724 394.528 408.829 395.176 407.934 395.823 406.684 395.623 406.037 394.728L283.38 225.172C282.732 224.277 282.933 223.027 283.828 222.38 284.723 221.732 285.973 221.933 286.62 222.828ZM411.346 388.418 413.518 401.658 401.623 395.452Z" fill="#E6007E"/><path d="M1.92799-0.531858 59.7478 209.065C60.0415 210.13 59.4164 211.231 58.3517 211.525 57.2869 211.818 56.1856 211.193 55.8918 210.129L-1.92799 0.531858C-2.22172-0.532939-1.59665-1.63425-0.531858-1.92799 0.532939-2.22172 1.63425-1.59665 1.92799-0.531858ZM63.072 206.073 60.4792 219.237 51.5041 209.265Z" fill="#E6007E" transform="matrix(1 0 0 -1 640 401.237)"/><rect x="133.5" y="201.5" width="152" height="38" stroke="#2983A9" stroke-width="1.33333" stroke-miterlimit="8" fill="#3CB4E6"/><text fill="#FFFFFF" font-family="Arial,Arial_MSFontService,sans-serif" font-weight="400" font-size="24" transform="translate(185.086 229)">CH1</text><rect x="413" y="284" width="227" height="235" fill="#03234B"/><text fill="#FFFFFF" font-family="Arial,Arial_MSFontService,sans-serif" font-weight="400" font-size="24" transform="translate(467.265 312)">GPDMA <tspan font-size="24" x="93.34" y="0">ch</tspan></text><rect x="436.5" y="352.5" width="181" height="38" stroke="#2983A9" stroke-width="1.33333" stroke-miterlimit="8" fill="#3CB4E6"/><text fill="#FFFFFF" font-family="Arial,Arial_MSFontService,sans-serif" font-weight="400" font-size="24" transform="translate(479.268 380)">6<tspan font-size="24" x="13.3333" y="0">(</tspan>BDTR)</text><rect x="436.5" y="390.5" width="181" height="38" stroke="#BC9A00" stroke-width="1.33333" stroke-miterlimit="8" fill="#FFD200"/><text fill="#FFFFFF" font-family="Arial,Arial_MSFontService,sans-serif" font-weight="400" font-size="24" transform="translate(479.935 418)">1<tspan font-size="24" x="13.3333" y="0">6</tspan><tspan font-size="24" x="26.6667" y="0">(</tspan><tspan font-size="24" x="34.6667" y="0">BRC)</tspan></text><rect x="451.5" y="428.5" width="166" height="38" stroke="#BFBFBF" stroke-width="1.33333" stroke-miterlimit="8" fill="#D9D9D9"/><text fill="#FFFFFF" font-family="Arial,Arial_MSFontService,sans-serif" font-weight="400" font-size="24" transform="translate(486.828 456)">30(<tspan font-size="24" x="34.6667" y="0">DAO)</tspan></text><rect x="451.5" y="466.5" width="166" height="38" stroke="#7F7F7F" stroke-width="1.33333" stroke-miterlimit="8" fill="#A6A6A6"/><text fill="#FFFFFF" font-family="Arial,Arial_MSFontService,sans-serif" font-weight="400" font-size="24" transform="translate(463.495 493)">12<tspan font-size="24" x="26.6667" y="0">6</tspan><tspan font-size="24" x="40" y="0">(</tspan>BRDAO)</text><rect x="436.5" y="428.5" width="15" height="38" stroke="#BFBFBF" stroke-width="1.33333" stroke-miterlimit="8" fill="#D9D9D9"/><text fill="#FFFFFF" font-family="Arial,Arial_MSFontService,sans-serif" font-weight="400" font-size="24" transform="translate(436.443 456)">+</text><rect x="436.5" y="466.5" width="15" height="38" stroke="#7F7F7F" stroke-width="1.33333" stroke-miterlimit="8" fill="#A6A6A6"/><text fill="#FFFFFF" font-family="Arial,Arial_MSFontService,sans-serif" font-weight="400" font-size="24" transform="translate(439.443 493)">-</text></g></svg>