<svg width="1280" height="720" xmlns="http://www.w3.org/2000/svg" xmlns:xlink="http://www.w3.org/1999/xlink" overflow="hidden"><defs><clipPath id="clip0"><rect x="0" y="0" width="1280" height="720"/></clipPath></defs><g clip-path="url(#clip0)"><rect x="0" y="0" width="1280" height="720" fill="#FFFFFF"/><rect x="111.5" y="133.5" width="907" height="378" stroke="#FFFFFF" stroke-width="1.33333" stroke-miterlimit="8" fill="#FFFFFF"/><text fill="#03234B" font-family="Arial,Arial_MSFontService,sans-serif" font-weight="400" font-size="24" transform="translate(687.399 296)">DATA</text><rect x="186" y="247" width="152" height="75" fill="#49B170"/><text fill="#FFFFFF" font-family="Arial,Arial_MSFontService,sans-serif" font-weight="400" font-size="24" transform="translate(220.672 293)">LPDMA</text><rect x="489" y="247" width="151" height="75" fill="#3CB4E6"/><text fill="#FFFFFF" font-family="Arial,Arial_MSFontService,sans-serif" font-weight="400" font-size="24" transform="translate(520.401 293)">GPDMA</text><rect x="791" y="247" width="151" height="75" fill="#8C0078"/><text fill="#FFFFFF" font-family="Arial,Arial_MSFontService,sans-serif" font-weight="400" font-size="24" transform="translate(827.68 293)">UART1</text><path d="M640 305 781.198 305 781.198 309 640 309ZM779.198 301 791.198 307 779.198 313Z" fill="#03234B"/><rect x="489" y="398" width="151" height="38" fill="#FFD200"/><text fill="#FFFFFF" font-family="Arial,Arial_MSFontService,sans-serif" font-weight="400" font-size="24" transform="translate(520.401 425)">IRQ_TC</text><path d="M700 333.5C700 323.283 708.507 315 719 315 729.493 315 738 323.283 738 333.5 738 343.717 729.493 352 719 352 708.507 352 700 343.717 700 333.5Z" fill="#E6007E" fill-rule="evenodd"/><text fill="#FFFFFF" font-family="Arial,Arial_MSFontService,sans-serif" font-weight="400" font-size="24" transform="translate(712.712 342)">3</text></g></svg>