<svg width="1280" height="720" xmlns="http://www.w3.org/2000/svg" xmlns:xlink="http://www.w3.org/1999/xlink" overflow="hidden"><defs><clipPath id="clip0"><rect x="0" y="0" width="1280" height="720"/></clipPath></defs><g clip-path="url(#clip0)"><rect x="0" y="0" width="1280" height="720" fill="#FFFFFF"/><rect x="232" y="405" width="181" height="121" fill="#03234B" fill-opacity="0.501961"/><text fill="#FFFFFF" font-family="Arial,Arial_MSFontService,sans-serif" font-weight="400" font-size="24" transform="translate(290.484 433)">ADC1</text><rect x="791" y="405" width="182" height="235" fill="#03234B" fill-opacity="0.501961"/><text fill="#FFFFFF" font-family="Arial,Arial_MSFontService,sans-serif" font-weight="400" font-size="24" transform="translate(858.583 433)">data</text><rect x="179" y="58" width="854" height="249" fill="#FFD200" fill-opacity="0.501961"/><text fill="#FFFFFF" font-family="Arial,Arial_MSFontService,sans-serif" font-weight="400" font-size="24" transform="translate(516.644 85)">GPDMA QUEUE</text><path d="M489 169 584.839 169C585.943 169 586.839 169.896 586.839 171 586.839 172.105 585.943 173 584.839 173L489 173C487.895 173 487 172.105 487 171 487 169.895 487.895 169 489 169ZM582.839 165 594.839 171 582.839 177Z" fill="#03234B"/><rect x="481" y="103" width="242" height="174" fill="#8C0078"/><text fill="#FFFFFF" font-family="Arial,Arial_MSFontService,sans-serif" font-weight="400" font-size="24" transform="translate(510.864 131)">GPDMA NODE 2</text><rect x="489.5" y="156.5" width="227" height="38" stroke="#2983A9" stroke-width="1.33333" stroke-miterlimit="8" fill="#3CB4E6"/><text fill="#FFFFFF" font-family="Arial,Arial_MSFontService,sans-serif" font-weight="400" font-size="24" transform="translate(547.534 183)">2D<tspan font-size="24" x="37.3333" y="0">sortin</tspan><tspan font-size="24" x="96" y="0">g</tspan></text><path d="M451 254 466.12 254" stroke="#03234B" stroke-width="4" stroke-linecap="round" stroke-miterlimit="8" fill="none" fill-rule="evenodd"/><path d="M0 0 0.000104987 75.5989" stroke="#03234B" stroke-width="4" stroke-linecap="round" stroke-miterlimit="8" fill="none" fill-rule="evenodd" transform="matrix(1 0 0 -1 466 254.599)"/><path d="M466 177 478.68 177C479.784 177 480.68 177.895 480.68 179 480.68 180.105 479.784 181 478.68 181L466 181C464.895 181 464 180.105 464 179 464 177.895 464.895 177 466 177ZM476.68 173 488.68 179 476.68 185Z" fill="#03234B"/><path d="M0 0 0.000104987 113.398" stroke="#03234B" stroke-width="4" stroke-linecap="round" stroke-miterlimit="8" fill="none" fill-rule="evenodd" transform="matrix(1 0 0 -1 194 292.398)"/><path d="M0 0 0.000104987 37.7995" stroke="#03234B" stroke-width="4" stroke-linecap="round" stroke-miterlimit="8" fill="none" fill-rule="evenodd" transform="matrix(1 0 0 -1 1010 291.799)"/><path d="M995 254 1010.12 254" stroke="#03234B" stroke-width="4" stroke-linecap="round" stroke-miterlimit="8" fill="none" fill-rule="evenodd"/><path d="M194 292 1010.47 292" stroke="#03234B" stroke-width="4" stroke-linecap="round" stroke-miterlimit="8" fill="none" fill-rule="evenodd"/><rect x="232" y="541" width="181" height="121" fill="#03234B" fill-opacity="0.501961"/><text fill="#FFFFFF" font-family="Arial,Arial_MSFontService,sans-serif" font-weight="400" font-size="24" transform="translate(283.368 569)">UART1</text><rect x="247.5" y="609.5" width="151" height="38" stroke="#2983A9" stroke-width="1.33333" stroke-miterlimit="8" fill="#3CB4E6"/><text fill="#FFFFFF" font-family="Arial,Arial_MSFontService,sans-serif" font-weight="400" font-size="24" transform="translate(298.484 637)">TXR</text><rect x="247.5" y="473.5" width="151" height="38" stroke="#2983A9" stroke-width="1.33333" stroke-miterlimit="8" fill="#3CB4E6"/><text fill="#FFFFFF" font-family="Arial,Arial_MSFontService,sans-serif" font-weight="400" font-size="24" transform="translate(305.151 501)">DR</text><rect x="489" y="405" width="227" height="159" fill="#03234B"/><text fill="#FFFFFF" font-family="Arial,Arial_MSFontService,sans-serif" font-weight="400" font-size="24" transform="translate(542.864 433)">GPDMA <tspan font-size="24" x="93.34" y="0">ch</tspan></text><rect x="519" y="466" width="166" height="91" fill="#49B170"/><rect x="527.5" y="511.5" width="151" height="38" stroke="#2983A9" stroke-width="1.33333" stroke-miterlimit="8" fill="#3CB4E6"/><text fill="#FFFFFF" font-family="Arial,Arial_MSFontService,sans-serif" font-weight="400" font-size="24" transform="translate(564.647 539)">Trigger</text><rect x="489.5" y="625.5" width="227" height="37" stroke="#021735" stroke-width="1.33333" stroke-miterlimit="8" fill="#03234B"/><text fill="#FFFFFF" font-family="Arial,Arial_MSFontService,sans-serif" font-weight="400" font-size="24" transform="translate(564.867 652)">TIM 15</text><path d="M604 360 604 395.359C604 396.464 603.105 397.359 602 397.359 600.896 397.359 600 396.464 600 395.359L600 360C600 358.895 600.895 358 602 358 603.105 358 604 358.895 604 360ZM608 393.359 602 405.359 596 393.359Z" fill="#E6007E"/><rect x="527.5" y="473.5" width="151" height="38" stroke="#2983A9" stroke-width="1.33333" stroke-miterlimit="8" fill="#3CB4E6"/><text fill="#FFFFFF" font-family="Arial,Arial_MSFontService,sans-serif" font-weight="400" font-size="24" transform="translate(545.531 501)">Read ADC</text><rect x="1018" y="405" width="181" height="235" fill="#03234B" fill-opacity="0.501961"/><text fill="#FFFFFF" font-family="Arial,Arial_MSFontService,sans-serif" font-weight="400" font-size="24" transform="translate(1078.71 433)">data2</text><rect x="753" y="103" width="242" height="174" fill="#FFD200"/><text fill="#FFFFFF" font-family="Arial,Arial_MSFontService,sans-serif" font-weight="400" font-size="24" transform="translate(783.02 131)">GPDMA NODE <tspan font-size="24" x="169.34" y="0">3</tspan></text><rect x="761.5" y="156.5" width="227" height="38" stroke="#2983A9" stroke-width="1.33333" stroke-miterlimit="8" fill="#3CB4E6"/><text fill="#FFFFFF" font-family="Arial,Arial_MSFontService,sans-serif" font-weight="400" font-size="24" transform="translate(823.673 183)">UART TX</text><path d="M723 254 738.12 254" stroke="#03234B" stroke-width="4" stroke-linecap="round" stroke-miterlimit="8" fill="none" fill-rule="evenodd"/><path d="M0 0 0.000104987 75.5989" stroke="#03234B" stroke-width="4" stroke-linecap="round" stroke-miterlimit="8" fill="none" fill-rule="evenodd" transform="matrix(1 0 0 -1 738 254.599)"/><path d="M738 177 750.68 177C751.784 177 752.68 177.895 752.68 179 752.68 180.105 751.784 181 750.68 181L738 181C736.895 181 736 180.105 736 179 736 177.895 736.895 177 738 177ZM748.68 173 760.68 179 748.68 185Z" fill="#03234B"/><path d="M330 277 330 360.159" stroke="#E6007E" stroke-width="4" stroke-linecap="round" stroke-miterlimit="8" fill="none" fill-rule="evenodd"/><path d="M330 360 602.156 360" stroke="#E6007E" stroke-width="4" stroke-linecap="round" stroke-miterlimit="8" fill="none" fill-rule="evenodd"/><path d="M217 169 312.839 169C313.943 169 314.839 169.896 314.839 171 314.839 172.105 313.943 173 312.839 173L217 173C215.895 173 215 172.105 215 171 215 169.895 215.895 169 217 169ZM310.839 165 322.839 171 310.839 177Z" fill="#03234B"/><rect x="209" y="103" width="242" height="174" fill="#49B170"/><text fill="#FFFFFF" font-family="Arial,Arial_MSFontService,sans-serif" font-weight="400" font-size="24" transform="translate(238.708 131)">GPDMA NODE 1</text><rect x="217.5" y="156.5" width="226" height="38" stroke="#2983A9" stroke-width="1.33333" stroke-miterlimit="8" fill="#3CB4E6"/><text fill="#FFFFFF" font-family="Arial,Arial_MSFontService,sans-serif" font-weight="400" font-size="24" transform="translate(273.374 183)">Read ADC</text><rect x="217.5" y="194.5" width="226" height="37" stroke="#2983A9" stroke-width="1.33333" stroke-miterlimit="8" fill="#3CB4E6"/><text fill="#FFFFFF" font-family="Arial,Arial_MSFontService,sans-serif" font-weight="400" font-size="24" transform="translate(292.491 221)">Trigger</text><path d="M194 177 206.68 177C207.784 177 208.68 177.895 208.68 179 208.68 180.105 207.784 181 206.68 181L194 181C192.895 181 192 180.105 192 179 192 177.895 192.895 177 194 177ZM204.68 173 216.68 179 204.68 185Z" fill="#03234B"/></g></svg>