<svg width="1280" height="720" xmlns="http://www.w3.org/2000/svg" xmlns:xlink="http://www.w3.org/1999/xlink" overflow="hidden"><defs><clipPath id="clip0"><rect x="0" y="0" width="1280" height="720"/></clipPath></defs><g clip-path="url(#clip0)"><rect x="0" y="0" width="1280" height="720" fill="#FFFFFF"/><rect x="111" y="133" width="196" height="514" fill="#03234B" fill-opacity="0.501961"/><text fill="#FFFFFF" font-family="Arial,Arial_MSFontService,sans-serif" font-weight="400" font-size="24" transform="translate(124.419 161)">Source memory</text><rect x="118" y="186" width="182" height="454" fill="#49B170"/><rect x="126" y="194" width="166" height="166" fill="#FFD200"/><rect x="126" y="368" width="166" height="166" fill="#FFD200"/><rect x="126" y="541" width="166" height="91" fill="#FFD200"/><rect x="133.5" y="201.5" width="152" height="38" stroke="#2983A9" stroke-width="1.33333" stroke-miterlimit="8" fill="#3CB4E6"/><text fill="#FFFFFF" font-family="Arial,Arial_MSFontService,sans-serif" font-weight="400" font-size="24" transform="translate(185.086 229)">CH1</text><rect x="133.5" y="239.5" width="152" height="38" stroke="#2983A9" stroke-width="1.33333" stroke-miterlimit="8" fill="#3CB4E6"/><text fill="#FFFFFF" font-family="Arial,Arial_MSFontService,sans-serif" font-weight="400" font-size="24" transform="translate(185.086 267)">CH2</text><rect x="133.5" y="277.5" width="152" height="38" stroke="#2983A9" stroke-width="1.33333" stroke-miterlimit="8" fill="#3CB4E6"/><text fill="#FFFFFF" font-family="Arial,Arial_MSFontService,sans-serif" font-weight="400" font-size="24" transform="translate(185.086 304)">CH3</text><rect x="133.5" y="315.5" width="152" height="37" stroke="#2983A9" stroke-width="1.33333" stroke-miterlimit="8" fill="#3CB4E6"/><text fill="#FFFFFF" font-family="Arial,Arial_MSFontService,sans-serif" font-weight="400" font-size="24" transform="translate(185.086 342)">CH4</text><rect x="133.5" y="587.5" width="152" height="38" stroke="#2983A9" stroke-width="1.33333" stroke-miterlimit="8" fill="#3CB4E6"/><text fill="#FFFFFF" font-family="Arial,Arial_MSFontService,sans-serif" font-weight="400" font-size="24" transform="translate(185.086 614)">CH4</text><rect x="133.5" y="375.5" width="152" height="38" stroke="#2983A9" stroke-width="1.33333" stroke-miterlimit="8" fill="#3CB4E6"/><text fill="#FFFFFF" font-family="Arial,Arial_MSFontService,sans-serif" font-weight="400" font-size="24" transform="translate(185.086 403)">CH1</text><rect x="133.5" y="413.5" width="152" height="38" stroke="#2983A9" stroke-width="1.33333" stroke-miterlimit="8" fill="#3CB4E6"/><text fill="#FFFFFF" font-family="Arial,Arial_MSFontService,sans-serif" font-weight="400" font-size="24" transform="translate(185.086 440)">CH2</text><rect x="133.5" y="451.5" width="152" height="38" stroke="#2983A9" stroke-width="1.33333" stroke-miterlimit="8" fill="#3CB4E6"/><text fill="#FFFFFF" font-family="Arial,Arial_MSFontService,sans-serif" font-weight="400" font-size="24" transform="translate(185.086 478)">CH3</text><rect x="133.5" y="489.5" width="152" height="37" stroke="#2983A9" stroke-width="1.33333" stroke-miterlimit="8" fill="#3CB4E6"/><text fill="#FFFFFF" font-family="Arial,Arial_MSFontService,sans-serif" font-weight="400" font-size="24" transform="translate(185.086 516)">CH4</text><rect x="133.5" y="549.5" width="152" height="38" stroke="#2983A9" stroke-width="1.33333" stroke-miterlimit="8" fill="#3CB4E6"/><text fill="#FFFFFF" font-family="Arial,Arial_MSFontService,sans-serif" font-weight="400" font-size="24" transform="translate(197.086 576)">…</text><rect x="413" y="284" width="227" height="235" fill="#03234B" fill-opacity="0.501961"/><text fill="#FFFFFF" font-family="Arial,Arial_MSFontService,sans-serif" font-weight="400" font-size="24" transform="translate(467.265 312)">GPDMA <tspan font-size="24" x="93.34" y="0">ch</tspan></text><rect x="436.5" y="352.5" width="181" height="38" stroke="#2983A9" stroke-width="1.33333" stroke-miterlimit="8" fill="#3CB4E6"/><text fill="#FFFFFF" font-family="Arial,Arial_MSFontService,sans-serif" font-weight="400" font-size="24" transform="translate(479.268 380)">8<tspan font-size="24" x="13.3333" y="0">(</tspan>BDTR)</text><rect x="436.5" y="390.5" width="181" height="38" stroke="#BC9A00" stroke-width="1.33333" stroke-miterlimit="8" fill="#FFD200"/><text fill="#FFFFFF" font-family="Arial,Arial_MSFontService,sans-serif" font-weight="400" font-size="24" transform="translate(479.935 418)">1<tspan font-size="24" x="13.3333" y="0">6</tspan><tspan font-size="24" x="26.6667" y="0">(</tspan><tspan font-size="24" x="34.6667" y="0">BRC)</tspan></text><rect x="451.5" y="428.5" width="166" height="38" stroke="#BFBFBF" stroke-width="1.33333" stroke-miterlimit="8" fill="#D9D9D9"/><text fill="#FFFFFF" font-family="Arial,Arial_MSFontService,sans-serif" font-weight="400" font-size="24" transform="translate(486.828 456)">30(<tspan font-size="24" x="34.6667" y="0">DAO)</tspan></text><rect x="451.5" y="466.5" width="166" height="38" stroke="#7F7F7F" stroke-width="1.33333" stroke-miterlimit="8" fill="#A6A6A6"/><text fill="#FFFFFF" font-family="Arial,Arial_MSFontService,sans-serif" font-weight="400" font-size="24" transform="translate(463.495 493)">12<tspan font-size="24" x="26.6667" y="0">6</tspan><tspan font-size="24" x="40" y="0">(</tspan>BRDAO)</text><rect x="436.5" y="428.5" width="15" height="38" stroke="#BFBFBF" stroke-width="1.33333" stroke-miterlimit="8" fill="#D9D9D9"/><text fill="#FFFFFF" font-family="Arial,Arial_MSFontService,sans-serif" font-weight="400" font-size="24" transform="translate(436.443 456)">+</text><rect x="436.5" y="466.5" width="15" height="38" stroke="#7F7F7F" stroke-width="1.33333" stroke-miterlimit="8" fill="#A6A6A6"/><text fill="#FFFFFF" font-family="Arial,Arial_MSFontService,sans-serif" font-weight="400" font-size="24" transform="translate(439.443 493)">-</text><rect x="685" y="111" width="341" height="551" fill="#03234B" fill-opacity="0.501961"/><text fill="#FFFFFF" font-family="Arial,Arial_MSFontService,sans-serif" font-weight="400" font-size="24" transform="translate(748.79 138)">Destination memory</text></g></svg>