<svg width="1280" height="720" xmlns="http://www.w3.org/2000/svg" xmlns:xlink="http://www.w3.org/1999/xlink" overflow="hidden"><defs><clipPath id="clip0"><rect x="0" y="0" width="1280" height="720"/></clipPath></defs><g clip-path="url(#clip0)"><rect x="0" y="0" width="1280" height="720" fill="#FFFFFF"/><rect x="300" y="20" width="589" height="249" fill="#FFD200" fill-opacity="0.501961"/><text fill="#FFFFFF" font-family="Arial,Arial_MSFontService,sans-serif" font-weight="400" font-size="24" transform="translate(505.304 48)">GPDMA QUEUE</text><path d="M338 131 433.839 131C434.943 131 435.839 131.896 435.839 133 435.839 134.105 434.943 135 433.839 135L338 135C336.895 135 336 134.105 336 133 336 131.895 336.895 131 338 131ZM431.839 127 443.839 133 431.839 139Z" fill="#03234B"/><rect x="330" y="65" width="242" height="174" fill="#49B170"/><text fill="#FFFFFF" font-family="Arial,Arial_MSFontService,sans-serif" font-weight="400" font-size="24" transform="translate(359.666 93)">GPDMA NODE 1</text><path d="M610 131 705.839 131C706.943 131 707.839 131.896 707.839 133 707.839 134.105 706.943 135 705.839 135L610 135C608.895 135 608 134.105 608 133 608 131.895 608.895 131 610 131ZM703.839 127 715.839 133 703.839 139Z" fill="#03234B"/><rect x="602" y="65" width="242" height="174" fill="#8C0078"/><text fill="#FFFFFF" font-family="Arial,Arial_MSFontService,sans-serif" font-weight="400" font-size="24" transform="translate(631.822 93)">GPDMA NODE 2</text><rect x="338.5" y="118.5" width="226" height="38" stroke="#2983A9" stroke-width="1.33333" stroke-miterlimit="8" fill="#3CB4E6"/><text fill="#FFFFFF" font-family="Arial,Arial_MSFontService,sans-serif" font-weight="400" font-size="24" transform="translate(400.336 146)">4<tspan font-size="24" x="20" y="0">(BDTR)</tspan></text><path d="M572 216 587.12 216" stroke="#03234B" stroke-width="4" stroke-linecap="round" stroke-miterlimit="8" fill="none" fill-rule="evenodd"/><path d="M0 0 0.000104987 75.5989" stroke="#03234B" stroke-width="4" stroke-linecap="round" stroke-miterlimit="8" fill="none" fill-rule="evenodd" transform="matrix(1 0 0 -1 587 216.599)"/><path d="M587 139 599.68 139C600.784 139 601.68 139.895 601.68 141 601.68 142.105 600.784 143 599.68 143L587 143C585.895 143 585 142.105 585 141 585 139.895 585.895 139 587 139ZM597.68 135 609.68 141 597.68 147Z" fill="#03234B"/><rect x="338.5" y="156.5" width="226" height="38" stroke="#BC9A00" stroke-width="1.33333" stroke-miterlimit="8" fill="#FFD200"/><text fill="#FFFFFF" font-family="Arial,Arial_MSFontService,sans-serif" font-weight="400" font-size="24" transform="translate(411.003 183)">2(<tspan font-size="24" x="21.3333" y="0">BRC)</tspan></text><rect x="610.5" y="118.5" width="227" height="38" stroke="#2983A9" stroke-width="1.33333" stroke-miterlimit="8" fill="#3CB4E6"/><text fill="#FFFFFF" font-family="Arial,Arial_MSFontService,sans-serif" font-weight="400" font-size="24" transform="translate(672.492 146)">4 (BDTR)</text><rect x="610.5" y="156.5" width="227" height="38" stroke="#BC9A00" stroke-width="1.33333" stroke-miterlimit="8" fill="#FFD200"/><text fill="#FFFFFF" font-family="Arial,Arial_MSFontService,sans-serif" font-weight="400" font-size="24" transform="translate(683.159 183)">2(<tspan font-size="24" x="21.3333" y="0">BRC)</tspan></text><rect x="217" y="284" width="196" height="424" fill="#03234B" fill-opacity="0.501961"/><text fill="#FFFFFF" font-family="Arial,Arial_MSFontService,sans-serif" font-weight="400" font-size="24" transform="translate(230.258 312)">Source memory</text><rect x="224" y="345" width="182" height="355" fill="#49B170"/><rect x="232" y="352" width="166" height="167" fill="#FFD200"/><rect x="232" y="526" width="166" height="167" fill="#FFD200"/><rect x="239.5" y="360.5" width="152" height="38" stroke="#2983A9" stroke-width="1.33333" stroke-miterlimit="8" fill="#3CB4E6"/><text fill="#FFFFFF" font-family="Arial,Arial_MSFontService,sans-serif" font-weight="400" font-size="24" transform="translate(308.258 387)">a</text><rect x="239.5" y="398.5" width="152" height="38" stroke="#2983A9" stroke-width="1.33333" stroke-miterlimit="8" fill="#3CB4E6"/><text fill="#FFFFFF" font-family="Arial,Arial_MSFontService,sans-serif" font-weight="400" font-size="24" transform="translate(308.258 425)">b</text><rect x="239.5" y="436.5" width="152" height="37" stroke="#2983A9" stroke-width="1.33333" stroke-miterlimit="8" fill="#3CB4E6"/><text fill="#FFFFFF" font-family="Arial,Arial_MSFontService,sans-serif" font-weight="400" font-size="24" transform="translate(308.924 463)">c</text><rect x="239.5" y="473.5" width="152" height="38" stroke="#2983A9" stroke-width="1.33333" stroke-miterlimit="8" fill="#3CB4E6"/><text fill="#FFFFFF" font-family="Arial,Arial_MSFontService,sans-serif" font-weight="400" font-size="24" transform="translate(308.258 501)">d</text><rect x="239.5" y="534.5" width="152" height="38" stroke="#2983A9" stroke-width="1.33333" stroke-miterlimit="8" fill="#3CB4E6"/><text fill="#FFFFFF" font-family="Arial,Arial_MSFontService,sans-serif" font-weight="400" font-size="24" transform="translate(308.258 561)">e</text><rect x="239.5" y="572.5" width="152" height="37" stroke="#2983A9" stroke-width="1.33333" stroke-miterlimit="8" fill="#3CB4E6"/><text fill="#FFFFFF" font-family="Arial,Arial_MSFontService,sans-serif" font-weight="400" font-size="24" transform="translate(311.591 599)">f</text><rect x="239.5" y="609.5" width="152" height="38" stroke="#2983A9" stroke-width="1.33333" stroke-miterlimit="8" fill="#3CB4E6"/><text fill="#FFFFFF" font-family="Arial,Arial_MSFontService,sans-serif" font-weight="400" font-size="24" transform="translate(308.258 637)">g</text><rect x="791" y="284" width="197" height="424" fill="#03234B" fill-opacity="0.501961"/><text fill="#FFFFFF" font-family="Arial,Arial_MSFontService,sans-serif" font-weight="400" font-size="24" transform="translate(829.477 312)">Destination <tspan font-size="24" x="16.6666" y="29">memory</tspan></text><rect x="814.5" y="360.5" width="151" height="38" stroke="#2983A9" stroke-width="1.33333" stroke-miterlimit="8" fill="#3CB4E6"/><text fill="#FFFFFF" font-family="Arial,Arial_MSFontService,sans-serif" font-weight="400" font-size="24" transform="translate(882.81 387)">a</text><rect x="814.5" y="398.5" width="151" height="38" stroke="#2983A9" stroke-width="1.33333" stroke-miterlimit="8" fill="#3CB4E6"/><text fill="#FFFFFF" font-family="Arial,Arial_MSFontService,sans-serif" font-weight="400" font-size="24" transform="translate(882.81 425)">b</text><rect x="814.5" y="436.5" width="151" height="37" stroke="#2983A9" stroke-width="1.33333" stroke-miterlimit="8" fill="#3CB4E6"/><text fill="#FFFFFF" font-family="Arial,Arial_MSFontService,sans-serif" font-weight="400" font-size="24" transform="translate(883.477 463)">c</text><rect x="814.5" y="473.5" width="151" height="38" stroke="#2983A9" stroke-width="1.33333" stroke-miterlimit="8" fill="#3CB4E6"/><text fill="#FFFFFF" font-family="Arial,Arial_MSFontService,sans-serif" font-weight="400" font-size="24" transform="translate(882.81 501)">d</text><rect x="814.5" y="534.5" width="151" height="38" stroke="#2983A9" stroke-width="1.33333" stroke-miterlimit="8" fill="#3CB4E6"/><text fill="#FFFFFF" font-family="Arial,Arial_MSFontService,sans-serif" font-weight="400" font-size="24" transform="translate(882.81 561)">e</text><rect x="814.5" y="572.5" width="151" height="37" stroke="#2983A9" stroke-width="1.33333" stroke-miterlimit="8" fill="#3CB4E6"/><text fill="#FFFFFF" font-family="Arial,Arial_MSFontService,sans-serif" font-weight="400" font-size="24" transform="translate(886.143 599)">f</text><rect x="814.5" y="609.5" width="151" height="38" stroke="#2983A9" stroke-width="1.33333" stroke-miterlimit="8" fill="#3CB4E6"/><text fill="#FFFFFF" font-family="Arial,Arial_MSFontService,sans-serif" font-weight="400" font-size="24" transform="translate(882.81 637)">g</text><path d="M717.732 494.999 811.008 656.438C811.56 657.395 811.233 658.618 810.276 659.171 809.32 659.723 808.097 659.396 807.544 658.44L714.268 497.001C713.716 496.044 714.043 494.821 714.999 494.268 715.956 493.716 717.179 494.043 717.732 494.999ZM813.471 652.706 814.279 666.098 803.08 658.709Z" fill="#E6007E"/><rect x="489" y="413" width="227" height="166" fill="#03234B"/><text fill="#FFFFFF" font-family="Arial,Arial_MSFontService,sans-serif" font-weight="400" font-size="24" transform="translate(542.864 441)">GPDMA <tspan font-size="24" x="93.34" y="0">ch</tspan></text><rect x="519" y="473" width="166" height="91" fill="#8C0078"/><path d="M1.73173-1.00056 95.0076 160.438C95.5602 161.395 95.2328 162.618 94.2764 163.171 93.32 163.723 92.0967 163.396 91.5441 162.44L-1.73173 1.00056C-2.28432 0.0441471-1.95696-1.17914-1.00056-1.73173-0.0441471-2.28432 1.17914-1.95696 1.73173-1.00056ZM97.4705 156.706 98.2786 170.098 87.0801 162.709Z" fill="#E6007E" transform="matrix(1 0 0 -1 391 666.098)"/><rect x="527.5" y="481.5" width="151" height="38" stroke="#2983A9" stroke-width="1.33333" stroke-miterlimit="8" fill="#3CB4E6"/><text fill="#FFFFFF" font-family="Arial,Arial_MSFontService,sans-serif" font-weight="400" font-size="24" transform="translate(554.867 508)">0<tspan font-size="24" x="13.3334" y="0">(</tspan>BDTR)</text><rect x="527.5" y="519.5" width="151" height="38" stroke="#BC9A00" stroke-width="1.33333" stroke-miterlimit="8" fill="#FFD200"/><text fill="#FFFFFF" font-family="Arial,Arial_MSFontService,sans-serif" font-weight="400" font-size="24" transform="translate(562.201 546)">0(<tspan font-size="24" x="21.3334" y="0">BRC)</tspan></text><rect x="239.5" y="647.5" width="152" height="38" stroke="#2983A9" stroke-width="1.33333" stroke-miterlimit="8" fill="#3CB4E6"/><text fill="#FFFFFF" font-family="Arial,Arial_MSFontService,sans-serif" font-weight="400" font-size="24" transform="translate(308.258 675)">h</text><path d="M965 682 1154.12 682C1155.77 682 1157.12 683.343 1157.12 685 1157.12 686.657 1155.77 688 1154.12 688L965 688C963.343 688 962 686.657 962 685 962 683.343 963.343 682 965 682ZM1151.12 676 1169.12 685 1151.12 694Z" fill="#E6007E"/><rect x="988" y="647" width="151" height="38" fill="#E6007E"/><text fill="#FFFFFF" font-family="Arial,Arial_MSFontService,sans-serif" font-weight="400" font-size="24" transform="translate(1014.69 675)">T<tspan font-size="24" x="14.6667" y="0">C</tspan><tspan font-size="24" x="38.6667" y="0">event</tspan></text><rect x="814.5" y="647.5" width="151" height="38" stroke="#2983A9" stroke-width="1.33333" stroke-miterlimit="8" fill="#3CB4E6"/><text fill="#FFFFFF" font-family="Arial,Arial_MSFontService,sans-serif" font-weight="400" font-size="24" transform="translate(882.81 675)">h</text></g></svg>