<svg width="1280" height="720" xmlns="http://www.w3.org/2000/svg" xmlns:xlink="http://www.w3.org/1999/xlink" overflow="hidden"><defs><clipPath id="clip0"><rect x="0" y="0" width="1280" height="720"/></clipPath></defs><g clip-path="url(#clip0)"><rect x="0" y="0" width="1280" height="720" fill="#FFFFFF"/><rect x="111.5" y="133.5" width="907" height="378" stroke="#FFFFFF" stroke-width="1.33333" stroke-miterlimit="8" fill="#FFFFFF"/><rect x="186" y="247" width="152" height="75" fill="#49B170"/><text fill="#FFFFFF" font-family="Arial,Arial_MSFontService,sans-serif" font-weight="400" font-size="24" transform="translate(220.672 293)">LPDMA</text><path d="M338 282 479.198 282 479.198 286 338 286ZM477.198 278 489.198 284 477.198 290Z" fill="#03234B"/><text fill="#03234B" font-family="Arial,Arial_MSFontService,sans-serif" font-weight="400" font-size="24" transform="translate(347.204 274)">LPDMA_TC</text><rect x="489" y="247" width="151" height="75" fill="#3CB4E6"/><text fill="#FFFFFF" font-family="Arial,Arial_MSFontService,sans-serif" font-weight="400" font-size="24" transform="translate(520.401 293)">GPDMA</text><rect x="791" y="247" width="151" height="75" fill="#8C0078"/><text fill="#FFFFFF" font-family="Arial,Arial_MSFontService,sans-serif" font-weight="400" font-size="24" transform="translate(827.68 293)">UART1</text><rect x="489" y="398" width="151" height="38" fill="#FFD200"/><text fill="#FFFFFF" font-family="Arial,Arial_MSFontService,sans-serif" font-weight="400" font-size="24" transform="translate(520.401 425)">IRQ_TC</text><path d="M398 228C398 217.507 406.507 209 417 209 427.493 209 436 217.507 436 228 436 238.493 427.493 247 417 247 406.507 247 398 238.493 398 228Z" fill="#E6007E" fill-rule="evenodd"/><text fill="#FFFFFF" font-family="Arial,Arial_MSFontService,sans-serif" font-weight="400" font-size="24" transform="translate(410.316 236)">1</text></g></svg>